G04 #@! TF.GenerationSoftware,KiCad,Pcbnew,5.1.5+dfsg1-2build2*
G04 #@! TF.CreationDate,2021-09-29T22:56:56-05:00*
G04 #@! TF.ProjectId,PDP_Shield,5044505f-5368-4696-956c-642e6b696361,v01*
G04 #@! TF.SameCoordinates,Original*
G04 #@! TF.FileFunction,Legend,Top*
G04 #@! TF.FilePolarity,Positive*
%FSLAX46Y46*%
G04 Gerber Fmt 4.6, Leading zero omitted, Abs format (unit mm)*
G04 Created by KiCad (PCBNEW 5.1.5+dfsg1-2build2) date 2021-09-29 22:56:56*
%MOMM*%
%LPD*%
G04 APERTURE LIST*
%ADD10C,0.150000*%
%ADD11C,0.120000*%
%ADD12C,0.609600*%
%ADD13C,0.101600*%
%ADD14C,0.200000*%
%ADD15C,0.127000*%
%ADD16C,0.152400*%
%ADD17C,0.254000*%
G04 APERTURE END LIST*
D10*
X169751523Y-81319714D02*
X169989619Y-81986380D01*
X170227714Y-81319714D01*
X170799142Y-80986380D02*
X170894380Y-80986380D01*
X170989619Y-81034000D01*
X171037238Y-81081619D01*
X171084857Y-81176857D01*
X171132476Y-81367333D01*
X171132476Y-81605428D01*
X171084857Y-81795904D01*
X171037238Y-81891142D01*
X170989619Y-81938761D01*
X170894380Y-81986380D01*
X170799142Y-81986380D01*
X170703904Y-81938761D01*
X170656285Y-81891142D01*
X170608666Y-81795904D01*
X170561047Y-81605428D01*
X170561047Y-81367333D01*
X170608666Y-81176857D01*
X170656285Y-81081619D01*
X170703904Y-81034000D01*
X170799142Y-80986380D01*
X172084857Y-81986380D02*
X171513428Y-81986380D01*
X171799142Y-81986380D02*
X171799142Y-80986380D01*
X171703904Y-81129238D01*
X171608666Y-81224476D01*
X171513428Y-81272095D01*
X160639619Y-79954380D02*
X160639619Y-78954380D01*
X161020571Y-78954380D01*
X161115809Y-79002000D01*
X161163428Y-79049619D01*
X161211047Y-79144857D01*
X161211047Y-79287714D01*
X161163428Y-79382952D01*
X161115809Y-79430571D01*
X161020571Y-79478190D01*
X160639619Y-79478190D01*
X161639619Y-79954380D02*
X161639619Y-78954380D01*
X161877714Y-78954380D01*
X162020571Y-79002000D01*
X162115809Y-79097238D01*
X162163428Y-79192476D01*
X162211047Y-79382952D01*
X162211047Y-79525809D01*
X162163428Y-79716285D01*
X162115809Y-79811523D01*
X162020571Y-79906761D01*
X161877714Y-79954380D01*
X161639619Y-79954380D01*
X162639619Y-79954380D02*
X162639619Y-78954380D01*
X163020571Y-78954380D01*
X163115809Y-79002000D01*
X163163428Y-79049619D01*
X163211047Y-79144857D01*
X163211047Y-79287714D01*
X163163428Y-79382952D01*
X163115809Y-79430571D01*
X163020571Y-79478190D01*
X162639619Y-79478190D01*
X164353904Y-79906761D02*
X164496761Y-79954380D01*
X164734857Y-79954380D01*
X164830095Y-79906761D01*
X164877714Y-79859142D01*
X164925333Y-79763904D01*
X164925333Y-79668666D01*
X164877714Y-79573428D01*
X164830095Y-79525809D01*
X164734857Y-79478190D01*
X164544380Y-79430571D01*
X164449142Y-79382952D01*
X164401523Y-79335333D01*
X164353904Y-79240095D01*
X164353904Y-79144857D01*
X164401523Y-79049619D01*
X164449142Y-79002000D01*
X164544380Y-78954380D01*
X164782476Y-78954380D01*
X164925333Y-79002000D01*
X165353904Y-79954380D02*
X165353904Y-78954380D01*
X165782476Y-79954380D02*
X165782476Y-79430571D01*
X165734857Y-79335333D01*
X165639619Y-79287714D01*
X165496761Y-79287714D01*
X165401523Y-79335333D01*
X165353904Y-79382952D01*
X166258666Y-79954380D02*
X166258666Y-79287714D01*
X166258666Y-78954380D02*
X166211047Y-79002000D01*
X166258666Y-79049619D01*
X166306285Y-79002000D01*
X166258666Y-78954380D01*
X166258666Y-79049619D01*
X167115809Y-79906761D02*
X167020571Y-79954380D01*
X166830095Y-79954380D01*
X166734857Y-79906761D01*
X166687238Y-79811523D01*
X166687238Y-79430571D01*
X166734857Y-79335333D01*
X166830095Y-79287714D01*
X167020571Y-79287714D01*
X167115809Y-79335333D01*
X167163428Y-79430571D01*
X167163428Y-79525809D01*
X166687238Y-79621047D01*
X167734857Y-79954380D02*
X167639619Y-79906761D01*
X167592000Y-79811523D01*
X167592000Y-78954380D01*
X168544380Y-79954380D02*
X168544380Y-78954380D01*
X168544380Y-79906761D02*
X168449142Y-79954380D01*
X168258666Y-79954380D01*
X168163428Y-79906761D01*
X168115809Y-79859142D01*
X168068190Y-79763904D01*
X168068190Y-79478190D01*
X168115809Y-79382952D01*
X168163428Y-79335333D01*
X168258666Y-79287714D01*
X168449142Y-79287714D01*
X168544380Y-79335333D01*
X157687238Y-77573142D02*
X157639619Y-77620761D01*
X157496761Y-77668380D01*
X157401523Y-77668380D01*
X157258666Y-77620761D01*
X157163428Y-77525523D01*
X157115809Y-77430285D01*
X157068190Y-77239809D01*
X157068190Y-77096952D01*
X157115809Y-76906476D01*
X157163428Y-76811238D01*
X157258666Y-76716000D01*
X157401523Y-76668380D01*
X157496761Y-76668380D01*
X157639619Y-76716000D01*
X157687238Y-76763619D01*
X158258666Y-77668380D02*
X158163428Y-77620761D01*
X158115809Y-77573142D01*
X158068190Y-77477904D01*
X158068190Y-77192190D01*
X158115809Y-77096952D01*
X158163428Y-77049333D01*
X158258666Y-77001714D01*
X158401523Y-77001714D01*
X158496761Y-77049333D01*
X158544380Y-77096952D01*
X158592000Y-77192190D01*
X158592000Y-77477904D01*
X158544380Y-77573142D01*
X158496761Y-77620761D01*
X158401523Y-77668380D01*
X158258666Y-77668380D01*
X159163428Y-77668380D02*
X159068190Y-77620761D01*
X159020571Y-77525523D01*
X159020571Y-76668380D01*
X159972952Y-77668380D02*
X159972952Y-76668380D01*
X159972952Y-77620761D02*
X159877714Y-77668380D01*
X159687238Y-77668380D01*
X159592000Y-77620761D01*
X159544380Y-77573142D01*
X159496761Y-77477904D01*
X159496761Y-77192190D01*
X159544380Y-77096952D01*
X159592000Y-77049333D01*
X159687238Y-77001714D01*
X159877714Y-77001714D01*
X159972952Y-77049333D01*
X161115809Y-76668380D02*
X161353904Y-77668380D01*
X161544380Y-76954095D01*
X161734857Y-77668380D01*
X161972952Y-76668380D01*
X162782476Y-77668380D02*
X162782476Y-77144571D01*
X162734857Y-77049333D01*
X162639619Y-77001714D01*
X162449142Y-77001714D01*
X162353904Y-77049333D01*
X162782476Y-77620761D02*
X162687238Y-77668380D01*
X162449142Y-77668380D01*
X162353904Y-77620761D01*
X162306285Y-77525523D01*
X162306285Y-77430285D01*
X162353904Y-77335047D01*
X162449142Y-77287428D01*
X162687238Y-77287428D01*
X162782476Y-77239809D01*
X163258666Y-77668380D02*
X163258666Y-77001714D01*
X163258666Y-77192190D02*
X163306285Y-77096952D01*
X163353904Y-77049333D01*
X163449142Y-77001714D01*
X163544380Y-77001714D01*
X165211047Y-77573142D02*
X165163428Y-77620761D01*
X165020571Y-77668380D01*
X164925333Y-77668380D01*
X164782476Y-77620761D01*
X164687238Y-77525523D01*
X164639619Y-77430285D01*
X164592000Y-77239809D01*
X164592000Y-77096952D01*
X164639619Y-76906476D01*
X164687238Y-76811238D01*
X164782476Y-76716000D01*
X164925333Y-76668380D01*
X165020571Y-76668380D01*
X165163428Y-76716000D01*
X165211047Y-76763619D01*
X165782476Y-77668380D02*
X165687238Y-77620761D01*
X165639619Y-77573142D01*
X165592000Y-77477904D01*
X165592000Y-77192190D01*
X165639619Y-77096952D01*
X165687238Y-77049333D01*
X165782476Y-77001714D01*
X165925333Y-77001714D01*
X166020571Y-77049333D01*
X166068190Y-77096952D01*
X166115809Y-77192190D01*
X166115809Y-77477904D01*
X166068190Y-77573142D01*
X166020571Y-77620761D01*
X165925333Y-77668380D01*
X165782476Y-77668380D01*
X166544380Y-77668380D02*
X166544380Y-77001714D01*
X166544380Y-77096952D02*
X166592000Y-77049333D01*
X166687238Y-77001714D01*
X166830095Y-77001714D01*
X166925333Y-77049333D01*
X166972952Y-77144571D01*
X166972952Y-77668380D01*
X166972952Y-77144571D02*
X167020571Y-77049333D01*
X167115809Y-77001714D01*
X167258666Y-77001714D01*
X167353904Y-77049333D01*
X167401523Y-77144571D01*
X167401523Y-77668380D01*
X167877714Y-77001714D02*
X167877714Y-78001714D01*
X167877714Y-77049333D02*
X167972952Y-77001714D01*
X168163428Y-77001714D01*
X168258666Y-77049333D01*
X168306285Y-77096952D01*
X168353904Y-77192190D01*
X168353904Y-77477904D01*
X168306285Y-77573142D01*
X168258666Y-77620761D01*
X168163428Y-77668380D01*
X167972952Y-77668380D01*
X167877714Y-77620761D01*
X169211047Y-77001714D02*
X169211047Y-77668380D01*
X168782476Y-77001714D02*
X168782476Y-77525523D01*
X168830095Y-77620761D01*
X168925333Y-77668380D01*
X169068190Y-77668380D01*
X169163428Y-77620761D01*
X169211047Y-77573142D01*
X169544380Y-77001714D02*
X169925333Y-77001714D01*
X169687238Y-76668380D02*
X169687238Y-77525523D01*
X169734857Y-77620761D01*
X169830095Y-77668380D01*
X169925333Y-77668380D01*
X170258666Y-77668380D02*
X170258666Y-77001714D01*
X170258666Y-76668380D02*
X170211047Y-76716000D01*
X170258666Y-76763619D01*
X170306285Y-76716000D01*
X170258666Y-76668380D01*
X170258666Y-76763619D01*
X170734857Y-77001714D02*
X170734857Y-77668380D01*
X170734857Y-77096952D02*
X170782476Y-77049333D01*
X170877714Y-77001714D01*
X171020571Y-77001714D01*
X171115809Y-77049333D01*
X171163428Y-77144571D01*
X171163428Y-77668380D01*
X172068190Y-77001714D02*
X172068190Y-77811238D01*
X172020571Y-77906476D01*
X171972952Y-77954095D01*
X171877714Y-78001714D01*
X171734857Y-78001714D01*
X171639619Y-77954095D01*
X172068190Y-77620761D02*
X171972952Y-77668380D01*
X171782476Y-77668380D01*
X171687238Y-77620761D01*
X171639619Y-77573142D01*
X171592000Y-77477904D01*
X171592000Y-77192190D01*
X171639619Y-77096952D01*
X171687238Y-77049333D01*
X171782476Y-77001714D01*
X171972952Y-77001714D01*
X172068190Y-77049333D01*
D11*
X103229210Y-119126000D02*
G75*
G03X103229210Y-119126000I-359210J0D01*
G01*
D12*
X178818540Y-126746000D02*
G75*
G03X178818540Y-126746000I-2288540J0D01*
G01*
X178818540Y-126746000D02*
G75*
G03X178818540Y-126746000I-2288540J0D01*
G01*
X178818540Y-70866000D02*
G75*
G03X178818540Y-70866000I-2288540J0D01*
G01*
X178818540Y-70866000D02*
G75*
G03X178818540Y-70866000I-2288540J0D01*
G01*
X107698540Y-126746000D02*
G75*
G03X107698540Y-126746000I-2288540J0D01*
G01*
X107698540Y-126746000D02*
G75*
G03X107698540Y-126746000I-2288540J0D01*
G01*
X107698540Y-70866000D02*
G75*
G03X107698540Y-70866000I-2288540J0D01*
G01*
X107698540Y-70866000D02*
G75*
G03X107698540Y-70866000I-2288540J0D01*
G01*
D11*
X161630720Y-113510320D02*
X161630720Y-85110321D01*
X161630720Y-85110321D02*
X113710720Y-85110320D01*
X113710720Y-85110320D02*
X113710720Y-113510319D01*
X113710720Y-113510319D02*
X161630720Y-113510320D01*
X113690400Y-108280200D02*
X107797600Y-108280200D01*
X107797600Y-108280200D02*
X107797600Y-90297000D01*
X107797600Y-90297000D02*
X113690400Y-90297000D01*
D13*
X107950000Y-103632000D02*
G75*
G03X107950000Y-103632000I-254000J0D01*
G01*
D11*
X103910000Y-102362000D02*
X106910000Y-102362000D01*
X106910000Y-105132000D02*
X103910000Y-105132000D01*
X106910000Y-91972000D02*
X106910000Y-105132000D01*
X103910000Y-91972000D02*
X106910000Y-91972000D01*
X103910000Y-105132000D02*
X103910000Y-91972000D01*
D13*
X163576000Y-89662000D02*
G75*
G03X163576000Y-89662000I-254000J0D01*
G01*
D11*
X167362000Y-90932000D02*
X164362000Y-90932000D01*
X164362000Y-88162000D02*
X167362000Y-88162000D01*
X164362000Y-111482000D02*
X164362000Y-88162000D01*
X167362000Y-111482000D02*
X164362000Y-111482000D01*
X167362000Y-88162000D02*
X167362000Y-111482000D01*
D14*
X103059000Y-117775000D02*
X103059000Y-116250000D01*
X108114000Y-115900000D02*
X103214000Y-115900000D01*
X108114000Y-112700000D02*
X108114000Y-115900000D01*
X103214000Y-112700000D02*
X108114000Y-112700000D01*
X103214000Y-115900000D02*
X103214000Y-112700000D01*
D15*
X140723257Y-77172457D02*
X140810342Y-77201485D01*
X140839371Y-77230514D01*
X140868400Y-77288571D01*
X140868400Y-77375657D01*
X140839371Y-77433714D01*
X140810342Y-77462742D01*
X140752285Y-77491771D01*
X140520057Y-77491771D01*
X140520057Y-76882171D01*
X140723257Y-76882171D01*
X140781314Y-76911200D01*
X140810342Y-76940228D01*
X140839371Y-76998285D01*
X140839371Y-77056342D01*
X140810342Y-77114400D01*
X140781314Y-77143428D01*
X140723257Y-77172457D01*
X140520057Y-77172457D01*
X141448971Y-77491771D02*
X141100628Y-77491771D01*
X141274800Y-77491771D02*
X141274800Y-76882171D01*
X141216742Y-76969257D01*
X141158685Y-77027314D01*
X141100628Y-77056342D01*
D16*
X110073923Y-121678700D02*
X109996514Y-121639995D01*
X109880400Y-121639995D01*
X109764285Y-121678700D01*
X109686876Y-121756109D01*
X109648171Y-121833519D01*
X109609466Y-121988338D01*
X109609466Y-122104452D01*
X109648171Y-122259271D01*
X109686876Y-122336680D01*
X109764285Y-122414090D01*
X109880400Y-122452795D01*
X109957809Y-122452795D01*
X110073923Y-122414090D01*
X110112628Y-122375385D01*
X110112628Y-122104452D01*
X109957809Y-122104452D01*
X110460971Y-122452795D02*
X110460971Y-121639995D01*
X110925428Y-122452795D01*
X110925428Y-121639995D01*
X111312476Y-122452795D02*
X111312476Y-121639995D01*
X111506000Y-121639995D01*
X111622114Y-121678700D01*
X111699523Y-121756109D01*
X111738228Y-121833519D01*
X111776933Y-121988338D01*
X111776933Y-122104452D01*
X111738228Y-122259271D01*
X111699523Y-122336680D01*
X111622114Y-122414090D01*
X111506000Y-122452795D01*
X111312476Y-122452795D01*
X103345826Y-80033101D02*
X103345826Y-79646054D01*
X103578055Y-80110511D02*
X102765255Y-79839578D01*
X103578055Y-79568644D01*
X103578055Y-78833254D02*
X103191007Y-79104187D01*
X103578055Y-79297711D02*
X102765255Y-79297711D01*
X102765255Y-78988073D01*
X102803960Y-78910663D01*
X102842664Y-78871959D01*
X102920074Y-78833254D01*
X103036188Y-78833254D01*
X103113598Y-78871959D01*
X103152302Y-78910663D01*
X103191007Y-78988073D01*
X103191007Y-79297711D01*
X103152302Y-78484911D02*
X103152302Y-78213978D01*
X103578055Y-78097863D02*
X103578055Y-78484911D01*
X102765255Y-78484911D01*
X102765255Y-78097863D01*
X103152302Y-77478587D02*
X103152302Y-77749520D01*
X103578055Y-77749520D02*
X102765255Y-77749520D01*
X102765255Y-77362473D01*
X109766100Y-79305936D02*
X109727395Y-79383345D01*
X109727395Y-79499460D01*
X109766100Y-79615574D01*
X109843509Y-79692983D01*
X109920919Y-79731688D01*
X110075738Y-79770393D01*
X110191852Y-79770393D01*
X110346671Y-79731688D01*
X110424080Y-79692983D01*
X110501490Y-79615574D01*
X110540195Y-79499460D01*
X110540195Y-79422050D01*
X110501490Y-79305936D01*
X110462785Y-79267231D01*
X110191852Y-79267231D01*
X110191852Y-79422050D01*
X110540195Y-78918888D02*
X109727395Y-78918888D01*
X110540195Y-78454431D01*
X109727395Y-78454431D01*
X110540195Y-78067383D02*
X109727395Y-78067383D01*
X109727395Y-77873860D01*
X109766100Y-77757745D01*
X109843509Y-77680336D01*
X109920919Y-77641631D01*
X110075738Y-77602926D01*
X110191852Y-77602926D01*
X110346671Y-77641631D01*
X110424080Y-77680336D01*
X110501490Y-77757745D01*
X110540195Y-77873860D01*
X110540195Y-78067383D01*
X110307966Y-81825011D02*
X110307966Y-81437963D01*
X110540195Y-81902420D02*
X109727395Y-81631487D01*
X110540195Y-81360554D01*
X110075738Y-80973506D02*
X110037033Y-81050916D01*
X109998328Y-81089620D01*
X109920919Y-81128325D01*
X109882214Y-81128325D01*
X109804804Y-81089620D01*
X109766100Y-81050916D01*
X109727395Y-80973506D01*
X109727395Y-80818687D01*
X109766100Y-80741278D01*
X109804804Y-80702573D01*
X109882214Y-80663868D01*
X109920919Y-80663868D01*
X109998328Y-80702573D01*
X110037033Y-80741278D01*
X110075738Y-80818687D01*
X110075738Y-80973506D01*
X110114442Y-81050916D01*
X110153147Y-81089620D01*
X110230557Y-81128325D01*
X110385376Y-81128325D01*
X110462785Y-81089620D01*
X110501490Y-81050916D01*
X110540195Y-80973506D01*
X110540195Y-80818687D01*
X110501490Y-80741278D01*
X110462785Y-80702573D01*
X110385376Y-80663868D01*
X110230557Y-80663868D01*
X110153147Y-80702573D01*
X110114442Y-80741278D01*
X110075738Y-80818687D01*
X103345826Y-84286271D02*
X103345826Y-83899223D01*
X103578055Y-84363680D02*
X102765255Y-84092747D01*
X103578055Y-83821814D01*
X102765255Y-83628290D02*
X102765255Y-83086423D01*
X103578055Y-83434766D01*
X110307966Y-84286271D02*
X110307966Y-83899223D01*
X110540195Y-84363680D02*
X109727395Y-84092747D01*
X110540195Y-83821814D01*
X109727395Y-83202538D02*
X109727395Y-83357357D01*
X109766100Y-83434766D01*
X109804804Y-83473471D01*
X109920919Y-83550880D01*
X110075738Y-83589585D01*
X110385376Y-83589585D01*
X110462785Y-83550880D01*
X110501490Y-83512176D01*
X110540195Y-83434766D01*
X110540195Y-83279947D01*
X110501490Y-83202538D01*
X110462785Y-83163833D01*
X110385376Y-83125128D01*
X110191852Y-83125128D01*
X110114442Y-83163833D01*
X110075738Y-83202538D01*
X110037033Y-83279947D01*
X110037033Y-83434766D01*
X110075738Y-83512176D01*
X110114442Y-83550880D01*
X110191852Y-83589585D01*
X103345826Y-86744991D02*
X103345826Y-86357943D01*
X103578055Y-86822400D02*
X102765255Y-86551467D01*
X103578055Y-86280534D01*
X102765255Y-85622553D02*
X102765255Y-86009600D01*
X103152302Y-86048305D01*
X103113598Y-86009600D01*
X103074893Y-85932191D01*
X103074893Y-85738667D01*
X103113598Y-85661258D01*
X103152302Y-85622553D01*
X103229712Y-85583848D01*
X103423236Y-85583848D01*
X103500645Y-85622553D01*
X103539350Y-85661258D01*
X103578055Y-85738667D01*
X103578055Y-85932191D01*
X103539350Y-86009600D01*
X103500645Y-86048305D01*
X110307966Y-86744991D02*
X110307966Y-86357943D01*
X110540195Y-86822400D02*
X109727395Y-86551467D01*
X110540195Y-86280534D01*
X109998328Y-85661258D02*
X110540195Y-85661258D01*
X109688690Y-85854781D02*
X110269261Y-86048305D01*
X110269261Y-85545143D01*
X103345826Y-89455171D02*
X103345826Y-89068123D01*
X103578055Y-89532580D02*
X102765255Y-89261647D01*
X103578055Y-88990714D01*
X103578055Y-88294028D02*
X103578055Y-88758485D01*
X103578055Y-88526257D02*
X102765255Y-88526257D01*
X102881369Y-88603666D01*
X102958779Y-88681076D01*
X102997483Y-88758485D01*
X103345826Y-81825011D02*
X103345826Y-81437963D01*
X103578055Y-81902420D02*
X102765255Y-81631487D01*
X103578055Y-81360554D01*
X103578055Y-81050916D02*
X103578055Y-80896097D01*
X103539350Y-80818687D01*
X103500645Y-80779982D01*
X103384531Y-80702573D01*
X103229712Y-80663868D01*
X102920074Y-80663868D01*
X102842664Y-80702573D01*
X102803960Y-80741278D01*
X102765255Y-80818687D01*
X102765255Y-80973506D01*
X102803960Y-81050916D01*
X102842664Y-81089620D01*
X102920074Y-81128325D01*
X103113598Y-81128325D01*
X103191007Y-81089620D01*
X103229712Y-81050916D01*
X103268417Y-80973506D01*
X103268417Y-80818687D01*
X103229712Y-80741278D01*
X103191007Y-80702573D01*
X103113598Y-80663868D01*
X110307966Y-89455171D02*
X110307966Y-89068123D01*
X110540195Y-89532580D02*
X109727395Y-89261647D01*
X110540195Y-88990714D01*
X109727395Y-88564961D02*
X109727395Y-88487552D01*
X109766100Y-88410142D01*
X109804804Y-88371438D01*
X109882214Y-88332733D01*
X110037033Y-88294028D01*
X110230557Y-88294028D01*
X110385376Y-88332733D01*
X110462785Y-88371438D01*
X110501490Y-88410142D01*
X110540195Y-88487552D01*
X110540195Y-88564961D01*
X110501490Y-88642371D01*
X110462785Y-88681076D01*
X110385376Y-88719780D01*
X110230557Y-88758485D01*
X110037033Y-88758485D01*
X109882214Y-88719780D01*
X109804804Y-88681076D01*
X109766100Y-88642371D01*
X109727395Y-88564961D01*
X114379223Y-129247295D02*
X114379223Y-128434495D01*
X114572747Y-128434495D01*
X114688861Y-128473200D01*
X114766271Y-128550609D01*
X114804976Y-128628019D01*
X114843680Y-128782838D01*
X114843680Y-128898952D01*
X114804976Y-129053771D01*
X114766271Y-129131180D01*
X114688861Y-129208590D01*
X114572747Y-129247295D01*
X114379223Y-129247295D01*
X115346842Y-128434495D02*
X115501661Y-128434495D01*
X115579071Y-128473200D01*
X115656480Y-128550609D01*
X115695185Y-128705428D01*
X115695185Y-128976361D01*
X115656480Y-129131180D01*
X115579071Y-129208590D01*
X115501661Y-129247295D01*
X115346842Y-129247295D01*
X115269433Y-129208590D01*
X115192023Y-129131180D01*
X115153319Y-128976361D01*
X115153319Y-128705428D01*
X115192023Y-128550609D01*
X115269433Y-128473200D01*
X115346842Y-128434495D01*
X116043528Y-129247295D02*
X116043528Y-128434495D01*
X116507985Y-129247295D01*
X116507985Y-128434495D01*
X116895033Y-128821542D02*
X117165966Y-128821542D01*
X117282080Y-129247295D02*
X116895033Y-129247295D01*
X116895033Y-128434495D01*
X117282080Y-128434495D01*
X114735791Y-122414090D02*
X114851905Y-122452795D01*
X115045429Y-122452795D01*
X115122839Y-122414090D01*
X115161543Y-122375385D01*
X115200248Y-122297976D01*
X115200248Y-122220566D01*
X115161543Y-122143157D01*
X115122839Y-122104452D01*
X115045429Y-122065747D01*
X114890610Y-122027042D01*
X114813200Y-121988338D01*
X114774496Y-121949633D01*
X114735791Y-121872223D01*
X114735791Y-121794814D01*
X114774496Y-121717404D01*
X114813200Y-121678700D01*
X114890610Y-121639995D01*
X115084134Y-121639995D01*
X115200248Y-121678700D01*
X115548591Y-121639995D02*
X115548591Y-122297976D01*
X115587296Y-122375385D01*
X115626000Y-122414090D01*
X115703410Y-122452795D01*
X115858229Y-122452795D01*
X115935639Y-122414090D01*
X115974343Y-122375385D01*
X116013048Y-122297976D01*
X116013048Y-121639995D01*
X116361391Y-122414090D02*
X116477505Y-122452795D01*
X116671029Y-122452795D01*
X116748439Y-122414090D01*
X116787143Y-122375385D01*
X116825848Y-122297976D01*
X116825848Y-122220566D01*
X116787143Y-122143157D01*
X116748439Y-122104452D01*
X116671029Y-122065747D01*
X116516210Y-122027042D01*
X116438800Y-121988338D01*
X116400096Y-121949633D01*
X116361391Y-121872223D01*
X116361391Y-121794814D01*
X116400096Y-121717404D01*
X116438800Y-121678700D01*
X116516210Y-121639995D01*
X116709734Y-121639995D01*
X116825848Y-121678700D01*
X168096111Y-128434495D02*
X168560568Y-128434495D01*
X168328340Y-129247295D02*
X168328340Y-128434495D01*
X169295959Y-129169885D02*
X169257254Y-129208590D01*
X169141140Y-129247295D01*
X169063730Y-129247295D01*
X168947616Y-129208590D01*
X168870206Y-129131180D01*
X168831501Y-129053771D01*
X168792797Y-128898952D01*
X168792797Y-128782838D01*
X168831501Y-128628019D01*
X168870206Y-128550609D01*
X168947616Y-128473200D01*
X169063730Y-128434495D01*
X169141140Y-128434495D01*
X169257254Y-128473200D01*
X169295959Y-128511904D01*
X169644301Y-129247295D02*
X169644301Y-128434495D01*
X170108759Y-129247295D02*
X169760416Y-128782838D01*
X170108759Y-128434495D02*
X169644301Y-128898952D01*
X168308987Y-121639995D02*
X168773444Y-121639995D01*
X168541216Y-122452795D02*
X168541216Y-121639995D01*
X169044378Y-122452795D02*
X169044378Y-121639995D01*
X169237901Y-121639995D01*
X169354016Y-121678700D01*
X169431425Y-121756109D01*
X169470130Y-121833519D01*
X169508835Y-121988338D01*
X169508835Y-122104452D01*
X169470130Y-122259271D01*
X169431425Y-122336680D01*
X169354016Y-122414090D01*
X169237901Y-122452795D01*
X169044378Y-122452795D01*
X169857178Y-122452795D02*
X169857178Y-121639995D01*
X171061863Y-128473200D02*
X170984454Y-128434495D01*
X170868340Y-128434495D01*
X170752225Y-128473200D01*
X170674816Y-128550609D01*
X170636111Y-128628019D01*
X170597406Y-128782838D01*
X170597406Y-128898952D01*
X170636111Y-129053771D01*
X170674816Y-129131180D01*
X170752225Y-129208590D01*
X170868340Y-129247295D01*
X170945749Y-129247295D01*
X171061863Y-129208590D01*
X171100568Y-129169885D01*
X171100568Y-128898952D01*
X170945749Y-128898952D01*
X171448911Y-129247295D02*
X171448911Y-128434495D01*
X171913368Y-129247295D01*
X171913368Y-128434495D01*
X172300416Y-129247295D02*
X172300416Y-128434495D01*
X172493940Y-128434495D01*
X172610054Y-128473200D01*
X172687463Y-128550609D01*
X172726168Y-128628019D01*
X172764873Y-128782838D01*
X172764873Y-128898952D01*
X172726168Y-129053771D01*
X172687463Y-129131180D01*
X172610054Y-129208590D01*
X172493940Y-129247295D01*
X172300416Y-129247295D01*
X171236035Y-122452795D02*
X170965101Y-122065747D01*
X170771578Y-122452795D02*
X170771578Y-121639995D01*
X171081216Y-121639995D01*
X171158625Y-121678700D01*
X171197330Y-121717404D01*
X171236035Y-121794814D01*
X171236035Y-121910928D01*
X171197330Y-121988338D01*
X171158625Y-122027042D01*
X171081216Y-122065747D01*
X170771578Y-122065747D01*
X171545673Y-122414090D02*
X171661787Y-122452795D01*
X171855311Y-122452795D01*
X171932720Y-122414090D01*
X171971425Y-122375385D01*
X172010130Y-122297976D01*
X172010130Y-122220566D01*
X171971425Y-122143157D01*
X171932720Y-122104452D01*
X171855311Y-122065747D01*
X171700492Y-122027042D01*
X171623082Y-121988338D01*
X171584378Y-121949633D01*
X171545673Y-121872223D01*
X171545673Y-121794814D01*
X171584378Y-121717404D01*
X171623082Y-121678700D01*
X171700492Y-121639995D01*
X171894016Y-121639995D01*
X172010130Y-121678700D01*
X172242359Y-121639995D02*
X172706816Y-121639995D01*
X172474587Y-122452795D02*
X172474587Y-121639995D01*
X165536759Y-128434495D02*
X166001216Y-128434495D01*
X165768987Y-129247295D02*
X165768987Y-128434495D01*
X166272149Y-129247295D02*
X166272149Y-128434495D01*
X166465673Y-128434495D01*
X166581787Y-128473200D01*
X166659197Y-128550609D01*
X166697901Y-128628019D01*
X166736606Y-128782838D01*
X166736606Y-128898952D01*
X166697901Y-129053771D01*
X166659197Y-129131180D01*
X166581787Y-129208590D01*
X166465673Y-129247295D01*
X166272149Y-129247295D01*
X167239768Y-128434495D02*
X167394587Y-128434495D01*
X167471997Y-128473200D01*
X167549406Y-128550609D01*
X167588111Y-128705428D01*
X167588111Y-128976361D01*
X167549406Y-129131180D01*
X167471997Y-129208590D01*
X167394587Y-129247295D01*
X167239768Y-129247295D01*
X167162359Y-129208590D01*
X167084949Y-129131180D01*
X167046244Y-128976361D01*
X167046244Y-128705428D01*
X167084949Y-128550609D01*
X167162359Y-128473200D01*
X167239768Y-128434495D01*
X165517406Y-121639995D02*
X165981863Y-121639995D01*
X165749635Y-122452795D02*
X165749635Y-121639995D01*
X166252797Y-122452795D02*
X166252797Y-121639995D01*
X166523730Y-122220566D01*
X166794663Y-121639995D01*
X166794663Y-122452795D01*
X167143006Y-122414090D02*
X167259120Y-122452795D01*
X167452644Y-122452795D01*
X167530054Y-122414090D01*
X167568759Y-122375385D01*
X167607463Y-122297976D01*
X167607463Y-122220566D01*
X167568759Y-122143157D01*
X167530054Y-122104452D01*
X167452644Y-122065747D01*
X167297825Y-122027042D01*
X167220416Y-121988338D01*
X167181711Y-121949633D01*
X167143006Y-121872223D01*
X167143006Y-121794814D01*
X167181711Y-121717404D01*
X167220416Y-121678700D01*
X167297825Y-121639995D01*
X167491349Y-121639995D01*
X167607463Y-121678700D01*
X110129440Y-129247295D02*
X109858507Y-128860247D01*
X109664983Y-129247295D02*
X109664983Y-128434495D01*
X109974621Y-128434495D01*
X110052031Y-128473200D01*
X110090736Y-128511904D01*
X110129440Y-128589314D01*
X110129440Y-128705428D01*
X110090736Y-128782838D01*
X110052031Y-128821542D01*
X109974621Y-128860247D01*
X109664983Y-128860247D01*
X110439079Y-129015066D02*
X110826126Y-129015066D01*
X110361669Y-129247295D02*
X110632602Y-128434495D01*
X110903536Y-129247295D01*
X111097060Y-128434495D02*
X111290583Y-129247295D01*
X111445402Y-128666723D01*
X111600221Y-129247295D01*
X111793745Y-128434495D01*
X160910693Y-129247295D02*
X160446236Y-129247295D01*
X160678464Y-129247295D02*
X160678464Y-128434495D01*
X160601055Y-128550609D01*
X160523645Y-128628019D01*
X160446236Y-128666723D01*
X161684788Y-129247295D02*
X161220331Y-129247295D01*
X161452560Y-129247295D02*
X161452560Y-128434495D01*
X161375150Y-128550609D01*
X161297740Y-128628019D01*
X161220331Y-128666723D01*
X162149245Y-128782838D02*
X162071836Y-128744133D01*
X162033131Y-128705428D01*
X161994426Y-128628019D01*
X161994426Y-128589314D01*
X162033131Y-128511904D01*
X162071836Y-128473200D01*
X162149245Y-128434495D01*
X162304064Y-128434495D01*
X162381474Y-128473200D01*
X162420179Y-128511904D01*
X162458883Y-128589314D01*
X162458883Y-128628019D01*
X162420179Y-128705428D01*
X162381474Y-128744133D01*
X162304064Y-128782838D01*
X162149245Y-128782838D01*
X162071836Y-128821542D01*
X162033131Y-128860247D01*
X161994426Y-128937657D01*
X161994426Y-129092476D01*
X162033131Y-129169885D01*
X162071836Y-129208590D01*
X162149245Y-129247295D01*
X162304064Y-129247295D01*
X162381474Y-129208590D01*
X162420179Y-129169885D01*
X162458883Y-129092476D01*
X162458883Y-128937657D01*
X162420179Y-128860247D01*
X162381474Y-128821542D01*
X162304064Y-128782838D01*
X160910693Y-122452795D02*
X160446236Y-122452795D01*
X160678464Y-122452795D02*
X160678464Y-121639995D01*
X160601055Y-121756109D01*
X160523645Y-121833519D01*
X160446236Y-121872223D01*
X161684788Y-122452795D02*
X161220331Y-122452795D01*
X161452560Y-122452795D02*
X161452560Y-121639995D01*
X161375150Y-121756109D01*
X161297740Y-121833519D01*
X161220331Y-121872223D01*
X162071836Y-122452795D02*
X162226655Y-122452795D01*
X162304064Y-122414090D01*
X162342769Y-122375385D01*
X162420179Y-122259271D01*
X162458883Y-122104452D01*
X162458883Y-121794814D01*
X162420179Y-121717404D01*
X162381474Y-121678700D01*
X162304064Y-121639995D01*
X162149245Y-121639995D01*
X162071836Y-121678700D01*
X162033131Y-121717404D01*
X161994426Y-121794814D01*
X161994426Y-121988338D01*
X162033131Y-122065747D01*
X162071836Y-122104452D01*
X162149245Y-122143157D01*
X162304064Y-122143157D01*
X162381474Y-122104452D01*
X162420179Y-122065747D01*
X162458883Y-121988338D01*
X163450693Y-129247295D02*
X162986236Y-129247295D01*
X163218464Y-129247295D02*
X163218464Y-128434495D01*
X163141055Y-128550609D01*
X163063645Y-128628019D01*
X162986236Y-128666723D01*
X163760331Y-128511904D02*
X163799036Y-128473200D01*
X163876445Y-128434495D01*
X164069969Y-128434495D01*
X164147379Y-128473200D01*
X164186083Y-128511904D01*
X164224788Y-128589314D01*
X164224788Y-128666723D01*
X164186083Y-128782838D01*
X163721626Y-129247295D01*
X164224788Y-129247295D01*
X164727950Y-128434495D02*
X164805360Y-128434495D01*
X164882769Y-128473200D01*
X164921474Y-128511904D01*
X164960179Y-128589314D01*
X164998883Y-128744133D01*
X164998883Y-128937657D01*
X164960179Y-129092476D01*
X164921474Y-129169885D01*
X164882769Y-129208590D01*
X164805360Y-129247295D01*
X164727950Y-129247295D01*
X164650540Y-129208590D01*
X164611836Y-129169885D01*
X164573131Y-129092476D01*
X164534426Y-128937657D01*
X164534426Y-128744133D01*
X164573131Y-128589314D01*
X164611836Y-128511904D01*
X164650540Y-128473200D01*
X164727950Y-128434495D01*
X163450693Y-122452795D02*
X162986236Y-122452795D01*
X163218464Y-122452795D02*
X163218464Y-121639995D01*
X163141055Y-121756109D01*
X163063645Y-121833519D01*
X162986236Y-121872223D01*
X163760331Y-121717404D02*
X163799036Y-121678700D01*
X163876445Y-121639995D01*
X164069969Y-121639995D01*
X164147379Y-121678700D01*
X164186083Y-121717404D01*
X164224788Y-121794814D01*
X164224788Y-121872223D01*
X164186083Y-121988338D01*
X163721626Y-122452795D01*
X164224788Y-122452795D01*
X164998883Y-122452795D02*
X164534426Y-122452795D01*
X164766655Y-122452795D02*
X164766655Y-121639995D01*
X164689245Y-121756109D01*
X164611836Y-121833519D01*
X164534426Y-121872223D01*
X158370693Y-129247295D02*
X157906236Y-129247295D01*
X158138464Y-129247295D02*
X158138464Y-128434495D01*
X158061055Y-128550609D01*
X157983645Y-128628019D01*
X157906236Y-128666723D01*
X159144788Y-129247295D02*
X158680331Y-129247295D01*
X158912560Y-129247295D02*
X158912560Y-128434495D01*
X158835150Y-128550609D01*
X158757740Y-128628019D01*
X158680331Y-128666723D01*
X159841474Y-128434495D02*
X159686655Y-128434495D01*
X159609245Y-128473200D01*
X159570540Y-128511904D01*
X159493131Y-128628019D01*
X159454426Y-128782838D01*
X159454426Y-129092476D01*
X159493131Y-129169885D01*
X159531836Y-129208590D01*
X159609245Y-129247295D01*
X159764064Y-129247295D01*
X159841474Y-129208590D01*
X159880179Y-129169885D01*
X159918883Y-129092476D01*
X159918883Y-128898952D01*
X159880179Y-128821542D01*
X159841474Y-128782838D01*
X159764064Y-128744133D01*
X159609245Y-128744133D01*
X159531836Y-128782838D01*
X159493131Y-128821542D01*
X159454426Y-128898952D01*
X158370693Y-122452795D02*
X157906236Y-122452795D01*
X158138464Y-122452795D02*
X158138464Y-121639995D01*
X158061055Y-121756109D01*
X157983645Y-121833519D01*
X157906236Y-121872223D01*
X159144788Y-122452795D02*
X158680331Y-122452795D01*
X158912560Y-122452795D02*
X158912560Y-121639995D01*
X158835150Y-121756109D01*
X158757740Y-121833519D01*
X158680331Y-121872223D01*
X159415721Y-121639995D02*
X159957588Y-121639995D01*
X159609245Y-122452795D01*
X155830693Y-129247295D02*
X155366236Y-129247295D01*
X155598464Y-129247295D02*
X155598464Y-128434495D01*
X155521055Y-128550609D01*
X155443645Y-128628019D01*
X155366236Y-128666723D01*
X156604788Y-129247295D02*
X156140331Y-129247295D01*
X156372560Y-129247295D02*
X156372560Y-128434495D01*
X156295150Y-128550609D01*
X156217740Y-128628019D01*
X156140331Y-128666723D01*
X157301474Y-128705428D02*
X157301474Y-129247295D01*
X157107950Y-128395790D02*
X156914426Y-128976361D01*
X157417588Y-128976361D01*
X155830693Y-122452795D02*
X155366236Y-122452795D01*
X155598464Y-122452795D02*
X155598464Y-121639995D01*
X155521055Y-121756109D01*
X155443645Y-121833519D01*
X155366236Y-121872223D01*
X156604788Y-122452795D02*
X156140331Y-122452795D01*
X156372560Y-122452795D02*
X156372560Y-121639995D01*
X156295150Y-121756109D01*
X156217740Y-121833519D01*
X156140331Y-121872223D01*
X157340179Y-121639995D02*
X156953131Y-121639995D01*
X156914426Y-122027042D01*
X156953131Y-121988338D01*
X157030540Y-121949633D01*
X157224064Y-121949633D01*
X157301474Y-121988338D01*
X157340179Y-122027042D01*
X157378883Y-122104452D01*
X157378883Y-122297976D01*
X157340179Y-122375385D01*
X157301474Y-122414090D01*
X157224064Y-122452795D01*
X157030540Y-122452795D01*
X156953131Y-122414090D01*
X156914426Y-122375385D01*
X153290693Y-129247295D02*
X152826236Y-129247295D01*
X153058464Y-129247295D02*
X153058464Y-128434495D01*
X152981055Y-128550609D01*
X152903645Y-128628019D01*
X152826236Y-128666723D01*
X154064788Y-129247295D02*
X153600331Y-129247295D01*
X153832560Y-129247295D02*
X153832560Y-128434495D01*
X153755150Y-128550609D01*
X153677740Y-128628019D01*
X153600331Y-128666723D01*
X154838883Y-129247295D02*
X154374426Y-129247295D01*
X154606655Y-129247295D02*
X154606655Y-128434495D01*
X154529245Y-128550609D01*
X154451836Y-128628019D01*
X154374426Y-128666723D01*
X153290693Y-122452795D02*
X152826236Y-122452795D01*
X153058464Y-122452795D02*
X153058464Y-121639995D01*
X152981055Y-121756109D01*
X152903645Y-121833519D01*
X152826236Y-121872223D01*
X154064788Y-122452795D02*
X153600331Y-122452795D01*
X153832560Y-122452795D02*
X153832560Y-121639995D01*
X153755150Y-121756109D01*
X153677740Y-121833519D01*
X153600331Y-121872223D01*
X154374426Y-121717404D02*
X154413131Y-121678700D01*
X154490540Y-121639995D01*
X154684064Y-121639995D01*
X154761474Y-121678700D01*
X154800179Y-121717404D01*
X154838883Y-121794814D01*
X154838883Y-121872223D01*
X154800179Y-121988338D01*
X154335721Y-122452795D01*
X154838883Y-122452795D01*
X150750693Y-129247295D02*
X150286236Y-129247295D01*
X150518464Y-129247295D02*
X150518464Y-128434495D01*
X150441055Y-128550609D01*
X150363645Y-128628019D01*
X150286236Y-128666723D01*
X151253855Y-128434495D02*
X151331264Y-128434495D01*
X151408674Y-128473200D01*
X151447379Y-128511904D01*
X151486083Y-128589314D01*
X151524788Y-128744133D01*
X151524788Y-128937657D01*
X151486083Y-129092476D01*
X151447379Y-129169885D01*
X151408674Y-129208590D01*
X151331264Y-129247295D01*
X151253855Y-129247295D01*
X151176445Y-129208590D01*
X151137740Y-129169885D01*
X151099036Y-129092476D01*
X151060331Y-128937657D01*
X151060331Y-128744133D01*
X151099036Y-128589314D01*
X151137740Y-128511904D01*
X151176445Y-128473200D01*
X151253855Y-128434495D01*
X152221474Y-128705428D02*
X152221474Y-129247295D01*
X152027950Y-128395790D02*
X151834426Y-128976361D01*
X152337588Y-128976361D01*
X150750693Y-122452795D02*
X150286236Y-122452795D01*
X150518464Y-122452795D02*
X150518464Y-121639995D01*
X150441055Y-121756109D01*
X150363645Y-121833519D01*
X150286236Y-121872223D01*
X151253855Y-121639995D02*
X151331264Y-121639995D01*
X151408674Y-121678700D01*
X151447379Y-121717404D01*
X151486083Y-121794814D01*
X151524788Y-121949633D01*
X151524788Y-122143157D01*
X151486083Y-122297976D01*
X151447379Y-122375385D01*
X151408674Y-122414090D01*
X151331264Y-122452795D01*
X151253855Y-122452795D01*
X151176445Y-122414090D01*
X151137740Y-122375385D01*
X151099036Y-122297976D01*
X151060331Y-122143157D01*
X151060331Y-121949633D01*
X151099036Y-121794814D01*
X151137740Y-121717404D01*
X151176445Y-121678700D01*
X151253855Y-121639995D01*
X152260179Y-121639995D02*
X151873131Y-121639995D01*
X151834426Y-122027042D01*
X151873131Y-121988338D01*
X151950540Y-121949633D01*
X152144064Y-121949633D01*
X152221474Y-121988338D01*
X152260179Y-122027042D01*
X152298883Y-122104452D01*
X152298883Y-122297976D01*
X152260179Y-122375385D01*
X152221474Y-122414090D01*
X152144064Y-122452795D01*
X151950540Y-122452795D01*
X151873131Y-122414090D01*
X151834426Y-122375385D01*
X148210693Y-129247295D02*
X147746236Y-129247295D01*
X147978464Y-129247295D02*
X147978464Y-128434495D01*
X147901055Y-128550609D01*
X147823645Y-128628019D01*
X147746236Y-128666723D01*
X148713855Y-128434495D02*
X148791264Y-128434495D01*
X148868674Y-128473200D01*
X148907379Y-128511904D01*
X148946083Y-128589314D01*
X148984788Y-128744133D01*
X148984788Y-128937657D01*
X148946083Y-129092476D01*
X148907379Y-129169885D01*
X148868674Y-129208590D01*
X148791264Y-129247295D01*
X148713855Y-129247295D01*
X148636445Y-129208590D01*
X148597740Y-129169885D01*
X148559036Y-129092476D01*
X148520331Y-128937657D01*
X148520331Y-128744133D01*
X148559036Y-128589314D01*
X148597740Y-128511904D01*
X148636445Y-128473200D01*
X148713855Y-128434495D01*
X149758883Y-129247295D02*
X149294426Y-129247295D01*
X149526655Y-129247295D02*
X149526655Y-128434495D01*
X149449245Y-128550609D01*
X149371836Y-128628019D01*
X149294426Y-128666723D01*
X148210693Y-122452795D02*
X147746236Y-122452795D01*
X147978464Y-122452795D02*
X147978464Y-121639995D01*
X147901055Y-121756109D01*
X147823645Y-121833519D01*
X147746236Y-121872223D01*
X148713855Y-121639995D02*
X148791264Y-121639995D01*
X148868674Y-121678700D01*
X148907379Y-121717404D01*
X148946083Y-121794814D01*
X148984788Y-121949633D01*
X148984788Y-122143157D01*
X148946083Y-122297976D01*
X148907379Y-122375385D01*
X148868674Y-122414090D01*
X148791264Y-122452795D01*
X148713855Y-122452795D01*
X148636445Y-122414090D01*
X148597740Y-122375385D01*
X148559036Y-122297976D01*
X148520331Y-122143157D01*
X148520331Y-121949633D01*
X148559036Y-121794814D01*
X148597740Y-121717404D01*
X148636445Y-121678700D01*
X148713855Y-121639995D01*
X149294426Y-121717404D02*
X149333131Y-121678700D01*
X149410540Y-121639995D01*
X149604064Y-121639995D01*
X149681474Y-121678700D01*
X149720179Y-121717404D01*
X149758883Y-121794814D01*
X149758883Y-121872223D01*
X149720179Y-121988338D01*
X149255721Y-122452795D01*
X149758883Y-122452795D01*
X145581793Y-129247295D02*
X145736612Y-129247295D01*
X145814021Y-129208590D01*
X145852726Y-129169885D01*
X145930136Y-129053771D01*
X145968840Y-128898952D01*
X145968840Y-128589314D01*
X145930136Y-128511904D01*
X145891431Y-128473200D01*
X145814021Y-128434495D01*
X145659202Y-128434495D01*
X145581793Y-128473200D01*
X145543088Y-128511904D01*
X145504383Y-128589314D01*
X145504383Y-128782838D01*
X145543088Y-128860247D01*
X145581793Y-128898952D01*
X145659202Y-128937657D01*
X145814021Y-128937657D01*
X145891431Y-128898952D01*
X145930136Y-128860247D01*
X145968840Y-128782838D01*
X146355888Y-129247295D02*
X146510707Y-129247295D01*
X146588117Y-129208590D01*
X146626821Y-129169885D01*
X146704231Y-129053771D01*
X146742936Y-128898952D01*
X146742936Y-128589314D01*
X146704231Y-128511904D01*
X146665526Y-128473200D01*
X146588117Y-128434495D01*
X146433298Y-128434495D01*
X146355888Y-128473200D01*
X146317183Y-128511904D01*
X146278479Y-128589314D01*
X146278479Y-128782838D01*
X146317183Y-128860247D01*
X146355888Y-128898952D01*
X146433298Y-128937657D01*
X146588117Y-128937657D01*
X146665526Y-128898952D01*
X146704231Y-128860247D01*
X146742936Y-128782838D01*
X145670693Y-122452795D02*
X145206236Y-122452795D01*
X145438464Y-122452795D02*
X145438464Y-121639995D01*
X145361055Y-121756109D01*
X145283645Y-121833519D01*
X145206236Y-121872223D01*
X146173855Y-121639995D02*
X146251264Y-121639995D01*
X146328674Y-121678700D01*
X146367379Y-121717404D01*
X146406083Y-121794814D01*
X146444788Y-121949633D01*
X146444788Y-122143157D01*
X146406083Y-122297976D01*
X146367379Y-122375385D01*
X146328674Y-122414090D01*
X146251264Y-122452795D01*
X146173855Y-122452795D01*
X146096445Y-122414090D01*
X146057740Y-122375385D01*
X146019036Y-122297976D01*
X145980331Y-122143157D01*
X145980331Y-121949633D01*
X146019036Y-121794814D01*
X146057740Y-121717404D01*
X146096445Y-121678700D01*
X146173855Y-121639995D01*
X146947950Y-121639995D02*
X147025360Y-121639995D01*
X147102769Y-121678700D01*
X147141474Y-121717404D01*
X147180179Y-121794814D01*
X147218883Y-121949633D01*
X147218883Y-122143157D01*
X147180179Y-122297976D01*
X147141474Y-122375385D01*
X147102769Y-122414090D01*
X147025360Y-122452795D01*
X146947950Y-122452795D01*
X146870540Y-122414090D01*
X146831836Y-122375385D01*
X146793131Y-122297976D01*
X146754426Y-122143157D01*
X146754426Y-121949633D01*
X146793131Y-121794814D01*
X146831836Y-121717404D01*
X146870540Y-121678700D01*
X146947950Y-121639995D01*
X143105293Y-129247295D02*
X143260112Y-129247295D01*
X143337521Y-129208590D01*
X143376226Y-129169885D01*
X143453636Y-129053771D01*
X143492340Y-128898952D01*
X143492340Y-128589314D01*
X143453636Y-128511904D01*
X143414931Y-128473200D01*
X143337521Y-128434495D01*
X143182702Y-128434495D01*
X143105293Y-128473200D01*
X143066588Y-128511904D01*
X143027883Y-128589314D01*
X143027883Y-128782838D01*
X143066588Y-128860247D01*
X143105293Y-128898952D01*
X143182702Y-128937657D01*
X143337521Y-128937657D01*
X143414931Y-128898952D01*
X143453636Y-128860247D01*
X143492340Y-128782838D01*
X143763274Y-128434495D02*
X144305140Y-128434495D01*
X143956798Y-129247295D01*
X143105293Y-122452795D02*
X143260112Y-122452795D01*
X143337521Y-122414090D01*
X143376226Y-122375385D01*
X143453636Y-122259271D01*
X143492340Y-122104452D01*
X143492340Y-121794814D01*
X143453636Y-121717404D01*
X143414931Y-121678700D01*
X143337521Y-121639995D01*
X143182702Y-121639995D01*
X143105293Y-121678700D01*
X143066588Y-121717404D01*
X143027883Y-121794814D01*
X143027883Y-121988338D01*
X143066588Y-122065747D01*
X143105293Y-122104452D01*
X143182702Y-122143157D01*
X143337521Y-122143157D01*
X143414931Y-122104452D01*
X143453636Y-122065747D01*
X143492340Y-121988338D01*
X143956798Y-121988338D02*
X143879388Y-121949633D01*
X143840683Y-121910928D01*
X143801979Y-121833519D01*
X143801979Y-121794814D01*
X143840683Y-121717404D01*
X143879388Y-121678700D01*
X143956798Y-121639995D01*
X144111617Y-121639995D01*
X144189026Y-121678700D01*
X144227731Y-121717404D01*
X144266436Y-121794814D01*
X144266436Y-121833519D01*
X144227731Y-121910928D01*
X144189026Y-121949633D01*
X144111617Y-121988338D01*
X143956798Y-121988338D01*
X143879388Y-122027042D01*
X143840683Y-122065747D01*
X143801979Y-122143157D01*
X143801979Y-122297976D01*
X143840683Y-122375385D01*
X143879388Y-122414090D01*
X143956798Y-122452795D01*
X144111617Y-122452795D01*
X144189026Y-122414090D01*
X144227731Y-122375385D01*
X144266436Y-122297976D01*
X144266436Y-122143157D01*
X144227731Y-122065747D01*
X144189026Y-122027042D01*
X144111617Y-121988338D01*
X140565293Y-129247295D02*
X140720112Y-129247295D01*
X140797521Y-129208590D01*
X140836226Y-129169885D01*
X140913636Y-129053771D01*
X140952340Y-128898952D01*
X140952340Y-128589314D01*
X140913636Y-128511904D01*
X140874931Y-128473200D01*
X140797521Y-128434495D01*
X140642702Y-128434495D01*
X140565293Y-128473200D01*
X140526588Y-128511904D01*
X140487883Y-128589314D01*
X140487883Y-128782838D01*
X140526588Y-128860247D01*
X140565293Y-128898952D01*
X140642702Y-128937657D01*
X140797521Y-128937657D01*
X140874931Y-128898952D01*
X140913636Y-128860247D01*
X140952340Y-128782838D01*
X141649026Y-128705428D02*
X141649026Y-129247295D01*
X141455502Y-128395790D02*
X141261979Y-128976361D01*
X141765140Y-128976361D01*
X140565293Y-122452795D02*
X140720112Y-122452795D01*
X140797521Y-122414090D01*
X140836226Y-122375385D01*
X140913636Y-122259271D01*
X140952340Y-122104452D01*
X140952340Y-121794814D01*
X140913636Y-121717404D01*
X140874931Y-121678700D01*
X140797521Y-121639995D01*
X140642702Y-121639995D01*
X140565293Y-121678700D01*
X140526588Y-121717404D01*
X140487883Y-121794814D01*
X140487883Y-121988338D01*
X140526588Y-122065747D01*
X140565293Y-122104452D01*
X140642702Y-122143157D01*
X140797521Y-122143157D01*
X140874931Y-122104452D01*
X140913636Y-122065747D01*
X140952340Y-121988338D01*
X141687731Y-121639995D02*
X141300683Y-121639995D01*
X141261979Y-122027042D01*
X141300683Y-121988338D01*
X141378093Y-121949633D01*
X141571617Y-121949633D01*
X141649026Y-121988338D01*
X141687731Y-122027042D01*
X141726436Y-122104452D01*
X141726436Y-122297976D01*
X141687731Y-122375385D01*
X141649026Y-122414090D01*
X141571617Y-122452795D01*
X141378093Y-122452795D01*
X141300683Y-122414090D01*
X141261979Y-122375385D01*
X138027833Y-129247295D02*
X138182652Y-129247295D01*
X138260061Y-129208590D01*
X138298766Y-129169885D01*
X138376176Y-129053771D01*
X138414880Y-128898952D01*
X138414880Y-128589314D01*
X138376176Y-128511904D01*
X138337471Y-128473200D01*
X138260061Y-128434495D01*
X138105242Y-128434495D01*
X138027833Y-128473200D01*
X137989128Y-128511904D01*
X137950423Y-128589314D01*
X137950423Y-128782838D01*
X137989128Y-128860247D01*
X138027833Y-128898952D01*
X138105242Y-128937657D01*
X138260061Y-128937657D01*
X138337471Y-128898952D01*
X138376176Y-128860247D01*
X138414880Y-128782838D01*
X138724519Y-128511904D02*
X138763223Y-128473200D01*
X138840633Y-128434495D01*
X139034157Y-128434495D01*
X139111566Y-128473200D01*
X139150271Y-128511904D01*
X139188976Y-128589314D01*
X139188976Y-128666723D01*
X139150271Y-128782838D01*
X138685814Y-129247295D01*
X139188976Y-129247295D01*
X138027833Y-122452795D02*
X138182652Y-122452795D01*
X138260061Y-122414090D01*
X138298766Y-122375385D01*
X138376176Y-122259271D01*
X138414880Y-122104452D01*
X138414880Y-121794814D01*
X138376176Y-121717404D01*
X138337471Y-121678700D01*
X138260061Y-121639995D01*
X138105242Y-121639995D01*
X138027833Y-121678700D01*
X137989128Y-121717404D01*
X137950423Y-121794814D01*
X137950423Y-121988338D01*
X137989128Y-122065747D01*
X138027833Y-122104452D01*
X138105242Y-122143157D01*
X138260061Y-122143157D01*
X138337471Y-122104452D01*
X138376176Y-122065747D01*
X138414880Y-121988338D01*
X138685814Y-121639995D02*
X139188976Y-121639995D01*
X138918042Y-121949633D01*
X139034157Y-121949633D01*
X139111566Y-121988338D01*
X139150271Y-122027042D01*
X139188976Y-122104452D01*
X139188976Y-122297976D01*
X139150271Y-122375385D01*
X139111566Y-122414090D01*
X139034157Y-122452795D01*
X138801928Y-122452795D01*
X138724519Y-122414090D01*
X138685814Y-122375385D01*
X135565242Y-128782838D02*
X135487833Y-128744133D01*
X135449128Y-128705428D01*
X135410423Y-128628019D01*
X135410423Y-128589314D01*
X135449128Y-128511904D01*
X135487833Y-128473200D01*
X135565242Y-128434495D01*
X135720061Y-128434495D01*
X135797471Y-128473200D01*
X135836176Y-128511904D01*
X135874880Y-128589314D01*
X135874880Y-128628019D01*
X135836176Y-128705428D01*
X135797471Y-128744133D01*
X135720061Y-128782838D01*
X135565242Y-128782838D01*
X135487833Y-128821542D01*
X135449128Y-128860247D01*
X135410423Y-128937657D01*
X135410423Y-129092476D01*
X135449128Y-129169885D01*
X135487833Y-129208590D01*
X135565242Y-129247295D01*
X135720061Y-129247295D01*
X135797471Y-129208590D01*
X135836176Y-129169885D01*
X135874880Y-129092476D01*
X135874880Y-128937657D01*
X135836176Y-128860247D01*
X135797471Y-128821542D01*
X135720061Y-128782838D01*
X136145814Y-128434495D02*
X136687680Y-128434495D01*
X136339338Y-129247295D01*
X135565242Y-121988338D02*
X135487833Y-121949633D01*
X135449128Y-121910928D01*
X135410423Y-121833519D01*
X135410423Y-121794814D01*
X135449128Y-121717404D01*
X135487833Y-121678700D01*
X135565242Y-121639995D01*
X135720061Y-121639995D01*
X135797471Y-121678700D01*
X135836176Y-121717404D01*
X135874880Y-121794814D01*
X135874880Y-121833519D01*
X135836176Y-121910928D01*
X135797471Y-121949633D01*
X135720061Y-121988338D01*
X135565242Y-121988338D01*
X135487833Y-122027042D01*
X135449128Y-122065747D01*
X135410423Y-122143157D01*
X135410423Y-122297976D01*
X135449128Y-122375385D01*
X135487833Y-122414090D01*
X135565242Y-122452795D01*
X135720061Y-122452795D01*
X135797471Y-122414090D01*
X135836176Y-122375385D01*
X135874880Y-122297976D01*
X135874880Y-122143157D01*
X135836176Y-122065747D01*
X135797471Y-122027042D01*
X135720061Y-121988338D01*
X136339338Y-121988338D02*
X136261928Y-121949633D01*
X136223223Y-121910928D01*
X136184519Y-121833519D01*
X136184519Y-121794814D01*
X136223223Y-121717404D01*
X136261928Y-121678700D01*
X136339338Y-121639995D01*
X136494157Y-121639995D01*
X136571566Y-121678700D01*
X136610271Y-121717404D01*
X136648976Y-121794814D01*
X136648976Y-121833519D01*
X136610271Y-121910928D01*
X136571566Y-121949633D01*
X136494157Y-121988338D01*
X136339338Y-121988338D01*
X136261928Y-122027042D01*
X136223223Y-122065747D01*
X136184519Y-122143157D01*
X136184519Y-122297976D01*
X136223223Y-122375385D01*
X136261928Y-122414090D01*
X136339338Y-122452795D01*
X136494157Y-122452795D01*
X136571566Y-122414090D01*
X136610271Y-122375385D01*
X136648976Y-122297976D01*
X136648976Y-122143157D01*
X136610271Y-122065747D01*
X136571566Y-122027042D01*
X136494157Y-121988338D01*
X133025242Y-128782838D02*
X132947833Y-128744133D01*
X132909128Y-128705428D01*
X132870423Y-128628019D01*
X132870423Y-128589314D01*
X132909128Y-128511904D01*
X132947833Y-128473200D01*
X133025242Y-128434495D01*
X133180061Y-128434495D01*
X133257471Y-128473200D01*
X133296176Y-128511904D01*
X133334880Y-128589314D01*
X133334880Y-128628019D01*
X133296176Y-128705428D01*
X133257471Y-128744133D01*
X133180061Y-128782838D01*
X133025242Y-128782838D01*
X132947833Y-128821542D01*
X132909128Y-128860247D01*
X132870423Y-128937657D01*
X132870423Y-129092476D01*
X132909128Y-129169885D01*
X132947833Y-129208590D01*
X133025242Y-129247295D01*
X133180061Y-129247295D01*
X133257471Y-129208590D01*
X133296176Y-129169885D01*
X133334880Y-129092476D01*
X133334880Y-128937657D01*
X133296176Y-128860247D01*
X133257471Y-128821542D01*
X133180061Y-128782838D01*
X134031566Y-128705428D02*
X134031566Y-129247295D01*
X133838042Y-128395790D02*
X133644519Y-128976361D01*
X134147680Y-128976361D01*
X133025242Y-121988338D02*
X132947833Y-121949633D01*
X132909128Y-121910928D01*
X132870423Y-121833519D01*
X132870423Y-121794814D01*
X132909128Y-121717404D01*
X132947833Y-121678700D01*
X133025242Y-121639995D01*
X133180061Y-121639995D01*
X133257471Y-121678700D01*
X133296176Y-121717404D01*
X133334880Y-121794814D01*
X133334880Y-121833519D01*
X133296176Y-121910928D01*
X133257471Y-121949633D01*
X133180061Y-121988338D01*
X133025242Y-121988338D01*
X132947833Y-122027042D01*
X132909128Y-122065747D01*
X132870423Y-122143157D01*
X132870423Y-122297976D01*
X132909128Y-122375385D01*
X132947833Y-122414090D01*
X133025242Y-122452795D01*
X133180061Y-122452795D01*
X133257471Y-122414090D01*
X133296176Y-122375385D01*
X133334880Y-122297976D01*
X133334880Y-122143157D01*
X133296176Y-122065747D01*
X133257471Y-122027042D01*
X133180061Y-121988338D01*
X134070271Y-121639995D02*
X133683223Y-121639995D01*
X133644519Y-122027042D01*
X133683223Y-121988338D01*
X133760633Y-121949633D01*
X133954157Y-121949633D01*
X134031566Y-121988338D01*
X134070271Y-122027042D01*
X134108976Y-122104452D01*
X134108976Y-122297976D01*
X134070271Y-122375385D01*
X134031566Y-122414090D01*
X133954157Y-122452795D01*
X133760633Y-122452795D01*
X133683223Y-122414090D01*
X133644519Y-122375385D01*
X130485242Y-128782838D02*
X130407833Y-128744133D01*
X130369128Y-128705428D01*
X130330423Y-128628019D01*
X130330423Y-128589314D01*
X130369128Y-128511904D01*
X130407833Y-128473200D01*
X130485242Y-128434495D01*
X130640061Y-128434495D01*
X130717471Y-128473200D01*
X130756176Y-128511904D01*
X130794880Y-128589314D01*
X130794880Y-128628019D01*
X130756176Y-128705428D01*
X130717471Y-128744133D01*
X130640061Y-128782838D01*
X130485242Y-128782838D01*
X130407833Y-128821542D01*
X130369128Y-128860247D01*
X130330423Y-128937657D01*
X130330423Y-129092476D01*
X130369128Y-129169885D01*
X130407833Y-129208590D01*
X130485242Y-129247295D01*
X130640061Y-129247295D01*
X130717471Y-129208590D01*
X130756176Y-129169885D01*
X130794880Y-129092476D01*
X130794880Y-128937657D01*
X130756176Y-128860247D01*
X130717471Y-128821542D01*
X130640061Y-128782838D01*
X131104519Y-128511904D02*
X131143223Y-128473200D01*
X131220633Y-128434495D01*
X131414157Y-128434495D01*
X131491566Y-128473200D01*
X131530271Y-128511904D01*
X131568976Y-128589314D01*
X131568976Y-128666723D01*
X131530271Y-128782838D01*
X131065814Y-129247295D01*
X131568976Y-129247295D01*
X130485242Y-121988338D02*
X130407833Y-121949633D01*
X130369128Y-121910928D01*
X130330423Y-121833519D01*
X130330423Y-121794814D01*
X130369128Y-121717404D01*
X130407833Y-121678700D01*
X130485242Y-121639995D01*
X130640061Y-121639995D01*
X130717471Y-121678700D01*
X130756176Y-121717404D01*
X130794880Y-121794814D01*
X130794880Y-121833519D01*
X130756176Y-121910928D01*
X130717471Y-121949633D01*
X130640061Y-121988338D01*
X130485242Y-121988338D01*
X130407833Y-122027042D01*
X130369128Y-122065747D01*
X130330423Y-122143157D01*
X130330423Y-122297976D01*
X130369128Y-122375385D01*
X130407833Y-122414090D01*
X130485242Y-122452795D01*
X130640061Y-122452795D01*
X130717471Y-122414090D01*
X130756176Y-122375385D01*
X130794880Y-122297976D01*
X130794880Y-122143157D01*
X130756176Y-122065747D01*
X130717471Y-122027042D01*
X130640061Y-121988338D01*
X131065814Y-121639995D02*
X131568976Y-121639995D01*
X131298042Y-121949633D01*
X131414157Y-121949633D01*
X131491566Y-121988338D01*
X131530271Y-122027042D01*
X131568976Y-122104452D01*
X131568976Y-122297976D01*
X131530271Y-122375385D01*
X131491566Y-122414090D01*
X131414157Y-122452795D01*
X131181928Y-122452795D01*
X131104519Y-122414090D01*
X131065814Y-122375385D01*
X127945242Y-128782838D02*
X127867833Y-128744133D01*
X127829128Y-128705428D01*
X127790423Y-128628019D01*
X127790423Y-128589314D01*
X127829128Y-128511904D01*
X127867833Y-128473200D01*
X127945242Y-128434495D01*
X128100061Y-128434495D01*
X128177471Y-128473200D01*
X128216176Y-128511904D01*
X128254880Y-128589314D01*
X128254880Y-128628019D01*
X128216176Y-128705428D01*
X128177471Y-128744133D01*
X128100061Y-128782838D01*
X127945242Y-128782838D01*
X127867833Y-128821542D01*
X127829128Y-128860247D01*
X127790423Y-128937657D01*
X127790423Y-129092476D01*
X127829128Y-129169885D01*
X127867833Y-129208590D01*
X127945242Y-129247295D01*
X128100061Y-129247295D01*
X128177471Y-129208590D01*
X128216176Y-129169885D01*
X128254880Y-129092476D01*
X128254880Y-128937657D01*
X128216176Y-128860247D01*
X128177471Y-128821542D01*
X128100061Y-128782838D01*
X128758042Y-128434495D02*
X128835452Y-128434495D01*
X128912861Y-128473200D01*
X128951566Y-128511904D01*
X128990271Y-128589314D01*
X129028976Y-128744133D01*
X129028976Y-128937657D01*
X128990271Y-129092476D01*
X128951566Y-129169885D01*
X128912861Y-129208590D01*
X128835452Y-129247295D01*
X128758042Y-129247295D01*
X128680633Y-129208590D01*
X128641928Y-129169885D01*
X128603223Y-129092476D01*
X128564519Y-128937657D01*
X128564519Y-128744133D01*
X128603223Y-128589314D01*
X128641928Y-128511904D01*
X128680633Y-128473200D01*
X128758042Y-128434495D01*
X127945242Y-121988338D02*
X127867833Y-121949633D01*
X127829128Y-121910928D01*
X127790423Y-121833519D01*
X127790423Y-121794814D01*
X127829128Y-121717404D01*
X127867833Y-121678700D01*
X127945242Y-121639995D01*
X128100061Y-121639995D01*
X128177471Y-121678700D01*
X128216176Y-121717404D01*
X128254880Y-121794814D01*
X128254880Y-121833519D01*
X128216176Y-121910928D01*
X128177471Y-121949633D01*
X128100061Y-121988338D01*
X127945242Y-121988338D01*
X127867833Y-122027042D01*
X127829128Y-122065747D01*
X127790423Y-122143157D01*
X127790423Y-122297976D01*
X127829128Y-122375385D01*
X127867833Y-122414090D01*
X127945242Y-122452795D01*
X128100061Y-122452795D01*
X128177471Y-122414090D01*
X128216176Y-122375385D01*
X128254880Y-122297976D01*
X128254880Y-122143157D01*
X128216176Y-122065747D01*
X128177471Y-122027042D01*
X128100061Y-121988338D01*
X129028976Y-122452795D02*
X128564519Y-122452795D01*
X128796747Y-122452795D02*
X128796747Y-121639995D01*
X128719338Y-121756109D01*
X128641928Y-121833519D01*
X128564519Y-121872223D01*
X125211719Y-128434495D02*
X125753585Y-128434495D01*
X125405242Y-129247295D01*
X126179338Y-128782838D02*
X126101928Y-128744133D01*
X126063223Y-128705428D01*
X126024519Y-128628019D01*
X126024519Y-128589314D01*
X126063223Y-128511904D01*
X126101928Y-128473200D01*
X126179338Y-128434495D01*
X126334157Y-128434495D01*
X126411566Y-128473200D01*
X126450271Y-128511904D01*
X126488976Y-128589314D01*
X126488976Y-128628019D01*
X126450271Y-128705428D01*
X126411566Y-128744133D01*
X126334157Y-128782838D01*
X126179338Y-128782838D01*
X126101928Y-128821542D01*
X126063223Y-128860247D01*
X126024519Y-128937657D01*
X126024519Y-129092476D01*
X126063223Y-129169885D01*
X126101928Y-129208590D01*
X126179338Y-129247295D01*
X126334157Y-129247295D01*
X126411566Y-129208590D01*
X126450271Y-129169885D01*
X126488976Y-129092476D01*
X126488976Y-128937657D01*
X126450271Y-128860247D01*
X126411566Y-128821542D01*
X126334157Y-128782838D01*
X125211719Y-121639995D02*
X125753585Y-121639995D01*
X125405242Y-122452795D01*
X126101928Y-122452795D02*
X126256747Y-122452795D01*
X126334157Y-122414090D01*
X126372861Y-122375385D01*
X126450271Y-122259271D01*
X126488976Y-122104452D01*
X126488976Y-121794814D01*
X126450271Y-121717404D01*
X126411566Y-121678700D01*
X126334157Y-121639995D01*
X126179338Y-121639995D01*
X126101928Y-121678700D01*
X126063223Y-121717404D01*
X126024519Y-121794814D01*
X126024519Y-121988338D01*
X126063223Y-122065747D01*
X126101928Y-122104452D01*
X126179338Y-122143157D01*
X126334157Y-122143157D01*
X126411566Y-122104452D01*
X126450271Y-122065747D01*
X126488976Y-121988338D01*
X122671719Y-128434495D02*
X123213585Y-128434495D01*
X122865242Y-129247295D01*
X123871566Y-128705428D02*
X123871566Y-129247295D01*
X123678042Y-128395790D02*
X123484519Y-128976361D01*
X123987680Y-128976361D01*
X122671719Y-121639995D02*
X123213585Y-121639995D01*
X122865242Y-122452795D01*
X123910271Y-121639995D02*
X123523223Y-121639995D01*
X123484519Y-122027042D01*
X123523223Y-121988338D01*
X123600633Y-121949633D01*
X123794157Y-121949633D01*
X123871566Y-121988338D01*
X123910271Y-122027042D01*
X123948976Y-122104452D01*
X123948976Y-122297976D01*
X123910271Y-122375385D01*
X123871566Y-122414090D01*
X123794157Y-122452795D01*
X123600633Y-122452795D01*
X123523223Y-122414090D01*
X123484519Y-122375385D01*
X120557471Y-128434495D02*
X120402652Y-128434495D01*
X120325242Y-128473200D01*
X120286538Y-128511904D01*
X120209128Y-128628019D01*
X120170423Y-128782838D01*
X120170423Y-129092476D01*
X120209128Y-129169885D01*
X120247833Y-129208590D01*
X120325242Y-129247295D01*
X120480061Y-129247295D01*
X120557471Y-129208590D01*
X120596176Y-129169885D01*
X120634880Y-129092476D01*
X120634880Y-128898952D01*
X120596176Y-128821542D01*
X120557471Y-128782838D01*
X120480061Y-128744133D01*
X120325242Y-128744133D01*
X120247833Y-128782838D01*
X120209128Y-128821542D01*
X120170423Y-128898952D01*
X121331566Y-128434495D02*
X121176747Y-128434495D01*
X121099338Y-128473200D01*
X121060633Y-128511904D01*
X120983223Y-128628019D01*
X120944519Y-128782838D01*
X120944519Y-129092476D01*
X120983223Y-129169885D01*
X121021928Y-129208590D01*
X121099338Y-129247295D01*
X121254157Y-129247295D01*
X121331566Y-129208590D01*
X121370271Y-129169885D01*
X121408976Y-129092476D01*
X121408976Y-128898952D01*
X121370271Y-128821542D01*
X121331566Y-128782838D01*
X121254157Y-128744133D01*
X121099338Y-128744133D01*
X121021928Y-128782838D01*
X120983223Y-128821542D01*
X120944519Y-128898952D01*
X120557471Y-121639995D02*
X120402652Y-121639995D01*
X120325242Y-121678700D01*
X120286538Y-121717404D01*
X120209128Y-121833519D01*
X120170423Y-121988338D01*
X120170423Y-122297976D01*
X120209128Y-122375385D01*
X120247833Y-122414090D01*
X120325242Y-122452795D01*
X120480061Y-122452795D01*
X120557471Y-122414090D01*
X120596176Y-122375385D01*
X120634880Y-122297976D01*
X120634880Y-122104452D01*
X120596176Y-122027042D01*
X120557471Y-121988338D01*
X120480061Y-121949633D01*
X120325242Y-121949633D01*
X120247833Y-121988338D01*
X120209128Y-122027042D01*
X120170423Y-122104452D01*
X120905814Y-121639995D02*
X121447680Y-121639995D01*
X121099338Y-122452795D01*
X118056176Y-128434495D02*
X117669128Y-128434495D01*
X117630423Y-128821542D01*
X117669128Y-128782838D01*
X117746538Y-128744133D01*
X117940061Y-128744133D01*
X118017471Y-128782838D01*
X118056176Y-128821542D01*
X118094880Y-128898952D01*
X118094880Y-129092476D01*
X118056176Y-129169885D01*
X118017471Y-129208590D01*
X117940061Y-129247295D01*
X117746538Y-129247295D01*
X117669128Y-129208590D01*
X117630423Y-129169885D01*
X118365814Y-128434495D02*
X118907680Y-128434495D01*
X118559338Y-129247295D01*
X118056176Y-121639995D02*
X117669128Y-121639995D01*
X117630423Y-122027042D01*
X117669128Y-121988338D01*
X117746538Y-121949633D01*
X117940061Y-121949633D01*
X118017471Y-121988338D01*
X118056176Y-122027042D01*
X118094880Y-122104452D01*
X118094880Y-122297976D01*
X118056176Y-122375385D01*
X118017471Y-122414090D01*
X117940061Y-122452795D01*
X117746538Y-122452795D01*
X117669128Y-122414090D01*
X117630423Y-122375385D01*
X118559338Y-121988338D02*
X118481928Y-121949633D01*
X118443223Y-121910928D01*
X118404519Y-121833519D01*
X118404519Y-121794814D01*
X118443223Y-121717404D01*
X118481928Y-121678700D01*
X118559338Y-121639995D01*
X118714157Y-121639995D01*
X118791566Y-121678700D01*
X118830271Y-121717404D01*
X118868976Y-121794814D01*
X118868976Y-121833519D01*
X118830271Y-121910928D01*
X118791566Y-121949633D01*
X118714157Y-121988338D01*
X118559338Y-121988338D01*
X118481928Y-122027042D01*
X118443223Y-122065747D01*
X118404519Y-122143157D01*
X118404519Y-122297976D01*
X118443223Y-122375385D01*
X118481928Y-122414090D01*
X118559338Y-122452795D01*
X118714157Y-122452795D01*
X118791566Y-122414090D01*
X118830271Y-122375385D01*
X118868976Y-122297976D01*
X118868976Y-122143157D01*
X118830271Y-122065747D01*
X118791566Y-122027042D01*
X118714157Y-121988338D01*
X112583443Y-121678700D02*
X112506034Y-121639995D01*
X112389920Y-121639995D01*
X112273805Y-121678700D01*
X112196396Y-121756109D01*
X112157691Y-121833519D01*
X112118986Y-121988338D01*
X112118986Y-122104452D01*
X112157691Y-122259271D01*
X112196396Y-122336680D01*
X112273805Y-122414090D01*
X112389920Y-122452795D01*
X112467329Y-122452795D01*
X112583443Y-122414090D01*
X112622148Y-122375385D01*
X112622148Y-122104452D01*
X112467329Y-122104452D01*
X112970491Y-122452795D02*
X112970491Y-121639995D01*
X113434948Y-122452795D01*
X113434948Y-121639995D01*
X113821996Y-122452795D02*
X113821996Y-121639995D01*
X114015520Y-121639995D01*
X114131634Y-121678700D01*
X114209043Y-121756109D01*
X114247748Y-121833519D01*
X114286453Y-121988338D01*
X114286453Y-122104452D01*
X114247748Y-122259271D01*
X114209043Y-122336680D01*
X114131634Y-122414090D01*
X114015520Y-122452795D01*
X113821996Y-122452795D01*
X112483779Y-128937657D02*
X113103055Y-128937657D01*
X112793417Y-129247295D02*
X112793417Y-128628019D01*
X113373988Y-128434495D02*
X113644921Y-129247295D01*
X113915855Y-128434495D01*
X171139273Y-75907295D02*
X170674816Y-75907295D01*
X170907044Y-75907295D02*
X170907044Y-75094495D01*
X170829635Y-75210609D01*
X170752225Y-75288019D01*
X170674816Y-75326723D01*
X171448911Y-75171904D02*
X171487616Y-75133200D01*
X171565025Y-75094495D01*
X171758549Y-75094495D01*
X171835959Y-75133200D01*
X171874663Y-75171904D01*
X171913368Y-75249314D01*
X171913368Y-75326723D01*
X171874663Y-75442838D01*
X171410206Y-75907295D01*
X171913368Y-75907295D01*
X172184301Y-75094495D02*
X172687463Y-75094495D01*
X172416530Y-75404133D01*
X172532644Y-75404133D01*
X172610054Y-75442838D01*
X172648759Y-75481542D01*
X172687463Y-75558952D01*
X172687463Y-75752476D01*
X172648759Y-75829885D01*
X172610054Y-75868590D01*
X172532644Y-75907295D01*
X172300416Y-75907295D01*
X172223006Y-75868590D01*
X172184301Y-75829885D01*
X171139273Y-69115335D02*
X170674816Y-69115335D01*
X170907044Y-69115335D02*
X170907044Y-68302535D01*
X170829635Y-68418649D01*
X170752225Y-68496059D01*
X170674816Y-68534763D01*
X171448911Y-68379944D02*
X171487616Y-68341240D01*
X171565025Y-68302535D01*
X171758549Y-68302535D01*
X171835959Y-68341240D01*
X171874663Y-68379944D01*
X171913368Y-68457354D01*
X171913368Y-68534763D01*
X171874663Y-68650878D01*
X171410206Y-69115335D01*
X171913368Y-69115335D01*
X172610054Y-68573468D02*
X172610054Y-69115335D01*
X172416530Y-68263830D02*
X172223006Y-68844401D01*
X172726168Y-68844401D01*
X168599273Y-75907295D02*
X168134816Y-75907295D01*
X168367044Y-75907295D02*
X168367044Y-75094495D01*
X168289635Y-75210609D01*
X168212225Y-75288019D01*
X168134816Y-75326723D01*
X168908911Y-75171904D02*
X168947616Y-75133200D01*
X169025025Y-75094495D01*
X169218549Y-75094495D01*
X169295959Y-75133200D01*
X169334663Y-75171904D01*
X169373368Y-75249314D01*
X169373368Y-75326723D01*
X169334663Y-75442838D01*
X168870206Y-75907295D01*
X169373368Y-75907295D01*
X170070054Y-75094495D02*
X169915235Y-75094495D01*
X169837825Y-75133200D01*
X169799120Y-75171904D01*
X169721711Y-75288019D01*
X169683006Y-75442838D01*
X169683006Y-75752476D01*
X169721711Y-75829885D01*
X169760416Y-75868590D01*
X169837825Y-75907295D01*
X169992644Y-75907295D01*
X170070054Y-75868590D01*
X170108759Y-75829885D01*
X170147463Y-75752476D01*
X170147463Y-75558952D01*
X170108759Y-75481542D01*
X170070054Y-75442838D01*
X169992644Y-75404133D01*
X169837825Y-75404133D01*
X169760416Y-75442838D01*
X169721711Y-75481542D01*
X169683006Y-75558952D01*
X168599273Y-69115335D02*
X168134816Y-69115335D01*
X168367044Y-69115335D02*
X168367044Y-68302535D01*
X168289635Y-68418649D01*
X168212225Y-68496059D01*
X168134816Y-68534763D01*
X168908911Y-68379944D02*
X168947616Y-68341240D01*
X169025025Y-68302535D01*
X169218549Y-68302535D01*
X169295959Y-68341240D01*
X169334663Y-68379944D01*
X169373368Y-68457354D01*
X169373368Y-68534763D01*
X169334663Y-68650878D01*
X168870206Y-69115335D01*
X169373368Y-69115335D01*
X169644301Y-68302535D02*
X170186168Y-68302535D01*
X169837825Y-69115335D01*
X166059273Y-75907295D02*
X165594816Y-75907295D01*
X165827044Y-75907295D02*
X165827044Y-75094495D01*
X165749635Y-75210609D01*
X165672225Y-75288019D01*
X165594816Y-75326723D01*
X166330206Y-75094495D02*
X166833368Y-75094495D01*
X166562435Y-75404133D01*
X166678549Y-75404133D01*
X166755959Y-75442838D01*
X166794663Y-75481542D01*
X166833368Y-75558952D01*
X166833368Y-75752476D01*
X166794663Y-75829885D01*
X166755959Y-75868590D01*
X166678549Y-75907295D01*
X166446320Y-75907295D01*
X166368911Y-75868590D01*
X166330206Y-75829885D01*
X167607463Y-75907295D02*
X167143006Y-75907295D01*
X167375235Y-75907295D02*
X167375235Y-75094495D01*
X167297825Y-75210609D01*
X167220416Y-75288019D01*
X167143006Y-75326723D01*
X166059273Y-69115335D02*
X165594816Y-69115335D01*
X165827044Y-69115335D02*
X165827044Y-68302535D01*
X165749635Y-68418649D01*
X165672225Y-68496059D01*
X165594816Y-68534763D01*
X166330206Y-68302535D02*
X166833368Y-68302535D01*
X166562435Y-68612173D01*
X166678549Y-68612173D01*
X166755959Y-68650878D01*
X166794663Y-68689582D01*
X166833368Y-68766992D01*
X166833368Y-68960516D01*
X166794663Y-69037925D01*
X166755959Y-69076630D01*
X166678549Y-69115335D01*
X166446320Y-69115335D01*
X166368911Y-69076630D01*
X166330206Y-69037925D01*
X167143006Y-68379944D02*
X167181711Y-68341240D01*
X167259120Y-68302535D01*
X167452644Y-68302535D01*
X167530054Y-68341240D01*
X167568759Y-68379944D01*
X167607463Y-68457354D01*
X167607463Y-68534763D01*
X167568759Y-68650878D01*
X167104301Y-69115335D01*
X167607463Y-69115335D01*
X163519273Y-75907295D02*
X163054816Y-75907295D01*
X163287044Y-75907295D02*
X163287044Y-75094495D01*
X163209635Y-75210609D01*
X163132225Y-75288019D01*
X163054816Y-75326723D01*
X163790206Y-75094495D02*
X164293368Y-75094495D01*
X164022435Y-75404133D01*
X164138549Y-75404133D01*
X164215959Y-75442838D01*
X164254663Y-75481542D01*
X164293368Y-75558952D01*
X164293368Y-75752476D01*
X164254663Y-75829885D01*
X164215959Y-75868590D01*
X164138549Y-75907295D01*
X163906320Y-75907295D01*
X163828911Y-75868590D01*
X163790206Y-75829885D01*
X164564301Y-75094495D02*
X165067463Y-75094495D01*
X164796530Y-75404133D01*
X164912644Y-75404133D01*
X164990054Y-75442838D01*
X165028759Y-75481542D01*
X165067463Y-75558952D01*
X165067463Y-75752476D01*
X165028759Y-75829885D01*
X164990054Y-75868590D01*
X164912644Y-75907295D01*
X164680416Y-75907295D01*
X164603006Y-75868590D01*
X164564301Y-75829885D01*
X163519273Y-69115335D02*
X163054816Y-69115335D01*
X163287044Y-69115335D02*
X163287044Y-68302535D01*
X163209635Y-68418649D01*
X163132225Y-68496059D01*
X163054816Y-68534763D01*
X163790206Y-68302535D02*
X164293368Y-68302535D01*
X164022435Y-68612173D01*
X164138549Y-68612173D01*
X164215959Y-68650878D01*
X164254663Y-68689582D01*
X164293368Y-68766992D01*
X164293368Y-68960516D01*
X164254663Y-69037925D01*
X164215959Y-69076630D01*
X164138549Y-69115335D01*
X163906320Y-69115335D01*
X163828911Y-69076630D01*
X163790206Y-69037925D01*
X164990054Y-68573468D02*
X164990054Y-69115335D01*
X164796530Y-68263830D02*
X164603006Y-68844401D01*
X165106168Y-68844401D01*
X110106580Y-75927615D02*
X109835647Y-75540567D01*
X109642123Y-75927615D02*
X109642123Y-75114815D01*
X109951761Y-75114815D01*
X110029171Y-75153520D01*
X110067876Y-75192224D01*
X110106580Y-75269634D01*
X110106580Y-75385748D01*
X110067876Y-75463158D01*
X110029171Y-75501862D01*
X109951761Y-75540567D01*
X109642123Y-75540567D01*
X110416219Y-75695386D02*
X110803266Y-75695386D01*
X110338809Y-75927615D02*
X110609742Y-75114815D01*
X110880676Y-75927615D01*
X111074200Y-75114815D02*
X111267723Y-75927615D01*
X111422542Y-75347043D01*
X111577361Y-75927615D01*
X111770885Y-75114815D01*
X110048523Y-68341240D02*
X109971114Y-68302535D01*
X109855000Y-68302535D01*
X109738885Y-68341240D01*
X109661476Y-68418649D01*
X109622771Y-68496059D01*
X109584066Y-68650878D01*
X109584066Y-68766992D01*
X109622771Y-68921811D01*
X109661476Y-68999220D01*
X109738885Y-69076630D01*
X109855000Y-69115335D01*
X109932409Y-69115335D01*
X110048523Y-69076630D01*
X110087228Y-69037925D01*
X110087228Y-68766992D01*
X109932409Y-68766992D01*
X110435571Y-69115335D02*
X110435571Y-68302535D01*
X110900028Y-69115335D01*
X110900028Y-68302535D01*
X111287076Y-69115335D02*
X111287076Y-68302535D01*
X111480600Y-68302535D01*
X111596714Y-68341240D01*
X111674123Y-68418649D01*
X111712828Y-68496059D01*
X111751533Y-68650878D01*
X111751533Y-68766992D01*
X111712828Y-68921811D01*
X111674123Y-68999220D01*
X111596714Y-69076630D01*
X111480600Y-69115335D01*
X111287076Y-69115335D01*
X160951333Y-75907295D02*
X160486876Y-75907295D01*
X160719104Y-75907295D02*
X160719104Y-75094495D01*
X160641695Y-75210609D01*
X160564285Y-75288019D01*
X160486876Y-75326723D01*
X161222266Y-75094495D02*
X161725428Y-75094495D01*
X161454495Y-75404133D01*
X161570609Y-75404133D01*
X161648019Y-75442838D01*
X161686723Y-75481542D01*
X161725428Y-75558952D01*
X161725428Y-75752476D01*
X161686723Y-75829885D01*
X161648019Y-75868590D01*
X161570609Y-75907295D01*
X161338380Y-75907295D01*
X161260971Y-75868590D01*
X161222266Y-75829885D01*
X161996361Y-75094495D02*
X162538228Y-75094495D01*
X162189885Y-75907295D01*
X160951333Y-69115335D02*
X160486876Y-69115335D01*
X160719104Y-69115335D02*
X160719104Y-68302535D01*
X160641695Y-68418649D01*
X160564285Y-68496059D01*
X160486876Y-68534763D01*
X161222266Y-68302535D02*
X161725428Y-68302535D01*
X161454495Y-68612173D01*
X161570609Y-68612173D01*
X161648019Y-68650878D01*
X161686723Y-68689582D01*
X161725428Y-68766992D01*
X161725428Y-68960516D01*
X161686723Y-69037925D01*
X161648019Y-69076630D01*
X161570609Y-69115335D01*
X161338380Y-69115335D01*
X161260971Y-69076630D01*
X161222266Y-69037925D01*
X162189885Y-68650878D02*
X162112476Y-68612173D01*
X162073771Y-68573468D01*
X162035066Y-68496059D01*
X162035066Y-68457354D01*
X162073771Y-68379944D01*
X162112476Y-68341240D01*
X162189885Y-68302535D01*
X162344704Y-68302535D01*
X162422114Y-68341240D01*
X162460819Y-68379944D01*
X162499523Y-68457354D01*
X162499523Y-68496059D01*
X162460819Y-68573468D01*
X162422114Y-68612173D01*
X162344704Y-68650878D01*
X162189885Y-68650878D01*
X162112476Y-68689582D01*
X162073771Y-68728287D01*
X162035066Y-68805697D01*
X162035066Y-68960516D01*
X162073771Y-69037925D01*
X162112476Y-69076630D01*
X162189885Y-69115335D01*
X162344704Y-69115335D01*
X162422114Y-69076630D01*
X162460819Y-69037925D01*
X162499523Y-68960516D01*
X162499523Y-68805697D01*
X162460819Y-68728287D01*
X162422114Y-68689582D01*
X162344704Y-68650878D01*
X158411333Y-75907295D02*
X157946876Y-75907295D01*
X158179104Y-75907295D02*
X158179104Y-75094495D01*
X158101695Y-75210609D01*
X158024285Y-75288019D01*
X157946876Y-75326723D01*
X158682266Y-75094495D02*
X159185428Y-75094495D01*
X158914495Y-75404133D01*
X159030609Y-75404133D01*
X159108019Y-75442838D01*
X159146723Y-75481542D01*
X159185428Y-75558952D01*
X159185428Y-75752476D01*
X159146723Y-75829885D01*
X159108019Y-75868590D01*
X159030609Y-75907295D01*
X158798380Y-75907295D01*
X158720971Y-75868590D01*
X158682266Y-75829885D01*
X159572476Y-75907295D02*
X159727295Y-75907295D01*
X159804704Y-75868590D01*
X159843409Y-75829885D01*
X159920819Y-75713771D01*
X159959523Y-75558952D01*
X159959523Y-75249314D01*
X159920819Y-75171904D01*
X159882114Y-75133200D01*
X159804704Y-75094495D01*
X159649885Y-75094495D01*
X159572476Y-75133200D01*
X159533771Y-75171904D01*
X159495066Y-75249314D01*
X159495066Y-75442838D01*
X159533771Y-75520247D01*
X159572476Y-75558952D01*
X159649885Y-75597657D01*
X159804704Y-75597657D01*
X159882114Y-75558952D01*
X159920819Y-75520247D01*
X159959523Y-75442838D01*
X158411333Y-69115335D02*
X157946876Y-69115335D01*
X158179104Y-69115335D02*
X158179104Y-68302535D01*
X158101695Y-68418649D01*
X158024285Y-68496059D01*
X157946876Y-68534763D01*
X159108019Y-68573468D02*
X159108019Y-69115335D01*
X158914495Y-68263830D02*
X158720971Y-68844401D01*
X159224133Y-68844401D01*
X159688590Y-68302535D02*
X159766000Y-68302535D01*
X159843409Y-68341240D01*
X159882114Y-68379944D01*
X159920819Y-68457354D01*
X159959523Y-68612173D01*
X159959523Y-68805697D01*
X159920819Y-68960516D01*
X159882114Y-69037925D01*
X159843409Y-69076630D01*
X159766000Y-69115335D01*
X159688590Y-69115335D01*
X159611180Y-69076630D01*
X159572476Y-69037925D01*
X159533771Y-68960516D01*
X159495066Y-68805697D01*
X159495066Y-68612173D01*
X159533771Y-68457354D01*
X159572476Y-68379944D01*
X159611180Y-68341240D01*
X159688590Y-68302535D01*
X155871333Y-75907295D02*
X155406876Y-75907295D01*
X155639104Y-75907295D02*
X155639104Y-75094495D01*
X155561695Y-75210609D01*
X155484285Y-75288019D01*
X155406876Y-75326723D01*
X156568019Y-75365428D02*
X156568019Y-75907295D01*
X156374495Y-75055790D02*
X156180971Y-75636361D01*
X156684133Y-75636361D01*
X157419523Y-75907295D02*
X156955066Y-75907295D01*
X157187295Y-75907295D02*
X157187295Y-75094495D01*
X157109885Y-75210609D01*
X157032476Y-75288019D01*
X156955066Y-75326723D01*
X155871333Y-69115335D02*
X155406876Y-69115335D01*
X155639104Y-69115335D02*
X155639104Y-68302535D01*
X155561695Y-68418649D01*
X155484285Y-68496059D01*
X155406876Y-68534763D01*
X156568019Y-68573468D02*
X156568019Y-69115335D01*
X156374495Y-68263830D02*
X156180971Y-68844401D01*
X156684133Y-68844401D01*
X156955066Y-68379944D02*
X156993771Y-68341240D01*
X157071180Y-68302535D01*
X157264704Y-68302535D01*
X157342114Y-68341240D01*
X157380819Y-68379944D01*
X157419523Y-68457354D01*
X157419523Y-68534763D01*
X157380819Y-68650878D01*
X156916361Y-69115335D01*
X157419523Y-69115335D01*
X153331333Y-75907295D02*
X152866876Y-75907295D01*
X153099104Y-75907295D02*
X153099104Y-75094495D01*
X153021695Y-75210609D01*
X152944285Y-75288019D01*
X152866876Y-75326723D01*
X154028019Y-75365428D02*
X154028019Y-75907295D01*
X153834495Y-75055790D02*
X153640971Y-75636361D01*
X154144133Y-75636361D01*
X154376361Y-75094495D02*
X154879523Y-75094495D01*
X154608590Y-75404133D01*
X154724704Y-75404133D01*
X154802114Y-75442838D01*
X154840819Y-75481542D01*
X154879523Y-75558952D01*
X154879523Y-75752476D01*
X154840819Y-75829885D01*
X154802114Y-75868590D01*
X154724704Y-75907295D01*
X154492476Y-75907295D01*
X154415066Y-75868590D01*
X154376361Y-75829885D01*
X153331333Y-69115335D02*
X152866876Y-69115335D01*
X153099104Y-69115335D02*
X153099104Y-68302535D01*
X153021695Y-68418649D01*
X152944285Y-68496059D01*
X152866876Y-68534763D01*
X154028019Y-68573468D02*
X154028019Y-69115335D01*
X153834495Y-68263830D02*
X153640971Y-68844401D01*
X154144133Y-68844401D01*
X154802114Y-68573468D02*
X154802114Y-69115335D01*
X154608590Y-68263830D02*
X154415066Y-68844401D01*
X154918228Y-68844401D01*
X151451128Y-75907295D02*
X150986671Y-75907295D01*
X151218900Y-75907295D02*
X151218900Y-75094495D01*
X151141490Y-75210609D01*
X151064080Y-75288019D01*
X150986671Y-75326723D01*
X150986671Y-68379944D02*
X151025376Y-68341240D01*
X151102785Y-68302535D01*
X151296309Y-68302535D01*
X151373719Y-68341240D01*
X151412423Y-68379944D01*
X151451128Y-68457354D01*
X151451128Y-68534763D01*
X151412423Y-68650878D01*
X150947966Y-69115335D01*
X151451128Y-69115335D01*
X148872423Y-75094495D02*
X148485376Y-75094495D01*
X148446671Y-75481542D01*
X148485376Y-75442838D01*
X148562785Y-75404133D01*
X148756309Y-75404133D01*
X148833719Y-75442838D01*
X148872423Y-75481542D01*
X148911128Y-75558952D01*
X148911128Y-75752476D01*
X148872423Y-75829885D01*
X148833719Y-75868590D01*
X148756309Y-75907295D01*
X148562785Y-75907295D01*
X148485376Y-75868590D01*
X148446671Y-75829885D01*
X148833719Y-68302535D02*
X148678900Y-68302535D01*
X148601490Y-68341240D01*
X148562785Y-68379944D01*
X148485376Y-68496059D01*
X148446671Y-68650878D01*
X148446671Y-68960516D01*
X148485376Y-69037925D01*
X148524080Y-69076630D01*
X148601490Y-69115335D01*
X148756309Y-69115335D01*
X148833719Y-69076630D01*
X148872423Y-69037925D01*
X148911128Y-68960516D01*
X148911128Y-68766992D01*
X148872423Y-68689582D01*
X148833719Y-68650878D01*
X148756309Y-68612173D01*
X148601490Y-68612173D01*
X148524080Y-68650878D01*
X148485376Y-68689582D01*
X148446671Y-68766992D01*
X145865426Y-75094495D02*
X146407293Y-75094495D01*
X146058950Y-75907295D01*
X146058950Y-68650878D02*
X145981540Y-68612173D01*
X145942836Y-68573468D01*
X145904131Y-68496059D01*
X145904131Y-68457354D01*
X145942836Y-68379944D01*
X145981540Y-68341240D01*
X146058950Y-68302535D01*
X146213769Y-68302535D01*
X146291179Y-68341240D01*
X146329883Y-68379944D01*
X146368588Y-68457354D01*
X146368588Y-68496059D01*
X146329883Y-68573468D01*
X146291179Y-68612173D01*
X146213769Y-68650878D01*
X146058950Y-68650878D01*
X145981540Y-68689582D01*
X145942836Y-68728287D01*
X145904131Y-68805697D01*
X145904131Y-68960516D01*
X145942836Y-69037925D01*
X145981540Y-69076630D01*
X146058950Y-69115335D01*
X146213769Y-69115335D01*
X146291179Y-69076630D01*
X146329883Y-69037925D01*
X146368588Y-68960516D01*
X146368588Y-68805697D01*
X146329883Y-68728287D01*
X146291179Y-68689582D01*
X146213769Y-68650878D01*
X143444080Y-75907295D02*
X143598900Y-75907295D01*
X143676309Y-75868590D01*
X143715014Y-75829885D01*
X143792423Y-75713771D01*
X143831128Y-75558952D01*
X143831128Y-75249314D01*
X143792423Y-75171904D01*
X143753719Y-75133200D01*
X143676309Y-75094495D01*
X143521490Y-75094495D01*
X143444080Y-75133200D01*
X143405376Y-75171904D01*
X143366671Y-75249314D01*
X143366671Y-75442838D01*
X143405376Y-75520247D01*
X143444080Y-75558952D01*
X143521490Y-75597657D01*
X143676309Y-75597657D01*
X143753719Y-75558952D01*
X143792423Y-75520247D01*
X143831128Y-75442838D01*
X143532980Y-69115335D02*
X143068523Y-69115335D01*
X143300752Y-69115335D02*
X143300752Y-68302535D01*
X143223342Y-68418649D01*
X143145933Y-68496059D01*
X143068523Y-68534763D01*
X144036142Y-68302535D02*
X144113552Y-68302535D01*
X144190961Y-68341240D01*
X144229666Y-68379944D01*
X144268371Y-68457354D01*
X144307076Y-68612173D01*
X144307076Y-68805697D01*
X144268371Y-68960516D01*
X144229666Y-69037925D01*
X144190961Y-69076630D01*
X144113552Y-69115335D01*
X144036142Y-69115335D01*
X143958733Y-69076630D01*
X143920028Y-69037925D01*
X143881323Y-68960516D01*
X143842619Y-68805697D01*
X143842619Y-68612173D01*
X143881323Y-68457354D01*
X143920028Y-68379944D01*
X143958733Y-68341240D01*
X144036142Y-68302535D01*
X140992980Y-75907295D02*
X140528523Y-75907295D01*
X140760752Y-75907295D02*
X140760752Y-75094495D01*
X140683342Y-75210609D01*
X140605933Y-75288019D01*
X140528523Y-75326723D01*
X141767076Y-75907295D02*
X141302619Y-75907295D01*
X141534847Y-75907295D02*
X141534847Y-75094495D01*
X141457438Y-75210609D01*
X141380028Y-75288019D01*
X141302619Y-75326723D01*
X140992980Y-69115335D02*
X140528523Y-69115335D01*
X140760752Y-69115335D02*
X140760752Y-68302535D01*
X140683342Y-68418649D01*
X140605933Y-68496059D01*
X140528523Y-68534763D01*
X141302619Y-68379944D02*
X141341323Y-68341240D01*
X141418733Y-68302535D01*
X141612257Y-68302535D01*
X141689666Y-68341240D01*
X141728371Y-68379944D01*
X141767076Y-68457354D01*
X141767076Y-68534763D01*
X141728371Y-68650878D01*
X141263914Y-69115335D01*
X141767076Y-69115335D01*
X138452980Y-75907295D02*
X137988523Y-75907295D01*
X138220752Y-75907295D02*
X138220752Y-75094495D01*
X138143342Y-75210609D01*
X138065933Y-75288019D01*
X137988523Y-75326723D01*
X139149666Y-75365428D02*
X139149666Y-75907295D01*
X138956142Y-75055790D02*
X138762619Y-75636361D01*
X139265780Y-75636361D01*
X138452980Y-69115335D02*
X137988523Y-69115335D01*
X138220752Y-69115335D02*
X138220752Y-68302535D01*
X138143342Y-68418649D01*
X138065933Y-68496059D01*
X137988523Y-68534763D01*
X139188371Y-68302535D02*
X138801323Y-68302535D01*
X138762619Y-68689582D01*
X138801323Y-68650878D01*
X138878733Y-68612173D01*
X139072257Y-68612173D01*
X139149666Y-68650878D01*
X139188371Y-68689582D01*
X139227076Y-68766992D01*
X139227076Y-68960516D01*
X139188371Y-69037925D01*
X139149666Y-69076630D01*
X139072257Y-69115335D01*
X138878733Y-69115335D01*
X138801323Y-69076630D01*
X138762619Y-69037925D01*
X135912980Y-75907295D02*
X135448523Y-75907295D01*
X135680752Y-75907295D02*
X135680752Y-75094495D01*
X135603342Y-75210609D01*
X135525933Y-75288019D01*
X135448523Y-75326723D01*
X136609666Y-75094495D02*
X136454847Y-75094495D01*
X136377438Y-75133200D01*
X136338733Y-75171904D01*
X136261323Y-75288019D01*
X136222619Y-75442838D01*
X136222619Y-75752476D01*
X136261323Y-75829885D01*
X136300028Y-75868590D01*
X136377438Y-75907295D01*
X136532257Y-75907295D01*
X136609666Y-75868590D01*
X136648371Y-75829885D01*
X136687076Y-75752476D01*
X136687076Y-75558952D01*
X136648371Y-75481542D01*
X136609666Y-75442838D01*
X136532257Y-75404133D01*
X136377438Y-75404133D01*
X136300028Y-75442838D01*
X136261323Y-75481542D01*
X136222619Y-75558952D01*
X135912980Y-69115335D02*
X135448523Y-69115335D01*
X135680752Y-69115335D02*
X135680752Y-68302535D01*
X135603342Y-68418649D01*
X135525933Y-68496059D01*
X135448523Y-68534763D01*
X136183914Y-68302535D02*
X136725780Y-68302535D01*
X136377438Y-69115335D01*
X132908523Y-75171904D02*
X132947228Y-75133200D01*
X133024638Y-75094495D01*
X133218161Y-75094495D01*
X133295571Y-75133200D01*
X133334276Y-75171904D01*
X133372980Y-75249314D01*
X133372980Y-75326723D01*
X133334276Y-75442838D01*
X132869819Y-75907295D01*
X133372980Y-75907295D01*
X134147076Y-75907295D02*
X133682619Y-75907295D01*
X133914847Y-75907295D02*
X133914847Y-75094495D01*
X133837438Y-75210609D01*
X133760028Y-75288019D01*
X133682619Y-75326723D01*
X132908523Y-68379944D02*
X132947228Y-68341240D01*
X133024638Y-68302535D01*
X133218161Y-68302535D01*
X133295571Y-68341240D01*
X133334276Y-68379944D01*
X133372980Y-68457354D01*
X133372980Y-68534763D01*
X133334276Y-68650878D01*
X132869819Y-69115335D01*
X133372980Y-69115335D01*
X133682619Y-68379944D02*
X133721323Y-68341240D01*
X133798733Y-68302535D01*
X133992257Y-68302535D01*
X134069666Y-68341240D01*
X134108371Y-68379944D01*
X134147076Y-68457354D01*
X134147076Y-68534763D01*
X134108371Y-68650878D01*
X133643914Y-69115335D01*
X134147076Y-69115335D01*
X130368523Y-75171904D02*
X130407228Y-75133200D01*
X130484638Y-75094495D01*
X130678161Y-75094495D01*
X130755571Y-75133200D01*
X130794276Y-75171904D01*
X130832980Y-75249314D01*
X130832980Y-75326723D01*
X130794276Y-75442838D01*
X130329819Y-75907295D01*
X130832980Y-75907295D01*
X131103914Y-75094495D02*
X131607076Y-75094495D01*
X131336142Y-75404133D01*
X131452257Y-75404133D01*
X131529666Y-75442838D01*
X131568371Y-75481542D01*
X131607076Y-75558952D01*
X131607076Y-75752476D01*
X131568371Y-75829885D01*
X131529666Y-75868590D01*
X131452257Y-75907295D01*
X131220028Y-75907295D01*
X131142619Y-75868590D01*
X131103914Y-75829885D01*
X130368523Y-68379944D02*
X130407228Y-68341240D01*
X130484638Y-68302535D01*
X130678161Y-68302535D01*
X130755571Y-68341240D01*
X130794276Y-68379944D01*
X130832980Y-68457354D01*
X130832980Y-68534763D01*
X130794276Y-68650878D01*
X130329819Y-69115335D01*
X130832980Y-69115335D01*
X131529666Y-68573468D02*
X131529666Y-69115335D01*
X131336142Y-68263830D02*
X131142619Y-68844401D01*
X131645780Y-68844401D01*
X127828523Y-75171904D02*
X127867228Y-75133200D01*
X127944638Y-75094495D01*
X128138161Y-75094495D01*
X128215571Y-75133200D01*
X128254276Y-75171904D01*
X128292980Y-75249314D01*
X128292980Y-75326723D01*
X128254276Y-75442838D01*
X127789819Y-75907295D01*
X128292980Y-75907295D01*
X128989666Y-75094495D02*
X128834847Y-75094495D01*
X128757438Y-75133200D01*
X128718733Y-75171904D01*
X128641323Y-75288019D01*
X128602619Y-75442838D01*
X128602619Y-75752476D01*
X128641323Y-75829885D01*
X128680028Y-75868590D01*
X128757438Y-75907295D01*
X128912257Y-75907295D01*
X128989666Y-75868590D01*
X129028371Y-75829885D01*
X129067076Y-75752476D01*
X129067076Y-75558952D01*
X129028371Y-75481542D01*
X128989666Y-75442838D01*
X128912257Y-75404133D01*
X128757438Y-75404133D01*
X128680028Y-75442838D01*
X128641323Y-75481542D01*
X128602619Y-75558952D01*
X127828523Y-68379944D02*
X127867228Y-68341240D01*
X127944638Y-68302535D01*
X128138161Y-68302535D01*
X128215571Y-68341240D01*
X128254276Y-68379944D01*
X128292980Y-68457354D01*
X128292980Y-68534763D01*
X128254276Y-68650878D01*
X127789819Y-69115335D01*
X128292980Y-69115335D01*
X128563914Y-68302535D02*
X129105780Y-68302535D01*
X128757438Y-69115335D01*
X125288523Y-75171904D02*
X125327228Y-75133200D01*
X125404638Y-75094495D01*
X125598161Y-75094495D01*
X125675571Y-75133200D01*
X125714276Y-75171904D01*
X125752980Y-75249314D01*
X125752980Y-75326723D01*
X125714276Y-75442838D01*
X125249819Y-75907295D01*
X125752980Y-75907295D01*
X126140028Y-75907295D02*
X126294847Y-75907295D01*
X126372257Y-75868590D01*
X126410961Y-75829885D01*
X126488371Y-75713771D01*
X126527076Y-75558952D01*
X126527076Y-75249314D01*
X126488371Y-75171904D01*
X126449666Y-75133200D01*
X126372257Y-75094495D01*
X126217438Y-75094495D01*
X126140028Y-75133200D01*
X126101323Y-75171904D01*
X126062619Y-75249314D01*
X126062619Y-75442838D01*
X126101323Y-75520247D01*
X126140028Y-75558952D01*
X126217438Y-75597657D01*
X126372257Y-75597657D01*
X126449666Y-75558952D01*
X126488371Y-75520247D01*
X126527076Y-75442838D01*
X125249819Y-68302535D02*
X125752980Y-68302535D01*
X125482047Y-68612173D01*
X125598161Y-68612173D01*
X125675571Y-68650878D01*
X125714276Y-68689582D01*
X125752980Y-68766992D01*
X125752980Y-68960516D01*
X125714276Y-69037925D01*
X125675571Y-69076630D01*
X125598161Y-69115335D01*
X125365933Y-69115335D01*
X125288523Y-69076630D01*
X125249819Y-69037925D01*
X126256142Y-68302535D02*
X126333552Y-68302535D01*
X126410961Y-68341240D01*
X126449666Y-68379944D01*
X126488371Y-68457354D01*
X126527076Y-68612173D01*
X126527076Y-68805697D01*
X126488371Y-68960516D01*
X126449666Y-69037925D01*
X126410961Y-69076630D01*
X126333552Y-69115335D01*
X126256142Y-69115335D01*
X126178733Y-69076630D01*
X126140028Y-69037925D01*
X126101323Y-68960516D01*
X126062619Y-68805697D01*
X126062619Y-68612173D01*
X126101323Y-68457354D01*
X126140028Y-68379944D01*
X126178733Y-68341240D01*
X126256142Y-68302535D01*
X122712359Y-75094495D02*
X123215520Y-75094495D01*
X122944587Y-75404133D01*
X123060701Y-75404133D01*
X123138111Y-75442838D01*
X123176816Y-75481542D01*
X123215520Y-75558952D01*
X123215520Y-75752476D01*
X123176816Y-75829885D01*
X123138111Y-75868590D01*
X123060701Y-75907295D01*
X122828473Y-75907295D01*
X122751063Y-75868590D01*
X122712359Y-75829885D01*
X123525159Y-75171904D02*
X123563863Y-75133200D01*
X123641273Y-75094495D01*
X123834797Y-75094495D01*
X123912206Y-75133200D01*
X123950911Y-75171904D01*
X123989616Y-75249314D01*
X123989616Y-75326723D01*
X123950911Y-75442838D01*
X123486454Y-75907295D01*
X123989616Y-75907295D01*
X122712359Y-68302535D02*
X123215520Y-68302535D01*
X122944587Y-68612173D01*
X123060701Y-68612173D01*
X123138111Y-68650878D01*
X123176816Y-68689582D01*
X123215520Y-68766992D01*
X123215520Y-68960516D01*
X123176816Y-69037925D01*
X123138111Y-69076630D01*
X123060701Y-69115335D01*
X122828473Y-69115335D01*
X122751063Y-69076630D01*
X122712359Y-69037925D01*
X123486454Y-68302535D02*
X123989616Y-68302535D01*
X123718682Y-68612173D01*
X123834797Y-68612173D01*
X123912206Y-68650878D01*
X123950911Y-68689582D01*
X123989616Y-68766992D01*
X123989616Y-68960516D01*
X123950911Y-69037925D01*
X123912206Y-69076630D01*
X123834797Y-69115335D01*
X123602568Y-69115335D01*
X123525159Y-69076630D01*
X123486454Y-69037925D01*
X120169819Y-75094495D02*
X120672980Y-75094495D01*
X120402047Y-75404133D01*
X120518161Y-75404133D01*
X120595571Y-75442838D01*
X120634276Y-75481542D01*
X120672980Y-75558952D01*
X120672980Y-75752476D01*
X120634276Y-75829885D01*
X120595571Y-75868590D01*
X120518161Y-75907295D01*
X120285933Y-75907295D01*
X120208523Y-75868590D01*
X120169819Y-75829885D01*
X121369666Y-75365428D02*
X121369666Y-75907295D01*
X121176142Y-75055790D02*
X120982619Y-75636361D01*
X121485780Y-75636361D01*
X120169819Y-68302535D02*
X120672980Y-68302535D01*
X120402047Y-68612173D01*
X120518161Y-68612173D01*
X120595571Y-68650878D01*
X120634276Y-68689582D01*
X120672980Y-68766992D01*
X120672980Y-68960516D01*
X120634276Y-69037925D01*
X120595571Y-69076630D01*
X120518161Y-69115335D01*
X120285933Y-69115335D01*
X120208523Y-69076630D01*
X120169819Y-69037925D01*
X121408371Y-68302535D02*
X121021323Y-68302535D01*
X120982619Y-68689582D01*
X121021323Y-68650878D01*
X121098733Y-68612173D01*
X121292257Y-68612173D01*
X121369666Y-68650878D01*
X121408371Y-68689582D01*
X121447076Y-68766992D01*
X121447076Y-68960516D01*
X121408371Y-69037925D01*
X121369666Y-69076630D01*
X121292257Y-69115335D01*
X121098733Y-69115335D01*
X121021323Y-69076630D01*
X120982619Y-69037925D01*
X118055571Y-75365428D02*
X118055571Y-75907295D01*
X117862047Y-75055790D02*
X117668523Y-75636361D01*
X118171685Y-75636361D01*
X118636142Y-75094495D02*
X118713552Y-75094495D01*
X118790961Y-75133200D01*
X118829666Y-75171904D01*
X118868371Y-75249314D01*
X118907076Y-75404133D01*
X118907076Y-75597657D01*
X118868371Y-75752476D01*
X118829666Y-75829885D01*
X118790961Y-75868590D01*
X118713552Y-75907295D01*
X118636142Y-75907295D01*
X118558733Y-75868590D01*
X118520028Y-75829885D01*
X118481323Y-75752476D01*
X118442619Y-75597657D01*
X118442619Y-75404133D01*
X118481323Y-75249314D01*
X118520028Y-75171904D01*
X118558733Y-75133200D01*
X118636142Y-75094495D01*
X118055571Y-68573468D02*
X118055571Y-69115335D01*
X117862047Y-68263830D02*
X117668523Y-68844401D01*
X118171685Y-68844401D01*
X118907076Y-69115335D02*
X118442619Y-69115335D01*
X118674847Y-69115335D02*
X118674847Y-68302535D01*
X118597438Y-68418649D01*
X118520028Y-68496059D01*
X118442619Y-68534763D01*
X115554276Y-75094495D02*
X115167228Y-75094495D01*
X115128523Y-75481542D01*
X115167228Y-75442838D01*
X115244638Y-75404133D01*
X115438161Y-75404133D01*
X115515571Y-75442838D01*
X115554276Y-75481542D01*
X115592980Y-75558952D01*
X115592980Y-75752476D01*
X115554276Y-75829885D01*
X115515571Y-75868590D01*
X115438161Y-75907295D01*
X115244638Y-75907295D01*
X115167228Y-75868590D01*
X115128523Y-75829885D01*
X116096142Y-75094495D02*
X116173552Y-75094495D01*
X116250961Y-75133200D01*
X116289666Y-75171904D01*
X116328371Y-75249314D01*
X116367076Y-75404133D01*
X116367076Y-75597657D01*
X116328371Y-75752476D01*
X116289666Y-75829885D01*
X116250961Y-75868590D01*
X116173552Y-75907295D01*
X116096142Y-75907295D01*
X116018733Y-75868590D01*
X115980028Y-75829885D01*
X115941323Y-75752476D01*
X115902619Y-75597657D01*
X115902619Y-75404133D01*
X115941323Y-75249314D01*
X115980028Y-75171904D01*
X116018733Y-75133200D01*
X116096142Y-75094495D01*
X115554276Y-68302535D02*
X115167228Y-68302535D01*
X115128523Y-68689582D01*
X115167228Y-68650878D01*
X115244638Y-68612173D01*
X115438161Y-68612173D01*
X115515571Y-68650878D01*
X115554276Y-68689582D01*
X115592980Y-68766992D01*
X115592980Y-68960516D01*
X115554276Y-69037925D01*
X115515571Y-69076630D01*
X115438161Y-69115335D01*
X115244638Y-69115335D01*
X115167228Y-69076630D01*
X115128523Y-69037925D01*
X116367076Y-69115335D02*
X115902619Y-69115335D01*
X116134847Y-69115335D02*
X116134847Y-68302535D01*
X116057438Y-68418649D01*
X115980028Y-68496059D01*
X115902619Y-68534763D01*
X112611383Y-68341240D02*
X112533974Y-68302535D01*
X112417860Y-68302535D01*
X112301745Y-68341240D01*
X112224336Y-68418649D01*
X112185631Y-68496059D01*
X112146926Y-68650878D01*
X112146926Y-68766992D01*
X112185631Y-68921811D01*
X112224336Y-68999220D01*
X112301745Y-69076630D01*
X112417860Y-69115335D01*
X112495269Y-69115335D01*
X112611383Y-69076630D01*
X112650088Y-69037925D01*
X112650088Y-68766992D01*
X112495269Y-68766992D01*
X112998431Y-69115335D02*
X112998431Y-68302535D01*
X113462888Y-69115335D01*
X113462888Y-68302535D01*
X113849936Y-69115335D02*
X113849936Y-68302535D01*
X114043460Y-68302535D01*
X114159574Y-68341240D01*
X114236983Y-68418649D01*
X114275688Y-68496059D01*
X114314393Y-68650878D01*
X114314393Y-68766992D01*
X114275688Y-68921811D01*
X114236983Y-68999220D01*
X114159574Y-69076630D01*
X114043460Y-69115335D01*
X113849936Y-69115335D01*
X112232319Y-75597657D02*
X112851595Y-75597657D01*
X112541957Y-75907295D02*
X112541957Y-75288019D01*
X113122528Y-75094495D02*
X113393461Y-75907295D01*
X113664395Y-75094495D01*
D10*
X112163100Y-100072224D02*
X112972624Y-100072224D01*
X113067862Y-100024605D01*
X113115481Y-99976986D01*
X113163100Y-99881748D01*
X113163100Y-99691272D01*
X113115481Y-99596034D01*
X113067862Y-99548415D01*
X112972624Y-99500796D01*
X112163100Y-99500796D01*
X113163100Y-98500796D02*
X113163100Y-99072224D01*
X113163100Y-98786510D02*
X112163100Y-98786510D01*
X112305958Y-98881748D01*
X112401196Y-98976986D01*
X112448815Y-99072224D01*
X114310720Y-90263534D02*
X114263100Y-90358772D01*
X114263100Y-90501629D01*
X114310720Y-90644486D01*
X114405958Y-90739724D01*
X114501196Y-90787343D01*
X114691672Y-90834962D01*
X114834529Y-90834962D01*
X115025005Y-90787343D01*
X115120243Y-90739724D01*
X115215481Y-90644486D01*
X115263100Y-90501629D01*
X115263100Y-90406391D01*
X115215481Y-90263534D01*
X115167862Y-90215915D01*
X114834529Y-90215915D01*
X114834529Y-90406391D01*
X115263100Y-89787343D02*
X114263100Y-89787343D01*
X115263100Y-89215915D01*
X114263100Y-89215915D01*
X115263100Y-88739724D02*
X114263100Y-88739724D01*
X114263100Y-88501629D01*
X114310720Y-88358772D01*
X114405958Y-88263534D01*
X114501196Y-88215915D01*
X114691672Y-88168296D01*
X114834529Y-88168296D01*
X115025005Y-88215915D01*
X115120243Y-88263534D01*
X115215481Y-88358772D01*
X115263100Y-88501629D01*
X115263100Y-88739724D01*
X117000720Y-91244486D02*
X116967386Y-91311153D01*
X116967386Y-91411153D01*
X117000720Y-91511153D01*
X117067386Y-91577820D01*
X117134053Y-91611153D01*
X117267386Y-91644486D01*
X117367386Y-91644486D01*
X117500720Y-91611153D01*
X117567386Y-91577820D01*
X117634053Y-91511153D01*
X117667386Y-91411153D01*
X117667386Y-91344486D01*
X117634053Y-91244486D01*
X117600720Y-91211153D01*
X117367386Y-91211153D01*
X117367386Y-91344486D01*
X117667386Y-90911153D02*
X116967386Y-90911153D01*
X116967386Y-90644486D01*
X117000720Y-90577820D01*
X117034053Y-90544486D01*
X117100720Y-90511153D01*
X117200720Y-90511153D01*
X117267386Y-90544486D01*
X117300720Y-90577820D01*
X117334053Y-90644486D01*
X117334053Y-90911153D01*
X117667386Y-90211153D02*
X116967386Y-90211153D01*
X116967386Y-89744486D02*
X116967386Y-89611153D01*
X117000720Y-89544486D01*
X117067386Y-89477820D01*
X117200720Y-89444486D01*
X117434053Y-89444486D01*
X117567386Y-89477820D01*
X117634053Y-89544486D01*
X117667386Y-89611153D01*
X117667386Y-89744486D01*
X117634053Y-89811153D01*
X117567386Y-89877820D01*
X117434053Y-89911153D01*
X117200720Y-89911153D01*
X117067386Y-89877820D01*
X117000720Y-89811153D01*
X116967386Y-89744486D01*
X117034053Y-89177820D02*
X117000720Y-89144486D01*
X116967386Y-89077820D01*
X116967386Y-88911153D01*
X117000720Y-88844486D01*
X117034053Y-88811153D01*
X117100720Y-88777820D01*
X117167386Y-88777820D01*
X117267386Y-88811153D01*
X117667386Y-89211153D01*
X117667386Y-88777820D01*
X116967386Y-88544486D02*
X116967386Y-88111153D01*
X117234053Y-88344486D01*
X117234053Y-88244486D01*
X117267386Y-88177820D01*
X117300720Y-88144486D01*
X117367386Y-88111153D01*
X117534053Y-88111153D01*
X117600720Y-88144486D01*
X117634053Y-88177820D01*
X117667386Y-88244486D01*
X117667386Y-88444486D01*
X117634053Y-88511153D01*
X117600720Y-88544486D01*
X137320720Y-90577820D02*
X137287386Y-90644486D01*
X137287386Y-90744486D01*
X137320720Y-90844486D01*
X137387386Y-90911153D01*
X137454053Y-90944486D01*
X137587386Y-90977820D01*
X137687386Y-90977820D01*
X137820720Y-90944486D01*
X137887386Y-90911153D01*
X137954053Y-90844486D01*
X137987386Y-90744486D01*
X137987386Y-90677820D01*
X137954053Y-90577820D01*
X137920720Y-90544486D01*
X137687386Y-90544486D01*
X137687386Y-90677820D01*
X137987386Y-90244486D02*
X137287386Y-90244486D01*
X137287386Y-89977820D01*
X137320720Y-89911153D01*
X137354053Y-89877820D01*
X137420720Y-89844486D01*
X137520720Y-89844486D01*
X137587386Y-89877820D01*
X137620720Y-89911153D01*
X137654053Y-89977820D01*
X137654053Y-90244486D01*
X137987386Y-89544486D02*
X137287386Y-89544486D01*
X137287386Y-89077820D02*
X137287386Y-88944486D01*
X137320720Y-88877820D01*
X137387386Y-88811153D01*
X137520720Y-88777820D01*
X137754053Y-88777820D01*
X137887386Y-88811153D01*
X137954053Y-88877820D01*
X137987386Y-88944486D01*
X137987386Y-89077820D01*
X137954053Y-89144486D01*
X137887386Y-89211153D01*
X137754053Y-89244486D01*
X137520720Y-89244486D01*
X137387386Y-89211153D01*
X137320720Y-89144486D01*
X137287386Y-89077820D01*
X137287386Y-88144486D02*
X137287386Y-88477820D01*
X137620720Y-88511153D01*
X137587386Y-88477820D01*
X137554053Y-88411153D01*
X137554053Y-88244486D01*
X137587386Y-88177820D01*
X137620720Y-88144486D01*
X137687386Y-88111153D01*
X137854053Y-88111153D01*
X137920720Y-88144486D01*
X137954053Y-88177820D01*
X137987386Y-88244486D01*
X137987386Y-88411153D01*
X137954053Y-88477820D01*
X137920720Y-88511153D01*
X158307386Y-89177820D02*
X157607386Y-89177820D01*
X157607386Y-89011153D01*
X157640720Y-88911153D01*
X157707386Y-88844486D01*
X157774053Y-88811153D01*
X157907386Y-88777820D01*
X158007386Y-88777820D01*
X158140720Y-88811153D01*
X158207386Y-88844486D01*
X158274053Y-88911153D01*
X158307386Y-89011153D01*
X158307386Y-89177820D01*
X157607386Y-88344486D02*
X157607386Y-88277820D01*
X157640720Y-88211153D01*
X157674053Y-88177820D01*
X157740720Y-88144486D01*
X157874053Y-88111153D01*
X158040720Y-88111153D01*
X158174053Y-88144486D01*
X158240720Y-88177820D01*
X158274053Y-88211153D01*
X158307386Y-88277820D01*
X158307386Y-88344486D01*
X158274053Y-88411153D01*
X158240720Y-88444486D01*
X158174053Y-88477820D01*
X158040720Y-88511153D01*
X157874053Y-88511153D01*
X157740720Y-88477820D01*
X157674053Y-88444486D01*
X157640720Y-88411153D01*
X157607386Y-88344486D01*
X160234380Y-109932214D02*
X160234380Y-110408404D01*
X160710571Y-110456023D01*
X160662952Y-110408404D01*
X160615333Y-110313166D01*
X160615333Y-110075071D01*
X160662952Y-109979833D01*
X160710571Y-109932214D01*
X160805809Y-109884595D01*
X161043904Y-109884595D01*
X161139142Y-109932214D01*
X161186761Y-109979833D01*
X161234380Y-110075071D01*
X161234380Y-110313166D01*
X161186761Y-110408404D01*
X161139142Y-110456023D01*
X160234380Y-109598880D02*
X161234380Y-109265547D01*
X160234380Y-108932214D01*
X127160720Y-91244486D02*
X127127386Y-91311153D01*
X127127386Y-91411153D01*
X127160720Y-91511153D01*
X127227386Y-91577820D01*
X127294053Y-91611153D01*
X127427386Y-91644486D01*
X127527386Y-91644486D01*
X127660720Y-91611153D01*
X127727386Y-91577820D01*
X127794053Y-91511153D01*
X127827386Y-91411153D01*
X127827386Y-91344486D01*
X127794053Y-91244486D01*
X127760720Y-91211153D01*
X127527386Y-91211153D01*
X127527386Y-91344486D01*
X127827386Y-90911153D02*
X127127386Y-90911153D01*
X127127386Y-90644486D01*
X127160720Y-90577820D01*
X127194053Y-90544486D01*
X127260720Y-90511153D01*
X127360720Y-90511153D01*
X127427386Y-90544486D01*
X127460720Y-90577820D01*
X127494053Y-90644486D01*
X127494053Y-90911153D01*
X127827386Y-90211153D02*
X127127386Y-90211153D01*
X127127386Y-89744486D02*
X127127386Y-89611153D01*
X127160720Y-89544486D01*
X127227386Y-89477820D01*
X127360720Y-89444486D01*
X127594053Y-89444486D01*
X127727386Y-89477820D01*
X127794053Y-89544486D01*
X127827386Y-89611153D01*
X127827386Y-89744486D01*
X127794053Y-89811153D01*
X127727386Y-89877820D01*
X127594053Y-89911153D01*
X127360720Y-89911153D01*
X127227386Y-89877820D01*
X127160720Y-89811153D01*
X127127386Y-89744486D01*
X127194053Y-89177820D02*
X127160720Y-89144486D01*
X127127386Y-89077820D01*
X127127386Y-88911153D01*
X127160720Y-88844486D01*
X127194053Y-88811153D01*
X127260720Y-88777820D01*
X127327386Y-88777820D01*
X127427386Y-88811153D01*
X127827386Y-89211153D01*
X127827386Y-88777820D01*
X127827386Y-88111153D02*
X127827386Y-88511153D01*
X127827386Y-88311153D02*
X127127386Y-88311153D01*
X127227386Y-88377820D01*
X127294053Y-88444486D01*
X127327386Y-88511153D01*
X155767386Y-89177820D02*
X155067386Y-89177820D01*
X155067386Y-89011153D01*
X155100720Y-88911153D01*
X155167386Y-88844486D01*
X155234053Y-88811153D01*
X155367386Y-88777820D01*
X155467386Y-88777820D01*
X155600720Y-88811153D01*
X155667386Y-88844486D01*
X155734053Y-88911153D01*
X155767386Y-89011153D01*
X155767386Y-89177820D01*
X155767386Y-88111153D02*
X155767386Y-88511153D01*
X155767386Y-88311153D02*
X155067386Y-88311153D01*
X155167386Y-88377820D01*
X155234053Y-88444486D01*
X155267386Y-88511153D01*
X144940720Y-110109486D02*
X144907386Y-110176153D01*
X144907386Y-110276153D01*
X144940720Y-110376153D01*
X145007386Y-110442820D01*
X145074053Y-110476153D01*
X145207386Y-110509486D01*
X145307386Y-110509486D01*
X145440720Y-110476153D01*
X145507386Y-110442820D01*
X145574053Y-110376153D01*
X145607386Y-110276153D01*
X145607386Y-110209486D01*
X145574053Y-110109486D01*
X145540720Y-110076153D01*
X145307386Y-110076153D01*
X145307386Y-110209486D01*
X145607386Y-109776153D02*
X144907386Y-109776153D01*
X144907386Y-109509486D01*
X144940720Y-109442820D01*
X144974053Y-109409486D01*
X145040720Y-109376153D01*
X145140720Y-109376153D01*
X145207386Y-109409486D01*
X145240720Y-109442820D01*
X145274053Y-109509486D01*
X145274053Y-109776153D01*
X145607386Y-109076153D02*
X144907386Y-109076153D01*
X144907386Y-108609486D02*
X144907386Y-108476153D01*
X144940720Y-108409486D01*
X145007386Y-108342820D01*
X145140720Y-108309486D01*
X145374053Y-108309486D01*
X145507386Y-108342820D01*
X145574053Y-108409486D01*
X145607386Y-108476153D01*
X145607386Y-108609486D01*
X145574053Y-108676153D01*
X145507386Y-108742820D01*
X145374053Y-108776153D01*
X145140720Y-108776153D01*
X145007386Y-108742820D01*
X144940720Y-108676153D01*
X144907386Y-108609486D01*
X145607386Y-107642820D02*
X145607386Y-108042820D01*
X145607386Y-107842820D02*
X144907386Y-107842820D01*
X145007386Y-107909486D01*
X145074053Y-107976153D01*
X145107386Y-108042820D01*
X144974053Y-107376153D02*
X144940720Y-107342820D01*
X144907386Y-107276153D01*
X144907386Y-107109486D01*
X144940720Y-107042820D01*
X144974053Y-107009486D01*
X145040720Y-106976153D01*
X145107386Y-106976153D01*
X145207386Y-107009486D01*
X145607386Y-107409486D01*
X145607386Y-106976153D01*
X144874053Y-106176153D02*
X145774053Y-106776153D01*
X145607386Y-105942820D02*
X144907386Y-105942820D01*
X145407386Y-105709486D01*
X144907386Y-105476153D01*
X145607386Y-105476153D01*
X144907386Y-105242820D02*
X144907386Y-104842820D01*
X145607386Y-105042820D02*
X144907386Y-105042820D01*
X145607386Y-104609486D02*
X144907386Y-104609486D01*
X144907386Y-104442820D01*
X144940720Y-104342820D01*
X145007386Y-104276153D01*
X145074053Y-104242820D01*
X145207386Y-104209486D01*
X145307386Y-104209486D01*
X145440720Y-104242820D01*
X145507386Y-104276153D01*
X145574053Y-104342820D01*
X145607386Y-104442820D01*
X145607386Y-104609486D01*
X145607386Y-103909486D02*
X144907386Y-103909486D01*
X119507386Y-110576153D02*
X120207386Y-110342820D01*
X119507386Y-110109486D01*
X120207386Y-109876153D02*
X119507386Y-109876153D01*
X119507386Y-109609486D01*
X119540720Y-109542820D01*
X119574053Y-109509486D01*
X119640720Y-109476153D01*
X119740720Y-109476153D01*
X119807386Y-109509486D01*
X119840720Y-109542820D01*
X119874053Y-109609486D01*
X119874053Y-109876153D01*
X119474053Y-108676153D02*
X120374053Y-109276153D01*
X119540720Y-108076153D02*
X119507386Y-108142820D01*
X119507386Y-108242820D01*
X119540720Y-108342820D01*
X119607386Y-108409486D01*
X119674053Y-108442820D01*
X119807386Y-108476153D01*
X119907386Y-108476153D01*
X120040720Y-108442820D01*
X120107386Y-108409486D01*
X120174053Y-108342820D01*
X120207386Y-108242820D01*
X120207386Y-108176153D01*
X120174053Y-108076153D01*
X120140720Y-108042820D01*
X119907386Y-108042820D01*
X119907386Y-108176153D01*
X120207386Y-107742820D02*
X119507386Y-107742820D01*
X119507386Y-107476153D01*
X119540720Y-107409486D01*
X119574053Y-107376153D01*
X119640720Y-107342820D01*
X119740720Y-107342820D01*
X119807386Y-107376153D01*
X119840720Y-107409486D01*
X119874053Y-107476153D01*
X119874053Y-107742820D01*
X120207386Y-107042820D02*
X119507386Y-107042820D01*
X119507386Y-106576153D02*
X119507386Y-106442820D01*
X119540720Y-106376153D01*
X119607386Y-106309486D01*
X119740720Y-106276153D01*
X119974053Y-106276153D01*
X120107386Y-106309486D01*
X120174053Y-106376153D01*
X120207386Y-106442820D01*
X120207386Y-106576153D01*
X120174053Y-106642820D01*
X120107386Y-106709486D01*
X119974053Y-106742820D01*
X119740720Y-106742820D01*
X119607386Y-106709486D01*
X119540720Y-106642820D01*
X119507386Y-106576153D01*
X119507386Y-106042820D02*
X119507386Y-105609486D01*
X119774053Y-105842820D01*
X119774053Y-105742820D01*
X119807386Y-105676153D01*
X119840720Y-105642820D01*
X119907386Y-105609486D01*
X120074053Y-105609486D01*
X120140720Y-105642820D01*
X120174053Y-105676153D01*
X120207386Y-105742820D01*
X120207386Y-105942820D01*
X120174053Y-106009486D01*
X120140720Y-106042820D01*
X119507386Y-105009486D02*
X119507386Y-105142820D01*
X119540720Y-105209486D01*
X119574053Y-105242820D01*
X119674053Y-105309486D01*
X119807386Y-105342820D01*
X120074053Y-105342820D01*
X120140720Y-105309486D01*
X120174053Y-105276153D01*
X120207386Y-105209486D01*
X120207386Y-105076153D01*
X120174053Y-105009486D01*
X120140720Y-104976153D01*
X120074053Y-104942820D01*
X119907386Y-104942820D01*
X119840720Y-104976153D01*
X119807386Y-105009486D01*
X119774053Y-105076153D01*
X119774053Y-105209486D01*
X119807386Y-105276153D01*
X119840720Y-105309486D01*
X119907386Y-105342820D01*
X153227386Y-110476153D02*
X152527386Y-110476153D01*
X152527386Y-110309486D01*
X152560720Y-110209486D01*
X152627386Y-110142820D01*
X152694053Y-110109486D01*
X152827386Y-110076153D01*
X152927386Y-110076153D01*
X153060720Y-110109486D01*
X153127386Y-110142820D01*
X153194053Y-110209486D01*
X153227386Y-110309486D01*
X153227386Y-110476153D01*
X152594053Y-109809486D02*
X152560720Y-109776153D01*
X152527386Y-109709486D01*
X152527386Y-109542820D01*
X152560720Y-109476153D01*
X152594053Y-109442820D01*
X152660720Y-109409486D01*
X152727386Y-109409486D01*
X152827386Y-109442820D01*
X153227386Y-109842820D01*
X153227386Y-109409486D01*
X139860720Y-110109486D02*
X139827386Y-110176153D01*
X139827386Y-110276153D01*
X139860720Y-110376153D01*
X139927386Y-110442820D01*
X139994053Y-110476153D01*
X140127386Y-110509486D01*
X140227386Y-110509486D01*
X140360720Y-110476153D01*
X140427386Y-110442820D01*
X140494053Y-110376153D01*
X140527386Y-110276153D01*
X140527386Y-110209486D01*
X140494053Y-110109486D01*
X140460720Y-110076153D01*
X140227386Y-110076153D01*
X140227386Y-110209486D01*
X140527386Y-109776153D02*
X139827386Y-109776153D01*
X139827386Y-109509486D01*
X139860720Y-109442820D01*
X139894053Y-109409486D01*
X139960720Y-109376153D01*
X140060720Y-109376153D01*
X140127386Y-109409486D01*
X140160720Y-109442820D01*
X140194053Y-109509486D01*
X140194053Y-109776153D01*
X140527386Y-109076153D02*
X139827386Y-109076153D01*
X139827386Y-108609486D02*
X139827386Y-108476153D01*
X139860720Y-108409486D01*
X139927386Y-108342820D01*
X140060720Y-108309486D01*
X140294053Y-108309486D01*
X140427386Y-108342820D01*
X140494053Y-108409486D01*
X140527386Y-108476153D01*
X140527386Y-108609486D01*
X140494053Y-108676153D01*
X140427386Y-108742820D01*
X140294053Y-108776153D01*
X140060720Y-108776153D01*
X139927386Y-108742820D01*
X139860720Y-108676153D01*
X139827386Y-108609486D01*
X139894053Y-108042820D02*
X139860720Y-108009486D01*
X139827386Y-107942820D01*
X139827386Y-107776153D01*
X139860720Y-107709486D01*
X139894053Y-107676153D01*
X139960720Y-107642820D01*
X140027386Y-107642820D01*
X140127386Y-107676153D01*
X140527386Y-108076153D01*
X140527386Y-107642820D01*
X139827386Y-107409486D02*
X139827386Y-106942820D01*
X140527386Y-107242820D01*
X132240720Y-110109486D02*
X132207386Y-110176153D01*
X132207386Y-110276153D01*
X132240720Y-110376153D01*
X132307386Y-110442820D01*
X132374053Y-110476153D01*
X132507386Y-110509486D01*
X132607386Y-110509486D01*
X132740720Y-110476153D01*
X132807386Y-110442820D01*
X132874053Y-110376153D01*
X132907386Y-110276153D01*
X132907386Y-110209486D01*
X132874053Y-110109486D01*
X132840720Y-110076153D01*
X132607386Y-110076153D01*
X132607386Y-110209486D01*
X132907386Y-109776153D02*
X132207386Y-109776153D01*
X132207386Y-109509486D01*
X132240720Y-109442820D01*
X132274053Y-109409486D01*
X132340720Y-109376153D01*
X132440720Y-109376153D01*
X132507386Y-109409486D01*
X132540720Y-109442820D01*
X132574053Y-109509486D01*
X132574053Y-109776153D01*
X132907386Y-109076153D02*
X132207386Y-109076153D01*
X132207386Y-108609486D02*
X132207386Y-108476153D01*
X132240720Y-108409486D01*
X132307386Y-108342820D01*
X132440720Y-108309486D01*
X132674053Y-108309486D01*
X132807386Y-108342820D01*
X132874053Y-108409486D01*
X132907386Y-108476153D01*
X132907386Y-108609486D01*
X132874053Y-108676153D01*
X132807386Y-108742820D01*
X132674053Y-108776153D01*
X132440720Y-108776153D01*
X132307386Y-108742820D01*
X132240720Y-108676153D01*
X132207386Y-108609486D01*
X132207386Y-108076153D02*
X132207386Y-107642820D01*
X132474053Y-107876153D01*
X132474053Y-107776153D01*
X132507386Y-107709486D01*
X132540720Y-107676153D01*
X132607386Y-107642820D01*
X132774053Y-107642820D01*
X132840720Y-107676153D01*
X132874053Y-107709486D01*
X132907386Y-107776153D01*
X132907386Y-107976153D01*
X132874053Y-108042820D01*
X132840720Y-108076153D01*
X132207386Y-107409486D02*
X132207386Y-106976153D01*
X132474053Y-107209486D01*
X132474053Y-107109486D01*
X132507386Y-107042820D01*
X132540720Y-107009486D01*
X132607386Y-106976153D01*
X132774053Y-106976153D01*
X132840720Y-107009486D01*
X132874053Y-107042820D01*
X132907386Y-107109486D01*
X132907386Y-107309486D01*
X132874053Y-107376153D01*
X132840720Y-107409486D01*
X132240720Y-91244486D02*
X132207386Y-91311153D01*
X132207386Y-91411153D01*
X132240720Y-91511153D01*
X132307386Y-91577820D01*
X132374053Y-91611153D01*
X132507386Y-91644486D01*
X132607386Y-91644486D01*
X132740720Y-91611153D01*
X132807386Y-91577820D01*
X132874053Y-91511153D01*
X132907386Y-91411153D01*
X132907386Y-91344486D01*
X132874053Y-91244486D01*
X132840720Y-91211153D01*
X132607386Y-91211153D01*
X132607386Y-91344486D01*
X132907386Y-90911153D02*
X132207386Y-90911153D01*
X132207386Y-90644486D01*
X132240720Y-90577820D01*
X132274053Y-90544486D01*
X132340720Y-90511153D01*
X132440720Y-90511153D01*
X132507386Y-90544486D01*
X132540720Y-90577820D01*
X132574053Y-90644486D01*
X132574053Y-90911153D01*
X132907386Y-90211153D02*
X132207386Y-90211153D01*
X132207386Y-89744486D02*
X132207386Y-89611153D01*
X132240720Y-89544486D01*
X132307386Y-89477820D01*
X132440720Y-89444486D01*
X132674053Y-89444486D01*
X132807386Y-89477820D01*
X132874053Y-89544486D01*
X132907386Y-89611153D01*
X132907386Y-89744486D01*
X132874053Y-89811153D01*
X132807386Y-89877820D01*
X132674053Y-89911153D01*
X132440720Y-89911153D01*
X132307386Y-89877820D01*
X132240720Y-89811153D01*
X132207386Y-89744486D01*
X132907386Y-88777820D02*
X132907386Y-89177820D01*
X132907386Y-88977820D02*
X132207386Y-88977820D01*
X132307386Y-89044486D01*
X132374053Y-89111153D01*
X132407386Y-89177820D01*
X132907386Y-88444486D02*
X132907386Y-88311153D01*
X132874053Y-88244486D01*
X132840720Y-88211153D01*
X132740720Y-88144486D01*
X132607386Y-88111153D01*
X132340720Y-88111153D01*
X132274053Y-88144486D01*
X132240720Y-88177820D01*
X132207386Y-88244486D01*
X132207386Y-88377820D01*
X132240720Y-88444486D01*
X132274053Y-88477820D01*
X132340720Y-88511153D01*
X132507386Y-88511153D01*
X132574053Y-88477820D01*
X132607386Y-88444486D01*
X132640720Y-88377820D01*
X132640720Y-88244486D01*
X132607386Y-88177820D01*
X132574053Y-88144486D01*
X132507386Y-88111153D01*
X122047386Y-110576153D02*
X122747386Y-110342820D01*
X122047386Y-110109486D01*
X122747386Y-109876153D02*
X122047386Y-109876153D01*
X122747386Y-109476153D01*
X122047386Y-109476153D01*
X122014053Y-108642820D02*
X122914053Y-109242820D01*
X122080720Y-108042820D02*
X122047386Y-108109486D01*
X122047386Y-108209486D01*
X122080720Y-108309486D01*
X122147386Y-108376153D01*
X122214053Y-108409486D01*
X122347386Y-108442820D01*
X122447386Y-108442820D01*
X122580720Y-108409486D01*
X122647386Y-108376153D01*
X122714053Y-108309486D01*
X122747386Y-108209486D01*
X122747386Y-108142820D01*
X122714053Y-108042820D01*
X122680720Y-108009486D01*
X122447386Y-108009486D01*
X122447386Y-108142820D01*
X122747386Y-107709486D02*
X122047386Y-107709486D01*
X122047386Y-107442820D01*
X122080720Y-107376153D01*
X122114053Y-107342820D01*
X122180720Y-107309486D01*
X122280720Y-107309486D01*
X122347386Y-107342820D01*
X122380720Y-107376153D01*
X122414053Y-107442820D01*
X122414053Y-107709486D01*
X122747386Y-107009486D02*
X122047386Y-107009486D01*
X122047386Y-106542820D02*
X122047386Y-106409486D01*
X122080720Y-106342820D01*
X122147386Y-106276153D01*
X122280720Y-106242820D01*
X122514053Y-106242820D01*
X122647386Y-106276153D01*
X122714053Y-106342820D01*
X122747386Y-106409486D01*
X122747386Y-106542820D01*
X122714053Y-106609486D01*
X122647386Y-106676153D01*
X122514053Y-106709486D01*
X122280720Y-106709486D01*
X122147386Y-106676153D01*
X122080720Y-106609486D01*
X122047386Y-106542820D01*
X122047386Y-106009486D02*
X122047386Y-105576153D01*
X122314053Y-105809486D01*
X122314053Y-105709486D01*
X122347386Y-105642820D01*
X122380720Y-105609486D01*
X122447386Y-105576153D01*
X122614053Y-105576153D01*
X122680720Y-105609486D01*
X122714053Y-105642820D01*
X122747386Y-105709486D01*
X122747386Y-105909486D01*
X122714053Y-105976153D01*
X122680720Y-106009486D01*
X122747386Y-105242820D02*
X122747386Y-105109486D01*
X122714053Y-105042820D01*
X122680720Y-105009486D01*
X122580720Y-104942820D01*
X122447386Y-104909486D01*
X122180720Y-104909486D01*
X122114053Y-104942820D01*
X122080720Y-104976153D01*
X122047386Y-105042820D01*
X122047386Y-105176153D01*
X122080720Y-105242820D01*
X122114053Y-105276153D01*
X122180720Y-105309486D01*
X122347386Y-105309486D01*
X122414053Y-105276153D01*
X122447386Y-105242820D01*
X122480720Y-105176153D01*
X122480720Y-105042820D01*
X122447386Y-104976153D01*
X122414053Y-104942820D01*
X122347386Y-104909486D01*
X150020720Y-110109486D02*
X149987386Y-110176153D01*
X149987386Y-110276153D01*
X150020720Y-110376153D01*
X150087386Y-110442820D01*
X150154053Y-110476153D01*
X150287386Y-110509486D01*
X150387386Y-110509486D01*
X150520720Y-110476153D01*
X150587386Y-110442820D01*
X150654053Y-110376153D01*
X150687386Y-110276153D01*
X150687386Y-110209486D01*
X150654053Y-110109486D01*
X150620720Y-110076153D01*
X150387386Y-110076153D01*
X150387386Y-110209486D01*
X150687386Y-109776153D02*
X149987386Y-109776153D01*
X149987386Y-109509486D01*
X150020720Y-109442820D01*
X150054053Y-109409486D01*
X150120720Y-109376153D01*
X150220720Y-109376153D01*
X150287386Y-109409486D01*
X150320720Y-109442820D01*
X150354053Y-109509486D01*
X150354053Y-109776153D01*
X150687386Y-109076153D02*
X149987386Y-109076153D01*
X149987386Y-108609486D02*
X149987386Y-108476153D01*
X150020720Y-108409486D01*
X150087386Y-108342820D01*
X150220720Y-108309486D01*
X150454053Y-108309486D01*
X150587386Y-108342820D01*
X150654053Y-108409486D01*
X150687386Y-108476153D01*
X150687386Y-108609486D01*
X150654053Y-108676153D01*
X150587386Y-108742820D01*
X150454053Y-108776153D01*
X150220720Y-108776153D01*
X150087386Y-108742820D01*
X150020720Y-108676153D01*
X149987386Y-108609486D01*
X150687386Y-107642820D02*
X150687386Y-108042820D01*
X150687386Y-107842820D02*
X149987386Y-107842820D01*
X150087386Y-107909486D01*
X150154053Y-107976153D01*
X150187386Y-108042820D01*
X149987386Y-107409486D02*
X149987386Y-106976153D01*
X150254053Y-107209486D01*
X150254053Y-107109486D01*
X150287386Y-107042820D01*
X150320720Y-107009486D01*
X150387386Y-106976153D01*
X150554053Y-106976153D01*
X150620720Y-107009486D01*
X150654053Y-107042820D01*
X150687386Y-107109486D01*
X150687386Y-107309486D01*
X150654053Y-107376153D01*
X150620720Y-107409486D01*
X149954053Y-106176153D02*
X150854053Y-106776153D01*
X150687386Y-105942820D02*
X149987386Y-105942820D01*
X150487386Y-105709486D01*
X149987386Y-105476153D01*
X150687386Y-105476153D01*
X149987386Y-105242820D02*
X149987386Y-104842820D01*
X150687386Y-105042820D02*
X149987386Y-105042820D01*
X150620720Y-104209486D02*
X150654053Y-104242820D01*
X150687386Y-104342820D01*
X150687386Y-104409486D01*
X150654053Y-104509486D01*
X150587386Y-104576153D01*
X150520720Y-104609486D01*
X150387386Y-104642820D01*
X150287386Y-104642820D01*
X150154053Y-104609486D01*
X150087386Y-104576153D01*
X150020720Y-104509486D01*
X149987386Y-104409486D01*
X149987386Y-104342820D01*
X150020720Y-104242820D01*
X150054053Y-104209486D01*
X150687386Y-103909486D02*
X149987386Y-103909486D01*
X150687386Y-103509486D02*
X150287386Y-103809486D01*
X149987386Y-103509486D02*
X150387386Y-103909486D01*
X150020720Y-90577820D02*
X149987386Y-90644486D01*
X149987386Y-90744486D01*
X150020720Y-90844486D01*
X150087386Y-90911153D01*
X150154053Y-90944486D01*
X150287386Y-90977820D01*
X150387386Y-90977820D01*
X150520720Y-90944486D01*
X150587386Y-90911153D01*
X150654053Y-90844486D01*
X150687386Y-90744486D01*
X150687386Y-90677820D01*
X150654053Y-90577820D01*
X150620720Y-90544486D01*
X150387386Y-90544486D01*
X150387386Y-90677820D01*
X150687386Y-90244486D02*
X149987386Y-90244486D01*
X149987386Y-89977820D01*
X150020720Y-89911153D01*
X150054053Y-89877820D01*
X150120720Y-89844486D01*
X150220720Y-89844486D01*
X150287386Y-89877820D01*
X150320720Y-89911153D01*
X150354053Y-89977820D01*
X150354053Y-90244486D01*
X150687386Y-89544486D02*
X149987386Y-89544486D01*
X149987386Y-89077820D02*
X149987386Y-88944486D01*
X150020720Y-88877820D01*
X150087386Y-88811153D01*
X150220720Y-88777820D01*
X150454053Y-88777820D01*
X150587386Y-88811153D01*
X150654053Y-88877820D01*
X150687386Y-88944486D01*
X150687386Y-89077820D01*
X150654053Y-89144486D01*
X150587386Y-89211153D01*
X150454053Y-89244486D01*
X150220720Y-89244486D01*
X150087386Y-89211153D01*
X150020720Y-89144486D01*
X149987386Y-89077820D01*
X150054053Y-88511153D02*
X150020720Y-88477820D01*
X149987386Y-88411153D01*
X149987386Y-88244486D01*
X150020720Y-88177820D01*
X150054053Y-88144486D01*
X150120720Y-88111153D01*
X150187386Y-88111153D01*
X150287386Y-88144486D01*
X150687386Y-88544486D01*
X150687386Y-88111153D01*
X137320720Y-110109486D02*
X137287386Y-110176153D01*
X137287386Y-110276153D01*
X137320720Y-110376153D01*
X137387386Y-110442820D01*
X137454053Y-110476153D01*
X137587386Y-110509486D01*
X137687386Y-110509486D01*
X137820720Y-110476153D01*
X137887386Y-110442820D01*
X137954053Y-110376153D01*
X137987386Y-110276153D01*
X137987386Y-110209486D01*
X137954053Y-110109486D01*
X137920720Y-110076153D01*
X137687386Y-110076153D01*
X137687386Y-110209486D01*
X137987386Y-109776153D02*
X137287386Y-109776153D01*
X137287386Y-109509486D01*
X137320720Y-109442820D01*
X137354053Y-109409486D01*
X137420720Y-109376153D01*
X137520720Y-109376153D01*
X137587386Y-109409486D01*
X137620720Y-109442820D01*
X137654053Y-109509486D01*
X137654053Y-109776153D01*
X137987386Y-109076153D02*
X137287386Y-109076153D01*
X137287386Y-108609486D02*
X137287386Y-108476153D01*
X137320720Y-108409486D01*
X137387386Y-108342820D01*
X137520720Y-108309486D01*
X137754053Y-108309486D01*
X137887386Y-108342820D01*
X137954053Y-108409486D01*
X137987386Y-108476153D01*
X137987386Y-108609486D01*
X137954053Y-108676153D01*
X137887386Y-108742820D01*
X137754053Y-108776153D01*
X137520720Y-108776153D01*
X137387386Y-108742820D01*
X137320720Y-108676153D01*
X137287386Y-108609486D01*
X137354053Y-108042820D02*
X137320720Y-108009486D01*
X137287386Y-107942820D01*
X137287386Y-107776153D01*
X137320720Y-107709486D01*
X137354053Y-107676153D01*
X137420720Y-107642820D01*
X137487386Y-107642820D01*
X137587386Y-107676153D01*
X137987386Y-108076153D01*
X137987386Y-107642820D01*
X137287386Y-107042820D02*
X137287386Y-107176153D01*
X137320720Y-107242820D01*
X137354053Y-107276153D01*
X137454053Y-107342820D01*
X137587386Y-107376153D01*
X137854053Y-107376153D01*
X137920720Y-107342820D01*
X137954053Y-107309486D01*
X137987386Y-107242820D01*
X137987386Y-107109486D01*
X137954053Y-107042820D01*
X137920720Y-107009486D01*
X137854053Y-106976153D01*
X137687386Y-106976153D01*
X137620720Y-107009486D01*
X137587386Y-107042820D01*
X137554053Y-107109486D01*
X137554053Y-107242820D01*
X137587386Y-107309486D01*
X137620720Y-107342820D01*
X137687386Y-107376153D01*
X124620720Y-94777820D02*
X124587386Y-94844486D01*
X124587386Y-94944486D01*
X124620720Y-95044486D01*
X124687386Y-95111153D01*
X124754053Y-95144486D01*
X124887386Y-95177820D01*
X124987386Y-95177820D01*
X125120720Y-95144486D01*
X125187386Y-95111153D01*
X125254053Y-95044486D01*
X125287386Y-94944486D01*
X125287386Y-94877820D01*
X125254053Y-94777820D01*
X125220720Y-94744486D01*
X124987386Y-94744486D01*
X124987386Y-94877820D01*
X125287386Y-94444486D02*
X124587386Y-94444486D01*
X124587386Y-94177820D01*
X124620720Y-94111153D01*
X124654053Y-94077820D01*
X124720720Y-94044486D01*
X124820720Y-94044486D01*
X124887386Y-94077820D01*
X124920720Y-94111153D01*
X124954053Y-94177820D01*
X124954053Y-94444486D01*
X125287386Y-93744486D02*
X124587386Y-93744486D01*
X124587386Y-93277820D02*
X124587386Y-93144486D01*
X124620720Y-93077820D01*
X124687386Y-93011153D01*
X124820720Y-92977820D01*
X125054053Y-92977820D01*
X125187386Y-93011153D01*
X125254053Y-93077820D01*
X125287386Y-93144486D01*
X125287386Y-93277820D01*
X125254053Y-93344486D01*
X125187386Y-93411153D01*
X125054053Y-93444486D01*
X124820720Y-93444486D01*
X124687386Y-93411153D01*
X124620720Y-93344486D01*
X124587386Y-93277820D01*
X124587386Y-92744486D02*
X124587386Y-92311153D01*
X124854053Y-92544486D01*
X124854053Y-92444486D01*
X124887386Y-92377820D01*
X124920720Y-92344486D01*
X124987386Y-92311153D01*
X125154053Y-92311153D01*
X125220720Y-92344486D01*
X125254053Y-92377820D01*
X125287386Y-92444486D01*
X125287386Y-92644486D01*
X125254053Y-92711153D01*
X125220720Y-92744486D01*
X124554053Y-91511153D02*
X125454053Y-92111153D01*
X124587386Y-91277820D02*
X125154053Y-91277820D01*
X125220720Y-91244486D01*
X125254053Y-91211153D01*
X125287386Y-91144486D01*
X125287386Y-91011153D01*
X125254053Y-90944486D01*
X125220720Y-90911153D01*
X125154053Y-90877820D01*
X124587386Y-90877820D01*
X124587386Y-90411153D02*
X124587386Y-90344486D01*
X124620720Y-90277820D01*
X124654053Y-90244486D01*
X124720720Y-90211153D01*
X124854053Y-90177820D01*
X125020720Y-90177820D01*
X125154053Y-90211153D01*
X125220720Y-90244486D01*
X125254053Y-90277820D01*
X125287386Y-90344486D01*
X125287386Y-90411153D01*
X125254053Y-90477820D01*
X125220720Y-90511153D01*
X125154053Y-90544486D01*
X125020720Y-90577820D01*
X124854053Y-90577820D01*
X124720720Y-90544486D01*
X124654053Y-90511153D01*
X124620720Y-90477820D01*
X124587386Y-90411153D01*
X125287386Y-89477820D02*
X124954053Y-89711153D01*
X125287386Y-89877820D02*
X124587386Y-89877820D01*
X124587386Y-89611153D01*
X124620720Y-89544486D01*
X124654053Y-89511153D01*
X124720720Y-89477820D01*
X124820720Y-89477820D01*
X124887386Y-89511153D01*
X124920720Y-89544486D01*
X124954053Y-89611153D01*
X124954053Y-89877820D01*
X124587386Y-89244486D02*
X125287386Y-88777820D01*
X124587386Y-88777820D02*
X125287386Y-89244486D01*
X125287386Y-88511153D02*
X124587386Y-88511153D01*
X124587386Y-88344486D01*
X124620720Y-88244486D01*
X124687386Y-88177820D01*
X124754053Y-88144486D01*
X124887386Y-88111153D01*
X124987386Y-88111153D01*
X125120720Y-88144486D01*
X125187386Y-88177820D01*
X125254053Y-88244486D01*
X125287386Y-88344486D01*
X125287386Y-88511153D01*
X114263100Y-110499962D02*
X114263100Y-109880915D01*
X114644053Y-110214248D01*
X114644053Y-110071391D01*
X114691672Y-109976153D01*
X114739291Y-109928534D01*
X114834529Y-109880915D01*
X115072624Y-109880915D01*
X115167862Y-109928534D01*
X115215481Y-109976153D01*
X115263100Y-110071391D01*
X115263100Y-110357105D01*
X115215481Y-110452343D01*
X115167862Y-110499962D01*
X114263100Y-109595200D02*
X115263100Y-109261867D01*
X114263100Y-108928534D01*
X114263100Y-108690439D02*
X114263100Y-108071391D01*
X114644053Y-108404724D01*
X114644053Y-108261867D01*
X114691672Y-108166629D01*
X114739291Y-108119010D01*
X114834529Y-108071391D01*
X115072624Y-108071391D01*
X115167862Y-108119010D01*
X115215481Y-108166629D01*
X115263100Y-108261867D01*
X115263100Y-108547581D01*
X115215481Y-108642820D01*
X115167862Y-108690439D01*
X142400720Y-91244486D02*
X142367386Y-91311153D01*
X142367386Y-91411153D01*
X142400720Y-91511153D01*
X142467386Y-91577820D01*
X142534053Y-91611153D01*
X142667386Y-91644486D01*
X142767386Y-91644486D01*
X142900720Y-91611153D01*
X142967386Y-91577820D01*
X143034053Y-91511153D01*
X143067386Y-91411153D01*
X143067386Y-91344486D01*
X143034053Y-91244486D01*
X143000720Y-91211153D01*
X142767386Y-91211153D01*
X142767386Y-91344486D01*
X143067386Y-90911153D02*
X142367386Y-90911153D01*
X142367386Y-90644486D01*
X142400720Y-90577820D01*
X142434053Y-90544486D01*
X142500720Y-90511153D01*
X142600720Y-90511153D01*
X142667386Y-90544486D01*
X142700720Y-90577820D01*
X142734053Y-90644486D01*
X142734053Y-90911153D01*
X143067386Y-90211153D02*
X142367386Y-90211153D01*
X142367386Y-89744486D02*
X142367386Y-89611153D01*
X142400720Y-89544486D01*
X142467386Y-89477820D01*
X142600720Y-89444486D01*
X142834053Y-89444486D01*
X142967386Y-89477820D01*
X143034053Y-89544486D01*
X143067386Y-89611153D01*
X143067386Y-89744486D01*
X143034053Y-89811153D01*
X142967386Y-89877820D01*
X142834053Y-89911153D01*
X142600720Y-89911153D01*
X142467386Y-89877820D01*
X142400720Y-89811153D01*
X142367386Y-89744486D01*
X143067386Y-88777820D02*
X143067386Y-89177820D01*
X143067386Y-88977820D02*
X142367386Y-88977820D01*
X142467386Y-89044486D01*
X142534053Y-89111153D01*
X142567386Y-89177820D01*
X142367386Y-88177820D02*
X142367386Y-88311153D01*
X142400720Y-88377820D01*
X142434053Y-88411153D01*
X142534053Y-88477820D01*
X142667386Y-88511153D01*
X142934053Y-88511153D01*
X143000720Y-88477820D01*
X143034053Y-88444486D01*
X143067386Y-88377820D01*
X143067386Y-88244486D01*
X143034053Y-88177820D01*
X143000720Y-88144486D01*
X142934053Y-88111153D01*
X142767386Y-88111153D01*
X142700720Y-88144486D01*
X142667386Y-88177820D01*
X142634053Y-88244486D01*
X142634053Y-88377820D01*
X142667386Y-88444486D01*
X142700720Y-88477820D01*
X142767386Y-88511153D01*
X129700720Y-110109486D02*
X129667386Y-110176153D01*
X129667386Y-110276153D01*
X129700720Y-110376153D01*
X129767386Y-110442820D01*
X129834053Y-110476153D01*
X129967386Y-110509486D01*
X130067386Y-110509486D01*
X130200720Y-110476153D01*
X130267386Y-110442820D01*
X130334053Y-110376153D01*
X130367386Y-110276153D01*
X130367386Y-110209486D01*
X130334053Y-110109486D01*
X130300720Y-110076153D01*
X130067386Y-110076153D01*
X130067386Y-110209486D01*
X130367386Y-109776153D02*
X129667386Y-109776153D01*
X129667386Y-109509486D01*
X129700720Y-109442820D01*
X129734053Y-109409486D01*
X129800720Y-109376153D01*
X129900720Y-109376153D01*
X129967386Y-109409486D01*
X130000720Y-109442820D01*
X130034053Y-109509486D01*
X130034053Y-109776153D01*
X130367386Y-109076153D02*
X129667386Y-109076153D01*
X129667386Y-108609486D02*
X129667386Y-108476153D01*
X129700720Y-108409486D01*
X129767386Y-108342820D01*
X129900720Y-108309486D01*
X130134053Y-108309486D01*
X130267386Y-108342820D01*
X130334053Y-108409486D01*
X130367386Y-108476153D01*
X130367386Y-108609486D01*
X130334053Y-108676153D01*
X130267386Y-108742820D01*
X130134053Y-108776153D01*
X129900720Y-108776153D01*
X129767386Y-108742820D01*
X129700720Y-108676153D01*
X129667386Y-108609486D01*
X129667386Y-108076153D02*
X129667386Y-107642820D01*
X129934053Y-107876153D01*
X129934053Y-107776153D01*
X129967386Y-107709486D01*
X130000720Y-107676153D01*
X130067386Y-107642820D01*
X130234053Y-107642820D01*
X130300720Y-107676153D01*
X130334053Y-107709486D01*
X130367386Y-107776153D01*
X130367386Y-107976153D01*
X130334053Y-108042820D01*
X130300720Y-108076153D01*
X129734053Y-107376153D02*
X129700720Y-107342820D01*
X129667386Y-107276153D01*
X129667386Y-107109486D01*
X129700720Y-107042820D01*
X129734053Y-107009486D01*
X129800720Y-106976153D01*
X129867386Y-106976153D01*
X129967386Y-107009486D01*
X130367386Y-107409486D01*
X130367386Y-106976153D01*
X147480720Y-90577820D02*
X147447386Y-90644486D01*
X147447386Y-90744486D01*
X147480720Y-90844486D01*
X147547386Y-90911153D01*
X147614053Y-90944486D01*
X147747386Y-90977820D01*
X147847386Y-90977820D01*
X147980720Y-90944486D01*
X148047386Y-90911153D01*
X148114053Y-90844486D01*
X148147386Y-90744486D01*
X148147386Y-90677820D01*
X148114053Y-90577820D01*
X148080720Y-90544486D01*
X147847386Y-90544486D01*
X147847386Y-90677820D01*
X148147386Y-90244486D02*
X147447386Y-90244486D01*
X147447386Y-89977820D01*
X147480720Y-89911153D01*
X147514053Y-89877820D01*
X147580720Y-89844486D01*
X147680720Y-89844486D01*
X147747386Y-89877820D01*
X147780720Y-89911153D01*
X147814053Y-89977820D01*
X147814053Y-90244486D01*
X148147386Y-89544486D02*
X147447386Y-89544486D01*
X147447386Y-89077820D02*
X147447386Y-88944486D01*
X147480720Y-88877820D01*
X147547386Y-88811153D01*
X147680720Y-88777820D01*
X147914053Y-88777820D01*
X148047386Y-88811153D01*
X148114053Y-88877820D01*
X148147386Y-88944486D01*
X148147386Y-89077820D01*
X148114053Y-89144486D01*
X148047386Y-89211153D01*
X147914053Y-89244486D01*
X147680720Y-89244486D01*
X147547386Y-89211153D01*
X147480720Y-89144486D01*
X147447386Y-89077820D01*
X147447386Y-88344486D02*
X147447386Y-88277820D01*
X147480720Y-88211153D01*
X147514053Y-88177820D01*
X147580720Y-88144486D01*
X147714053Y-88111153D01*
X147880720Y-88111153D01*
X148014053Y-88144486D01*
X148080720Y-88177820D01*
X148114053Y-88211153D01*
X148147386Y-88277820D01*
X148147386Y-88344486D01*
X148114053Y-88411153D01*
X148080720Y-88444486D01*
X148014053Y-88477820D01*
X147880720Y-88511153D01*
X147714053Y-88511153D01*
X147580720Y-88477820D01*
X147514053Y-88444486D01*
X147480720Y-88411153D01*
X147447386Y-88344486D01*
X147330720Y-109880915D02*
X147283100Y-109976153D01*
X147283100Y-110119010D01*
X147330720Y-110261867D01*
X147425958Y-110357105D01*
X147521196Y-110404724D01*
X147711672Y-110452343D01*
X147854529Y-110452343D01*
X148045005Y-110404724D01*
X148140243Y-110357105D01*
X148235481Y-110261867D01*
X148283100Y-110119010D01*
X148283100Y-110023772D01*
X148235481Y-109880915D01*
X148187862Y-109833296D01*
X147854529Y-109833296D01*
X147854529Y-110023772D01*
X148283100Y-109404724D02*
X147283100Y-109404724D01*
X148283100Y-108833296D01*
X147283100Y-108833296D01*
X148283100Y-108357105D02*
X147283100Y-108357105D01*
X147283100Y-108119010D01*
X147330720Y-107976153D01*
X147425958Y-107880915D01*
X147521196Y-107833296D01*
X147711672Y-107785677D01*
X147854529Y-107785677D01*
X148045005Y-107833296D01*
X148140243Y-107880915D01*
X148235481Y-107976153D01*
X148283100Y-108119010D01*
X148283100Y-108357105D01*
X160780720Y-89377820D02*
X160814053Y-89411153D01*
X160847386Y-89511153D01*
X160847386Y-89577820D01*
X160814053Y-89677820D01*
X160747386Y-89744486D01*
X160680720Y-89777820D01*
X160547386Y-89811153D01*
X160447386Y-89811153D01*
X160314053Y-89777820D01*
X160247386Y-89744486D01*
X160180720Y-89677820D01*
X160147386Y-89577820D01*
X160147386Y-89511153D01*
X160180720Y-89411153D01*
X160214053Y-89377820D01*
X160847386Y-88744486D02*
X160847386Y-89077820D01*
X160147386Y-89077820D01*
X160847386Y-88511153D02*
X160147386Y-88511153D01*
X160847386Y-88111153D02*
X160447386Y-88411153D01*
X160147386Y-88111153D02*
X160547386Y-88511153D01*
X117276571Y-110507214D02*
X117276571Y-110173880D01*
X117800380Y-110031023D02*
X117800380Y-110507214D01*
X116800380Y-110507214D01*
X116800380Y-110031023D01*
X117800380Y-109602452D02*
X116800380Y-109602452D01*
X117800380Y-109031023D01*
X116800380Y-109031023D01*
X116752761Y-107840547D02*
X118038476Y-108697690D01*
X117800380Y-106935785D02*
X117324190Y-107269119D01*
X117800380Y-107507214D02*
X116800380Y-107507214D01*
X116800380Y-107126261D01*
X116848000Y-107031023D01*
X116895619Y-106983404D01*
X116990857Y-106935785D01*
X117133714Y-106935785D01*
X117228952Y-106983404D01*
X117276571Y-107031023D01*
X117324190Y-107126261D01*
X117324190Y-107507214D01*
X117276571Y-106507214D02*
X117276571Y-106173880D01*
X117800380Y-106031023D02*
X117800380Y-106507214D01*
X116800380Y-106507214D01*
X116800380Y-106031023D01*
X117752761Y-105650071D02*
X117800380Y-105507214D01*
X117800380Y-105269119D01*
X117752761Y-105173880D01*
X117705142Y-105126261D01*
X117609904Y-105078642D01*
X117514666Y-105078642D01*
X117419428Y-105126261D01*
X117371809Y-105173880D01*
X117324190Y-105269119D01*
X117276571Y-105459595D01*
X117228952Y-105554833D01*
X117181333Y-105602452D01*
X117086095Y-105650071D01*
X116990857Y-105650071D01*
X116895619Y-105602452D01*
X116848000Y-105554833D01*
X116800380Y-105459595D01*
X116800380Y-105221500D01*
X116848000Y-105078642D01*
X117276571Y-104650071D02*
X117276571Y-104316738D01*
X117800380Y-104173880D02*
X117800380Y-104650071D01*
X116800380Y-104650071D01*
X116800380Y-104173880D01*
X116800380Y-103888166D02*
X116800380Y-103316738D01*
X117800380Y-103602452D02*
X116800380Y-103602452D01*
X144940720Y-90577820D02*
X144907386Y-90644486D01*
X144907386Y-90744486D01*
X144940720Y-90844486D01*
X145007386Y-90911153D01*
X145074053Y-90944486D01*
X145207386Y-90977820D01*
X145307386Y-90977820D01*
X145440720Y-90944486D01*
X145507386Y-90911153D01*
X145574053Y-90844486D01*
X145607386Y-90744486D01*
X145607386Y-90677820D01*
X145574053Y-90577820D01*
X145540720Y-90544486D01*
X145307386Y-90544486D01*
X145307386Y-90677820D01*
X145607386Y-90244486D02*
X144907386Y-90244486D01*
X144907386Y-89977820D01*
X144940720Y-89911153D01*
X144974053Y-89877820D01*
X145040720Y-89844486D01*
X145140720Y-89844486D01*
X145207386Y-89877820D01*
X145240720Y-89911153D01*
X145274053Y-89977820D01*
X145274053Y-90244486D01*
X145607386Y-89544486D02*
X144907386Y-89544486D01*
X144907386Y-89077820D02*
X144907386Y-88944486D01*
X144940720Y-88877820D01*
X145007386Y-88811153D01*
X145140720Y-88777820D01*
X145374053Y-88777820D01*
X145507386Y-88811153D01*
X145574053Y-88877820D01*
X145607386Y-88944486D01*
X145607386Y-89077820D01*
X145574053Y-89144486D01*
X145507386Y-89211153D01*
X145374053Y-89244486D01*
X145140720Y-89244486D01*
X145007386Y-89211153D01*
X144940720Y-89144486D01*
X144907386Y-89077820D01*
X145140720Y-88177820D02*
X145607386Y-88177820D01*
X144874053Y-88344486D02*
X145374053Y-88511153D01*
X145374053Y-88077820D01*
X127160720Y-110109486D02*
X127127386Y-110176153D01*
X127127386Y-110276153D01*
X127160720Y-110376153D01*
X127227386Y-110442820D01*
X127294053Y-110476153D01*
X127427386Y-110509486D01*
X127527386Y-110509486D01*
X127660720Y-110476153D01*
X127727386Y-110442820D01*
X127794053Y-110376153D01*
X127827386Y-110276153D01*
X127827386Y-110209486D01*
X127794053Y-110109486D01*
X127760720Y-110076153D01*
X127527386Y-110076153D01*
X127527386Y-110209486D01*
X127827386Y-109776153D02*
X127127386Y-109776153D01*
X127127386Y-109509486D01*
X127160720Y-109442820D01*
X127194053Y-109409486D01*
X127260720Y-109376153D01*
X127360720Y-109376153D01*
X127427386Y-109409486D01*
X127460720Y-109442820D01*
X127494053Y-109509486D01*
X127494053Y-109776153D01*
X127827386Y-109076153D02*
X127127386Y-109076153D01*
X127127386Y-108609486D02*
X127127386Y-108476153D01*
X127160720Y-108409486D01*
X127227386Y-108342820D01*
X127360720Y-108309486D01*
X127594053Y-108309486D01*
X127727386Y-108342820D01*
X127794053Y-108409486D01*
X127827386Y-108476153D01*
X127827386Y-108609486D01*
X127794053Y-108676153D01*
X127727386Y-108742820D01*
X127594053Y-108776153D01*
X127360720Y-108776153D01*
X127227386Y-108742820D01*
X127160720Y-108676153D01*
X127127386Y-108609486D01*
X127127386Y-108076153D02*
X127127386Y-107642820D01*
X127394053Y-107876153D01*
X127394053Y-107776153D01*
X127427386Y-107709486D01*
X127460720Y-107676153D01*
X127527386Y-107642820D01*
X127694053Y-107642820D01*
X127760720Y-107676153D01*
X127794053Y-107709486D01*
X127827386Y-107776153D01*
X127827386Y-107976153D01*
X127794053Y-108042820D01*
X127760720Y-108076153D01*
X127127386Y-107009486D02*
X127127386Y-107342820D01*
X127460720Y-107376153D01*
X127427386Y-107342820D01*
X127394053Y-107276153D01*
X127394053Y-107109486D01*
X127427386Y-107042820D01*
X127460720Y-107009486D01*
X127527386Y-106976153D01*
X127694053Y-106976153D01*
X127760720Y-107009486D01*
X127794053Y-107042820D01*
X127827386Y-107109486D01*
X127827386Y-107276153D01*
X127794053Y-107342820D01*
X127760720Y-107376153D01*
X142400720Y-110109486D02*
X142367386Y-110176153D01*
X142367386Y-110276153D01*
X142400720Y-110376153D01*
X142467386Y-110442820D01*
X142534053Y-110476153D01*
X142667386Y-110509486D01*
X142767386Y-110509486D01*
X142900720Y-110476153D01*
X142967386Y-110442820D01*
X143034053Y-110376153D01*
X143067386Y-110276153D01*
X143067386Y-110209486D01*
X143034053Y-110109486D01*
X143000720Y-110076153D01*
X142767386Y-110076153D01*
X142767386Y-110209486D01*
X143067386Y-109776153D02*
X142367386Y-109776153D01*
X142367386Y-109509486D01*
X142400720Y-109442820D01*
X142434053Y-109409486D01*
X142500720Y-109376153D01*
X142600720Y-109376153D01*
X142667386Y-109409486D01*
X142700720Y-109442820D01*
X142734053Y-109509486D01*
X142734053Y-109776153D01*
X143067386Y-109076153D02*
X142367386Y-109076153D01*
X142367386Y-108609486D02*
X142367386Y-108476153D01*
X142400720Y-108409486D01*
X142467386Y-108342820D01*
X142600720Y-108309486D01*
X142834053Y-108309486D01*
X142967386Y-108342820D01*
X143034053Y-108409486D01*
X143067386Y-108476153D01*
X143067386Y-108609486D01*
X143034053Y-108676153D01*
X142967386Y-108742820D01*
X142834053Y-108776153D01*
X142600720Y-108776153D01*
X142467386Y-108742820D01*
X142400720Y-108676153D01*
X142367386Y-108609486D01*
X143067386Y-107642820D02*
X143067386Y-108042820D01*
X143067386Y-107842820D02*
X142367386Y-107842820D01*
X142467386Y-107909486D01*
X142534053Y-107976153D01*
X142567386Y-108042820D01*
X142600720Y-107042820D02*
X143067386Y-107042820D01*
X142334053Y-107209486D02*
X142834053Y-107376153D01*
X142834053Y-106942820D01*
X142334053Y-106176153D02*
X143234053Y-106776153D01*
X143067386Y-105942820D02*
X142367386Y-105942820D01*
X142867386Y-105709486D01*
X142367386Y-105476153D01*
X143067386Y-105476153D01*
X142367386Y-105242820D02*
X142367386Y-104842820D01*
X143067386Y-105042820D02*
X142367386Y-105042820D01*
X143067386Y-104609486D02*
X142367386Y-104609486D01*
X142867386Y-104376153D01*
X142367386Y-104142820D01*
X143067386Y-104142820D01*
X143034053Y-103842820D02*
X143067386Y-103742820D01*
X143067386Y-103576153D01*
X143034053Y-103509486D01*
X143000720Y-103476153D01*
X142934053Y-103442820D01*
X142867386Y-103442820D01*
X142800720Y-103476153D01*
X142767386Y-103509486D01*
X142734053Y-103576153D01*
X142700720Y-103709486D01*
X142667386Y-103776153D01*
X142634053Y-103809486D01*
X142567386Y-103842820D01*
X142500720Y-103842820D01*
X142434053Y-103809486D01*
X142400720Y-103776153D01*
X142367386Y-103709486D01*
X142367386Y-103542820D01*
X142400720Y-103442820D01*
X124620720Y-110109486D02*
X124587386Y-110176153D01*
X124587386Y-110276153D01*
X124620720Y-110376153D01*
X124687386Y-110442820D01*
X124754053Y-110476153D01*
X124887386Y-110509486D01*
X124987386Y-110509486D01*
X125120720Y-110476153D01*
X125187386Y-110442820D01*
X125254053Y-110376153D01*
X125287386Y-110276153D01*
X125287386Y-110209486D01*
X125254053Y-110109486D01*
X125220720Y-110076153D01*
X124987386Y-110076153D01*
X124987386Y-110209486D01*
X125287386Y-109776153D02*
X124587386Y-109776153D01*
X124587386Y-109509486D01*
X124620720Y-109442820D01*
X124654053Y-109409486D01*
X124720720Y-109376153D01*
X124820720Y-109376153D01*
X124887386Y-109409486D01*
X124920720Y-109442820D01*
X124954053Y-109509486D01*
X124954053Y-109776153D01*
X125287386Y-109076153D02*
X124587386Y-109076153D01*
X124587386Y-108609486D02*
X124587386Y-108476153D01*
X124620720Y-108409486D01*
X124687386Y-108342820D01*
X124820720Y-108309486D01*
X125054053Y-108309486D01*
X125187386Y-108342820D01*
X125254053Y-108409486D01*
X125287386Y-108476153D01*
X125287386Y-108609486D01*
X125254053Y-108676153D01*
X125187386Y-108742820D01*
X125054053Y-108776153D01*
X124820720Y-108776153D01*
X124687386Y-108742820D01*
X124620720Y-108676153D01*
X124587386Y-108609486D01*
X124587386Y-108076153D02*
X124587386Y-107642820D01*
X124854053Y-107876153D01*
X124854053Y-107776153D01*
X124887386Y-107709486D01*
X124920720Y-107676153D01*
X124987386Y-107642820D01*
X125154053Y-107642820D01*
X125220720Y-107676153D01*
X125254053Y-107709486D01*
X125287386Y-107776153D01*
X125287386Y-107976153D01*
X125254053Y-108042820D01*
X125220720Y-108076153D01*
X124820720Y-107042820D02*
X125287386Y-107042820D01*
X124554053Y-107209486D02*
X125054053Y-107376153D01*
X125054053Y-106942820D01*
X155767386Y-110476153D02*
X155067386Y-110476153D01*
X155067386Y-110309486D01*
X155100720Y-110209486D01*
X155167386Y-110142820D01*
X155234053Y-110109486D01*
X155367386Y-110076153D01*
X155467386Y-110076153D01*
X155600720Y-110109486D01*
X155667386Y-110142820D01*
X155734053Y-110209486D01*
X155767386Y-110309486D01*
X155767386Y-110476153D01*
X155067386Y-109842820D02*
X155067386Y-109409486D01*
X155334053Y-109642820D01*
X155334053Y-109542820D01*
X155367386Y-109476153D01*
X155400720Y-109442820D01*
X155467386Y-109409486D01*
X155634053Y-109409486D01*
X155700720Y-109442820D01*
X155734053Y-109476153D01*
X155767386Y-109542820D01*
X155767386Y-109742820D01*
X155734053Y-109809486D01*
X155700720Y-109842820D01*
X134780720Y-91244486D02*
X134747386Y-91311153D01*
X134747386Y-91411153D01*
X134780720Y-91511153D01*
X134847386Y-91577820D01*
X134914053Y-91611153D01*
X135047386Y-91644486D01*
X135147386Y-91644486D01*
X135280720Y-91611153D01*
X135347386Y-91577820D01*
X135414053Y-91511153D01*
X135447386Y-91411153D01*
X135447386Y-91344486D01*
X135414053Y-91244486D01*
X135380720Y-91211153D01*
X135147386Y-91211153D01*
X135147386Y-91344486D01*
X135447386Y-90911153D02*
X134747386Y-90911153D01*
X134747386Y-90644486D01*
X134780720Y-90577820D01*
X134814053Y-90544486D01*
X134880720Y-90511153D01*
X134980720Y-90511153D01*
X135047386Y-90544486D01*
X135080720Y-90577820D01*
X135114053Y-90644486D01*
X135114053Y-90911153D01*
X135447386Y-90211153D02*
X134747386Y-90211153D01*
X134747386Y-89744486D02*
X134747386Y-89611153D01*
X134780720Y-89544486D01*
X134847386Y-89477820D01*
X134980720Y-89444486D01*
X135214053Y-89444486D01*
X135347386Y-89477820D01*
X135414053Y-89544486D01*
X135447386Y-89611153D01*
X135447386Y-89744486D01*
X135414053Y-89811153D01*
X135347386Y-89877820D01*
X135214053Y-89911153D01*
X134980720Y-89911153D01*
X134847386Y-89877820D01*
X134780720Y-89811153D01*
X134747386Y-89744486D01*
X135447386Y-88777820D02*
X135447386Y-89177820D01*
X135447386Y-88977820D02*
X134747386Y-88977820D01*
X134847386Y-89044486D01*
X134914053Y-89111153D01*
X134947386Y-89177820D01*
X135047386Y-88377820D02*
X135014053Y-88444486D01*
X134980720Y-88477820D01*
X134914053Y-88511153D01*
X134880720Y-88511153D01*
X134814053Y-88477820D01*
X134780720Y-88444486D01*
X134747386Y-88377820D01*
X134747386Y-88244486D01*
X134780720Y-88177820D01*
X134814053Y-88144486D01*
X134880720Y-88111153D01*
X134914053Y-88111153D01*
X134980720Y-88144486D01*
X135014053Y-88177820D01*
X135047386Y-88244486D01*
X135047386Y-88377820D01*
X135080720Y-88444486D01*
X135114053Y-88477820D01*
X135180720Y-88511153D01*
X135314053Y-88511153D01*
X135380720Y-88477820D01*
X135414053Y-88444486D01*
X135447386Y-88377820D01*
X135447386Y-88244486D01*
X135414053Y-88177820D01*
X135380720Y-88144486D01*
X135314053Y-88111153D01*
X135180720Y-88111153D01*
X135114053Y-88144486D01*
X135080720Y-88177820D01*
X135047386Y-88244486D01*
X158240720Y-110076153D02*
X158274053Y-110109486D01*
X158307386Y-110209486D01*
X158307386Y-110276153D01*
X158274053Y-110376153D01*
X158207386Y-110442820D01*
X158140720Y-110476153D01*
X158007386Y-110509486D01*
X157907386Y-110509486D01*
X157774053Y-110476153D01*
X157707386Y-110442820D01*
X157640720Y-110376153D01*
X157607386Y-110276153D01*
X157607386Y-110209486D01*
X157640720Y-110109486D01*
X157674053Y-110076153D01*
X158307386Y-109776153D02*
X157607386Y-109776153D01*
X158107386Y-109542820D01*
X157607386Y-109309486D01*
X158307386Y-109309486D01*
X158307386Y-108976153D02*
X157607386Y-108976153D01*
X157607386Y-108809486D01*
X157640720Y-108709486D01*
X157707386Y-108642820D01*
X157774053Y-108609486D01*
X157907386Y-108576153D01*
X158007386Y-108576153D01*
X158140720Y-108609486D01*
X158207386Y-108642820D01*
X158274053Y-108709486D01*
X158307386Y-108809486D01*
X158307386Y-108976153D01*
X119540720Y-91244486D02*
X119507386Y-91311153D01*
X119507386Y-91411153D01*
X119540720Y-91511153D01*
X119607386Y-91577820D01*
X119674053Y-91611153D01*
X119807386Y-91644486D01*
X119907386Y-91644486D01*
X120040720Y-91611153D01*
X120107386Y-91577820D01*
X120174053Y-91511153D01*
X120207386Y-91411153D01*
X120207386Y-91344486D01*
X120174053Y-91244486D01*
X120140720Y-91211153D01*
X119907386Y-91211153D01*
X119907386Y-91344486D01*
X120207386Y-90911153D02*
X119507386Y-90911153D01*
X119507386Y-90644486D01*
X119540720Y-90577820D01*
X119574053Y-90544486D01*
X119640720Y-90511153D01*
X119740720Y-90511153D01*
X119807386Y-90544486D01*
X119840720Y-90577820D01*
X119874053Y-90644486D01*
X119874053Y-90911153D01*
X120207386Y-90211153D02*
X119507386Y-90211153D01*
X119507386Y-89744486D02*
X119507386Y-89611153D01*
X119540720Y-89544486D01*
X119607386Y-89477820D01*
X119740720Y-89444486D01*
X119974053Y-89444486D01*
X120107386Y-89477820D01*
X120174053Y-89544486D01*
X120207386Y-89611153D01*
X120207386Y-89744486D01*
X120174053Y-89811153D01*
X120107386Y-89877820D01*
X119974053Y-89911153D01*
X119740720Y-89911153D01*
X119607386Y-89877820D01*
X119540720Y-89811153D01*
X119507386Y-89744486D01*
X119574053Y-89177820D02*
X119540720Y-89144486D01*
X119507386Y-89077820D01*
X119507386Y-88911153D01*
X119540720Y-88844486D01*
X119574053Y-88811153D01*
X119640720Y-88777820D01*
X119707386Y-88777820D01*
X119807386Y-88811153D01*
X120207386Y-89211153D01*
X120207386Y-88777820D01*
X119574053Y-88511153D02*
X119540720Y-88477820D01*
X119507386Y-88411153D01*
X119507386Y-88244486D01*
X119540720Y-88177820D01*
X119574053Y-88144486D01*
X119640720Y-88111153D01*
X119707386Y-88111153D01*
X119807386Y-88144486D01*
X120207386Y-88544486D01*
X120207386Y-88111153D01*
X129550720Y-90263534D02*
X129503100Y-90358772D01*
X129503100Y-90501629D01*
X129550720Y-90644486D01*
X129645958Y-90739724D01*
X129741196Y-90787343D01*
X129931672Y-90834962D01*
X130074529Y-90834962D01*
X130265005Y-90787343D01*
X130360243Y-90739724D01*
X130455481Y-90644486D01*
X130503100Y-90501629D01*
X130503100Y-90406391D01*
X130455481Y-90263534D01*
X130407862Y-90215915D01*
X130074529Y-90215915D01*
X130074529Y-90406391D01*
X130503100Y-89787343D02*
X129503100Y-89787343D01*
X130503100Y-89215915D01*
X129503100Y-89215915D01*
X130503100Y-88739724D02*
X129503100Y-88739724D01*
X129503100Y-88501629D01*
X129550720Y-88358772D01*
X129645958Y-88263534D01*
X129741196Y-88215915D01*
X129931672Y-88168296D01*
X130074529Y-88168296D01*
X130265005Y-88215915D01*
X130360243Y-88263534D01*
X130455481Y-88358772D01*
X130503100Y-88501629D01*
X130503100Y-88739724D01*
X139860720Y-91244486D02*
X139827386Y-91311153D01*
X139827386Y-91411153D01*
X139860720Y-91511153D01*
X139927386Y-91577820D01*
X139994053Y-91611153D01*
X140127386Y-91644486D01*
X140227386Y-91644486D01*
X140360720Y-91611153D01*
X140427386Y-91577820D01*
X140494053Y-91511153D01*
X140527386Y-91411153D01*
X140527386Y-91344486D01*
X140494053Y-91244486D01*
X140460720Y-91211153D01*
X140227386Y-91211153D01*
X140227386Y-91344486D01*
X140527386Y-90911153D02*
X139827386Y-90911153D01*
X139827386Y-90644486D01*
X139860720Y-90577820D01*
X139894053Y-90544486D01*
X139960720Y-90511153D01*
X140060720Y-90511153D01*
X140127386Y-90544486D01*
X140160720Y-90577820D01*
X140194053Y-90644486D01*
X140194053Y-90911153D01*
X140527386Y-90211153D02*
X139827386Y-90211153D01*
X139827386Y-89744486D02*
X139827386Y-89611153D01*
X139860720Y-89544486D01*
X139927386Y-89477820D01*
X140060720Y-89444486D01*
X140294053Y-89444486D01*
X140427386Y-89477820D01*
X140494053Y-89544486D01*
X140527386Y-89611153D01*
X140527386Y-89744486D01*
X140494053Y-89811153D01*
X140427386Y-89877820D01*
X140294053Y-89911153D01*
X140060720Y-89911153D01*
X139927386Y-89877820D01*
X139860720Y-89811153D01*
X139827386Y-89744486D01*
X140527386Y-88777820D02*
X140527386Y-89177820D01*
X140527386Y-88977820D02*
X139827386Y-88977820D01*
X139927386Y-89044486D01*
X139994053Y-89111153D01*
X140027386Y-89177820D01*
X139827386Y-88544486D02*
X139827386Y-88077820D01*
X140527386Y-88377820D01*
X122080720Y-94611153D02*
X122047386Y-94677820D01*
X122047386Y-94777820D01*
X122080720Y-94877820D01*
X122147386Y-94944486D01*
X122214053Y-94977820D01*
X122347386Y-95011153D01*
X122447386Y-95011153D01*
X122580720Y-94977820D01*
X122647386Y-94944486D01*
X122714053Y-94877820D01*
X122747386Y-94777820D01*
X122747386Y-94711153D01*
X122714053Y-94611153D01*
X122680720Y-94577820D01*
X122447386Y-94577820D01*
X122447386Y-94711153D01*
X122747386Y-94277820D02*
X122047386Y-94277820D01*
X122047386Y-94011153D01*
X122080720Y-93944486D01*
X122114053Y-93911153D01*
X122180720Y-93877820D01*
X122280720Y-93877820D01*
X122347386Y-93911153D01*
X122380720Y-93944486D01*
X122414053Y-94011153D01*
X122414053Y-94277820D01*
X122747386Y-93577820D02*
X122047386Y-93577820D01*
X122047386Y-93111153D02*
X122047386Y-92977820D01*
X122080720Y-92911153D01*
X122147386Y-92844486D01*
X122280720Y-92811153D01*
X122514053Y-92811153D01*
X122647386Y-92844486D01*
X122714053Y-92911153D01*
X122747386Y-92977820D01*
X122747386Y-93111153D01*
X122714053Y-93177820D01*
X122647386Y-93244486D01*
X122514053Y-93277820D01*
X122280720Y-93277820D01*
X122147386Y-93244486D01*
X122080720Y-93177820D01*
X122047386Y-93111153D01*
X122747386Y-92144486D02*
X122747386Y-92544486D01*
X122747386Y-92344486D02*
X122047386Y-92344486D01*
X122147386Y-92411153D01*
X122214053Y-92477820D01*
X122247386Y-92544486D01*
X122014053Y-91344486D02*
X122914053Y-91944486D01*
X122047386Y-91111153D02*
X122614053Y-91111153D01*
X122680720Y-91077820D01*
X122714053Y-91044486D01*
X122747386Y-90977820D01*
X122747386Y-90844486D01*
X122714053Y-90777820D01*
X122680720Y-90744486D01*
X122614053Y-90711153D01*
X122047386Y-90711153D01*
X122047386Y-90244486D02*
X122047386Y-90177820D01*
X122080720Y-90111153D01*
X122114053Y-90077820D01*
X122180720Y-90044486D01*
X122314053Y-90011153D01*
X122480720Y-90011153D01*
X122614053Y-90044486D01*
X122680720Y-90077820D01*
X122714053Y-90111153D01*
X122747386Y-90177820D01*
X122747386Y-90244486D01*
X122714053Y-90311153D01*
X122680720Y-90344486D01*
X122614053Y-90377820D01*
X122480720Y-90411153D01*
X122314053Y-90411153D01*
X122180720Y-90377820D01*
X122114053Y-90344486D01*
X122080720Y-90311153D01*
X122047386Y-90244486D01*
X122047386Y-89811153D02*
X122047386Y-89411153D01*
X122747386Y-89611153D02*
X122047386Y-89611153D01*
X122047386Y-89244486D02*
X122747386Y-88777820D01*
X122047386Y-88777820D02*
X122747386Y-89244486D01*
X122747386Y-88511153D02*
X122047386Y-88511153D01*
X122047386Y-88344486D01*
X122080720Y-88244486D01*
X122147386Y-88177820D01*
X122214053Y-88144486D01*
X122347386Y-88111153D01*
X122447386Y-88111153D01*
X122580720Y-88144486D01*
X122647386Y-88177820D01*
X122714053Y-88244486D01*
X122747386Y-88344486D01*
X122747386Y-88511153D01*
X152560720Y-94744486D02*
X152527386Y-94811153D01*
X152527386Y-94911153D01*
X152560720Y-95011153D01*
X152627386Y-95077820D01*
X152694053Y-95111153D01*
X152827386Y-95144486D01*
X152927386Y-95144486D01*
X153060720Y-95111153D01*
X153127386Y-95077820D01*
X153194053Y-95011153D01*
X153227386Y-94911153D01*
X153227386Y-94844486D01*
X153194053Y-94744486D01*
X153160720Y-94711153D01*
X152927386Y-94711153D01*
X152927386Y-94844486D01*
X153227386Y-94411153D02*
X152527386Y-94411153D01*
X152527386Y-94144486D01*
X152560720Y-94077820D01*
X152594053Y-94044486D01*
X152660720Y-94011153D01*
X152760720Y-94011153D01*
X152827386Y-94044486D01*
X152860720Y-94077820D01*
X152894053Y-94144486D01*
X152894053Y-94411153D01*
X153227386Y-93711153D02*
X152527386Y-93711153D01*
X152527386Y-93244486D02*
X152527386Y-93111153D01*
X152560720Y-93044486D01*
X152627386Y-92977820D01*
X152760720Y-92944486D01*
X152994053Y-92944486D01*
X153127386Y-92977820D01*
X153194053Y-93044486D01*
X153227386Y-93111153D01*
X153227386Y-93244486D01*
X153194053Y-93311153D01*
X153127386Y-93377820D01*
X152994053Y-93411153D01*
X152760720Y-93411153D01*
X152627386Y-93377820D01*
X152560720Y-93311153D01*
X152527386Y-93244486D01*
X153227386Y-92277820D02*
X153227386Y-92677820D01*
X153227386Y-92477820D02*
X152527386Y-92477820D01*
X152627386Y-92544486D01*
X152694053Y-92611153D01*
X152727386Y-92677820D01*
X152527386Y-91644486D02*
X152527386Y-91977820D01*
X152860720Y-92011153D01*
X152827386Y-91977820D01*
X152794053Y-91911153D01*
X152794053Y-91744486D01*
X152827386Y-91677820D01*
X152860720Y-91644486D01*
X152927386Y-91611153D01*
X153094053Y-91611153D01*
X153160720Y-91644486D01*
X153194053Y-91677820D01*
X153227386Y-91744486D01*
X153227386Y-91911153D01*
X153194053Y-91977820D01*
X153160720Y-92011153D01*
X152494053Y-90811153D02*
X153394053Y-91411153D01*
X153227386Y-90577820D02*
X152527386Y-90577820D01*
X153027386Y-90344486D01*
X152527386Y-90111153D01*
X153227386Y-90111153D01*
X152527386Y-89877820D02*
X152527386Y-89477820D01*
X153227386Y-89677820D02*
X152527386Y-89677820D01*
X153227386Y-89244486D02*
X152527386Y-89244486D01*
X152527386Y-89077820D01*
X152560720Y-88977820D01*
X152627386Y-88911153D01*
X152694053Y-88877820D01*
X152827386Y-88844486D01*
X152927386Y-88844486D01*
X153060720Y-88877820D01*
X153127386Y-88911153D01*
X153194053Y-88977820D01*
X153227386Y-89077820D01*
X153227386Y-89244486D01*
X152527386Y-88411153D02*
X152527386Y-88277820D01*
X152560720Y-88211153D01*
X152627386Y-88144486D01*
X152760720Y-88111153D01*
X152994053Y-88111153D01*
X153127386Y-88144486D01*
X153194053Y-88211153D01*
X153227386Y-88277820D01*
X153227386Y-88411153D01*
X153194053Y-88477820D01*
X153127386Y-88544486D01*
X152994053Y-88577820D01*
X152760720Y-88577820D01*
X152627386Y-88544486D01*
X152560720Y-88477820D01*
X152527386Y-88411153D01*
X134780720Y-110109486D02*
X134747386Y-110176153D01*
X134747386Y-110276153D01*
X134780720Y-110376153D01*
X134847386Y-110442820D01*
X134914053Y-110476153D01*
X135047386Y-110509486D01*
X135147386Y-110509486D01*
X135280720Y-110476153D01*
X135347386Y-110442820D01*
X135414053Y-110376153D01*
X135447386Y-110276153D01*
X135447386Y-110209486D01*
X135414053Y-110109486D01*
X135380720Y-110076153D01*
X135147386Y-110076153D01*
X135147386Y-110209486D01*
X135447386Y-109776153D02*
X134747386Y-109776153D01*
X134747386Y-109509486D01*
X134780720Y-109442820D01*
X134814053Y-109409486D01*
X134880720Y-109376153D01*
X134980720Y-109376153D01*
X135047386Y-109409486D01*
X135080720Y-109442820D01*
X135114053Y-109509486D01*
X135114053Y-109776153D01*
X135447386Y-109076153D02*
X134747386Y-109076153D01*
X134747386Y-108609486D02*
X134747386Y-108476153D01*
X134780720Y-108409486D01*
X134847386Y-108342820D01*
X134980720Y-108309486D01*
X135214053Y-108309486D01*
X135347386Y-108342820D01*
X135414053Y-108409486D01*
X135447386Y-108476153D01*
X135447386Y-108609486D01*
X135414053Y-108676153D01*
X135347386Y-108742820D01*
X135214053Y-108776153D01*
X134980720Y-108776153D01*
X134847386Y-108742820D01*
X134780720Y-108676153D01*
X134747386Y-108609486D01*
X134814053Y-108042820D02*
X134780720Y-108009486D01*
X134747386Y-107942820D01*
X134747386Y-107776153D01*
X134780720Y-107709486D01*
X134814053Y-107676153D01*
X134880720Y-107642820D01*
X134947386Y-107642820D01*
X135047386Y-107676153D01*
X135447386Y-108076153D01*
X135447386Y-107642820D01*
X134747386Y-107009486D02*
X134747386Y-107342820D01*
X135080720Y-107376153D01*
X135047386Y-107342820D01*
X135014053Y-107276153D01*
X135014053Y-107109486D01*
X135047386Y-107042820D01*
X135080720Y-107009486D01*
X135147386Y-106976153D01*
X135314053Y-106976153D01*
X135380720Y-107009486D01*
X135414053Y-107042820D01*
X135447386Y-107109486D01*
X135447386Y-107276153D01*
X135414053Y-107342820D01*
X135380720Y-107376153D01*
X107362380Y-99385333D02*
X108076666Y-99385333D01*
X108219523Y-99432952D01*
X108314761Y-99528190D01*
X108362380Y-99671047D01*
X108362380Y-99766285D01*
X108362380Y-98909142D02*
X107362380Y-98909142D01*
X107362380Y-98528190D01*
X107410000Y-98432952D01*
X107457619Y-98385333D01*
X107552857Y-98337714D01*
X107695714Y-98337714D01*
X107790952Y-98385333D01*
X107838571Y-98432952D01*
X107886190Y-98528190D01*
X107886190Y-98909142D01*
X107457619Y-97956761D02*
X107410000Y-97909142D01*
X107362380Y-97813904D01*
X107362380Y-97575809D01*
X107410000Y-97480571D01*
X107457619Y-97432952D01*
X107552857Y-97385333D01*
X107648095Y-97385333D01*
X107790952Y-97432952D01*
X108362380Y-98004380D01*
X108362380Y-97385333D01*
X162814380Y-100655333D02*
X163528666Y-100655333D01*
X163671523Y-100702952D01*
X163766761Y-100798190D01*
X163814380Y-100941047D01*
X163814380Y-101036285D01*
X163814380Y-100179142D02*
X162814380Y-100179142D01*
X162814380Y-99798190D01*
X162862000Y-99702952D01*
X162909619Y-99655333D01*
X163004857Y-99607714D01*
X163147714Y-99607714D01*
X163242952Y-99655333D01*
X163290571Y-99702952D01*
X163338190Y-99798190D01*
X163338190Y-100179142D01*
X163814380Y-98655333D02*
X163814380Y-99226761D01*
X163814380Y-98941047D02*
X162814380Y-98941047D01*
X162957238Y-99036285D01*
X163052476Y-99131523D01*
X163100095Y-99226761D01*
D17*
X106238523Y-115539761D02*
X104968523Y-115539761D01*
X106117571Y-114209285D02*
X106178047Y-114269761D01*
X106238523Y-114451190D01*
X106238523Y-114572142D01*
X106178047Y-114753571D01*
X106057095Y-114874523D01*
X105936142Y-114935000D01*
X105694238Y-114995476D01*
X105512809Y-114995476D01*
X105270904Y-114935000D01*
X105149952Y-114874523D01*
X105029000Y-114753571D01*
X104968523Y-114572142D01*
X104968523Y-114451190D01*
X105029000Y-114269761D01*
X105089476Y-114209285D01*
X106238523Y-112999761D02*
X106238523Y-113725476D01*
X106238523Y-113362619D02*
X104968523Y-113362619D01*
X105149952Y-113483571D01*
X105270904Y-113604523D01*
X105331380Y-113725476D01*
M02*
