M48
; DRILL file {KiCad 5.1.5+dfsg1-2build2} date Wed 29 Sep 2021 10:57:15 PM CDT
; FORMAT={-:-/ absolute / inch / decimal}
; #@! TF.CreationDate,2021-09-29T22:57:15-05:00
; #@! TF.GenerationSoftware,Kicad,Pcbnew,5.1.5+dfsg1-2build2
; #@! TF.FileFunction,Plated,1,2,PTH
FMAT,2
INCH
T1C0.0300
T2C0.0315
T3C0.0393
%
G90
G05
T1
X6.53Y-3.53
X6.53Y-3.63
X6.53Y-3.83
X6.53Y-3.93
X6.53Y-4.03
X6.53Y-4.13
X6.53Y-4.23
X6.53Y-4.33
X4.15Y-3.68
X4.15Y-3.78
X4.15Y-3.88
X4.15Y-3.98
X4.15Y-4.08
T2
X4.5201Y-3.4099
X4.5201Y-4.4099
X4.6201Y-3.4099
X4.6201Y-4.4099
X4.7201Y-3.4099
X4.7201Y-4.4099
X4.8201Y-3.4099
X4.8201Y-4.4099
X4.9201Y-3.4099
X4.9201Y-4.4099
X5.0201Y-3.4099
X5.0201Y-4.4099
X5.1201Y-3.4099
X5.1201Y-4.4099
X5.2201Y-3.4099
X5.2201Y-4.4099
X5.3201Y-3.4099
X5.3201Y-4.4099
X5.4201Y-3.4099
X5.4201Y-4.4099
X5.5201Y-3.4099
X5.5201Y-4.4099
X5.6201Y-3.4099
X5.6201Y-4.4099
X5.7201Y-3.4099
X5.7201Y-4.4099
X5.8201Y-3.4099
X5.8201Y-4.4099
X5.9201Y-3.4099
X5.9201Y-4.4099
X6.0201Y-3.4099
X6.0201Y-4.4099
X6.1201Y-3.4099
X6.1201Y-4.4099
X6.22Y-3.41
X6.2201Y-4.4099
X6.32Y-3.41
X6.3201Y-4.4099
X6.53Y-3.73
T3
X4.15Y-3.09
X4.15Y-3.19
X4.15Y-3.29
X4.15Y-3.39
X4.15Y-3.49
X4.25Y-3.09
X4.25Y-3.19
X4.25Y-3.29
X4.25Y-3.39
X4.25Y-3.49
X4.35Y-2.79
X4.35Y-2.89
X4.35Y-4.89
X4.35Y-4.99
X4.45Y-2.79
X4.45Y-2.89
X4.45Y-4.89
X4.45Y-4.99
X4.55Y-2.79
X4.55Y-2.89
X4.55Y-4.89
X4.55Y-4.99
X4.65Y-2.79
X4.65Y-2.89
X4.65Y-4.89
X4.65Y-4.99
X4.75Y-2.79
X4.75Y-2.89
X4.75Y-4.89
X4.75Y-4.99
X4.85Y-2.79
X4.85Y-2.89
X4.85Y-4.89
X4.85Y-4.99
X4.95Y-2.79
X4.95Y-2.89
X4.95Y-4.89
X4.95Y-4.99
X5.05Y-2.79
X5.05Y-2.89
X5.05Y-4.89
X5.05Y-4.99
X5.15Y-2.79
X5.15Y-2.89
X5.15Y-4.89
X5.15Y-4.99
X5.25Y-2.79
X5.25Y-2.89
X5.25Y-4.89
X5.25Y-4.99
X5.35Y-2.79
X5.35Y-2.89
X5.35Y-4.89
X5.35Y-4.99
X5.45Y-2.79
X5.45Y-2.89
X5.45Y-4.89
X5.45Y-4.99
X5.55Y-2.79
X5.55Y-2.89
X5.55Y-4.89
X5.55Y-4.99
X5.65Y-2.79
X5.65Y-2.89
X5.65Y-4.89
X5.65Y-4.99
X5.75Y-2.79
X5.75Y-2.89
X5.75Y-4.89
X5.75Y-4.99
X5.85Y-2.79
X5.85Y-2.89
X5.85Y-4.89
X5.85Y-4.99
X5.95Y-2.79
X5.95Y-2.89
X5.95Y-4.89
X5.95Y-4.99
X6.05Y-2.79
X6.05Y-2.89
X6.05Y-4.89
X6.05Y-4.99
X6.15Y-2.79
X6.15Y-2.89
X6.15Y-4.89
X6.15Y-4.99
X6.25Y-2.79
X6.25Y-2.89
X6.25Y-4.89
X6.25Y-4.99
X6.35Y-2.79
X6.35Y-2.89
X6.35Y-4.89
X6.35Y-4.99
X6.45Y-2.79
X6.45Y-2.89
X6.45Y-4.89
X6.45Y-4.99
X6.55Y-2.79
X6.55Y-2.89
X6.55Y-4.89
X6.55Y-4.99
X6.65Y-2.79
X6.65Y-2.89
X6.65Y-4.89
X6.65Y-4.99
X6.75Y-2.79
X6.75Y-2.89
X6.75Y-4.89
X6.75Y-4.99
T0
M30
