G04 #@! TF.GenerationSoftware,KiCad,Pcbnew,5.1.5+dfsg1-2build2*
G04 #@! TF.CreationDate,2021-09-29T22:56:56-05:00*
G04 #@! TF.ProjectId,PDP_Shield,5044505f-5368-4696-956c-642e6b696361,v01*
G04 #@! TF.SameCoordinates,Original*
G04 #@! TF.FileFunction,Soldermask,Bot*
G04 #@! TF.FilePolarity,Negative*
%FSLAX46Y46*%
G04 Gerber Fmt 4.6, Leading zero omitted, Abs format (unit mm)*
G04 Created by KiCad (PCBNEW 5.1.5+dfsg1-2build2) date 2021-09-29 22:56:56*
%MOMM*%
%LPD*%
G04 APERTURE LIST*
%ADD10C,0.100000*%
G04 APERTURE END LIST*
D10*
G36*
X177026027Y-125110821D02*
G01*
X177335503Y-125239009D01*
X177614026Y-125425113D01*
X177850887Y-125661974D01*
X178036991Y-125940497D01*
X178165179Y-126249973D01*
X178230530Y-126578512D01*
X178230530Y-126913488D01*
X178165179Y-127242027D01*
X178036991Y-127551503D01*
X177850887Y-127830026D01*
X177614026Y-128066887D01*
X177335503Y-128252991D01*
X177026027Y-128381179D01*
X176697488Y-128446530D01*
X176362512Y-128446530D01*
X176033973Y-128381179D01*
X175724497Y-128252991D01*
X175445974Y-128066887D01*
X175209113Y-127830026D01*
X175023009Y-127551503D01*
X174894821Y-127242027D01*
X174829470Y-126913488D01*
X174829470Y-126578512D01*
X174894821Y-126249973D01*
X175023009Y-125940497D01*
X175209113Y-125661974D01*
X175445974Y-125425113D01*
X175724497Y-125239009D01*
X176033973Y-125110821D01*
X176362512Y-125045470D01*
X176697488Y-125045470D01*
X177026027Y-125110821D01*
G37*
G36*
X105906027Y-125110821D02*
G01*
X106215503Y-125239009D01*
X106494026Y-125425113D01*
X106730887Y-125661974D01*
X106916991Y-125940497D01*
X107045179Y-126249973D01*
X107110530Y-126578512D01*
X107110530Y-126913488D01*
X107045179Y-127242027D01*
X106916991Y-127551503D01*
X106730887Y-127830026D01*
X106494026Y-128066887D01*
X106215503Y-128252991D01*
X105906027Y-128381179D01*
X105577488Y-128446530D01*
X105242512Y-128446530D01*
X104913973Y-128381179D01*
X104604497Y-128252991D01*
X104325974Y-128066887D01*
X104089113Y-127830026D01*
X103903009Y-127551503D01*
X103774821Y-127242027D01*
X103709470Y-126913488D01*
X103709470Y-126578512D01*
X103774821Y-126249973D01*
X103903009Y-125940497D01*
X104089113Y-125661974D01*
X104325974Y-125425113D01*
X104604497Y-125239009D01*
X104913973Y-125110821D01*
X105242512Y-125045470D01*
X105577488Y-125045470D01*
X105906027Y-125110821D01*
G37*
G36*
X166619310Y-125924136D02*
G01*
X166774857Y-125988565D01*
X166914846Y-126082103D01*
X167033897Y-126201154D01*
X167127435Y-126341143D01*
X167191864Y-126496690D01*
X167224710Y-126661818D01*
X167224710Y-126830182D01*
X167191864Y-126995310D01*
X167127435Y-127150857D01*
X167033897Y-127290846D01*
X166914846Y-127409897D01*
X166774857Y-127503435D01*
X166619310Y-127567864D01*
X166454182Y-127600710D01*
X166285818Y-127600710D01*
X166120690Y-127567864D01*
X165965143Y-127503435D01*
X165825154Y-127409897D01*
X165706103Y-127290846D01*
X165612565Y-127150857D01*
X165548136Y-126995310D01*
X165515290Y-126830182D01*
X165515290Y-126661818D01*
X165548136Y-126496690D01*
X165612565Y-126341143D01*
X165706103Y-126201154D01*
X165825154Y-126082103D01*
X165965143Y-125988565D01*
X166120690Y-125924136D01*
X166285818Y-125891290D01*
X166454182Y-125891290D01*
X166619310Y-125924136D01*
G37*
G36*
X169159310Y-125924136D02*
G01*
X169314857Y-125988565D01*
X169454846Y-126082103D01*
X169573897Y-126201154D01*
X169667435Y-126341143D01*
X169731864Y-126496690D01*
X169764710Y-126661818D01*
X169764710Y-126830182D01*
X169731864Y-126995310D01*
X169667435Y-127150857D01*
X169573897Y-127290846D01*
X169454846Y-127409897D01*
X169314857Y-127503435D01*
X169159310Y-127567864D01*
X168994182Y-127600710D01*
X168825818Y-127600710D01*
X168660690Y-127567864D01*
X168505143Y-127503435D01*
X168365154Y-127409897D01*
X168246103Y-127290846D01*
X168152565Y-127150857D01*
X168088136Y-126995310D01*
X168055290Y-126830182D01*
X168055290Y-126661818D01*
X168088136Y-126496690D01*
X168152565Y-126341143D01*
X168246103Y-126201154D01*
X168365154Y-126082103D01*
X168505143Y-125988565D01*
X168660690Y-125924136D01*
X168825818Y-125891290D01*
X168994182Y-125891290D01*
X169159310Y-125924136D01*
G37*
G36*
X113279310Y-125924136D02*
G01*
X113434857Y-125988565D01*
X113574846Y-126082103D01*
X113693897Y-126201154D01*
X113787435Y-126341143D01*
X113851864Y-126496690D01*
X113884710Y-126661818D01*
X113884710Y-126830182D01*
X113851864Y-126995310D01*
X113787435Y-127150857D01*
X113693897Y-127290846D01*
X113574846Y-127409897D01*
X113434857Y-127503435D01*
X113279310Y-127567864D01*
X113114182Y-127600710D01*
X112945818Y-127600710D01*
X112780690Y-127567864D01*
X112625143Y-127503435D01*
X112485154Y-127409897D01*
X112366103Y-127290846D01*
X112272565Y-127150857D01*
X112208136Y-126995310D01*
X112175290Y-126830182D01*
X112175290Y-126661818D01*
X112208136Y-126496690D01*
X112272565Y-126341143D01*
X112366103Y-126201154D01*
X112485154Y-126082103D01*
X112625143Y-125988565D01*
X112780690Y-125924136D01*
X112945818Y-125891290D01*
X113114182Y-125891290D01*
X113279310Y-125924136D01*
G37*
G36*
X110739310Y-125924136D02*
G01*
X110894857Y-125988565D01*
X111034846Y-126082103D01*
X111153897Y-126201154D01*
X111247435Y-126341143D01*
X111311864Y-126496690D01*
X111344710Y-126661818D01*
X111344710Y-126830182D01*
X111311864Y-126995310D01*
X111247435Y-127150857D01*
X111153897Y-127290846D01*
X111034846Y-127409897D01*
X110894857Y-127503435D01*
X110739310Y-127567864D01*
X110574182Y-127600710D01*
X110405818Y-127600710D01*
X110240690Y-127567864D01*
X110085143Y-127503435D01*
X109945154Y-127409897D01*
X109826103Y-127290846D01*
X109732565Y-127150857D01*
X109668136Y-126995310D01*
X109635290Y-126830182D01*
X109635290Y-126661818D01*
X109668136Y-126496690D01*
X109732565Y-126341143D01*
X109826103Y-126201154D01*
X109945154Y-126082103D01*
X110085143Y-125988565D01*
X110240690Y-125924136D01*
X110405818Y-125891290D01*
X110574182Y-125891290D01*
X110739310Y-125924136D01*
G37*
G36*
X171699310Y-125924136D02*
G01*
X171854857Y-125988565D01*
X171994846Y-126082103D01*
X172113897Y-126201154D01*
X172207435Y-126341143D01*
X172271864Y-126496690D01*
X172304710Y-126661818D01*
X172304710Y-126830182D01*
X172271864Y-126995310D01*
X172207435Y-127150857D01*
X172113897Y-127290846D01*
X171994846Y-127409897D01*
X171854857Y-127503435D01*
X171699310Y-127567864D01*
X171534182Y-127600710D01*
X171365818Y-127600710D01*
X171200690Y-127567864D01*
X171045143Y-127503435D01*
X170905154Y-127409897D01*
X170786103Y-127290846D01*
X170692565Y-127150857D01*
X170628136Y-126995310D01*
X170595290Y-126830182D01*
X170595290Y-126661818D01*
X170628136Y-126496690D01*
X170692565Y-126341143D01*
X170786103Y-126201154D01*
X170905154Y-126082103D01*
X171045143Y-125988565D01*
X171200690Y-125924136D01*
X171365818Y-125891290D01*
X171534182Y-125891290D01*
X171699310Y-125924136D01*
G37*
G36*
X115819310Y-125924136D02*
G01*
X115974857Y-125988565D01*
X116114846Y-126082103D01*
X116233897Y-126201154D01*
X116327435Y-126341143D01*
X116391864Y-126496690D01*
X116424710Y-126661818D01*
X116424710Y-126830182D01*
X116391864Y-126995310D01*
X116327435Y-127150857D01*
X116233897Y-127290846D01*
X116114846Y-127409897D01*
X115974857Y-127503435D01*
X115819310Y-127567864D01*
X115654182Y-127600710D01*
X115485818Y-127600710D01*
X115320690Y-127567864D01*
X115165143Y-127503435D01*
X115025154Y-127409897D01*
X114906103Y-127290846D01*
X114812565Y-127150857D01*
X114748136Y-126995310D01*
X114715290Y-126830182D01*
X114715290Y-126661818D01*
X114748136Y-126496690D01*
X114812565Y-126341143D01*
X114906103Y-126201154D01*
X115025154Y-126082103D01*
X115165143Y-125988565D01*
X115320690Y-125924136D01*
X115485818Y-125891290D01*
X115654182Y-125891290D01*
X115819310Y-125924136D01*
G37*
G36*
X164079310Y-125924136D02*
G01*
X164234857Y-125988565D01*
X164374846Y-126082103D01*
X164493897Y-126201154D01*
X164587435Y-126341143D01*
X164651864Y-126496690D01*
X164684710Y-126661818D01*
X164684710Y-126830182D01*
X164651864Y-126995310D01*
X164587435Y-127150857D01*
X164493897Y-127290846D01*
X164374846Y-127409897D01*
X164234857Y-127503435D01*
X164079310Y-127567864D01*
X163914182Y-127600710D01*
X163745818Y-127600710D01*
X163580690Y-127567864D01*
X163425143Y-127503435D01*
X163285154Y-127409897D01*
X163166103Y-127290846D01*
X163072565Y-127150857D01*
X163008136Y-126995310D01*
X162975290Y-126830182D01*
X162975290Y-126661818D01*
X163008136Y-126496690D01*
X163072565Y-126341143D01*
X163166103Y-126201154D01*
X163285154Y-126082103D01*
X163425143Y-125988565D01*
X163580690Y-125924136D01*
X163745818Y-125891290D01*
X163914182Y-125891290D01*
X164079310Y-125924136D01*
G37*
G36*
X161539310Y-125924136D02*
G01*
X161694857Y-125988565D01*
X161834846Y-126082103D01*
X161953897Y-126201154D01*
X162047435Y-126341143D01*
X162111864Y-126496690D01*
X162144710Y-126661818D01*
X162144710Y-126830182D01*
X162111864Y-126995310D01*
X162047435Y-127150857D01*
X161953897Y-127290846D01*
X161834846Y-127409897D01*
X161694857Y-127503435D01*
X161539310Y-127567864D01*
X161374182Y-127600710D01*
X161205818Y-127600710D01*
X161040690Y-127567864D01*
X160885143Y-127503435D01*
X160745154Y-127409897D01*
X160626103Y-127290846D01*
X160532565Y-127150857D01*
X160468136Y-126995310D01*
X160435290Y-126830182D01*
X160435290Y-126661818D01*
X160468136Y-126496690D01*
X160532565Y-126341143D01*
X160626103Y-126201154D01*
X160745154Y-126082103D01*
X160885143Y-125988565D01*
X161040690Y-125924136D01*
X161205818Y-125891290D01*
X161374182Y-125891290D01*
X161539310Y-125924136D01*
G37*
G36*
X158999310Y-125924136D02*
G01*
X159154857Y-125988565D01*
X159294846Y-126082103D01*
X159413897Y-126201154D01*
X159507435Y-126341143D01*
X159571864Y-126496690D01*
X159604710Y-126661818D01*
X159604710Y-126830182D01*
X159571864Y-126995310D01*
X159507435Y-127150857D01*
X159413897Y-127290846D01*
X159294846Y-127409897D01*
X159154857Y-127503435D01*
X158999310Y-127567864D01*
X158834182Y-127600710D01*
X158665818Y-127600710D01*
X158500690Y-127567864D01*
X158345143Y-127503435D01*
X158205154Y-127409897D01*
X158086103Y-127290846D01*
X157992565Y-127150857D01*
X157928136Y-126995310D01*
X157895290Y-126830182D01*
X157895290Y-126661818D01*
X157928136Y-126496690D01*
X157992565Y-126341143D01*
X158086103Y-126201154D01*
X158205154Y-126082103D01*
X158345143Y-125988565D01*
X158500690Y-125924136D01*
X158665818Y-125891290D01*
X158834182Y-125891290D01*
X158999310Y-125924136D01*
G37*
G36*
X156459310Y-125924136D02*
G01*
X156614857Y-125988565D01*
X156754846Y-126082103D01*
X156873897Y-126201154D01*
X156967435Y-126341143D01*
X157031864Y-126496690D01*
X157064710Y-126661818D01*
X157064710Y-126830182D01*
X157031864Y-126995310D01*
X156967435Y-127150857D01*
X156873897Y-127290846D01*
X156754846Y-127409897D01*
X156614857Y-127503435D01*
X156459310Y-127567864D01*
X156294182Y-127600710D01*
X156125818Y-127600710D01*
X155960690Y-127567864D01*
X155805143Y-127503435D01*
X155665154Y-127409897D01*
X155546103Y-127290846D01*
X155452565Y-127150857D01*
X155388136Y-126995310D01*
X155355290Y-126830182D01*
X155355290Y-126661818D01*
X155388136Y-126496690D01*
X155452565Y-126341143D01*
X155546103Y-126201154D01*
X155665154Y-126082103D01*
X155805143Y-125988565D01*
X155960690Y-125924136D01*
X156125818Y-125891290D01*
X156294182Y-125891290D01*
X156459310Y-125924136D01*
G37*
G36*
X153919310Y-125924136D02*
G01*
X154074857Y-125988565D01*
X154214846Y-126082103D01*
X154333897Y-126201154D01*
X154427435Y-126341143D01*
X154491864Y-126496690D01*
X154524710Y-126661818D01*
X154524710Y-126830182D01*
X154491864Y-126995310D01*
X154427435Y-127150857D01*
X154333897Y-127290846D01*
X154214846Y-127409897D01*
X154074857Y-127503435D01*
X153919310Y-127567864D01*
X153754182Y-127600710D01*
X153585818Y-127600710D01*
X153420690Y-127567864D01*
X153265143Y-127503435D01*
X153125154Y-127409897D01*
X153006103Y-127290846D01*
X152912565Y-127150857D01*
X152848136Y-126995310D01*
X152815290Y-126830182D01*
X152815290Y-126661818D01*
X152848136Y-126496690D01*
X152912565Y-126341143D01*
X153006103Y-126201154D01*
X153125154Y-126082103D01*
X153265143Y-125988565D01*
X153420690Y-125924136D01*
X153585818Y-125891290D01*
X153754182Y-125891290D01*
X153919310Y-125924136D01*
G37*
G36*
X151379310Y-125924136D02*
G01*
X151534857Y-125988565D01*
X151674846Y-126082103D01*
X151793897Y-126201154D01*
X151887435Y-126341143D01*
X151951864Y-126496690D01*
X151984710Y-126661818D01*
X151984710Y-126830182D01*
X151951864Y-126995310D01*
X151887435Y-127150857D01*
X151793897Y-127290846D01*
X151674846Y-127409897D01*
X151534857Y-127503435D01*
X151379310Y-127567864D01*
X151214182Y-127600710D01*
X151045818Y-127600710D01*
X150880690Y-127567864D01*
X150725143Y-127503435D01*
X150585154Y-127409897D01*
X150466103Y-127290846D01*
X150372565Y-127150857D01*
X150308136Y-126995310D01*
X150275290Y-126830182D01*
X150275290Y-126661818D01*
X150308136Y-126496690D01*
X150372565Y-126341143D01*
X150466103Y-126201154D01*
X150585154Y-126082103D01*
X150725143Y-125988565D01*
X150880690Y-125924136D01*
X151045818Y-125891290D01*
X151214182Y-125891290D01*
X151379310Y-125924136D01*
G37*
G36*
X148839310Y-125924136D02*
G01*
X148994857Y-125988565D01*
X149134846Y-126082103D01*
X149253897Y-126201154D01*
X149347435Y-126341143D01*
X149411864Y-126496690D01*
X149444710Y-126661818D01*
X149444710Y-126830182D01*
X149411864Y-126995310D01*
X149347435Y-127150857D01*
X149253897Y-127290846D01*
X149134846Y-127409897D01*
X148994857Y-127503435D01*
X148839310Y-127567864D01*
X148674182Y-127600710D01*
X148505818Y-127600710D01*
X148340690Y-127567864D01*
X148185143Y-127503435D01*
X148045154Y-127409897D01*
X147926103Y-127290846D01*
X147832565Y-127150857D01*
X147768136Y-126995310D01*
X147735290Y-126830182D01*
X147735290Y-126661818D01*
X147768136Y-126496690D01*
X147832565Y-126341143D01*
X147926103Y-126201154D01*
X148045154Y-126082103D01*
X148185143Y-125988565D01*
X148340690Y-125924136D01*
X148505818Y-125891290D01*
X148674182Y-125891290D01*
X148839310Y-125924136D01*
G37*
G36*
X143759310Y-125924136D02*
G01*
X143914857Y-125988565D01*
X144054846Y-126082103D01*
X144173897Y-126201154D01*
X144267435Y-126341143D01*
X144331864Y-126496690D01*
X144364710Y-126661818D01*
X144364710Y-126830182D01*
X144331864Y-126995310D01*
X144267435Y-127150857D01*
X144173897Y-127290846D01*
X144054846Y-127409897D01*
X143914857Y-127503435D01*
X143759310Y-127567864D01*
X143594182Y-127600710D01*
X143425818Y-127600710D01*
X143260690Y-127567864D01*
X143105143Y-127503435D01*
X142965154Y-127409897D01*
X142846103Y-127290846D01*
X142752565Y-127150857D01*
X142688136Y-126995310D01*
X142655290Y-126830182D01*
X142655290Y-126661818D01*
X142688136Y-126496690D01*
X142752565Y-126341143D01*
X142846103Y-126201154D01*
X142965154Y-126082103D01*
X143105143Y-125988565D01*
X143260690Y-125924136D01*
X143425818Y-125891290D01*
X143594182Y-125891290D01*
X143759310Y-125924136D01*
G37*
G36*
X146299310Y-125924136D02*
G01*
X146454857Y-125988565D01*
X146594846Y-126082103D01*
X146713897Y-126201154D01*
X146807435Y-126341143D01*
X146871864Y-126496690D01*
X146904710Y-126661818D01*
X146904710Y-126830182D01*
X146871864Y-126995310D01*
X146807435Y-127150857D01*
X146713897Y-127290846D01*
X146594846Y-127409897D01*
X146454857Y-127503435D01*
X146299310Y-127567864D01*
X146134182Y-127600710D01*
X145965818Y-127600710D01*
X145800690Y-127567864D01*
X145645143Y-127503435D01*
X145505154Y-127409897D01*
X145386103Y-127290846D01*
X145292565Y-127150857D01*
X145228136Y-126995310D01*
X145195290Y-126830182D01*
X145195290Y-126661818D01*
X145228136Y-126496690D01*
X145292565Y-126341143D01*
X145386103Y-126201154D01*
X145505154Y-126082103D01*
X145645143Y-125988565D01*
X145800690Y-125924136D01*
X145965818Y-125891290D01*
X146134182Y-125891290D01*
X146299310Y-125924136D01*
G37*
G36*
X118359310Y-125924136D02*
G01*
X118514857Y-125988565D01*
X118654846Y-126082103D01*
X118773897Y-126201154D01*
X118867435Y-126341143D01*
X118931864Y-126496690D01*
X118964710Y-126661818D01*
X118964710Y-126830182D01*
X118931864Y-126995310D01*
X118867435Y-127150857D01*
X118773897Y-127290846D01*
X118654846Y-127409897D01*
X118514857Y-127503435D01*
X118359310Y-127567864D01*
X118194182Y-127600710D01*
X118025818Y-127600710D01*
X117860690Y-127567864D01*
X117705143Y-127503435D01*
X117565154Y-127409897D01*
X117446103Y-127290846D01*
X117352565Y-127150857D01*
X117288136Y-126995310D01*
X117255290Y-126830182D01*
X117255290Y-126661818D01*
X117288136Y-126496690D01*
X117352565Y-126341143D01*
X117446103Y-126201154D01*
X117565154Y-126082103D01*
X117705143Y-125988565D01*
X117860690Y-125924136D01*
X118025818Y-125891290D01*
X118194182Y-125891290D01*
X118359310Y-125924136D01*
G37*
G36*
X120899310Y-125924136D02*
G01*
X121054857Y-125988565D01*
X121194846Y-126082103D01*
X121313897Y-126201154D01*
X121407435Y-126341143D01*
X121471864Y-126496690D01*
X121504710Y-126661818D01*
X121504710Y-126830182D01*
X121471864Y-126995310D01*
X121407435Y-127150857D01*
X121313897Y-127290846D01*
X121194846Y-127409897D01*
X121054857Y-127503435D01*
X120899310Y-127567864D01*
X120734182Y-127600710D01*
X120565818Y-127600710D01*
X120400690Y-127567864D01*
X120245143Y-127503435D01*
X120105154Y-127409897D01*
X119986103Y-127290846D01*
X119892565Y-127150857D01*
X119828136Y-126995310D01*
X119795290Y-126830182D01*
X119795290Y-126661818D01*
X119828136Y-126496690D01*
X119892565Y-126341143D01*
X119986103Y-126201154D01*
X120105154Y-126082103D01*
X120245143Y-125988565D01*
X120400690Y-125924136D01*
X120565818Y-125891290D01*
X120734182Y-125891290D01*
X120899310Y-125924136D01*
G37*
G36*
X123439310Y-125924136D02*
G01*
X123594857Y-125988565D01*
X123734846Y-126082103D01*
X123853897Y-126201154D01*
X123947435Y-126341143D01*
X124011864Y-126496690D01*
X124044710Y-126661818D01*
X124044710Y-126830182D01*
X124011864Y-126995310D01*
X123947435Y-127150857D01*
X123853897Y-127290846D01*
X123734846Y-127409897D01*
X123594857Y-127503435D01*
X123439310Y-127567864D01*
X123274182Y-127600710D01*
X123105818Y-127600710D01*
X122940690Y-127567864D01*
X122785143Y-127503435D01*
X122645154Y-127409897D01*
X122526103Y-127290846D01*
X122432565Y-127150857D01*
X122368136Y-126995310D01*
X122335290Y-126830182D01*
X122335290Y-126661818D01*
X122368136Y-126496690D01*
X122432565Y-126341143D01*
X122526103Y-126201154D01*
X122645154Y-126082103D01*
X122785143Y-125988565D01*
X122940690Y-125924136D01*
X123105818Y-125891290D01*
X123274182Y-125891290D01*
X123439310Y-125924136D01*
G37*
G36*
X125979310Y-125924136D02*
G01*
X126134857Y-125988565D01*
X126274846Y-126082103D01*
X126393897Y-126201154D01*
X126487435Y-126341143D01*
X126551864Y-126496690D01*
X126584710Y-126661818D01*
X126584710Y-126830182D01*
X126551864Y-126995310D01*
X126487435Y-127150857D01*
X126393897Y-127290846D01*
X126274846Y-127409897D01*
X126134857Y-127503435D01*
X125979310Y-127567864D01*
X125814182Y-127600710D01*
X125645818Y-127600710D01*
X125480690Y-127567864D01*
X125325143Y-127503435D01*
X125185154Y-127409897D01*
X125066103Y-127290846D01*
X124972565Y-127150857D01*
X124908136Y-126995310D01*
X124875290Y-126830182D01*
X124875290Y-126661818D01*
X124908136Y-126496690D01*
X124972565Y-126341143D01*
X125066103Y-126201154D01*
X125185154Y-126082103D01*
X125325143Y-125988565D01*
X125480690Y-125924136D01*
X125645818Y-125891290D01*
X125814182Y-125891290D01*
X125979310Y-125924136D01*
G37*
G36*
X128519310Y-125924136D02*
G01*
X128674857Y-125988565D01*
X128814846Y-126082103D01*
X128933897Y-126201154D01*
X129027435Y-126341143D01*
X129091864Y-126496690D01*
X129124710Y-126661818D01*
X129124710Y-126830182D01*
X129091864Y-126995310D01*
X129027435Y-127150857D01*
X128933897Y-127290846D01*
X128814846Y-127409897D01*
X128674857Y-127503435D01*
X128519310Y-127567864D01*
X128354182Y-127600710D01*
X128185818Y-127600710D01*
X128020690Y-127567864D01*
X127865143Y-127503435D01*
X127725154Y-127409897D01*
X127606103Y-127290846D01*
X127512565Y-127150857D01*
X127448136Y-126995310D01*
X127415290Y-126830182D01*
X127415290Y-126661818D01*
X127448136Y-126496690D01*
X127512565Y-126341143D01*
X127606103Y-126201154D01*
X127725154Y-126082103D01*
X127865143Y-125988565D01*
X128020690Y-125924136D01*
X128185818Y-125891290D01*
X128354182Y-125891290D01*
X128519310Y-125924136D01*
G37*
G36*
X131059310Y-125924136D02*
G01*
X131214857Y-125988565D01*
X131354846Y-126082103D01*
X131473897Y-126201154D01*
X131567435Y-126341143D01*
X131631864Y-126496690D01*
X131664710Y-126661818D01*
X131664710Y-126830182D01*
X131631864Y-126995310D01*
X131567435Y-127150857D01*
X131473897Y-127290846D01*
X131354846Y-127409897D01*
X131214857Y-127503435D01*
X131059310Y-127567864D01*
X130894182Y-127600710D01*
X130725818Y-127600710D01*
X130560690Y-127567864D01*
X130405143Y-127503435D01*
X130265154Y-127409897D01*
X130146103Y-127290846D01*
X130052565Y-127150857D01*
X129988136Y-126995310D01*
X129955290Y-126830182D01*
X129955290Y-126661818D01*
X129988136Y-126496690D01*
X130052565Y-126341143D01*
X130146103Y-126201154D01*
X130265154Y-126082103D01*
X130405143Y-125988565D01*
X130560690Y-125924136D01*
X130725818Y-125891290D01*
X130894182Y-125891290D01*
X131059310Y-125924136D01*
G37*
G36*
X133599310Y-125924136D02*
G01*
X133754857Y-125988565D01*
X133894846Y-126082103D01*
X134013897Y-126201154D01*
X134107435Y-126341143D01*
X134171864Y-126496690D01*
X134204710Y-126661818D01*
X134204710Y-126830182D01*
X134171864Y-126995310D01*
X134107435Y-127150857D01*
X134013897Y-127290846D01*
X133894846Y-127409897D01*
X133754857Y-127503435D01*
X133599310Y-127567864D01*
X133434182Y-127600710D01*
X133265818Y-127600710D01*
X133100690Y-127567864D01*
X132945143Y-127503435D01*
X132805154Y-127409897D01*
X132686103Y-127290846D01*
X132592565Y-127150857D01*
X132528136Y-126995310D01*
X132495290Y-126830182D01*
X132495290Y-126661818D01*
X132528136Y-126496690D01*
X132592565Y-126341143D01*
X132686103Y-126201154D01*
X132805154Y-126082103D01*
X132945143Y-125988565D01*
X133100690Y-125924136D01*
X133265818Y-125891290D01*
X133434182Y-125891290D01*
X133599310Y-125924136D01*
G37*
G36*
X136139310Y-125924136D02*
G01*
X136294857Y-125988565D01*
X136434846Y-126082103D01*
X136553897Y-126201154D01*
X136647435Y-126341143D01*
X136711864Y-126496690D01*
X136744710Y-126661818D01*
X136744710Y-126830182D01*
X136711864Y-126995310D01*
X136647435Y-127150857D01*
X136553897Y-127290846D01*
X136434846Y-127409897D01*
X136294857Y-127503435D01*
X136139310Y-127567864D01*
X135974182Y-127600710D01*
X135805818Y-127600710D01*
X135640690Y-127567864D01*
X135485143Y-127503435D01*
X135345154Y-127409897D01*
X135226103Y-127290846D01*
X135132565Y-127150857D01*
X135068136Y-126995310D01*
X135035290Y-126830182D01*
X135035290Y-126661818D01*
X135068136Y-126496690D01*
X135132565Y-126341143D01*
X135226103Y-126201154D01*
X135345154Y-126082103D01*
X135485143Y-125988565D01*
X135640690Y-125924136D01*
X135805818Y-125891290D01*
X135974182Y-125891290D01*
X136139310Y-125924136D01*
G37*
G36*
X138679310Y-125924136D02*
G01*
X138834857Y-125988565D01*
X138974846Y-126082103D01*
X139093897Y-126201154D01*
X139187435Y-126341143D01*
X139251864Y-126496690D01*
X139284710Y-126661818D01*
X139284710Y-126830182D01*
X139251864Y-126995310D01*
X139187435Y-127150857D01*
X139093897Y-127290846D01*
X138974846Y-127409897D01*
X138834857Y-127503435D01*
X138679310Y-127567864D01*
X138514182Y-127600710D01*
X138345818Y-127600710D01*
X138180690Y-127567864D01*
X138025143Y-127503435D01*
X137885154Y-127409897D01*
X137766103Y-127290846D01*
X137672565Y-127150857D01*
X137608136Y-126995310D01*
X137575290Y-126830182D01*
X137575290Y-126661818D01*
X137608136Y-126496690D01*
X137672565Y-126341143D01*
X137766103Y-126201154D01*
X137885154Y-126082103D01*
X138025143Y-125988565D01*
X138180690Y-125924136D01*
X138345818Y-125891290D01*
X138514182Y-125891290D01*
X138679310Y-125924136D01*
G37*
G36*
X141219310Y-125924136D02*
G01*
X141374857Y-125988565D01*
X141514846Y-126082103D01*
X141633897Y-126201154D01*
X141727435Y-126341143D01*
X141791864Y-126496690D01*
X141824710Y-126661818D01*
X141824710Y-126830182D01*
X141791864Y-126995310D01*
X141727435Y-127150857D01*
X141633897Y-127290846D01*
X141514846Y-127409897D01*
X141374857Y-127503435D01*
X141219310Y-127567864D01*
X141054182Y-127600710D01*
X140885818Y-127600710D01*
X140720690Y-127567864D01*
X140565143Y-127503435D01*
X140425154Y-127409897D01*
X140306103Y-127290846D01*
X140212565Y-127150857D01*
X140148136Y-126995310D01*
X140115290Y-126830182D01*
X140115290Y-126661818D01*
X140148136Y-126496690D01*
X140212565Y-126341143D01*
X140306103Y-126201154D01*
X140425154Y-126082103D01*
X140565143Y-125988565D01*
X140720690Y-125924136D01*
X140885818Y-125891290D01*
X141054182Y-125891290D01*
X141219310Y-125924136D01*
G37*
G36*
X125979310Y-123384136D02*
G01*
X126134857Y-123448565D01*
X126274846Y-123542103D01*
X126393897Y-123661154D01*
X126487435Y-123801143D01*
X126551864Y-123956690D01*
X126584710Y-124121818D01*
X126584710Y-124290182D01*
X126551864Y-124455310D01*
X126487435Y-124610857D01*
X126393897Y-124750846D01*
X126274846Y-124869897D01*
X126134857Y-124963435D01*
X125979310Y-125027864D01*
X125814182Y-125060710D01*
X125645818Y-125060710D01*
X125480690Y-125027864D01*
X125325143Y-124963435D01*
X125185154Y-124869897D01*
X125066103Y-124750846D01*
X124972565Y-124610857D01*
X124908136Y-124455310D01*
X124875290Y-124290182D01*
X124875290Y-124121818D01*
X124908136Y-123956690D01*
X124972565Y-123801143D01*
X125066103Y-123661154D01*
X125185154Y-123542103D01*
X125325143Y-123448565D01*
X125480690Y-123384136D01*
X125645818Y-123351290D01*
X125814182Y-123351290D01*
X125979310Y-123384136D01*
G37*
G36*
X128519310Y-123384136D02*
G01*
X128674857Y-123448565D01*
X128814846Y-123542103D01*
X128933897Y-123661154D01*
X129027435Y-123801143D01*
X129091864Y-123956690D01*
X129124710Y-124121818D01*
X129124710Y-124290182D01*
X129091864Y-124455310D01*
X129027435Y-124610857D01*
X128933897Y-124750846D01*
X128814846Y-124869897D01*
X128674857Y-124963435D01*
X128519310Y-125027864D01*
X128354182Y-125060710D01*
X128185818Y-125060710D01*
X128020690Y-125027864D01*
X127865143Y-124963435D01*
X127725154Y-124869897D01*
X127606103Y-124750846D01*
X127512565Y-124610857D01*
X127448136Y-124455310D01*
X127415290Y-124290182D01*
X127415290Y-124121818D01*
X127448136Y-123956690D01*
X127512565Y-123801143D01*
X127606103Y-123661154D01*
X127725154Y-123542103D01*
X127865143Y-123448565D01*
X128020690Y-123384136D01*
X128185818Y-123351290D01*
X128354182Y-123351290D01*
X128519310Y-123384136D01*
G37*
G36*
X151379310Y-123384136D02*
G01*
X151534857Y-123448565D01*
X151674846Y-123542103D01*
X151793897Y-123661154D01*
X151887435Y-123801143D01*
X151951864Y-123956690D01*
X151984710Y-124121818D01*
X151984710Y-124290182D01*
X151951864Y-124455310D01*
X151887435Y-124610857D01*
X151793897Y-124750846D01*
X151674846Y-124869897D01*
X151534857Y-124963435D01*
X151379310Y-125027864D01*
X151214182Y-125060710D01*
X151045818Y-125060710D01*
X150880690Y-125027864D01*
X150725143Y-124963435D01*
X150585154Y-124869897D01*
X150466103Y-124750846D01*
X150372565Y-124610857D01*
X150308136Y-124455310D01*
X150275290Y-124290182D01*
X150275290Y-124121818D01*
X150308136Y-123956690D01*
X150372565Y-123801143D01*
X150466103Y-123661154D01*
X150585154Y-123542103D01*
X150725143Y-123448565D01*
X150880690Y-123384136D01*
X151045818Y-123351290D01*
X151214182Y-123351290D01*
X151379310Y-123384136D01*
G37*
G36*
X133599310Y-123384136D02*
G01*
X133754857Y-123448565D01*
X133894846Y-123542103D01*
X134013897Y-123661154D01*
X134107435Y-123801143D01*
X134171864Y-123956690D01*
X134204710Y-124121818D01*
X134204710Y-124290182D01*
X134171864Y-124455310D01*
X134107435Y-124610857D01*
X134013897Y-124750846D01*
X133894846Y-124869897D01*
X133754857Y-124963435D01*
X133599310Y-125027864D01*
X133434182Y-125060710D01*
X133265818Y-125060710D01*
X133100690Y-125027864D01*
X132945143Y-124963435D01*
X132805154Y-124869897D01*
X132686103Y-124750846D01*
X132592565Y-124610857D01*
X132528136Y-124455310D01*
X132495290Y-124290182D01*
X132495290Y-124121818D01*
X132528136Y-123956690D01*
X132592565Y-123801143D01*
X132686103Y-123661154D01*
X132805154Y-123542103D01*
X132945143Y-123448565D01*
X133100690Y-123384136D01*
X133265818Y-123351290D01*
X133434182Y-123351290D01*
X133599310Y-123384136D01*
G37*
G36*
X136139310Y-123384136D02*
G01*
X136294857Y-123448565D01*
X136434846Y-123542103D01*
X136553897Y-123661154D01*
X136647435Y-123801143D01*
X136711864Y-123956690D01*
X136744710Y-124121818D01*
X136744710Y-124290182D01*
X136711864Y-124455310D01*
X136647435Y-124610857D01*
X136553897Y-124750846D01*
X136434846Y-124869897D01*
X136294857Y-124963435D01*
X136139310Y-125027864D01*
X135974182Y-125060710D01*
X135805818Y-125060710D01*
X135640690Y-125027864D01*
X135485143Y-124963435D01*
X135345154Y-124869897D01*
X135226103Y-124750846D01*
X135132565Y-124610857D01*
X135068136Y-124455310D01*
X135035290Y-124290182D01*
X135035290Y-124121818D01*
X135068136Y-123956690D01*
X135132565Y-123801143D01*
X135226103Y-123661154D01*
X135345154Y-123542103D01*
X135485143Y-123448565D01*
X135640690Y-123384136D01*
X135805818Y-123351290D01*
X135974182Y-123351290D01*
X136139310Y-123384136D01*
G37*
G36*
X138679310Y-123384136D02*
G01*
X138834857Y-123448565D01*
X138974846Y-123542103D01*
X139093897Y-123661154D01*
X139187435Y-123801143D01*
X139251864Y-123956690D01*
X139284710Y-124121818D01*
X139284710Y-124290182D01*
X139251864Y-124455310D01*
X139187435Y-124610857D01*
X139093897Y-124750846D01*
X138974846Y-124869897D01*
X138834857Y-124963435D01*
X138679310Y-125027864D01*
X138514182Y-125060710D01*
X138345818Y-125060710D01*
X138180690Y-125027864D01*
X138025143Y-124963435D01*
X137885154Y-124869897D01*
X137766103Y-124750846D01*
X137672565Y-124610857D01*
X137608136Y-124455310D01*
X137575290Y-124290182D01*
X137575290Y-124121818D01*
X137608136Y-123956690D01*
X137672565Y-123801143D01*
X137766103Y-123661154D01*
X137885154Y-123542103D01*
X138025143Y-123448565D01*
X138180690Y-123384136D01*
X138345818Y-123351290D01*
X138514182Y-123351290D01*
X138679310Y-123384136D01*
G37*
G36*
X141219310Y-123384136D02*
G01*
X141374857Y-123448565D01*
X141514846Y-123542103D01*
X141633897Y-123661154D01*
X141727435Y-123801143D01*
X141791864Y-123956690D01*
X141824710Y-124121818D01*
X141824710Y-124290182D01*
X141791864Y-124455310D01*
X141727435Y-124610857D01*
X141633897Y-124750846D01*
X141514846Y-124869897D01*
X141374857Y-124963435D01*
X141219310Y-125027864D01*
X141054182Y-125060710D01*
X140885818Y-125060710D01*
X140720690Y-125027864D01*
X140565143Y-124963435D01*
X140425154Y-124869897D01*
X140306103Y-124750846D01*
X140212565Y-124610857D01*
X140148136Y-124455310D01*
X140115290Y-124290182D01*
X140115290Y-124121818D01*
X140148136Y-123956690D01*
X140212565Y-123801143D01*
X140306103Y-123661154D01*
X140425154Y-123542103D01*
X140565143Y-123448565D01*
X140720690Y-123384136D01*
X140885818Y-123351290D01*
X141054182Y-123351290D01*
X141219310Y-123384136D01*
G37*
G36*
X143759310Y-123384136D02*
G01*
X143914857Y-123448565D01*
X144054846Y-123542103D01*
X144173897Y-123661154D01*
X144267435Y-123801143D01*
X144331864Y-123956690D01*
X144364710Y-124121818D01*
X144364710Y-124290182D01*
X144331864Y-124455310D01*
X144267435Y-124610857D01*
X144173897Y-124750846D01*
X144054846Y-124869897D01*
X143914857Y-124963435D01*
X143759310Y-125027864D01*
X143594182Y-125060710D01*
X143425818Y-125060710D01*
X143260690Y-125027864D01*
X143105143Y-124963435D01*
X142965154Y-124869897D01*
X142846103Y-124750846D01*
X142752565Y-124610857D01*
X142688136Y-124455310D01*
X142655290Y-124290182D01*
X142655290Y-124121818D01*
X142688136Y-123956690D01*
X142752565Y-123801143D01*
X142846103Y-123661154D01*
X142965154Y-123542103D01*
X143105143Y-123448565D01*
X143260690Y-123384136D01*
X143425818Y-123351290D01*
X143594182Y-123351290D01*
X143759310Y-123384136D01*
G37*
G36*
X146299310Y-123384136D02*
G01*
X146454857Y-123448565D01*
X146594846Y-123542103D01*
X146713897Y-123661154D01*
X146807435Y-123801143D01*
X146871864Y-123956690D01*
X146904710Y-124121818D01*
X146904710Y-124290182D01*
X146871864Y-124455310D01*
X146807435Y-124610857D01*
X146713897Y-124750846D01*
X146594846Y-124869897D01*
X146454857Y-124963435D01*
X146299310Y-125027864D01*
X146134182Y-125060710D01*
X145965818Y-125060710D01*
X145800690Y-125027864D01*
X145645143Y-124963435D01*
X145505154Y-124869897D01*
X145386103Y-124750846D01*
X145292565Y-124610857D01*
X145228136Y-124455310D01*
X145195290Y-124290182D01*
X145195290Y-124121818D01*
X145228136Y-123956690D01*
X145292565Y-123801143D01*
X145386103Y-123661154D01*
X145505154Y-123542103D01*
X145645143Y-123448565D01*
X145800690Y-123384136D01*
X145965818Y-123351290D01*
X146134182Y-123351290D01*
X146299310Y-123384136D01*
G37*
G36*
X148839310Y-123384136D02*
G01*
X148994857Y-123448565D01*
X149134846Y-123542103D01*
X149253897Y-123661154D01*
X149347435Y-123801143D01*
X149411864Y-123956690D01*
X149444710Y-124121818D01*
X149444710Y-124290182D01*
X149411864Y-124455310D01*
X149347435Y-124610857D01*
X149253897Y-124750846D01*
X149134846Y-124869897D01*
X148994857Y-124963435D01*
X148839310Y-125027864D01*
X148674182Y-125060710D01*
X148505818Y-125060710D01*
X148340690Y-125027864D01*
X148185143Y-124963435D01*
X148045154Y-124869897D01*
X147926103Y-124750846D01*
X147832565Y-124610857D01*
X147768136Y-124455310D01*
X147735290Y-124290182D01*
X147735290Y-124121818D01*
X147768136Y-123956690D01*
X147832565Y-123801143D01*
X147926103Y-123661154D01*
X148045154Y-123542103D01*
X148185143Y-123448565D01*
X148340690Y-123384136D01*
X148505818Y-123351290D01*
X148674182Y-123351290D01*
X148839310Y-123384136D01*
G37*
G36*
X113279310Y-123384136D02*
G01*
X113434857Y-123448565D01*
X113574846Y-123542103D01*
X113693897Y-123661154D01*
X113787435Y-123801143D01*
X113851864Y-123956690D01*
X113884710Y-124121818D01*
X113884710Y-124290182D01*
X113851864Y-124455310D01*
X113787435Y-124610857D01*
X113693897Y-124750846D01*
X113574846Y-124869897D01*
X113434857Y-124963435D01*
X113279310Y-125027864D01*
X113114182Y-125060710D01*
X112945818Y-125060710D01*
X112780690Y-125027864D01*
X112625143Y-124963435D01*
X112485154Y-124869897D01*
X112366103Y-124750846D01*
X112272565Y-124610857D01*
X112208136Y-124455310D01*
X112175290Y-124290182D01*
X112175290Y-124121818D01*
X112208136Y-123956690D01*
X112272565Y-123801143D01*
X112366103Y-123661154D01*
X112485154Y-123542103D01*
X112625143Y-123448565D01*
X112780690Y-123384136D01*
X112945818Y-123351290D01*
X113114182Y-123351290D01*
X113279310Y-123384136D01*
G37*
G36*
X115819310Y-123384136D02*
G01*
X115974857Y-123448565D01*
X116114846Y-123542103D01*
X116233897Y-123661154D01*
X116327435Y-123801143D01*
X116391864Y-123956690D01*
X116424710Y-124121818D01*
X116424710Y-124290182D01*
X116391864Y-124455310D01*
X116327435Y-124610857D01*
X116233897Y-124750846D01*
X116114846Y-124869897D01*
X115974857Y-124963435D01*
X115819310Y-125027864D01*
X115654182Y-125060710D01*
X115485818Y-125060710D01*
X115320690Y-125027864D01*
X115165143Y-124963435D01*
X115025154Y-124869897D01*
X114906103Y-124750846D01*
X114812565Y-124610857D01*
X114748136Y-124455310D01*
X114715290Y-124290182D01*
X114715290Y-124121818D01*
X114748136Y-123956690D01*
X114812565Y-123801143D01*
X114906103Y-123661154D01*
X115025154Y-123542103D01*
X115165143Y-123448565D01*
X115320690Y-123384136D01*
X115485818Y-123351290D01*
X115654182Y-123351290D01*
X115819310Y-123384136D01*
G37*
G36*
X153919310Y-123384136D02*
G01*
X154074857Y-123448565D01*
X154214846Y-123542103D01*
X154333897Y-123661154D01*
X154427435Y-123801143D01*
X154491864Y-123956690D01*
X154524710Y-124121818D01*
X154524710Y-124290182D01*
X154491864Y-124455310D01*
X154427435Y-124610857D01*
X154333897Y-124750846D01*
X154214846Y-124869897D01*
X154074857Y-124963435D01*
X153919310Y-125027864D01*
X153754182Y-125060710D01*
X153585818Y-125060710D01*
X153420690Y-125027864D01*
X153265143Y-124963435D01*
X153125154Y-124869897D01*
X153006103Y-124750846D01*
X152912565Y-124610857D01*
X152848136Y-124455310D01*
X152815290Y-124290182D01*
X152815290Y-124121818D01*
X152848136Y-123956690D01*
X152912565Y-123801143D01*
X153006103Y-123661154D01*
X153125154Y-123542103D01*
X153265143Y-123448565D01*
X153420690Y-123384136D01*
X153585818Y-123351290D01*
X153754182Y-123351290D01*
X153919310Y-123384136D01*
G37*
G36*
X118359310Y-123384136D02*
G01*
X118514857Y-123448565D01*
X118654846Y-123542103D01*
X118773897Y-123661154D01*
X118867435Y-123801143D01*
X118931864Y-123956690D01*
X118964710Y-124121818D01*
X118964710Y-124290182D01*
X118931864Y-124455310D01*
X118867435Y-124610857D01*
X118773897Y-124750846D01*
X118654846Y-124869897D01*
X118514857Y-124963435D01*
X118359310Y-125027864D01*
X118194182Y-125060710D01*
X118025818Y-125060710D01*
X117860690Y-125027864D01*
X117705143Y-124963435D01*
X117565154Y-124869897D01*
X117446103Y-124750846D01*
X117352565Y-124610857D01*
X117288136Y-124455310D01*
X117255290Y-124290182D01*
X117255290Y-124121818D01*
X117288136Y-123956690D01*
X117352565Y-123801143D01*
X117446103Y-123661154D01*
X117565154Y-123542103D01*
X117705143Y-123448565D01*
X117860690Y-123384136D01*
X118025818Y-123351290D01*
X118194182Y-123351290D01*
X118359310Y-123384136D01*
G37*
G36*
X171699310Y-123384136D02*
G01*
X171854857Y-123448565D01*
X171994846Y-123542103D01*
X172113897Y-123661154D01*
X172207435Y-123801143D01*
X172271864Y-123956690D01*
X172304710Y-124121818D01*
X172304710Y-124290182D01*
X172271864Y-124455310D01*
X172207435Y-124610857D01*
X172113897Y-124750846D01*
X171994846Y-124869897D01*
X171854857Y-124963435D01*
X171699310Y-125027864D01*
X171534182Y-125060710D01*
X171365818Y-125060710D01*
X171200690Y-125027864D01*
X171045143Y-124963435D01*
X170905154Y-124869897D01*
X170786103Y-124750846D01*
X170692565Y-124610857D01*
X170628136Y-124455310D01*
X170595290Y-124290182D01*
X170595290Y-124121818D01*
X170628136Y-123956690D01*
X170692565Y-123801143D01*
X170786103Y-123661154D01*
X170905154Y-123542103D01*
X171045143Y-123448565D01*
X171200690Y-123384136D01*
X171365818Y-123351290D01*
X171534182Y-123351290D01*
X171699310Y-123384136D01*
G37*
G36*
X164079310Y-123384136D02*
G01*
X164234857Y-123448565D01*
X164374846Y-123542103D01*
X164493897Y-123661154D01*
X164587435Y-123801143D01*
X164651864Y-123956690D01*
X164684710Y-124121818D01*
X164684710Y-124290182D01*
X164651864Y-124455310D01*
X164587435Y-124610857D01*
X164493897Y-124750846D01*
X164374846Y-124869897D01*
X164234857Y-124963435D01*
X164079310Y-125027864D01*
X163914182Y-125060710D01*
X163745818Y-125060710D01*
X163580690Y-125027864D01*
X163425143Y-124963435D01*
X163285154Y-124869897D01*
X163166103Y-124750846D01*
X163072565Y-124610857D01*
X163008136Y-124455310D01*
X162975290Y-124290182D01*
X162975290Y-124121818D01*
X163008136Y-123956690D01*
X163072565Y-123801143D01*
X163166103Y-123661154D01*
X163285154Y-123542103D01*
X163425143Y-123448565D01*
X163580690Y-123384136D01*
X163745818Y-123351290D01*
X163914182Y-123351290D01*
X164079310Y-123384136D01*
G37*
G36*
X156459310Y-123384136D02*
G01*
X156614857Y-123448565D01*
X156754846Y-123542103D01*
X156873897Y-123661154D01*
X156967435Y-123801143D01*
X157031864Y-123956690D01*
X157064710Y-124121818D01*
X157064710Y-124290182D01*
X157031864Y-124455310D01*
X156967435Y-124610857D01*
X156873897Y-124750846D01*
X156754846Y-124869897D01*
X156614857Y-124963435D01*
X156459310Y-125027864D01*
X156294182Y-125060710D01*
X156125818Y-125060710D01*
X155960690Y-125027864D01*
X155805143Y-124963435D01*
X155665154Y-124869897D01*
X155546103Y-124750846D01*
X155452565Y-124610857D01*
X155388136Y-124455310D01*
X155355290Y-124290182D01*
X155355290Y-124121818D01*
X155388136Y-123956690D01*
X155452565Y-123801143D01*
X155546103Y-123661154D01*
X155665154Y-123542103D01*
X155805143Y-123448565D01*
X155960690Y-123384136D01*
X156125818Y-123351290D01*
X156294182Y-123351290D01*
X156459310Y-123384136D01*
G37*
G36*
X161539310Y-123384136D02*
G01*
X161694857Y-123448565D01*
X161834846Y-123542103D01*
X161953897Y-123661154D01*
X162047435Y-123801143D01*
X162111864Y-123956690D01*
X162144710Y-124121818D01*
X162144710Y-124290182D01*
X162111864Y-124455310D01*
X162047435Y-124610857D01*
X161953897Y-124750846D01*
X161834846Y-124869897D01*
X161694857Y-124963435D01*
X161539310Y-125027864D01*
X161374182Y-125060710D01*
X161205818Y-125060710D01*
X161040690Y-125027864D01*
X160885143Y-124963435D01*
X160745154Y-124869897D01*
X160626103Y-124750846D01*
X160532565Y-124610857D01*
X160468136Y-124455310D01*
X160435290Y-124290182D01*
X160435290Y-124121818D01*
X160468136Y-123956690D01*
X160532565Y-123801143D01*
X160626103Y-123661154D01*
X160745154Y-123542103D01*
X160885143Y-123448565D01*
X161040690Y-123384136D01*
X161205818Y-123351290D01*
X161374182Y-123351290D01*
X161539310Y-123384136D01*
G37*
G36*
X158999310Y-123384136D02*
G01*
X159154857Y-123448565D01*
X159294846Y-123542103D01*
X159413897Y-123661154D01*
X159507435Y-123801143D01*
X159571864Y-123956690D01*
X159604710Y-124121818D01*
X159604710Y-124290182D01*
X159571864Y-124455310D01*
X159507435Y-124610857D01*
X159413897Y-124750846D01*
X159294846Y-124869897D01*
X159154857Y-124963435D01*
X158999310Y-125027864D01*
X158834182Y-125060710D01*
X158665818Y-125060710D01*
X158500690Y-125027864D01*
X158345143Y-124963435D01*
X158205154Y-124869897D01*
X158086103Y-124750846D01*
X157992565Y-124610857D01*
X157928136Y-124455310D01*
X157895290Y-124290182D01*
X157895290Y-124121818D01*
X157928136Y-123956690D01*
X157992565Y-123801143D01*
X158086103Y-123661154D01*
X158205154Y-123542103D01*
X158345143Y-123448565D01*
X158500690Y-123384136D01*
X158665818Y-123351290D01*
X158834182Y-123351290D01*
X158999310Y-123384136D01*
G37*
G36*
X111344710Y-125060710D02*
G01*
X109635290Y-125060710D01*
X109635290Y-123351290D01*
X111344710Y-123351290D01*
X111344710Y-125060710D01*
G37*
G36*
X131059310Y-123384136D02*
G01*
X131214857Y-123448565D01*
X131354846Y-123542103D01*
X131473897Y-123661154D01*
X131567435Y-123801143D01*
X131631864Y-123956690D01*
X131664710Y-124121818D01*
X131664710Y-124290182D01*
X131631864Y-124455310D01*
X131567435Y-124610857D01*
X131473897Y-124750846D01*
X131354846Y-124869897D01*
X131214857Y-124963435D01*
X131059310Y-125027864D01*
X130894182Y-125060710D01*
X130725818Y-125060710D01*
X130560690Y-125027864D01*
X130405143Y-124963435D01*
X130265154Y-124869897D01*
X130146103Y-124750846D01*
X130052565Y-124610857D01*
X129988136Y-124455310D01*
X129955290Y-124290182D01*
X129955290Y-124121818D01*
X129988136Y-123956690D01*
X130052565Y-123801143D01*
X130146103Y-123661154D01*
X130265154Y-123542103D01*
X130405143Y-123448565D01*
X130560690Y-123384136D01*
X130725818Y-123351290D01*
X130894182Y-123351290D01*
X131059310Y-123384136D01*
G37*
G36*
X123439310Y-123384136D02*
G01*
X123594857Y-123448565D01*
X123734846Y-123542103D01*
X123853897Y-123661154D01*
X123947435Y-123801143D01*
X124011864Y-123956690D01*
X124044710Y-124121818D01*
X124044710Y-124290182D01*
X124011864Y-124455310D01*
X123947435Y-124610857D01*
X123853897Y-124750846D01*
X123734846Y-124869897D01*
X123594857Y-124963435D01*
X123439310Y-125027864D01*
X123274182Y-125060710D01*
X123105818Y-125060710D01*
X122940690Y-125027864D01*
X122785143Y-124963435D01*
X122645154Y-124869897D01*
X122526103Y-124750846D01*
X122432565Y-124610857D01*
X122368136Y-124455310D01*
X122335290Y-124290182D01*
X122335290Y-124121818D01*
X122368136Y-123956690D01*
X122432565Y-123801143D01*
X122526103Y-123661154D01*
X122645154Y-123542103D01*
X122785143Y-123448565D01*
X122940690Y-123384136D01*
X123105818Y-123351290D01*
X123274182Y-123351290D01*
X123439310Y-123384136D01*
G37*
G36*
X169159310Y-123384136D02*
G01*
X169314857Y-123448565D01*
X169454846Y-123542103D01*
X169573897Y-123661154D01*
X169667435Y-123801143D01*
X169731864Y-123956690D01*
X169764710Y-124121818D01*
X169764710Y-124290182D01*
X169731864Y-124455310D01*
X169667435Y-124610857D01*
X169573897Y-124750846D01*
X169454846Y-124869897D01*
X169314857Y-124963435D01*
X169159310Y-125027864D01*
X168994182Y-125060710D01*
X168825818Y-125060710D01*
X168660690Y-125027864D01*
X168505143Y-124963435D01*
X168365154Y-124869897D01*
X168246103Y-124750846D01*
X168152565Y-124610857D01*
X168088136Y-124455310D01*
X168055290Y-124290182D01*
X168055290Y-124121818D01*
X168088136Y-123956690D01*
X168152565Y-123801143D01*
X168246103Y-123661154D01*
X168365154Y-123542103D01*
X168505143Y-123448565D01*
X168660690Y-123384136D01*
X168825818Y-123351290D01*
X168994182Y-123351290D01*
X169159310Y-123384136D01*
G37*
G36*
X120899310Y-123384136D02*
G01*
X121054857Y-123448565D01*
X121194846Y-123542103D01*
X121313897Y-123661154D01*
X121407435Y-123801143D01*
X121471864Y-123956690D01*
X121504710Y-124121818D01*
X121504710Y-124290182D01*
X121471864Y-124455310D01*
X121407435Y-124610857D01*
X121313897Y-124750846D01*
X121194846Y-124869897D01*
X121054857Y-124963435D01*
X120899310Y-125027864D01*
X120734182Y-125060710D01*
X120565818Y-125060710D01*
X120400690Y-125027864D01*
X120245143Y-124963435D01*
X120105154Y-124869897D01*
X119986103Y-124750846D01*
X119892565Y-124610857D01*
X119828136Y-124455310D01*
X119795290Y-124290182D01*
X119795290Y-124121818D01*
X119828136Y-123956690D01*
X119892565Y-123801143D01*
X119986103Y-123661154D01*
X120105154Y-123542103D01*
X120245143Y-123448565D01*
X120400690Y-123384136D01*
X120565818Y-123351290D01*
X120734182Y-123351290D01*
X120899310Y-123384136D01*
G37*
G36*
X166619310Y-123384136D02*
G01*
X166774857Y-123448565D01*
X166914846Y-123542103D01*
X167033897Y-123661154D01*
X167127435Y-123801143D01*
X167191864Y-123956690D01*
X167224710Y-124121818D01*
X167224710Y-124290182D01*
X167191864Y-124455310D01*
X167127435Y-124610857D01*
X167033897Y-124750846D01*
X166914846Y-124869897D01*
X166774857Y-124963435D01*
X166619310Y-125027864D01*
X166454182Y-125060710D01*
X166285818Y-125060710D01*
X166120690Y-125027864D01*
X165965143Y-124963435D01*
X165825154Y-124869897D01*
X165706103Y-124750846D01*
X165612565Y-124610857D01*
X165548136Y-124455310D01*
X165515290Y-124290182D01*
X165515290Y-124121818D01*
X165548136Y-123956690D01*
X165612565Y-123801143D01*
X165706103Y-123661154D01*
X165825154Y-123542103D01*
X165965143Y-123448565D01*
X166120690Y-123384136D01*
X166285818Y-123351290D01*
X166454182Y-123351290D01*
X166619310Y-123384136D01*
G37*
G36*
X135258294Y-110968936D02*
G01*
X135258297Y-110968937D01*
X135258298Y-110968937D01*
X135287062Y-110977663D01*
X135380973Y-111006150D01*
X135494033Y-111066582D01*
X135593131Y-111147909D01*
X135674458Y-111247006D01*
X135682479Y-111262013D01*
X135734890Y-111360066D01*
X135772104Y-111482745D01*
X135781520Y-111578351D01*
X135781520Y-112442289D01*
X135772104Y-112537895D01*
X135734890Y-112660574D01*
X135734889Y-112660575D01*
X135674458Y-112773634D01*
X135593131Y-112872731D01*
X135494034Y-112954058D01*
X135458450Y-112973078D01*
X135380974Y-113014490D01*
X135287063Y-113042977D01*
X135258299Y-113051703D01*
X135258298Y-113051703D01*
X135258295Y-113051704D01*
X135130720Y-113064269D01*
X135003146Y-113051704D01*
X135003143Y-113051703D01*
X135003142Y-113051703D01*
X134974378Y-113042977D01*
X134880467Y-113014490D01*
X134802991Y-112973078D01*
X134767407Y-112954058D01*
X134668310Y-112872731D01*
X134586983Y-112773634D01*
X134526552Y-112660575D01*
X134526551Y-112660574D01*
X134489336Y-112537895D01*
X134479920Y-112442289D01*
X134479920Y-111578352D01*
X134489336Y-111482746D01*
X134489338Y-111482741D01*
X134498063Y-111453978D01*
X134526550Y-111360067D01*
X134566717Y-111284920D01*
X134586982Y-111247007D01*
X134668309Y-111147909D01*
X134767406Y-111066582D01*
X134880466Y-111006150D01*
X134974377Y-110977663D01*
X135003141Y-110968937D01*
X135003142Y-110968937D01*
X135003145Y-110968936D01*
X135130720Y-110956371D01*
X135258294Y-110968936D01*
G37*
G36*
X137798294Y-110968936D02*
G01*
X137798297Y-110968937D01*
X137798298Y-110968937D01*
X137827062Y-110977663D01*
X137920973Y-111006150D01*
X138034033Y-111066582D01*
X138133131Y-111147909D01*
X138214458Y-111247006D01*
X138222479Y-111262013D01*
X138274890Y-111360066D01*
X138312104Y-111482745D01*
X138321520Y-111578351D01*
X138321520Y-112442289D01*
X138312104Y-112537895D01*
X138274890Y-112660574D01*
X138274889Y-112660575D01*
X138214458Y-112773634D01*
X138133131Y-112872731D01*
X138034034Y-112954058D01*
X137998450Y-112973078D01*
X137920974Y-113014490D01*
X137827063Y-113042977D01*
X137798299Y-113051703D01*
X137798298Y-113051703D01*
X137798295Y-113051704D01*
X137670720Y-113064269D01*
X137543146Y-113051704D01*
X137543143Y-113051703D01*
X137543142Y-113051703D01*
X137514378Y-113042977D01*
X137420467Y-113014490D01*
X137342991Y-112973078D01*
X137307407Y-112954058D01*
X137208310Y-112872731D01*
X137126983Y-112773634D01*
X137066552Y-112660575D01*
X137066551Y-112660574D01*
X137029336Y-112537895D01*
X137019920Y-112442289D01*
X137019920Y-111578352D01*
X137029336Y-111482746D01*
X137029338Y-111482741D01*
X137038063Y-111453978D01*
X137066550Y-111360067D01*
X137106717Y-111284920D01*
X137126982Y-111247007D01*
X137208309Y-111147909D01*
X137307406Y-111066582D01*
X137420466Y-111006150D01*
X137514377Y-110977663D01*
X137543141Y-110968937D01*
X137543142Y-110968937D01*
X137543145Y-110968936D01*
X137670720Y-110956371D01*
X137798294Y-110968936D01*
G37*
G36*
X155578294Y-110968936D02*
G01*
X155578297Y-110968937D01*
X155578298Y-110968937D01*
X155607062Y-110977663D01*
X155700973Y-111006150D01*
X155814033Y-111066582D01*
X155913131Y-111147909D01*
X155994458Y-111247006D01*
X156002479Y-111262013D01*
X156054890Y-111360066D01*
X156092104Y-111482745D01*
X156101520Y-111578351D01*
X156101520Y-112442289D01*
X156092104Y-112537895D01*
X156054890Y-112660574D01*
X156054889Y-112660575D01*
X155994458Y-112773634D01*
X155913131Y-112872731D01*
X155814034Y-112954058D01*
X155778450Y-112973078D01*
X155700974Y-113014490D01*
X155607063Y-113042977D01*
X155578299Y-113051703D01*
X155578298Y-113051703D01*
X155578295Y-113051704D01*
X155450720Y-113064269D01*
X155323146Y-113051704D01*
X155323143Y-113051703D01*
X155323142Y-113051703D01*
X155294378Y-113042977D01*
X155200467Y-113014490D01*
X155122991Y-112973078D01*
X155087407Y-112954058D01*
X154988310Y-112872731D01*
X154906983Y-112773634D01*
X154846552Y-112660575D01*
X154846551Y-112660574D01*
X154809336Y-112537895D01*
X154799920Y-112442289D01*
X154799920Y-111578352D01*
X154809336Y-111482746D01*
X154809338Y-111482741D01*
X154818063Y-111453978D01*
X154846550Y-111360067D01*
X154886717Y-111284920D01*
X154906982Y-111247007D01*
X154988309Y-111147909D01*
X155087406Y-111066582D01*
X155200466Y-111006150D01*
X155294377Y-110977663D01*
X155323141Y-110968937D01*
X155323142Y-110968937D01*
X155323145Y-110968936D01*
X155450720Y-110956371D01*
X155578294Y-110968936D01*
G37*
G36*
X153038294Y-110968936D02*
G01*
X153038297Y-110968937D01*
X153038298Y-110968937D01*
X153067062Y-110977663D01*
X153160973Y-111006150D01*
X153274033Y-111066582D01*
X153373131Y-111147909D01*
X153454458Y-111247006D01*
X153462479Y-111262013D01*
X153514890Y-111360066D01*
X153552104Y-111482745D01*
X153561520Y-111578351D01*
X153561520Y-112442289D01*
X153552104Y-112537895D01*
X153514890Y-112660574D01*
X153514889Y-112660575D01*
X153454458Y-112773634D01*
X153373131Y-112872731D01*
X153274034Y-112954058D01*
X153238450Y-112973078D01*
X153160974Y-113014490D01*
X153067063Y-113042977D01*
X153038299Y-113051703D01*
X153038298Y-113051703D01*
X153038295Y-113051704D01*
X152910720Y-113064269D01*
X152783146Y-113051704D01*
X152783143Y-113051703D01*
X152783142Y-113051703D01*
X152754378Y-113042977D01*
X152660467Y-113014490D01*
X152582991Y-112973078D01*
X152547407Y-112954058D01*
X152448310Y-112872731D01*
X152366983Y-112773634D01*
X152306552Y-112660575D01*
X152306551Y-112660574D01*
X152269336Y-112537895D01*
X152259920Y-112442289D01*
X152259920Y-111578352D01*
X152269336Y-111482746D01*
X152269338Y-111482741D01*
X152278063Y-111453978D01*
X152306550Y-111360067D01*
X152346717Y-111284920D01*
X152366982Y-111247007D01*
X152448309Y-111147909D01*
X152547406Y-111066582D01*
X152660466Y-111006150D01*
X152754377Y-110977663D01*
X152783141Y-110968937D01*
X152783142Y-110968937D01*
X152783145Y-110968936D01*
X152910720Y-110956371D01*
X153038294Y-110968936D01*
G37*
G36*
X150498294Y-110968936D02*
G01*
X150498297Y-110968937D01*
X150498298Y-110968937D01*
X150527062Y-110977663D01*
X150620973Y-111006150D01*
X150734033Y-111066582D01*
X150833131Y-111147909D01*
X150914458Y-111247006D01*
X150922479Y-111262013D01*
X150974890Y-111360066D01*
X151012104Y-111482745D01*
X151021520Y-111578351D01*
X151021520Y-112442289D01*
X151012104Y-112537895D01*
X150974890Y-112660574D01*
X150974889Y-112660575D01*
X150914458Y-112773634D01*
X150833131Y-112872731D01*
X150734034Y-112954058D01*
X150698450Y-112973078D01*
X150620974Y-113014490D01*
X150527063Y-113042977D01*
X150498299Y-113051703D01*
X150498298Y-113051703D01*
X150498295Y-113051704D01*
X150370720Y-113064269D01*
X150243146Y-113051704D01*
X150243143Y-113051703D01*
X150243142Y-113051703D01*
X150214378Y-113042977D01*
X150120467Y-113014490D01*
X150042991Y-112973078D01*
X150007407Y-112954058D01*
X149908310Y-112872731D01*
X149826983Y-112773634D01*
X149766552Y-112660575D01*
X149766551Y-112660574D01*
X149729336Y-112537895D01*
X149719920Y-112442289D01*
X149719920Y-111578352D01*
X149729336Y-111482746D01*
X149729338Y-111482741D01*
X149738063Y-111453978D01*
X149766550Y-111360067D01*
X149806717Y-111284920D01*
X149826982Y-111247007D01*
X149908309Y-111147909D01*
X150007406Y-111066582D01*
X150120466Y-111006150D01*
X150214377Y-110977663D01*
X150243141Y-110968937D01*
X150243142Y-110968937D01*
X150243145Y-110968936D01*
X150370720Y-110956371D01*
X150498294Y-110968936D01*
G37*
G36*
X145418294Y-110968936D02*
G01*
X145418297Y-110968937D01*
X145418298Y-110968937D01*
X145447062Y-110977663D01*
X145540973Y-111006150D01*
X145654033Y-111066582D01*
X145753131Y-111147909D01*
X145834458Y-111247006D01*
X145842479Y-111262013D01*
X145894890Y-111360066D01*
X145932104Y-111482745D01*
X145941520Y-111578351D01*
X145941520Y-112442289D01*
X145932104Y-112537895D01*
X145894890Y-112660574D01*
X145894889Y-112660575D01*
X145834458Y-112773634D01*
X145753131Y-112872731D01*
X145654034Y-112954058D01*
X145618450Y-112973078D01*
X145540974Y-113014490D01*
X145447063Y-113042977D01*
X145418299Y-113051703D01*
X145418298Y-113051703D01*
X145418295Y-113051704D01*
X145290720Y-113064269D01*
X145163146Y-113051704D01*
X145163143Y-113051703D01*
X145163142Y-113051703D01*
X145134378Y-113042977D01*
X145040467Y-113014490D01*
X144962991Y-112973078D01*
X144927407Y-112954058D01*
X144828310Y-112872731D01*
X144746983Y-112773634D01*
X144686552Y-112660575D01*
X144686551Y-112660574D01*
X144649336Y-112537895D01*
X144639920Y-112442289D01*
X144639920Y-111578352D01*
X144649336Y-111482746D01*
X144649338Y-111482741D01*
X144658063Y-111453978D01*
X144686550Y-111360067D01*
X144726717Y-111284920D01*
X144746982Y-111247007D01*
X144828309Y-111147909D01*
X144927406Y-111066582D01*
X145040466Y-111006150D01*
X145134377Y-110977663D01*
X145163141Y-110968937D01*
X145163142Y-110968937D01*
X145163145Y-110968936D01*
X145290720Y-110956371D01*
X145418294Y-110968936D01*
G37*
G36*
X142878294Y-110968936D02*
G01*
X142878297Y-110968937D01*
X142878298Y-110968937D01*
X142907062Y-110977663D01*
X143000973Y-111006150D01*
X143114033Y-111066582D01*
X143213131Y-111147909D01*
X143294458Y-111247006D01*
X143302479Y-111262013D01*
X143354890Y-111360066D01*
X143392104Y-111482745D01*
X143401520Y-111578351D01*
X143401520Y-112442289D01*
X143392104Y-112537895D01*
X143354890Y-112660574D01*
X143354889Y-112660575D01*
X143294458Y-112773634D01*
X143213131Y-112872731D01*
X143114034Y-112954058D01*
X143078450Y-112973078D01*
X143000974Y-113014490D01*
X142907063Y-113042977D01*
X142878299Y-113051703D01*
X142878298Y-113051703D01*
X142878295Y-113051704D01*
X142750720Y-113064269D01*
X142623146Y-113051704D01*
X142623143Y-113051703D01*
X142623142Y-113051703D01*
X142594378Y-113042977D01*
X142500467Y-113014490D01*
X142422991Y-112973078D01*
X142387407Y-112954058D01*
X142288310Y-112872731D01*
X142206983Y-112773634D01*
X142146552Y-112660575D01*
X142146551Y-112660574D01*
X142109336Y-112537895D01*
X142099920Y-112442289D01*
X142099920Y-111578352D01*
X142109336Y-111482746D01*
X142109338Y-111482741D01*
X142118063Y-111453978D01*
X142146550Y-111360067D01*
X142186717Y-111284920D01*
X142206982Y-111247007D01*
X142288309Y-111147909D01*
X142387406Y-111066582D01*
X142500466Y-111006150D01*
X142594377Y-110977663D01*
X142623141Y-110968937D01*
X142623142Y-110968937D01*
X142623145Y-110968936D01*
X142750720Y-110956371D01*
X142878294Y-110968936D01*
G37*
G36*
X140338294Y-110968936D02*
G01*
X140338297Y-110968937D01*
X140338298Y-110968937D01*
X140367062Y-110977663D01*
X140460973Y-111006150D01*
X140574033Y-111066582D01*
X140673131Y-111147909D01*
X140754458Y-111247006D01*
X140762479Y-111262013D01*
X140814890Y-111360066D01*
X140852104Y-111482745D01*
X140861520Y-111578351D01*
X140861520Y-112442289D01*
X140852104Y-112537895D01*
X140814890Y-112660574D01*
X140814889Y-112660575D01*
X140754458Y-112773634D01*
X140673131Y-112872731D01*
X140574034Y-112954058D01*
X140538450Y-112973078D01*
X140460974Y-113014490D01*
X140367063Y-113042977D01*
X140338299Y-113051703D01*
X140338298Y-113051703D01*
X140338295Y-113051704D01*
X140210720Y-113064269D01*
X140083146Y-113051704D01*
X140083143Y-113051703D01*
X140083142Y-113051703D01*
X140054378Y-113042977D01*
X139960467Y-113014490D01*
X139882991Y-112973078D01*
X139847407Y-112954058D01*
X139748310Y-112872731D01*
X139666983Y-112773634D01*
X139606552Y-112660575D01*
X139606551Y-112660574D01*
X139569336Y-112537895D01*
X139559920Y-112442289D01*
X139559920Y-111578352D01*
X139569336Y-111482746D01*
X139569338Y-111482741D01*
X139578063Y-111453978D01*
X139606550Y-111360067D01*
X139646717Y-111284920D01*
X139666982Y-111247007D01*
X139748309Y-111147909D01*
X139847406Y-111066582D01*
X139960466Y-111006150D01*
X140054377Y-110977663D01*
X140083141Y-110968937D01*
X140083142Y-110968937D01*
X140083145Y-110968936D01*
X140210720Y-110956371D01*
X140338294Y-110968936D01*
G37*
G36*
X114938294Y-110968936D02*
G01*
X114938297Y-110968937D01*
X114938298Y-110968937D01*
X114967062Y-110977663D01*
X115060973Y-111006150D01*
X115174033Y-111066582D01*
X115273131Y-111147909D01*
X115354458Y-111247006D01*
X115362479Y-111262013D01*
X115414890Y-111360066D01*
X115452104Y-111482745D01*
X115461520Y-111578351D01*
X115461520Y-112442289D01*
X115452104Y-112537895D01*
X115414890Y-112660574D01*
X115414889Y-112660575D01*
X115354458Y-112773634D01*
X115273131Y-112872731D01*
X115174034Y-112954058D01*
X115138450Y-112973078D01*
X115060974Y-113014490D01*
X114967063Y-113042977D01*
X114938299Y-113051703D01*
X114938298Y-113051703D01*
X114938295Y-113051704D01*
X114810720Y-113064269D01*
X114683146Y-113051704D01*
X114683143Y-113051703D01*
X114683142Y-113051703D01*
X114654378Y-113042977D01*
X114560467Y-113014490D01*
X114482991Y-112973078D01*
X114447407Y-112954058D01*
X114348310Y-112872731D01*
X114266983Y-112773634D01*
X114206552Y-112660575D01*
X114206551Y-112660574D01*
X114169336Y-112537895D01*
X114159920Y-112442289D01*
X114159920Y-111578352D01*
X114169336Y-111482746D01*
X114169338Y-111482741D01*
X114178063Y-111453978D01*
X114206550Y-111360067D01*
X114246717Y-111284920D01*
X114266982Y-111247007D01*
X114348309Y-111147909D01*
X114447406Y-111066582D01*
X114560466Y-111006150D01*
X114654377Y-110977663D01*
X114683141Y-110968937D01*
X114683142Y-110968937D01*
X114683145Y-110968936D01*
X114810720Y-110956371D01*
X114938294Y-110968936D01*
G37*
G36*
X130178294Y-110968936D02*
G01*
X130178297Y-110968937D01*
X130178298Y-110968937D01*
X130207062Y-110977663D01*
X130300973Y-111006150D01*
X130414033Y-111066582D01*
X130513131Y-111147909D01*
X130594458Y-111247006D01*
X130602479Y-111262013D01*
X130654890Y-111360066D01*
X130692104Y-111482745D01*
X130701520Y-111578351D01*
X130701520Y-112442289D01*
X130692104Y-112537895D01*
X130654890Y-112660574D01*
X130654889Y-112660575D01*
X130594458Y-112773634D01*
X130513131Y-112872731D01*
X130414034Y-112954058D01*
X130378450Y-112973078D01*
X130300974Y-113014490D01*
X130207063Y-113042977D01*
X130178299Y-113051703D01*
X130178298Y-113051703D01*
X130178295Y-113051704D01*
X130050720Y-113064269D01*
X129923146Y-113051704D01*
X129923143Y-113051703D01*
X129923142Y-113051703D01*
X129894378Y-113042977D01*
X129800467Y-113014490D01*
X129722991Y-112973078D01*
X129687407Y-112954058D01*
X129588310Y-112872731D01*
X129506983Y-112773634D01*
X129446552Y-112660575D01*
X129446551Y-112660574D01*
X129409336Y-112537895D01*
X129399920Y-112442289D01*
X129399920Y-111578352D01*
X129409336Y-111482746D01*
X129409338Y-111482741D01*
X129418063Y-111453978D01*
X129446550Y-111360067D01*
X129486717Y-111284920D01*
X129506982Y-111247007D01*
X129588309Y-111147909D01*
X129687406Y-111066582D01*
X129800466Y-111006150D01*
X129894377Y-110977663D01*
X129923141Y-110968937D01*
X129923142Y-110968937D01*
X129923145Y-110968936D01*
X130050720Y-110956371D01*
X130178294Y-110968936D01*
G37*
G36*
X127638294Y-110968936D02*
G01*
X127638297Y-110968937D01*
X127638298Y-110968937D01*
X127667062Y-110977663D01*
X127760973Y-111006150D01*
X127874033Y-111066582D01*
X127973131Y-111147909D01*
X128054458Y-111247006D01*
X128062479Y-111262013D01*
X128114890Y-111360066D01*
X128152104Y-111482745D01*
X128161520Y-111578351D01*
X128161520Y-112442289D01*
X128152104Y-112537895D01*
X128114890Y-112660574D01*
X128114889Y-112660575D01*
X128054458Y-112773634D01*
X127973131Y-112872731D01*
X127874034Y-112954058D01*
X127838450Y-112973078D01*
X127760974Y-113014490D01*
X127667063Y-113042977D01*
X127638299Y-113051703D01*
X127638298Y-113051703D01*
X127638295Y-113051704D01*
X127510720Y-113064269D01*
X127383146Y-113051704D01*
X127383143Y-113051703D01*
X127383142Y-113051703D01*
X127354378Y-113042977D01*
X127260467Y-113014490D01*
X127182991Y-112973078D01*
X127147407Y-112954058D01*
X127048310Y-112872731D01*
X126966983Y-112773634D01*
X126906552Y-112660575D01*
X126906551Y-112660574D01*
X126869336Y-112537895D01*
X126859920Y-112442289D01*
X126859920Y-111578352D01*
X126869336Y-111482746D01*
X126869338Y-111482741D01*
X126878063Y-111453978D01*
X126906550Y-111360067D01*
X126946717Y-111284920D01*
X126966982Y-111247007D01*
X127048309Y-111147909D01*
X127147406Y-111066582D01*
X127260466Y-111006150D01*
X127354377Y-110977663D01*
X127383141Y-110968937D01*
X127383142Y-110968937D01*
X127383145Y-110968936D01*
X127510720Y-110956371D01*
X127638294Y-110968936D01*
G37*
G36*
X125098294Y-110968936D02*
G01*
X125098297Y-110968937D01*
X125098298Y-110968937D01*
X125127062Y-110977663D01*
X125220973Y-111006150D01*
X125334033Y-111066582D01*
X125433131Y-111147909D01*
X125514458Y-111247006D01*
X125522479Y-111262013D01*
X125574890Y-111360066D01*
X125612104Y-111482745D01*
X125621520Y-111578351D01*
X125621520Y-112442289D01*
X125612104Y-112537895D01*
X125574890Y-112660574D01*
X125574889Y-112660575D01*
X125514458Y-112773634D01*
X125433131Y-112872731D01*
X125334034Y-112954058D01*
X125298450Y-112973078D01*
X125220974Y-113014490D01*
X125127063Y-113042977D01*
X125098299Y-113051703D01*
X125098298Y-113051703D01*
X125098295Y-113051704D01*
X124970720Y-113064269D01*
X124843146Y-113051704D01*
X124843143Y-113051703D01*
X124843142Y-113051703D01*
X124814378Y-113042977D01*
X124720467Y-113014490D01*
X124642991Y-112973078D01*
X124607407Y-112954058D01*
X124508310Y-112872731D01*
X124426983Y-112773634D01*
X124366552Y-112660575D01*
X124366551Y-112660574D01*
X124329336Y-112537895D01*
X124319920Y-112442289D01*
X124319920Y-111578352D01*
X124329336Y-111482746D01*
X124329338Y-111482741D01*
X124338063Y-111453978D01*
X124366550Y-111360067D01*
X124406717Y-111284920D01*
X124426982Y-111247007D01*
X124508309Y-111147909D01*
X124607406Y-111066582D01*
X124720466Y-111006150D01*
X124814377Y-110977663D01*
X124843141Y-110968937D01*
X124843142Y-110968937D01*
X124843145Y-110968936D01*
X124970720Y-110956371D01*
X125098294Y-110968936D01*
G37*
G36*
X122558294Y-110968936D02*
G01*
X122558297Y-110968937D01*
X122558298Y-110968937D01*
X122587062Y-110977663D01*
X122680973Y-111006150D01*
X122794033Y-111066582D01*
X122893131Y-111147909D01*
X122974458Y-111247006D01*
X122982479Y-111262013D01*
X123034890Y-111360066D01*
X123072104Y-111482745D01*
X123081520Y-111578351D01*
X123081520Y-112442289D01*
X123072104Y-112537895D01*
X123034890Y-112660574D01*
X123034889Y-112660575D01*
X122974458Y-112773634D01*
X122893131Y-112872731D01*
X122794034Y-112954058D01*
X122758450Y-112973078D01*
X122680974Y-113014490D01*
X122587063Y-113042977D01*
X122558299Y-113051703D01*
X122558298Y-113051703D01*
X122558295Y-113051704D01*
X122430720Y-113064269D01*
X122303146Y-113051704D01*
X122303143Y-113051703D01*
X122303142Y-113051703D01*
X122274378Y-113042977D01*
X122180467Y-113014490D01*
X122102991Y-112973078D01*
X122067407Y-112954058D01*
X121968310Y-112872731D01*
X121886983Y-112773634D01*
X121826552Y-112660575D01*
X121826551Y-112660574D01*
X121789336Y-112537895D01*
X121779920Y-112442289D01*
X121779920Y-111578352D01*
X121789336Y-111482746D01*
X121789338Y-111482741D01*
X121798063Y-111453978D01*
X121826550Y-111360067D01*
X121866717Y-111284920D01*
X121886982Y-111247007D01*
X121968309Y-111147909D01*
X122067406Y-111066582D01*
X122180466Y-111006150D01*
X122274377Y-110977663D01*
X122303141Y-110968937D01*
X122303142Y-110968937D01*
X122303145Y-110968936D01*
X122430720Y-110956371D01*
X122558294Y-110968936D01*
G37*
G36*
X120018294Y-110968936D02*
G01*
X120018297Y-110968937D01*
X120018298Y-110968937D01*
X120047062Y-110977663D01*
X120140973Y-111006150D01*
X120254033Y-111066582D01*
X120353131Y-111147909D01*
X120434458Y-111247006D01*
X120442479Y-111262013D01*
X120494890Y-111360066D01*
X120532104Y-111482745D01*
X120541520Y-111578351D01*
X120541520Y-112442289D01*
X120532104Y-112537895D01*
X120494890Y-112660574D01*
X120494889Y-112660575D01*
X120434458Y-112773634D01*
X120353131Y-112872731D01*
X120254034Y-112954058D01*
X120218450Y-112973078D01*
X120140974Y-113014490D01*
X120047063Y-113042977D01*
X120018299Y-113051703D01*
X120018298Y-113051703D01*
X120018295Y-113051704D01*
X119890720Y-113064269D01*
X119763146Y-113051704D01*
X119763143Y-113051703D01*
X119763142Y-113051703D01*
X119734378Y-113042977D01*
X119640467Y-113014490D01*
X119562991Y-112973078D01*
X119527407Y-112954058D01*
X119428310Y-112872731D01*
X119346983Y-112773634D01*
X119286552Y-112660575D01*
X119286551Y-112660574D01*
X119249336Y-112537895D01*
X119239920Y-112442289D01*
X119239920Y-111578352D01*
X119249336Y-111482746D01*
X119249338Y-111482741D01*
X119258063Y-111453978D01*
X119286550Y-111360067D01*
X119326717Y-111284920D01*
X119346982Y-111247007D01*
X119428309Y-111147909D01*
X119527406Y-111066582D01*
X119640466Y-111006150D01*
X119734377Y-110977663D01*
X119763141Y-110968937D01*
X119763142Y-110968937D01*
X119763145Y-110968936D01*
X119890720Y-110956371D01*
X120018294Y-110968936D01*
G37*
G36*
X117478294Y-110968936D02*
G01*
X117478297Y-110968937D01*
X117478298Y-110968937D01*
X117507062Y-110977663D01*
X117600973Y-111006150D01*
X117714033Y-111066582D01*
X117813131Y-111147909D01*
X117894458Y-111247006D01*
X117902479Y-111262013D01*
X117954890Y-111360066D01*
X117992104Y-111482745D01*
X118001520Y-111578351D01*
X118001520Y-112442289D01*
X117992104Y-112537895D01*
X117954890Y-112660574D01*
X117954889Y-112660575D01*
X117894458Y-112773634D01*
X117813131Y-112872731D01*
X117714034Y-112954058D01*
X117678450Y-112973078D01*
X117600974Y-113014490D01*
X117507063Y-113042977D01*
X117478299Y-113051703D01*
X117478298Y-113051703D01*
X117478295Y-113051704D01*
X117350720Y-113064269D01*
X117223146Y-113051704D01*
X117223143Y-113051703D01*
X117223142Y-113051703D01*
X117194378Y-113042977D01*
X117100467Y-113014490D01*
X117022991Y-112973078D01*
X116987407Y-112954058D01*
X116888310Y-112872731D01*
X116806983Y-112773634D01*
X116746552Y-112660575D01*
X116746551Y-112660574D01*
X116709336Y-112537895D01*
X116699920Y-112442289D01*
X116699920Y-111578352D01*
X116709336Y-111482746D01*
X116709338Y-111482741D01*
X116718063Y-111453978D01*
X116746550Y-111360067D01*
X116786717Y-111284920D01*
X116806982Y-111247007D01*
X116888309Y-111147909D01*
X116987406Y-111066582D01*
X117100466Y-111006150D01*
X117194377Y-110977663D01*
X117223141Y-110968937D01*
X117223142Y-110968937D01*
X117223145Y-110968936D01*
X117350720Y-110956371D01*
X117478294Y-110968936D01*
G37*
G36*
X158118294Y-110968936D02*
G01*
X158118297Y-110968937D01*
X158118298Y-110968937D01*
X158147062Y-110977663D01*
X158240973Y-111006150D01*
X158354033Y-111066582D01*
X158453131Y-111147909D01*
X158534458Y-111247006D01*
X158542479Y-111262013D01*
X158594890Y-111360066D01*
X158632104Y-111482745D01*
X158641520Y-111578351D01*
X158641520Y-112442289D01*
X158632104Y-112537895D01*
X158594890Y-112660574D01*
X158594889Y-112660575D01*
X158534458Y-112773634D01*
X158453131Y-112872731D01*
X158354034Y-112954058D01*
X158318450Y-112973078D01*
X158240974Y-113014490D01*
X158147063Y-113042977D01*
X158118299Y-113051703D01*
X158118298Y-113051703D01*
X158118295Y-113051704D01*
X157990720Y-113064269D01*
X157863146Y-113051704D01*
X157863143Y-113051703D01*
X157863142Y-113051703D01*
X157834378Y-113042977D01*
X157740467Y-113014490D01*
X157662991Y-112973078D01*
X157627407Y-112954058D01*
X157528310Y-112872731D01*
X157446983Y-112773634D01*
X157386552Y-112660575D01*
X157386551Y-112660574D01*
X157349336Y-112537895D01*
X157339920Y-112442289D01*
X157339920Y-111578352D01*
X157349336Y-111482746D01*
X157349338Y-111482741D01*
X157358063Y-111453978D01*
X157386550Y-111360067D01*
X157426717Y-111284920D01*
X157446982Y-111247007D01*
X157528309Y-111147909D01*
X157627406Y-111066582D01*
X157740466Y-111006150D01*
X157834377Y-110977663D01*
X157863141Y-110968937D01*
X157863142Y-110968937D01*
X157863145Y-110968936D01*
X157990720Y-110956371D01*
X158118294Y-110968936D01*
G37*
G36*
X160658294Y-110968936D02*
G01*
X160658297Y-110968937D01*
X160658298Y-110968937D01*
X160687062Y-110977663D01*
X160780973Y-111006150D01*
X160894033Y-111066582D01*
X160993131Y-111147909D01*
X161074458Y-111247006D01*
X161082479Y-111262013D01*
X161134890Y-111360066D01*
X161172104Y-111482745D01*
X161181520Y-111578351D01*
X161181520Y-112442289D01*
X161172104Y-112537895D01*
X161134890Y-112660574D01*
X161134889Y-112660575D01*
X161074458Y-112773634D01*
X160993131Y-112872731D01*
X160894034Y-112954058D01*
X160858450Y-112973078D01*
X160780974Y-113014490D01*
X160687063Y-113042977D01*
X160658299Y-113051703D01*
X160658298Y-113051703D01*
X160658295Y-113051704D01*
X160530720Y-113064269D01*
X160403146Y-113051704D01*
X160403143Y-113051703D01*
X160403142Y-113051703D01*
X160374378Y-113042977D01*
X160280467Y-113014490D01*
X160202991Y-112973078D01*
X160167407Y-112954058D01*
X160068310Y-112872731D01*
X159986983Y-112773634D01*
X159926552Y-112660575D01*
X159926551Y-112660574D01*
X159889336Y-112537895D01*
X159879920Y-112442289D01*
X159879920Y-111578352D01*
X159889336Y-111482746D01*
X159889338Y-111482741D01*
X159898063Y-111453978D01*
X159926550Y-111360067D01*
X159966717Y-111284920D01*
X159986982Y-111247007D01*
X160068309Y-111147909D01*
X160167406Y-111066582D01*
X160280466Y-111006150D01*
X160374377Y-110977663D01*
X160403141Y-110968937D01*
X160403142Y-110968937D01*
X160403145Y-110968936D01*
X160530720Y-110956371D01*
X160658294Y-110968936D01*
G37*
G36*
X132718294Y-110968936D02*
G01*
X132718297Y-110968937D01*
X132718298Y-110968937D01*
X132747062Y-110977663D01*
X132840973Y-111006150D01*
X132954033Y-111066582D01*
X133053131Y-111147909D01*
X133134458Y-111247006D01*
X133142479Y-111262013D01*
X133194890Y-111360066D01*
X133232104Y-111482745D01*
X133241520Y-111578351D01*
X133241520Y-112442289D01*
X133232104Y-112537895D01*
X133194890Y-112660574D01*
X133194889Y-112660575D01*
X133134458Y-112773634D01*
X133053131Y-112872731D01*
X132954034Y-112954058D01*
X132918450Y-112973078D01*
X132840974Y-113014490D01*
X132747063Y-113042977D01*
X132718299Y-113051703D01*
X132718298Y-113051703D01*
X132718295Y-113051704D01*
X132590720Y-113064269D01*
X132463146Y-113051704D01*
X132463143Y-113051703D01*
X132463142Y-113051703D01*
X132434378Y-113042977D01*
X132340467Y-113014490D01*
X132262991Y-112973078D01*
X132227407Y-112954058D01*
X132128310Y-112872731D01*
X132046983Y-112773634D01*
X131986552Y-112660575D01*
X131986551Y-112660574D01*
X131949336Y-112537895D01*
X131939920Y-112442289D01*
X131939920Y-111578352D01*
X131949336Y-111482746D01*
X131949338Y-111482741D01*
X131958063Y-111453978D01*
X131986550Y-111360067D01*
X132026717Y-111284920D01*
X132046982Y-111247007D01*
X132128309Y-111147909D01*
X132227406Y-111066582D01*
X132340466Y-111006150D01*
X132434377Y-110977663D01*
X132463141Y-110968937D01*
X132463142Y-110968937D01*
X132463145Y-110968936D01*
X132590720Y-110956371D01*
X132718294Y-110968936D01*
G37*
G36*
X148239996Y-110965525D02*
G01*
X148296233Y-110982584D01*
X148348053Y-111010283D01*
X148393478Y-111047562D01*
X148430757Y-111092987D01*
X148458456Y-111144807D01*
X148475515Y-111201044D01*
X148481520Y-111262013D01*
X148481520Y-112758627D01*
X148475515Y-112819596D01*
X148458456Y-112875833D01*
X148430757Y-112927653D01*
X148393478Y-112973078D01*
X148348053Y-113010357D01*
X148296233Y-113038056D01*
X148239996Y-113055115D01*
X148179027Y-113061120D01*
X147482413Y-113061120D01*
X147421444Y-113055115D01*
X147365207Y-113038056D01*
X147313387Y-113010357D01*
X147267962Y-112973078D01*
X147230683Y-112927653D01*
X147202984Y-112875833D01*
X147185925Y-112819596D01*
X147179920Y-112758627D01*
X147179920Y-111262013D01*
X147185925Y-111201044D01*
X147202984Y-111144807D01*
X147230683Y-111092987D01*
X147267962Y-111047562D01*
X147313387Y-111010283D01*
X147365207Y-110982584D01*
X147421444Y-110965525D01*
X147482413Y-110959520D01*
X148179027Y-110959520D01*
X148239996Y-110965525D01*
G37*
G36*
X166099086Y-109200435D02*
G01*
X166247003Y-109261704D01*
X166380134Y-109350660D01*
X166493340Y-109463866D01*
X166582296Y-109596997D01*
X166643565Y-109744914D01*
X166674800Y-109901946D01*
X166674800Y-110062054D01*
X166643565Y-110219086D01*
X166582296Y-110367003D01*
X166493340Y-110500134D01*
X166380134Y-110613340D01*
X166247003Y-110702296D01*
X166099086Y-110763565D01*
X165942054Y-110794800D01*
X165781946Y-110794800D01*
X165624914Y-110763565D01*
X165476997Y-110702296D01*
X165343866Y-110613340D01*
X165230660Y-110500134D01*
X165141704Y-110367003D01*
X165080435Y-110219086D01*
X165049200Y-110062054D01*
X165049200Y-109901946D01*
X165080435Y-109744914D01*
X165141704Y-109596997D01*
X165230660Y-109463866D01*
X165343866Y-109350660D01*
X165476997Y-109261704D01*
X165624914Y-109200435D01*
X165781946Y-109169200D01*
X165942054Y-109169200D01*
X166099086Y-109200435D01*
G37*
G36*
X166099086Y-106660435D02*
G01*
X166247003Y-106721704D01*
X166380134Y-106810660D01*
X166493340Y-106923866D01*
X166582296Y-107056997D01*
X166643565Y-107204914D01*
X166674800Y-107361946D01*
X166674800Y-107522054D01*
X166643565Y-107679086D01*
X166582296Y-107827003D01*
X166493340Y-107960134D01*
X166380134Y-108073340D01*
X166247003Y-108162296D01*
X166099086Y-108223565D01*
X165942054Y-108254800D01*
X165781946Y-108254800D01*
X165624914Y-108223565D01*
X165476997Y-108162296D01*
X165343866Y-108073340D01*
X165230660Y-107960134D01*
X165141704Y-107827003D01*
X165080435Y-107679086D01*
X165049200Y-107522054D01*
X165049200Y-107361946D01*
X165080435Y-107204914D01*
X165141704Y-107056997D01*
X165230660Y-106923866D01*
X165343866Y-106810660D01*
X165476997Y-106721704D01*
X165624914Y-106660435D01*
X165781946Y-106629200D01*
X165942054Y-106629200D01*
X166099086Y-106660435D01*
G37*
G36*
X166099086Y-104120435D02*
G01*
X166247003Y-104181704D01*
X166380134Y-104270660D01*
X166493340Y-104383866D01*
X166582296Y-104516997D01*
X166643565Y-104664914D01*
X166674800Y-104821946D01*
X166674800Y-104982054D01*
X166643565Y-105139086D01*
X166582296Y-105287003D01*
X166493340Y-105420134D01*
X166380134Y-105533340D01*
X166247003Y-105622296D01*
X166099086Y-105683565D01*
X165942054Y-105714800D01*
X165781946Y-105714800D01*
X165624914Y-105683565D01*
X165476997Y-105622296D01*
X165343866Y-105533340D01*
X165230660Y-105420134D01*
X165141704Y-105287003D01*
X165080435Y-105139086D01*
X165049200Y-104982054D01*
X165049200Y-104821946D01*
X165080435Y-104664914D01*
X165141704Y-104516997D01*
X165230660Y-104383866D01*
X165343866Y-104270660D01*
X165476997Y-104181704D01*
X165624914Y-104120435D01*
X165781946Y-104089200D01*
X165942054Y-104089200D01*
X166099086Y-104120435D01*
G37*
G36*
X106222800Y-104444800D02*
G01*
X104597200Y-104444800D01*
X104597200Y-102819200D01*
X106222800Y-102819200D01*
X106222800Y-104444800D01*
G37*
G36*
X166099086Y-101580435D02*
G01*
X166247003Y-101641704D01*
X166336163Y-101701279D01*
X166369184Y-101723343D01*
X166380134Y-101730660D01*
X166493340Y-101843866D01*
X166493342Y-101843869D01*
X166493343Y-101843870D01*
X166522721Y-101887837D01*
X166582296Y-101976997D01*
X166643565Y-102124914D01*
X166674800Y-102281946D01*
X166674800Y-102442054D01*
X166643565Y-102599086D01*
X166582296Y-102747003D01*
X166493340Y-102880134D01*
X166380134Y-102993340D01*
X166247003Y-103082296D01*
X166099086Y-103143565D01*
X165942054Y-103174800D01*
X165781946Y-103174800D01*
X165624914Y-103143565D01*
X165476997Y-103082296D01*
X165343866Y-102993340D01*
X165230660Y-102880134D01*
X165141704Y-102747003D01*
X165080435Y-102599086D01*
X165049200Y-102442054D01*
X165049200Y-102281946D01*
X165080435Y-102124914D01*
X165141704Y-101976997D01*
X165201279Y-101887837D01*
X165230657Y-101843870D01*
X165230658Y-101843869D01*
X165230660Y-101843866D01*
X165343866Y-101730660D01*
X165354817Y-101723343D01*
X165387837Y-101701279D01*
X165476997Y-101641704D01*
X165624914Y-101580435D01*
X165781946Y-101549200D01*
X165942054Y-101549200D01*
X166099086Y-101580435D01*
G37*
G36*
X105647086Y-100310435D02*
G01*
X105795003Y-100371704D01*
X105884163Y-100431279D01*
X105917184Y-100453343D01*
X105928134Y-100460660D01*
X106041340Y-100573866D01*
X106041342Y-100573869D01*
X106041343Y-100573870D01*
X106070721Y-100617837D01*
X106130296Y-100706997D01*
X106191565Y-100854914D01*
X106222800Y-101011946D01*
X106222800Y-101172054D01*
X106191565Y-101329086D01*
X106130296Y-101477003D01*
X106082055Y-101549200D01*
X106061185Y-101580435D01*
X106041340Y-101610134D01*
X105928134Y-101723340D01*
X105928131Y-101723342D01*
X105928130Y-101723343D01*
X105917179Y-101730660D01*
X105795003Y-101812296D01*
X105647086Y-101873565D01*
X105490054Y-101904800D01*
X105329946Y-101904800D01*
X105172914Y-101873565D01*
X105024997Y-101812296D01*
X104902821Y-101730660D01*
X104891870Y-101723343D01*
X104891869Y-101723342D01*
X104891866Y-101723340D01*
X104778660Y-101610134D01*
X104758816Y-101580435D01*
X104737945Y-101549200D01*
X104689704Y-101477003D01*
X104628435Y-101329086D01*
X104597200Y-101172054D01*
X104597200Y-101011946D01*
X104628435Y-100854914D01*
X104689704Y-100706997D01*
X104749279Y-100617837D01*
X104778657Y-100573870D01*
X104778658Y-100573869D01*
X104778660Y-100573866D01*
X104891866Y-100460660D01*
X104902817Y-100453343D01*
X104935837Y-100431279D01*
X105024997Y-100371704D01*
X105172914Y-100310435D01*
X105329946Y-100279200D01*
X105490054Y-100279200D01*
X105647086Y-100310435D01*
G37*
G36*
X166099086Y-99040435D02*
G01*
X166247003Y-99101704D01*
X166336163Y-99161279D01*
X166369184Y-99183343D01*
X166380134Y-99190660D01*
X166493340Y-99303866D01*
X166493342Y-99303869D01*
X166493343Y-99303870D01*
X166522721Y-99347837D01*
X166582296Y-99436997D01*
X166643565Y-99584914D01*
X166674800Y-99741946D01*
X166674800Y-99902054D01*
X166643565Y-100059086D01*
X166582296Y-100207003D01*
X166534055Y-100279200D01*
X166513185Y-100310435D01*
X166493340Y-100340134D01*
X166380134Y-100453340D01*
X166380131Y-100453342D01*
X166380130Y-100453343D01*
X166369179Y-100460660D01*
X166247003Y-100542296D01*
X166099086Y-100603565D01*
X165942054Y-100634800D01*
X165781946Y-100634800D01*
X165624914Y-100603565D01*
X165476997Y-100542296D01*
X165354821Y-100460660D01*
X165343870Y-100453343D01*
X165343869Y-100453342D01*
X165343866Y-100453340D01*
X165230660Y-100340134D01*
X165210816Y-100310435D01*
X165189945Y-100279200D01*
X165141704Y-100207003D01*
X165080435Y-100059086D01*
X165049200Y-99902054D01*
X165049200Y-99741946D01*
X165080435Y-99584914D01*
X165141704Y-99436997D01*
X165201279Y-99347837D01*
X165230657Y-99303870D01*
X165230658Y-99303869D01*
X165230660Y-99303866D01*
X165343866Y-99190660D01*
X165354817Y-99183343D01*
X165387837Y-99161279D01*
X165476997Y-99101704D01*
X165624914Y-99040435D01*
X165781946Y-99009200D01*
X165942054Y-99009200D01*
X166099086Y-99040435D01*
G37*
G36*
X105647086Y-97770435D02*
G01*
X105795003Y-97831704D01*
X105884163Y-97891279D01*
X105917184Y-97913343D01*
X105928134Y-97920660D01*
X106041340Y-98033866D01*
X106041342Y-98033869D01*
X106041343Y-98033870D01*
X106070721Y-98077837D01*
X106130296Y-98166997D01*
X106191565Y-98314914D01*
X106222800Y-98471946D01*
X106222800Y-98632054D01*
X106191565Y-98789086D01*
X106130296Y-98937003D01*
X106082055Y-99009200D01*
X106061185Y-99040435D01*
X106041340Y-99070134D01*
X105928134Y-99183340D01*
X105928131Y-99183342D01*
X105928130Y-99183343D01*
X105917179Y-99190660D01*
X105795003Y-99272296D01*
X105647086Y-99333565D01*
X105490054Y-99364800D01*
X105329946Y-99364800D01*
X105172914Y-99333565D01*
X105024997Y-99272296D01*
X104902821Y-99190660D01*
X104891870Y-99183343D01*
X104891869Y-99183342D01*
X104891866Y-99183340D01*
X104778660Y-99070134D01*
X104758816Y-99040435D01*
X104737945Y-99009200D01*
X104689704Y-98937003D01*
X104628435Y-98789086D01*
X104597200Y-98632054D01*
X104597200Y-98471946D01*
X104628435Y-98314914D01*
X104689704Y-98166997D01*
X104749279Y-98077837D01*
X104778657Y-98033870D01*
X104778658Y-98033869D01*
X104778660Y-98033866D01*
X104891866Y-97920660D01*
X104902817Y-97913343D01*
X104935837Y-97891279D01*
X105024997Y-97831704D01*
X105172914Y-97770435D01*
X105329946Y-97739200D01*
X105490054Y-97739200D01*
X105647086Y-97770435D01*
G37*
G36*
X166099086Y-96500435D02*
G01*
X166247003Y-96561704D01*
X166336163Y-96621279D01*
X166369184Y-96643343D01*
X166380134Y-96650660D01*
X166493340Y-96763866D01*
X166493342Y-96763869D01*
X166493343Y-96763870D01*
X166522721Y-96807837D01*
X166582296Y-96896997D01*
X166643565Y-97044914D01*
X166674800Y-97201946D01*
X166674800Y-97362054D01*
X166643565Y-97519086D01*
X166582296Y-97667003D01*
X166534055Y-97739200D01*
X166513185Y-97770435D01*
X166493340Y-97800134D01*
X166380134Y-97913340D01*
X166380131Y-97913342D01*
X166380130Y-97913343D01*
X166369179Y-97920660D01*
X166247003Y-98002296D01*
X166099086Y-98063565D01*
X165942054Y-98094800D01*
X165781946Y-98094800D01*
X165624914Y-98063565D01*
X165476997Y-98002296D01*
X165354821Y-97920660D01*
X165343870Y-97913343D01*
X165343869Y-97913342D01*
X165343866Y-97913340D01*
X165230660Y-97800134D01*
X165210816Y-97770435D01*
X165189945Y-97739200D01*
X165141704Y-97667003D01*
X165080435Y-97519086D01*
X165049200Y-97362054D01*
X165049200Y-97201946D01*
X165080435Y-97044914D01*
X165141704Y-96896997D01*
X165201279Y-96807837D01*
X165230657Y-96763870D01*
X165230658Y-96763869D01*
X165230660Y-96763866D01*
X165343866Y-96650660D01*
X165354817Y-96643343D01*
X165387837Y-96621279D01*
X165476997Y-96561704D01*
X165624914Y-96500435D01*
X165781946Y-96469200D01*
X165942054Y-96469200D01*
X166099086Y-96500435D01*
G37*
G36*
X105647086Y-95230435D02*
G01*
X105795003Y-95291704D01*
X105884163Y-95351279D01*
X105917184Y-95373343D01*
X105928134Y-95380660D01*
X106041340Y-95493866D01*
X106041342Y-95493869D01*
X106041343Y-95493870D01*
X106070721Y-95537837D01*
X106130296Y-95626997D01*
X106191565Y-95774914D01*
X106222800Y-95931946D01*
X106222800Y-96092054D01*
X106191565Y-96249086D01*
X106130296Y-96397003D01*
X106082055Y-96469200D01*
X106061185Y-96500435D01*
X106041340Y-96530134D01*
X105928134Y-96643340D01*
X105928131Y-96643342D01*
X105928130Y-96643343D01*
X105917179Y-96650660D01*
X105795003Y-96732296D01*
X105647086Y-96793565D01*
X105490054Y-96824800D01*
X105329946Y-96824800D01*
X105172914Y-96793565D01*
X105024997Y-96732296D01*
X104902821Y-96650660D01*
X104891870Y-96643343D01*
X104891869Y-96643342D01*
X104891866Y-96643340D01*
X104778660Y-96530134D01*
X104758816Y-96500435D01*
X104737945Y-96469200D01*
X104689704Y-96397003D01*
X104628435Y-96249086D01*
X104597200Y-96092054D01*
X104597200Y-95931946D01*
X104628435Y-95774914D01*
X104689704Y-95626997D01*
X104749279Y-95537837D01*
X104778657Y-95493870D01*
X104778658Y-95493869D01*
X104778660Y-95493866D01*
X104891866Y-95380660D01*
X104902817Y-95373343D01*
X104935837Y-95351279D01*
X105024997Y-95291704D01*
X105172914Y-95230435D01*
X105329946Y-95199200D01*
X105490054Y-95199200D01*
X105647086Y-95230435D01*
G37*
G36*
X166099086Y-93960435D02*
G01*
X166247003Y-94021704D01*
X166336163Y-94081279D01*
X166369184Y-94103343D01*
X166380134Y-94110660D01*
X166493340Y-94223866D01*
X166493342Y-94223869D01*
X166493343Y-94223870D01*
X166522721Y-94267837D01*
X166582296Y-94356997D01*
X166643565Y-94504914D01*
X166674800Y-94661946D01*
X166674800Y-94822054D01*
X166643565Y-94979086D01*
X166582296Y-95127003D01*
X166534055Y-95199200D01*
X166513185Y-95230435D01*
X166493340Y-95260134D01*
X166380134Y-95373340D01*
X166380131Y-95373342D01*
X166380130Y-95373343D01*
X166369179Y-95380660D01*
X166247003Y-95462296D01*
X166099086Y-95523565D01*
X165942054Y-95554800D01*
X165781946Y-95554800D01*
X165624914Y-95523565D01*
X165476997Y-95462296D01*
X165354821Y-95380660D01*
X165343870Y-95373343D01*
X165343869Y-95373342D01*
X165343866Y-95373340D01*
X165230660Y-95260134D01*
X165210816Y-95230435D01*
X165189945Y-95199200D01*
X165141704Y-95127003D01*
X165080435Y-94979086D01*
X165049200Y-94822054D01*
X165049200Y-94661946D01*
X165080435Y-94504914D01*
X165141704Y-94356997D01*
X165201279Y-94267837D01*
X165230657Y-94223870D01*
X165230658Y-94223869D01*
X165230660Y-94223866D01*
X165343866Y-94110660D01*
X165354817Y-94103343D01*
X165387837Y-94081279D01*
X165476997Y-94021704D01*
X165624914Y-93960435D01*
X165781946Y-93929200D01*
X165942054Y-93929200D01*
X166099086Y-93960435D01*
G37*
G36*
X105647086Y-92690435D02*
G01*
X105795003Y-92751704D01*
X105884163Y-92811279D01*
X105917184Y-92833343D01*
X105928134Y-92840660D01*
X106041340Y-92953866D01*
X106041342Y-92953869D01*
X106041343Y-92953870D01*
X106070721Y-92997837D01*
X106130296Y-93086997D01*
X106191565Y-93234914D01*
X106222800Y-93391946D01*
X106222800Y-93552054D01*
X106191565Y-93709086D01*
X106130296Y-93857003D01*
X106082055Y-93929200D01*
X106061185Y-93960435D01*
X106041340Y-93990134D01*
X105928134Y-94103340D01*
X105928131Y-94103342D01*
X105928130Y-94103343D01*
X105917179Y-94110660D01*
X105795003Y-94192296D01*
X105647086Y-94253565D01*
X105490054Y-94284800D01*
X105329946Y-94284800D01*
X105172914Y-94253565D01*
X105024997Y-94192296D01*
X104902821Y-94110660D01*
X104891870Y-94103343D01*
X104891869Y-94103342D01*
X104891866Y-94103340D01*
X104778660Y-93990134D01*
X104758816Y-93960435D01*
X104737945Y-93929200D01*
X104689704Y-93857003D01*
X104628435Y-93709086D01*
X104597200Y-93552054D01*
X104597200Y-93391946D01*
X104628435Y-93234914D01*
X104689704Y-93086997D01*
X104749279Y-92997837D01*
X104778657Y-92953870D01*
X104778658Y-92953869D01*
X104778660Y-92953866D01*
X104891866Y-92840660D01*
X104902817Y-92833343D01*
X104935837Y-92811279D01*
X105024997Y-92751704D01*
X105172914Y-92690435D01*
X105329946Y-92659200D01*
X105490054Y-92659200D01*
X105647086Y-92690435D01*
G37*
G36*
X166099086Y-91420435D02*
G01*
X166247003Y-91481704D01*
X166380134Y-91570660D01*
X166493340Y-91683866D01*
X166582296Y-91816997D01*
X166643565Y-91964914D01*
X166674800Y-92121946D01*
X166674800Y-92282054D01*
X166643565Y-92439086D01*
X166582296Y-92587003D01*
X166534055Y-92659200D01*
X166513185Y-92690435D01*
X166493340Y-92720134D01*
X166380134Y-92833340D01*
X166380131Y-92833342D01*
X166380130Y-92833343D01*
X166369179Y-92840660D01*
X166247003Y-92922296D01*
X166099086Y-92983565D01*
X165942054Y-93014800D01*
X165781946Y-93014800D01*
X165624914Y-92983565D01*
X165476997Y-92922296D01*
X165354821Y-92840660D01*
X165343870Y-92833343D01*
X165343869Y-92833342D01*
X165343866Y-92833340D01*
X165230660Y-92720134D01*
X165210816Y-92690435D01*
X165189945Y-92659200D01*
X165141704Y-92587003D01*
X165080435Y-92439086D01*
X165049200Y-92282054D01*
X165049200Y-92121946D01*
X165080435Y-91964914D01*
X165141704Y-91816997D01*
X165230660Y-91683866D01*
X165343866Y-91570660D01*
X165476997Y-91481704D01*
X165624914Y-91420435D01*
X165781946Y-91389200D01*
X165942054Y-91389200D01*
X166099086Y-91420435D01*
G37*
G36*
X166674800Y-90474800D02*
G01*
X165049200Y-90474800D01*
X165049200Y-88849200D01*
X166674800Y-88849200D01*
X166674800Y-90474800D01*
G37*
G36*
X108199310Y-87824136D02*
G01*
X108354857Y-87888565D01*
X108494846Y-87982103D01*
X108613897Y-88101154D01*
X108707435Y-88241143D01*
X108771864Y-88396690D01*
X108804710Y-88561818D01*
X108804710Y-88730182D01*
X108771864Y-88895310D01*
X108707435Y-89050857D01*
X108613897Y-89190846D01*
X108494846Y-89309897D01*
X108354857Y-89403435D01*
X108199310Y-89467864D01*
X108034182Y-89500710D01*
X107865818Y-89500710D01*
X107700690Y-89467864D01*
X107545143Y-89403435D01*
X107405154Y-89309897D01*
X107286103Y-89190846D01*
X107192565Y-89050857D01*
X107128136Y-88895310D01*
X107095290Y-88730182D01*
X107095290Y-88561818D01*
X107128136Y-88396690D01*
X107192565Y-88241143D01*
X107286103Y-88101154D01*
X107405154Y-87982103D01*
X107545143Y-87888565D01*
X107700690Y-87824136D01*
X107865818Y-87791290D01*
X108034182Y-87791290D01*
X108199310Y-87824136D01*
G37*
G36*
X105659310Y-87824136D02*
G01*
X105814857Y-87888565D01*
X105954846Y-87982103D01*
X106073897Y-88101154D01*
X106167435Y-88241143D01*
X106231864Y-88396690D01*
X106264710Y-88561818D01*
X106264710Y-88730182D01*
X106231864Y-88895310D01*
X106167435Y-89050857D01*
X106073897Y-89190846D01*
X105954846Y-89309897D01*
X105814857Y-89403435D01*
X105659310Y-89467864D01*
X105494182Y-89500710D01*
X105325818Y-89500710D01*
X105160690Y-89467864D01*
X105005143Y-89403435D01*
X104865154Y-89309897D01*
X104746103Y-89190846D01*
X104652565Y-89050857D01*
X104588136Y-88895310D01*
X104555290Y-88730182D01*
X104555290Y-88561818D01*
X104588136Y-88396690D01*
X104652565Y-88241143D01*
X104746103Y-88101154D01*
X104865154Y-87982103D01*
X105005143Y-87888565D01*
X105160690Y-87824136D01*
X105325818Y-87791290D01*
X105494182Y-87791290D01*
X105659310Y-87824136D01*
G37*
G36*
X158115574Y-85572616D02*
G01*
X158115577Y-85572617D01*
X158115578Y-85572617D01*
X158144342Y-85581343D01*
X158238253Y-85609830D01*
X158351313Y-85670262D01*
X158450411Y-85751589D01*
X158531738Y-85850686D01*
X158534947Y-85856690D01*
X158592170Y-85963746D01*
X158592170Y-85963747D01*
X158628267Y-86082741D01*
X158629384Y-86086425D01*
X158638800Y-86182031D01*
X158638800Y-87045969D01*
X158629384Y-87141575D01*
X158592170Y-87264254D01*
X158592169Y-87264255D01*
X158531738Y-87377314D01*
X158450411Y-87476411D01*
X158351314Y-87557738D01*
X158294785Y-87587953D01*
X158238254Y-87618170D01*
X158144343Y-87646657D01*
X158115579Y-87655383D01*
X158115578Y-87655383D01*
X158115575Y-87655384D01*
X157988000Y-87667949D01*
X157860426Y-87655384D01*
X157860423Y-87655383D01*
X157860422Y-87655383D01*
X157831658Y-87646657D01*
X157737747Y-87618170D01*
X157681216Y-87587953D01*
X157624687Y-87557738D01*
X157525590Y-87476411D01*
X157444263Y-87377314D01*
X157383832Y-87264255D01*
X157383831Y-87264254D01*
X157346616Y-87141575D01*
X157337200Y-87045969D01*
X157337200Y-86182032D01*
X157346616Y-86086426D01*
X157346618Y-86086421D01*
X157366214Y-86021819D01*
X157383830Y-85963747D01*
X157425964Y-85884920D01*
X157444262Y-85850687D01*
X157525589Y-85751589D01*
X157624686Y-85670262D01*
X157737746Y-85609830D01*
X157831657Y-85581343D01*
X157860421Y-85572617D01*
X157860422Y-85572617D01*
X157860425Y-85572616D01*
X157988000Y-85560051D01*
X158115574Y-85572616D01*
G37*
G36*
X160655574Y-85572616D02*
G01*
X160655577Y-85572617D01*
X160655578Y-85572617D01*
X160684342Y-85581343D01*
X160778253Y-85609830D01*
X160891313Y-85670262D01*
X160990411Y-85751589D01*
X161071738Y-85850686D01*
X161074947Y-85856690D01*
X161132170Y-85963746D01*
X161132170Y-85963747D01*
X161168267Y-86082741D01*
X161169384Y-86086425D01*
X161178800Y-86182031D01*
X161178800Y-87045969D01*
X161169384Y-87141575D01*
X161132170Y-87264254D01*
X161132169Y-87264255D01*
X161071738Y-87377314D01*
X160990411Y-87476411D01*
X160891314Y-87557738D01*
X160834785Y-87587953D01*
X160778254Y-87618170D01*
X160684343Y-87646657D01*
X160655579Y-87655383D01*
X160655578Y-87655383D01*
X160655575Y-87655384D01*
X160528000Y-87667949D01*
X160400426Y-87655384D01*
X160400423Y-87655383D01*
X160400422Y-87655383D01*
X160371658Y-87646657D01*
X160277747Y-87618170D01*
X160221216Y-87587953D01*
X160164687Y-87557738D01*
X160065590Y-87476411D01*
X159984263Y-87377314D01*
X159923832Y-87264255D01*
X159923831Y-87264254D01*
X159886616Y-87141575D01*
X159877200Y-87045969D01*
X159877200Y-86182032D01*
X159886616Y-86086426D01*
X159886618Y-86086421D01*
X159906214Y-86021819D01*
X159923830Y-85963747D01*
X159965964Y-85884920D01*
X159984262Y-85850687D01*
X160065589Y-85751589D01*
X160164686Y-85670262D01*
X160277746Y-85609830D01*
X160371657Y-85581343D01*
X160400421Y-85572617D01*
X160400422Y-85572617D01*
X160400425Y-85572616D01*
X160528000Y-85560051D01*
X160655574Y-85572616D01*
G37*
G36*
X122558294Y-85568936D02*
G01*
X122558297Y-85568937D01*
X122558298Y-85568937D01*
X122570429Y-85572617D01*
X122680973Y-85606150D01*
X122794033Y-85666582D01*
X122893131Y-85747909D01*
X122974458Y-85847006D01*
X122979634Y-85856690D01*
X123034890Y-85960066D01*
X123072104Y-86082745D01*
X123081520Y-86178351D01*
X123081520Y-87042289D01*
X123072104Y-87137895D01*
X123072103Y-87137898D01*
X123072103Y-87137899D01*
X123063377Y-87166663D01*
X123034890Y-87260574D01*
X123034889Y-87260575D01*
X122974458Y-87373634D01*
X122893131Y-87472731D01*
X122794034Y-87554058D01*
X122758450Y-87573078D01*
X122680974Y-87614490D01*
X122587063Y-87642977D01*
X122558299Y-87651703D01*
X122558298Y-87651703D01*
X122558295Y-87651704D01*
X122430720Y-87664269D01*
X122303146Y-87651704D01*
X122303143Y-87651703D01*
X122303142Y-87651703D01*
X122274378Y-87642977D01*
X122180467Y-87614490D01*
X122102991Y-87573078D01*
X122067407Y-87554058D01*
X121968310Y-87472731D01*
X121886983Y-87373634D01*
X121826552Y-87260575D01*
X121826551Y-87260574D01*
X121798064Y-87166667D01*
X121789337Y-87137899D01*
X121789337Y-87137898D01*
X121789336Y-87137895D01*
X121779920Y-87042289D01*
X121779920Y-86178352D01*
X121789336Y-86082746D01*
X121789338Y-86082741D01*
X121825434Y-85963747D01*
X121826550Y-85960067D01*
X121866717Y-85884920D01*
X121886982Y-85847007D01*
X121968309Y-85747909D01*
X122067406Y-85666582D01*
X122180466Y-85606150D01*
X122291010Y-85572617D01*
X122303141Y-85568937D01*
X122303142Y-85568937D01*
X122303145Y-85568936D01*
X122430720Y-85556371D01*
X122558294Y-85568936D01*
G37*
G36*
X155578294Y-85568936D02*
G01*
X155578297Y-85568937D01*
X155578298Y-85568937D01*
X155590429Y-85572617D01*
X155700973Y-85606150D01*
X155814033Y-85666582D01*
X155913131Y-85747909D01*
X155994458Y-85847006D01*
X155999634Y-85856690D01*
X156054890Y-85960066D01*
X156092104Y-86082745D01*
X156101520Y-86178351D01*
X156101520Y-87042289D01*
X156092104Y-87137895D01*
X156092103Y-87137898D01*
X156092103Y-87137899D01*
X156083377Y-87166663D01*
X156054890Y-87260574D01*
X156054889Y-87260575D01*
X155994458Y-87373634D01*
X155913131Y-87472731D01*
X155814034Y-87554058D01*
X155778450Y-87573078D01*
X155700974Y-87614490D01*
X155607063Y-87642977D01*
X155578299Y-87651703D01*
X155578298Y-87651703D01*
X155578295Y-87651704D01*
X155450720Y-87664269D01*
X155323146Y-87651704D01*
X155323143Y-87651703D01*
X155323142Y-87651703D01*
X155294378Y-87642977D01*
X155200467Y-87614490D01*
X155122991Y-87573078D01*
X155087407Y-87554058D01*
X154988310Y-87472731D01*
X154906983Y-87373634D01*
X154846552Y-87260575D01*
X154846551Y-87260574D01*
X154818064Y-87166667D01*
X154809337Y-87137899D01*
X154809337Y-87137898D01*
X154809336Y-87137895D01*
X154799920Y-87042289D01*
X154799920Y-86178352D01*
X154809336Y-86082746D01*
X154809338Y-86082741D01*
X154845434Y-85963747D01*
X154846550Y-85960067D01*
X154886717Y-85884920D01*
X154906982Y-85847007D01*
X154988309Y-85747909D01*
X155087406Y-85666582D01*
X155200466Y-85606150D01*
X155311010Y-85572617D01*
X155323141Y-85568937D01*
X155323142Y-85568937D01*
X155323145Y-85568936D01*
X155450720Y-85556371D01*
X155578294Y-85568936D01*
G37*
G36*
X125098294Y-85568936D02*
G01*
X125098297Y-85568937D01*
X125098298Y-85568937D01*
X125110429Y-85572617D01*
X125220973Y-85606150D01*
X125334033Y-85666582D01*
X125433131Y-85747909D01*
X125514458Y-85847006D01*
X125519634Y-85856690D01*
X125574890Y-85960066D01*
X125612104Y-86082745D01*
X125621520Y-86178351D01*
X125621520Y-87042289D01*
X125612104Y-87137895D01*
X125612103Y-87137898D01*
X125612103Y-87137899D01*
X125603377Y-87166663D01*
X125574890Y-87260574D01*
X125574889Y-87260575D01*
X125514458Y-87373634D01*
X125433131Y-87472731D01*
X125334034Y-87554058D01*
X125298450Y-87573078D01*
X125220974Y-87614490D01*
X125127063Y-87642977D01*
X125098299Y-87651703D01*
X125098298Y-87651703D01*
X125098295Y-87651704D01*
X124970720Y-87664269D01*
X124843146Y-87651704D01*
X124843143Y-87651703D01*
X124843142Y-87651703D01*
X124814378Y-87642977D01*
X124720467Y-87614490D01*
X124642991Y-87573078D01*
X124607407Y-87554058D01*
X124508310Y-87472731D01*
X124426983Y-87373634D01*
X124366552Y-87260575D01*
X124366551Y-87260574D01*
X124338064Y-87166667D01*
X124329337Y-87137899D01*
X124329337Y-87137898D01*
X124329336Y-87137895D01*
X124319920Y-87042289D01*
X124319920Y-86178352D01*
X124329336Y-86082746D01*
X124329338Y-86082741D01*
X124365434Y-85963747D01*
X124366550Y-85960067D01*
X124406717Y-85884920D01*
X124426982Y-85847007D01*
X124508309Y-85747909D01*
X124607406Y-85666582D01*
X124720466Y-85606150D01*
X124831010Y-85572617D01*
X124843141Y-85568937D01*
X124843142Y-85568937D01*
X124843145Y-85568936D01*
X124970720Y-85556371D01*
X125098294Y-85568936D01*
G37*
G36*
X153038294Y-85568936D02*
G01*
X153038297Y-85568937D01*
X153038298Y-85568937D01*
X153050429Y-85572617D01*
X153160973Y-85606150D01*
X153274033Y-85666582D01*
X153373131Y-85747909D01*
X153454458Y-85847006D01*
X153459634Y-85856690D01*
X153514890Y-85960066D01*
X153552104Y-86082745D01*
X153561520Y-86178351D01*
X153561520Y-87042289D01*
X153552104Y-87137895D01*
X153552103Y-87137898D01*
X153552103Y-87137899D01*
X153543377Y-87166663D01*
X153514890Y-87260574D01*
X153514889Y-87260575D01*
X153454458Y-87373634D01*
X153373131Y-87472731D01*
X153274034Y-87554058D01*
X153238450Y-87573078D01*
X153160974Y-87614490D01*
X153067063Y-87642977D01*
X153038299Y-87651703D01*
X153038298Y-87651703D01*
X153038295Y-87651704D01*
X152910720Y-87664269D01*
X152783146Y-87651704D01*
X152783143Y-87651703D01*
X152783142Y-87651703D01*
X152754378Y-87642977D01*
X152660467Y-87614490D01*
X152582991Y-87573078D01*
X152547407Y-87554058D01*
X152448310Y-87472731D01*
X152366983Y-87373634D01*
X152306552Y-87260575D01*
X152306551Y-87260574D01*
X152278064Y-87166667D01*
X152269337Y-87137899D01*
X152269337Y-87137898D01*
X152269336Y-87137895D01*
X152259920Y-87042289D01*
X152259920Y-86178352D01*
X152269336Y-86082746D01*
X152269338Y-86082741D01*
X152305434Y-85963747D01*
X152306550Y-85960067D01*
X152346717Y-85884920D01*
X152366982Y-85847007D01*
X152448309Y-85747909D01*
X152547406Y-85666582D01*
X152660466Y-85606150D01*
X152771010Y-85572617D01*
X152783141Y-85568937D01*
X152783142Y-85568937D01*
X152783145Y-85568936D01*
X152910720Y-85556371D01*
X153038294Y-85568936D01*
G37*
G36*
X127638294Y-85568936D02*
G01*
X127638297Y-85568937D01*
X127638298Y-85568937D01*
X127650429Y-85572617D01*
X127760973Y-85606150D01*
X127874033Y-85666582D01*
X127973131Y-85747909D01*
X128054458Y-85847006D01*
X128059634Y-85856690D01*
X128114890Y-85960066D01*
X128152104Y-86082745D01*
X128161520Y-86178351D01*
X128161520Y-87042289D01*
X128152104Y-87137895D01*
X128152103Y-87137898D01*
X128152103Y-87137899D01*
X128143377Y-87166663D01*
X128114890Y-87260574D01*
X128114889Y-87260575D01*
X128054458Y-87373634D01*
X127973131Y-87472731D01*
X127874034Y-87554058D01*
X127838450Y-87573078D01*
X127760974Y-87614490D01*
X127667063Y-87642977D01*
X127638299Y-87651703D01*
X127638298Y-87651703D01*
X127638295Y-87651704D01*
X127510720Y-87664269D01*
X127383146Y-87651704D01*
X127383143Y-87651703D01*
X127383142Y-87651703D01*
X127354378Y-87642977D01*
X127260467Y-87614490D01*
X127182991Y-87573078D01*
X127147407Y-87554058D01*
X127048310Y-87472731D01*
X126966983Y-87373634D01*
X126906552Y-87260575D01*
X126906551Y-87260574D01*
X126878064Y-87166667D01*
X126869337Y-87137899D01*
X126869337Y-87137898D01*
X126869336Y-87137895D01*
X126859920Y-87042289D01*
X126859920Y-86178352D01*
X126869336Y-86082746D01*
X126869338Y-86082741D01*
X126905434Y-85963747D01*
X126906550Y-85960067D01*
X126946717Y-85884920D01*
X126966982Y-85847007D01*
X127048309Y-85747909D01*
X127147406Y-85666582D01*
X127260466Y-85606150D01*
X127371010Y-85572617D01*
X127383141Y-85568937D01*
X127383142Y-85568937D01*
X127383145Y-85568936D01*
X127510720Y-85556371D01*
X127638294Y-85568936D01*
G37*
G36*
X130178294Y-85568936D02*
G01*
X130178297Y-85568937D01*
X130178298Y-85568937D01*
X130190429Y-85572617D01*
X130300973Y-85606150D01*
X130414033Y-85666582D01*
X130513131Y-85747909D01*
X130594458Y-85847006D01*
X130599634Y-85856690D01*
X130654890Y-85960066D01*
X130692104Y-86082745D01*
X130701520Y-86178351D01*
X130701520Y-87042289D01*
X130692104Y-87137895D01*
X130692103Y-87137898D01*
X130692103Y-87137899D01*
X130683377Y-87166663D01*
X130654890Y-87260574D01*
X130654889Y-87260575D01*
X130594458Y-87373634D01*
X130513131Y-87472731D01*
X130414034Y-87554058D01*
X130378450Y-87573078D01*
X130300974Y-87614490D01*
X130207063Y-87642977D01*
X130178299Y-87651703D01*
X130178298Y-87651703D01*
X130178295Y-87651704D01*
X130050720Y-87664269D01*
X129923146Y-87651704D01*
X129923143Y-87651703D01*
X129923142Y-87651703D01*
X129894378Y-87642977D01*
X129800467Y-87614490D01*
X129722991Y-87573078D01*
X129687407Y-87554058D01*
X129588310Y-87472731D01*
X129506983Y-87373634D01*
X129446552Y-87260575D01*
X129446551Y-87260574D01*
X129418064Y-87166667D01*
X129409337Y-87137899D01*
X129409337Y-87137898D01*
X129409336Y-87137895D01*
X129399920Y-87042289D01*
X129399920Y-86178352D01*
X129409336Y-86082746D01*
X129409338Y-86082741D01*
X129445434Y-85963747D01*
X129446550Y-85960067D01*
X129486717Y-85884920D01*
X129506982Y-85847007D01*
X129588309Y-85747909D01*
X129687406Y-85666582D01*
X129800466Y-85606150D01*
X129911010Y-85572617D01*
X129923141Y-85568937D01*
X129923142Y-85568937D01*
X129923145Y-85568936D01*
X130050720Y-85556371D01*
X130178294Y-85568936D01*
G37*
G36*
X132718294Y-85568936D02*
G01*
X132718297Y-85568937D01*
X132718298Y-85568937D01*
X132730429Y-85572617D01*
X132840973Y-85606150D01*
X132954033Y-85666582D01*
X133053131Y-85747909D01*
X133134458Y-85847006D01*
X133139634Y-85856690D01*
X133194890Y-85960066D01*
X133232104Y-86082745D01*
X133241520Y-86178351D01*
X133241520Y-87042289D01*
X133232104Y-87137895D01*
X133232103Y-87137898D01*
X133232103Y-87137899D01*
X133223377Y-87166663D01*
X133194890Y-87260574D01*
X133194889Y-87260575D01*
X133134458Y-87373634D01*
X133053131Y-87472731D01*
X132954034Y-87554058D01*
X132918450Y-87573078D01*
X132840974Y-87614490D01*
X132747063Y-87642977D01*
X132718299Y-87651703D01*
X132718298Y-87651703D01*
X132718295Y-87651704D01*
X132590720Y-87664269D01*
X132463146Y-87651704D01*
X132463143Y-87651703D01*
X132463142Y-87651703D01*
X132434378Y-87642977D01*
X132340467Y-87614490D01*
X132262991Y-87573078D01*
X132227407Y-87554058D01*
X132128310Y-87472731D01*
X132046983Y-87373634D01*
X131986552Y-87260575D01*
X131986551Y-87260574D01*
X131958064Y-87166667D01*
X131949337Y-87137899D01*
X131949337Y-87137898D01*
X131949336Y-87137895D01*
X131939920Y-87042289D01*
X131939920Y-86178352D01*
X131949336Y-86082746D01*
X131949338Y-86082741D01*
X131985434Y-85963747D01*
X131986550Y-85960067D01*
X132026717Y-85884920D01*
X132046982Y-85847007D01*
X132128309Y-85747909D01*
X132227406Y-85666582D01*
X132340466Y-85606150D01*
X132451010Y-85572617D01*
X132463141Y-85568937D01*
X132463142Y-85568937D01*
X132463145Y-85568936D01*
X132590720Y-85556371D01*
X132718294Y-85568936D01*
G37*
G36*
X135258294Y-85568936D02*
G01*
X135258297Y-85568937D01*
X135258298Y-85568937D01*
X135270429Y-85572617D01*
X135380973Y-85606150D01*
X135494033Y-85666582D01*
X135593131Y-85747909D01*
X135674458Y-85847006D01*
X135679634Y-85856690D01*
X135734890Y-85960066D01*
X135772104Y-86082745D01*
X135781520Y-86178351D01*
X135781520Y-87042289D01*
X135772104Y-87137895D01*
X135772103Y-87137898D01*
X135772103Y-87137899D01*
X135763377Y-87166663D01*
X135734890Y-87260574D01*
X135734889Y-87260575D01*
X135674458Y-87373634D01*
X135593131Y-87472731D01*
X135494034Y-87554058D01*
X135458450Y-87573078D01*
X135380974Y-87614490D01*
X135287063Y-87642977D01*
X135258299Y-87651703D01*
X135258298Y-87651703D01*
X135258295Y-87651704D01*
X135130720Y-87664269D01*
X135003146Y-87651704D01*
X135003143Y-87651703D01*
X135003142Y-87651703D01*
X134974378Y-87642977D01*
X134880467Y-87614490D01*
X134802991Y-87573078D01*
X134767407Y-87554058D01*
X134668310Y-87472731D01*
X134586983Y-87373634D01*
X134526552Y-87260575D01*
X134526551Y-87260574D01*
X134498064Y-87166667D01*
X134489337Y-87137899D01*
X134489337Y-87137898D01*
X134489336Y-87137895D01*
X134479920Y-87042289D01*
X134479920Y-86178352D01*
X134489336Y-86082746D01*
X134489338Y-86082741D01*
X134525434Y-85963747D01*
X134526550Y-85960067D01*
X134566717Y-85884920D01*
X134586982Y-85847007D01*
X134668309Y-85747909D01*
X134767406Y-85666582D01*
X134880466Y-85606150D01*
X134991010Y-85572617D01*
X135003141Y-85568937D01*
X135003142Y-85568937D01*
X135003145Y-85568936D01*
X135130720Y-85556371D01*
X135258294Y-85568936D01*
G37*
G36*
X137798294Y-85568936D02*
G01*
X137798297Y-85568937D01*
X137798298Y-85568937D01*
X137810429Y-85572617D01*
X137920973Y-85606150D01*
X138034033Y-85666582D01*
X138133131Y-85747909D01*
X138214458Y-85847006D01*
X138219634Y-85856690D01*
X138274890Y-85960066D01*
X138312104Y-86082745D01*
X138321520Y-86178351D01*
X138321520Y-87042289D01*
X138312104Y-87137895D01*
X138312103Y-87137898D01*
X138312103Y-87137899D01*
X138303377Y-87166663D01*
X138274890Y-87260574D01*
X138274889Y-87260575D01*
X138214458Y-87373634D01*
X138133131Y-87472731D01*
X138034034Y-87554058D01*
X137998450Y-87573078D01*
X137920974Y-87614490D01*
X137827063Y-87642977D01*
X137798299Y-87651703D01*
X137798298Y-87651703D01*
X137798295Y-87651704D01*
X137670720Y-87664269D01*
X137543146Y-87651704D01*
X137543143Y-87651703D01*
X137543142Y-87651703D01*
X137514378Y-87642977D01*
X137420467Y-87614490D01*
X137342991Y-87573078D01*
X137307407Y-87554058D01*
X137208310Y-87472731D01*
X137126983Y-87373634D01*
X137066552Y-87260575D01*
X137066551Y-87260574D01*
X137038064Y-87166667D01*
X137029337Y-87137899D01*
X137029337Y-87137898D01*
X137029336Y-87137895D01*
X137019920Y-87042289D01*
X137019920Y-86178352D01*
X137029336Y-86082746D01*
X137029338Y-86082741D01*
X137065434Y-85963747D01*
X137066550Y-85960067D01*
X137106717Y-85884920D01*
X137126982Y-85847007D01*
X137208309Y-85747909D01*
X137307406Y-85666582D01*
X137420466Y-85606150D01*
X137531010Y-85572617D01*
X137543141Y-85568937D01*
X137543142Y-85568937D01*
X137543145Y-85568936D01*
X137670720Y-85556371D01*
X137798294Y-85568936D01*
G37*
G36*
X147958294Y-85568936D02*
G01*
X147958297Y-85568937D01*
X147958298Y-85568937D01*
X147970429Y-85572617D01*
X148080973Y-85606150D01*
X148194033Y-85666582D01*
X148293131Y-85747909D01*
X148374458Y-85847006D01*
X148379634Y-85856690D01*
X148434890Y-85960066D01*
X148472104Y-86082745D01*
X148481520Y-86178351D01*
X148481520Y-87042289D01*
X148472104Y-87137895D01*
X148472103Y-87137898D01*
X148472103Y-87137899D01*
X148463377Y-87166663D01*
X148434890Y-87260574D01*
X148434889Y-87260575D01*
X148374458Y-87373634D01*
X148293131Y-87472731D01*
X148194034Y-87554058D01*
X148158450Y-87573078D01*
X148080974Y-87614490D01*
X147987063Y-87642977D01*
X147958299Y-87651703D01*
X147958298Y-87651703D01*
X147958295Y-87651704D01*
X147830720Y-87664269D01*
X147703146Y-87651704D01*
X147703143Y-87651703D01*
X147703142Y-87651703D01*
X147674378Y-87642977D01*
X147580467Y-87614490D01*
X147502991Y-87573078D01*
X147467407Y-87554058D01*
X147368310Y-87472731D01*
X147286983Y-87373634D01*
X147226552Y-87260575D01*
X147226551Y-87260574D01*
X147198064Y-87166667D01*
X147189337Y-87137899D01*
X147189337Y-87137898D01*
X147189336Y-87137895D01*
X147179920Y-87042289D01*
X147179920Y-86178352D01*
X147189336Y-86082746D01*
X147189338Y-86082741D01*
X147225434Y-85963747D01*
X147226550Y-85960067D01*
X147266717Y-85884920D01*
X147286982Y-85847007D01*
X147368309Y-85747909D01*
X147467406Y-85666582D01*
X147580466Y-85606150D01*
X147691010Y-85572617D01*
X147703141Y-85568937D01*
X147703142Y-85568937D01*
X147703145Y-85568936D01*
X147830720Y-85556371D01*
X147958294Y-85568936D01*
G37*
G36*
X145418294Y-85568936D02*
G01*
X145418297Y-85568937D01*
X145418298Y-85568937D01*
X145430429Y-85572617D01*
X145540973Y-85606150D01*
X145654033Y-85666582D01*
X145753131Y-85747909D01*
X145834458Y-85847006D01*
X145839634Y-85856690D01*
X145894890Y-85960066D01*
X145932104Y-86082745D01*
X145941520Y-86178351D01*
X145941520Y-87042289D01*
X145932104Y-87137895D01*
X145932103Y-87137898D01*
X145932103Y-87137899D01*
X145923377Y-87166663D01*
X145894890Y-87260574D01*
X145894889Y-87260575D01*
X145834458Y-87373634D01*
X145753131Y-87472731D01*
X145654034Y-87554058D01*
X145618450Y-87573078D01*
X145540974Y-87614490D01*
X145447063Y-87642977D01*
X145418299Y-87651703D01*
X145418298Y-87651703D01*
X145418295Y-87651704D01*
X145290720Y-87664269D01*
X145163146Y-87651704D01*
X145163143Y-87651703D01*
X145163142Y-87651703D01*
X145134378Y-87642977D01*
X145040467Y-87614490D01*
X144962991Y-87573078D01*
X144927407Y-87554058D01*
X144828310Y-87472731D01*
X144746983Y-87373634D01*
X144686552Y-87260575D01*
X144686551Y-87260574D01*
X144658064Y-87166667D01*
X144649337Y-87137899D01*
X144649337Y-87137898D01*
X144649336Y-87137895D01*
X144639920Y-87042289D01*
X144639920Y-86178352D01*
X144649336Y-86082746D01*
X144649338Y-86082741D01*
X144685434Y-85963747D01*
X144686550Y-85960067D01*
X144726717Y-85884920D01*
X144746982Y-85847007D01*
X144828309Y-85747909D01*
X144927406Y-85666582D01*
X145040466Y-85606150D01*
X145151010Y-85572617D01*
X145163141Y-85568937D01*
X145163142Y-85568937D01*
X145163145Y-85568936D01*
X145290720Y-85556371D01*
X145418294Y-85568936D01*
G37*
G36*
X120018294Y-85568936D02*
G01*
X120018297Y-85568937D01*
X120018298Y-85568937D01*
X120030429Y-85572617D01*
X120140973Y-85606150D01*
X120254033Y-85666582D01*
X120353131Y-85747909D01*
X120434458Y-85847006D01*
X120439634Y-85856690D01*
X120494890Y-85960066D01*
X120532104Y-86082745D01*
X120541520Y-86178351D01*
X120541520Y-87042289D01*
X120532104Y-87137895D01*
X120532103Y-87137898D01*
X120532103Y-87137899D01*
X120523377Y-87166663D01*
X120494890Y-87260574D01*
X120494889Y-87260575D01*
X120434458Y-87373634D01*
X120353131Y-87472731D01*
X120254034Y-87554058D01*
X120218450Y-87573078D01*
X120140974Y-87614490D01*
X120047063Y-87642977D01*
X120018299Y-87651703D01*
X120018298Y-87651703D01*
X120018295Y-87651704D01*
X119890720Y-87664269D01*
X119763146Y-87651704D01*
X119763143Y-87651703D01*
X119763142Y-87651703D01*
X119734378Y-87642977D01*
X119640467Y-87614490D01*
X119562991Y-87573078D01*
X119527407Y-87554058D01*
X119428310Y-87472731D01*
X119346983Y-87373634D01*
X119286552Y-87260575D01*
X119286551Y-87260574D01*
X119258064Y-87166667D01*
X119249337Y-87137899D01*
X119249337Y-87137898D01*
X119249336Y-87137895D01*
X119239920Y-87042289D01*
X119239920Y-86178352D01*
X119249336Y-86082746D01*
X119249338Y-86082741D01*
X119285434Y-85963747D01*
X119286550Y-85960067D01*
X119326717Y-85884920D01*
X119346982Y-85847007D01*
X119428309Y-85747909D01*
X119527406Y-85666582D01*
X119640466Y-85606150D01*
X119751010Y-85572617D01*
X119763141Y-85568937D01*
X119763142Y-85568937D01*
X119763145Y-85568936D01*
X119890720Y-85556371D01*
X120018294Y-85568936D01*
G37*
G36*
X117478294Y-85568936D02*
G01*
X117478297Y-85568937D01*
X117478298Y-85568937D01*
X117490429Y-85572617D01*
X117600973Y-85606150D01*
X117714033Y-85666582D01*
X117813131Y-85747909D01*
X117894458Y-85847006D01*
X117899634Y-85856690D01*
X117954890Y-85960066D01*
X117992104Y-86082745D01*
X118001520Y-86178351D01*
X118001520Y-87042289D01*
X117992104Y-87137895D01*
X117992103Y-87137898D01*
X117992103Y-87137899D01*
X117983377Y-87166663D01*
X117954890Y-87260574D01*
X117954889Y-87260575D01*
X117894458Y-87373634D01*
X117813131Y-87472731D01*
X117714034Y-87554058D01*
X117678450Y-87573078D01*
X117600974Y-87614490D01*
X117507063Y-87642977D01*
X117478299Y-87651703D01*
X117478298Y-87651703D01*
X117478295Y-87651704D01*
X117350720Y-87664269D01*
X117223146Y-87651704D01*
X117223143Y-87651703D01*
X117223142Y-87651703D01*
X117194378Y-87642977D01*
X117100467Y-87614490D01*
X117022991Y-87573078D01*
X116987407Y-87554058D01*
X116888310Y-87472731D01*
X116806983Y-87373634D01*
X116746552Y-87260575D01*
X116746551Y-87260574D01*
X116718064Y-87166667D01*
X116709337Y-87137899D01*
X116709337Y-87137898D01*
X116709336Y-87137895D01*
X116699920Y-87042289D01*
X116699920Y-86178352D01*
X116709336Y-86082746D01*
X116709338Y-86082741D01*
X116745434Y-85963747D01*
X116746550Y-85960067D01*
X116786717Y-85884920D01*
X116806982Y-85847007D01*
X116888309Y-85747909D01*
X116987406Y-85666582D01*
X117100466Y-85606150D01*
X117211010Y-85572617D01*
X117223141Y-85568937D01*
X117223142Y-85568937D01*
X117223145Y-85568936D01*
X117350720Y-85556371D01*
X117478294Y-85568936D01*
G37*
G36*
X140338294Y-85568936D02*
G01*
X140338297Y-85568937D01*
X140338298Y-85568937D01*
X140350429Y-85572617D01*
X140460973Y-85606150D01*
X140574033Y-85666582D01*
X140673131Y-85747909D01*
X140754458Y-85847006D01*
X140759634Y-85856690D01*
X140814890Y-85960066D01*
X140852104Y-86082745D01*
X140861520Y-86178351D01*
X140861520Y-87042289D01*
X140852104Y-87137895D01*
X140852103Y-87137898D01*
X140852103Y-87137899D01*
X140843377Y-87166663D01*
X140814890Y-87260574D01*
X140814889Y-87260575D01*
X140754458Y-87373634D01*
X140673131Y-87472731D01*
X140574034Y-87554058D01*
X140538450Y-87573078D01*
X140460974Y-87614490D01*
X140367063Y-87642977D01*
X140338299Y-87651703D01*
X140338298Y-87651703D01*
X140338295Y-87651704D01*
X140210720Y-87664269D01*
X140083146Y-87651704D01*
X140083143Y-87651703D01*
X140083142Y-87651703D01*
X140054378Y-87642977D01*
X139960467Y-87614490D01*
X139882991Y-87573078D01*
X139847407Y-87554058D01*
X139748310Y-87472731D01*
X139666983Y-87373634D01*
X139606552Y-87260575D01*
X139606551Y-87260574D01*
X139578064Y-87166667D01*
X139569337Y-87137899D01*
X139569337Y-87137898D01*
X139569336Y-87137895D01*
X139559920Y-87042289D01*
X139559920Y-86178352D01*
X139569336Y-86082746D01*
X139569338Y-86082741D01*
X139605434Y-85963747D01*
X139606550Y-85960067D01*
X139646717Y-85884920D01*
X139666982Y-85847007D01*
X139748309Y-85747909D01*
X139847406Y-85666582D01*
X139960466Y-85606150D01*
X140071010Y-85572617D01*
X140083141Y-85568937D01*
X140083142Y-85568937D01*
X140083145Y-85568936D01*
X140210720Y-85556371D01*
X140338294Y-85568936D01*
G37*
G36*
X142878294Y-85568936D02*
G01*
X142878297Y-85568937D01*
X142878298Y-85568937D01*
X142890429Y-85572617D01*
X143000973Y-85606150D01*
X143114033Y-85666582D01*
X143213131Y-85747909D01*
X143294458Y-85847006D01*
X143299634Y-85856690D01*
X143354890Y-85960066D01*
X143392104Y-86082745D01*
X143401520Y-86178351D01*
X143401520Y-87042289D01*
X143392104Y-87137895D01*
X143392103Y-87137898D01*
X143392103Y-87137899D01*
X143383377Y-87166663D01*
X143354890Y-87260574D01*
X143354889Y-87260575D01*
X143294458Y-87373634D01*
X143213131Y-87472731D01*
X143114034Y-87554058D01*
X143078450Y-87573078D01*
X143000974Y-87614490D01*
X142907063Y-87642977D01*
X142878299Y-87651703D01*
X142878298Y-87651703D01*
X142878295Y-87651704D01*
X142750720Y-87664269D01*
X142623146Y-87651704D01*
X142623143Y-87651703D01*
X142623142Y-87651703D01*
X142594378Y-87642977D01*
X142500467Y-87614490D01*
X142422991Y-87573078D01*
X142387407Y-87554058D01*
X142288310Y-87472731D01*
X142206983Y-87373634D01*
X142146552Y-87260575D01*
X142146551Y-87260574D01*
X142118064Y-87166667D01*
X142109337Y-87137899D01*
X142109337Y-87137898D01*
X142109336Y-87137895D01*
X142099920Y-87042289D01*
X142099920Y-86178352D01*
X142109336Y-86082746D01*
X142109338Y-86082741D01*
X142145434Y-85963747D01*
X142146550Y-85960067D01*
X142186717Y-85884920D01*
X142206982Y-85847007D01*
X142288309Y-85747909D01*
X142387406Y-85666582D01*
X142500466Y-85606150D01*
X142611010Y-85572617D01*
X142623141Y-85568937D01*
X142623142Y-85568937D01*
X142623145Y-85568936D01*
X142750720Y-85556371D01*
X142878294Y-85568936D01*
G37*
G36*
X150498294Y-85568936D02*
G01*
X150498297Y-85568937D01*
X150498298Y-85568937D01*
X150510429Y-85572617D01*
X150620973Y-85606150D01*
X150734033Y-85666582D01*
X150833131Y-85747909D01*
X150914458Y-85847006D01*
X150919634Y-85856690D01*
X150974890Y-85960066D01*
X151012104Y-86082745D01*
X151021520Y-86178351D01*
X151021520Y-87042289D01*
X151012104Y-87137895D01*
X151012103Y-87137898D01*
X151012103Y-87137899D01*
X151003377Y-87166663D01*
X150974890Y-87260574D01*
X150974889Y-87260575D01*
X150914458Y-87373634D01*
X150833131Y-87472731D01*
X150734034Y-87554058D01*
X150698450Y-87573078D01*
X150620974Y-87614490D01*
X150527063Y-87642977D01*
X150498299Y-87651703D01*
X150498298Y-87651703D01*
X150498295Y-87651704D01*
X150370720Y-87664269D01*
X150243146Y-87651704D01*
X150243143Y-87651703D01*
X150243142Y-87651703D01*
X150214378Y-87642977D01*
X150120467Y-87614490D01*
X150042991Y-87573078D01*
X150007407Y-87554058D01*
X149908310Y-87472731D01*
X149826983Y-87373634D01*
X149766552Y-87260575D01*
X149766551Y-87260574D01*
X149738064Y-87166667D01*
X149729337Y-87137899D01*
X149729337Y-87137898D01*
X149729336Y-87137895D01*
X149719920Y-87042289D01*
X149719920Y-86178352D01*
X149729336Y-86082746D01*
X149729338Y-86082741D01*
X149765434Y-85963747D01*
X149766550Y-85960067D01*
X149806717Y-85884920D01*
X149826982Y-85847007D01*
X149908309Y-85747909D01*
X150007406Y-85666582D01*
X150120466Y-85606150D01*
X150231010Y-85572617D01*
X150243141Y-85568937D01*
X150243142Y-85568937D01*
X150243145Y-85568936D01*
X150370720Y-85556371D01*
X150498294Y-85568936D01*
G37*
G36*
X115219996Y-85565525D02*
G01*
X115276233Y-85582584D01*
X115328053Y-85610283D01*
X115373478Y-85647562D01*
X115410757Y-85692987D01*
X115438456Y-85744807D01*
X115455515Y-85801044D01*
X115461520Y-85862013D01*
X115461520Y-87358627D01*
X115455515Y-87419596D01*
X115438456Y-87475833D01*
X115410757Y-87527653D01*
X115373478Y-87573078D01*
X115328053Y-87610357D01*
X115276233Y-87638056D01*
X115219996Y-87655115D01*
X115159027Y-87661120D01*
X114462413Y-87661120D01*
X114401444Y-87655115D01*
X114345207Y-87638056D01*
X114293387Y-87610357D01*
X114247962Y-87573078D01*
X114210683Y-87527653D01*
X114182984Y-87475833D01*
X114165925Y-87419596D01*
X114159920Y-87358627D01*
X114159920Y-85862013D01*
X114165925Y-85801044D01*
X114182984Y-85744807D01*
X114210683Y-85692987D01*
X114247962Y-85647562D01*
X114293387Y-85610283D01*
X114345207Y-85582584D01*
X114401444Y-85565525D01*
X114462413Y-85559520D01*
X115159027Y-85559520D01*
X115219996Y-85565525D01*
G37*
G36*
X105659310Y-85284136D02*
G01*
X105814857Y-85348565D01*
X105954846Y-85442103D01*
X106073897Y-85561154D01*
X106167435Y-85701143D01*
X106231864Y-85856690D01*
X106264710Y-86021818D01*
X106264710Y-86190182D01*
X106231864Y-86355310D01*
X106167435Y-86510857D01*
X106073897Y-86650846D01*
X105954846Y-86769897D01*
X105814857Y-86863435D01*
X105659310Y-86927864D01*
X105494182Y-86960710D01*
X105325818Y-86960710D01*
X105160690Y-86927864D01*
X105005143Y-86863435D01*
X104865154Y-86769897D01*
X104746103Y-86650846D01*
X104652565Y-86510857D01*
X104588136Y-86355310D01*
X104555290Y-86190182D01*
X104555290Y-86021818D01*
X104588136Y-85856690D01*
X104652565Y-85701143D01*
X104746103Y-85561154D01*
X104865154Y-85442103D01*
X105005143Y-85348565D01*
X105160690Y-85284136D01*
X105325818Y-85251290D01*
X105494182Y-85251290D01*
X105659310Y-85284136D01*
G37*
G36*
X108199310Y-85284136D02*
G01*
X108354857Y-85348565D01*
X108494846Y-85442103D01*
X108613897Y-85561154D01*
X108707435Y-85701143D01*
X108771864Y-85856690D01*
X108804710Y-86021818D01*
X108804710Y-86190182D01*
X108771864Y-86355310D01*
X108707435Y-86510857D01*
X108613897Y-86650846D01*
X108494846Y-86769897D01*
X108354857Y-86863435D01*
X108199310Y-86927864D01*
X108034182Y-86960710D01*
X107865818Y-86960710D01*
X107700690Y-86927864D01*
X107545143Y-86863435D01*
X107405154Y-86769897D01*
X107286103Y-86650846D01*
X107192565Y-86510857D01*
X107128136Y-86355310D01*
X107095290Y-86190182D01*
X107095290Y-86021818D01*
X107128136Y-85856690D01*
X107192565Y-85701143D01*
X107286103Y-85561154D01*
X107405154Y-85442103D01*
X107545143Y-85348565D01*
X107700690Y-85284136D01*
X107865818Y-85251290D01*
X108034182Y-85251290D01*
X108199310Y-85284136D01*
G37*
G36*
X108199310Y-82744136D02*
G01*
X108354857Y-82808565D01*
X108494846Y-82902103D01*
X108613897Y-83021154D01*
X108707435Y-83161143D01*
X108771864Y-83316690D01*
X108804710Y-83481818D01*
X108804710Y-83650182D01*
X108771864Y-83815310D01*
X108707435Y-83970857D01*
X108613897Y-84110846D01*
X108494846Y-84229897D01*
X108354857Y-84323435D01*
X108199310Y-84387864D01*
X108034182Y-84420710D01*
X107865818Y-84420710D01*
X107700690Y-84387864D01*
X107545143Y-84323435D01*
X107405154Y-84229897D01*
X107286103Y-84110846D01*
X107192565Y-83970857D01*
X107128136Y-83815310D01*
X107095290Y-83650182D01*
X107095290Y-83481818D01*
X107128136Y-83316690D01*
X107192565Y-83161143D01*
X107286103Y-83021154D01*
X107405154Y-82902103D01*
X107545143Y-82808565D01*
X107700690Y-82744136D01*
X107865818Y-82711290D01*
X108034182Y-82711290D01*
X108199310Y-82744136D01*
G37*
G36*
X105659310Y-82744136D02*
G01*
X105814857Y-82808565D01*
X105954846Y-82902103D01*
X106073897Y-83021154D01*
X106167435Y-83161143D01*
X106231864Y-83316690D01*
X106264710Y-83481818D01*
X106264710Y-83650182D01*
X106231864Y-83815310D01*
X106167435Y-83970857D01*
X106073897Y-84110846D01*
X105954846Y-84229897D01*
X105814857Y-84323435D01*
X105659310Y-84387864D01*
X105494182Y-84420710D01*
X105325818Y-84420710D01*
X105160690Y-84387864D01*
X105005143Y-84323435D01*
X104865154Y-84229897D01*
X104746103Y-84110846D01*
X104652565Y-83970857D01*
X104588136Y-83815310D01*
X104555290Y-83650182D01*
X104555290Y-83481818D01*
X104588136Y-83316690D01*
X104652565Y-83161143D01*
X104746103Y-83021154D01*
X104865154Y-82902103D01*
X105005143Y-82808565D01*
X105160690Y-82744136D01*
X105325818Y-82711290D01*
X105494182Y-82711290D01*
X105659310Y-82744136D01*
G37*
G36*
X108199310Y-80204136D02*
G01*
X108354857Y-80268565D01*
X108494846Y-80362103D01*
X108613897Y-80481154D01*
X108707435Y-80621143D01*
X108771864Y-80776690D01*
X108804710Y-80941818D01*
X108804710Y-81110182D01*
X108771864Y-81275310D01*
X108707435Y-81430857D01*
X108613897Y-81570846D01*
X108494846Y-81689897D01*
X108354857Y-81783435D01*
X108199310Y-81847864D01*
X108034182Y-81880710D01*
X107865818Y-81880710D01*
X107700690Y-81847864D01*
X107545143Y-81783435D01*
X107405154Y-81689897D01*
X107286103Y-81570846D01*
X107192565Y-81430857D01*
X107128136Y-81275310D01*
X107095290Y-81110182D01*
X107095290Y-80941818D01*
X107128136Y-80776690D01*
X107192565Y-80621143D01*
X107286103Y-80481154D01*
X107405154Y-80362103D01*
X107545143Y-80268565D01*
X107700690Y-80204136D01*
X107865818Y-80171290D01*
X108034182Y-80171290D01*
X108199310Y-80204136D01*
G37*
G36*
X105659310Y-80204136D02*
G01*
X105814857Y-80268565D01*
X105954846Y-80362103D01*
X106073897Y-80481154D01*
X106167435Y-80621143D01*
X106231864Y-80776690D01*
X106264710Y-80941818D01*
X106264710Y-81110182D01*
X106231864Y-81275310D01*
X106167435Y-81430857D01*
X106073897Y-81570846D01*
X105954846Y-81689897D01*
X105814857Y-81783435D01*
X105659310Y-81847864D01*
X105494182Y-81880710D01*
X105325818Y-81880710D01*
X105160690Y-81847864D01*
X105005143Y-81783435D01*
X104865154Y-81689897D01*
X104746103Y-81570846D01*
X104652565Y-81430857D01*
X104588136Y-81275310D01*
X104555290Y-81110182D01*
X104555290Y-80941818D01*
X104588136Y-80776690D01*
X104652565Y-80621143D01*
X104746103Y-80481154D01*
X104865154Y-80362103D01*
X105005143Y-80268565D01*
X105160690Y-80204136D01*
X105325818Y-80171290D01*
X105494182Y-80171290D01*
X105659310Y-80204136D01*
G37*
G36*
X105659310Y-77664136D02*
G01*
X105814857Y-77728565D01*
X105954846Y-77822103D01*
X106073897Y-77941154D01*
X106167435Y-78081143D01*
X106231864Y-78236690D01*
X106264710Y-78401818D01*
X106264710Y-78570182D01*
X106231864Y-78735310D01*
X106167435Y-78890857D01*
X106073897Y-79030846D01*
X105954846Y-79149897D01*
X105814857Y-79243435D01*
X105659310Y-79307864D01*
X105494182Y-79340710D01*
X105325818Y-79340710D01*
X105160690Y-79307864D01*
X105005143Y-79243435D01*
X104865154Y-79149897D01*
X104746103Y-79030846D01*
X104652565Y-78890857D01*
X104588136Y-78735310D01*
X104555290Y-78570182D01*
X104555290Y-78401818D01*
X104588136Y-78236690D01*
X104652565Y-78081143D01*
X104746103Y-77941154D01*
X104865154Y-77822103D01*
X105005143Y-77728565D01*
X105160690Y-77664136D01*
X105325818Y-77631290D01*
X105494182Y-77631290D01*
X105659310Y-77664136D01*
G37*
G36*
X108804710Y-79340710D02*
G01*
X107095290Y-79340710D01*
X107095290Y-77631290D01*
X108804710Y-77631290D01*
X108804710Y-79340710D01*
G37*
G36*
X138679310Y-72584136D02*
G01*
X138834857Y-72648565D01*
X138974846Y-72742103D01*
X139093897Y-72861154D01*
X139187435Y-73001143D01*
X139251864Y-73156690D01*
X139284710Y-73321818D01*
X139284710Y-73490182D01*
X139251864Y-73655310D01*
X139187435Y-73810857D01*
X139093897Y-73950846D01*
X138974846Y-74069897D01*
X138834857Y-74163435D01*
X138679310Y-74227864D01*
X138514182Y-74260710D01*
X138345818Y-74260710D01*
X138180690Y-74227864D01*
X138025143Y-74163435D01*
X137885154Y-74069897D01*
X137766103Y-73950846D01*
X137672565Y-73810857D01*
X137608136Y-73655310D01*
X137575290Y-73490182D01*
X137575290Y-73321818D01*
X137608136Y-73156690D01*
X137672565Y-73001143D01*
X137766103Y-72861154D01*
X137885154Y-72742103D01*
X138025143Y-72648565D01*
X138180690Y-72584136D01*
X138345818Y-72551290D01*
X138514182Y-72551290D01*
X138679310Y-72584136D01*
G37*
G36*
X133599310Y-72584136D02*
G01*
X133754857Y-72648565D01*
X133894846Y-72742103D01*
X134013897Y-72861154D01*
X134107435Y-73001143D01*
X134171864Y-73156690D01*
X134204710Y-73321818D01*
X134204710Y-73490182D01*
X134171864Y-73655310D01*
X134107435Y-73810857D01*
X134013897Y-73950846D01*
X133894846Y-74069897D01*
X133754857Y-74163435D01*
X133599310Y-74227864D01*
X133434182Y-74260710D01*
X133265818Y-74260710D01*
X133100690Y-74227864D01*
X132945143Y-74163435D01*
X132805154Y-74069897D01*
X132686103Y-73950846D01*
X132592565Y-73810857D01*
X132528136Y-73655310D01*
X132495290Y-73490182D01*
X132495290Y-73321818D01*
X132528136Y-73156690D01*
X132592565Y-73001143D01*
X132686103Y-72861154D01*
X132805154Y-72742103D01*
X132945143Y-72648565D01*
X133100690Y-72584136D01*
X133265818Y-72551290D01*
X133434182Y-72551290D01*
X133599310Y-72584136D01*
G37*
G36*
X141219310Y-72584136D02*
G01*
X141374857Y-72648565D01*
X141514846Y-72742103D01*
X141633897Y-72861154D01*
X141727435Y-73001143D01*
X141791864Y-73156690D01*
X141824710Y-73321818D01*
X141824710Y-73490182D01*
X141791864Y-73655310D01*
X141727435Y-73810857D01*
X141633897Y-73950846D01*
X141514846Y-74069897D01*
X141374857Y-74163435D01*
X141219310Y-74227864D01*
X141054182Y-74260710D01*
X140885818Y-74260710D01*
X140720690Y-74227864D01*
X140565143Y-74163435D01*
X140425154Y-74069897D01*
X140306103Y-73950846D01*
X140212565Y-73810857D01*
X140148136Y-73655310D01*
X140115290Y-73490182D01*
X140115290Y-73321818D01*
X140148136Y-73156690D01*
X140212565Y-73001143D01*
X140306103Y-72861154D01*
X140425154Y-72742103D01*
X140565143Y-72648565D01*
X140720690Y-72584136D01*
X140885818Y-72551290D01*
X141054182Y-72551290D01*
X141219310Y-72584136D01*
G37*
G36*
X143759310Y-72584136D02*
G01*
X143914857Y-72648565D01*
X144054846Y-72742103D01*
X144173897Y-72861154D01*
X144267435Y-73001143D01*
X144331864Y-73156690D01*
X144364710Y-73321818D01*
X144364710Y-73490182D01*
X144331864Y-73655310D01*
X144267435Y-73810857D01*
X144173897Y-73950846D01*
X144054846Y-74069897D01*
X143914857Y-74163435D01*
X143759310Y-74227864D01*
X143594182Y-74260710D01*
X143425818Y-74260710D01*
X143260690Y-74227864D01*
X143105143Y-74163435D01*
X142965154Y-74069897D01*
X142846103Y-73950846D01*
X142752565Y-73810857D01*
X142688136Y-73655310D01*
X142655290Y-73490182D01*
X142655290Y-73321818D01*
X142688136Y-73156690D01*
X142752565Y-73001143D01*
X142846103Y-72861154D01*
X142965154Y-72742103D01*
X143105143Y-72648565D01*
X143260690Y-72584136D01*
X143425818Y-72551290D01*
X143594182Y-72551290D01*
X143759310Y-72584136D01*
G37*
G36*
X146299310Y-72584136D02*
G01*
X146454857Y-72648565D01*
X146594846Y-72742103D01*
X146713897Y-72861154D01*
X146807435Y-73001143D01*
X146871864Y-73156690D01*
X146904710Y-73321818D01*
X146904710Y-73490182D01*
X146871864Y-73655310D01*
X146807435Y-73810857D01*
X146713897Y-73950846D01*
X146594846Y-74069897D01*
X146454857Y-74163435D01*
X146299310Y-74227864D01*
X146134182Y-74260710D01*
X145965818Y-74260710D01*
X145800690Y-74227864D01*
X145645143Y-74163435D01*
X145505154Y-74069897D01*
X145386103Y-73950846D01*
X145292565Y-73810857D01*
X145228136Y-73655310D01*
X145195290Y-73490182D01*
X145195290Y-73321818D01*
X145228136Y-73156690D01*
X145292565Y-73001143D01*
X145386103Y-72861154D01*
X145505154Y-72742103D01*
X145645143Y-72648565D01*
X145800690Y-72584136D01*
X145965818Y-72551290D01*
X146134182Y-72551290D01*
X146299310Y-72584136D01*
G37*
G36*
X148839310Y-72584136D02*
G01*
X148994857Y-72648565D01*
X149134846Y-72742103D01*
X149253897Y-72861154D01*
X149347435Y-73001143D01*
X149411864Y-73156690D01*
X149444710Y-73321818D01*
X149444710Y-73490182D01*
X149411864Y-73655310D01*
X149347435Y-73810857D01*
X149253897Y-73950846D01*
X149134846Y-74069897D01*
X148994857Y-74163435D01*
X148839310Y-74227864D01*
X148674182Y-74260710D01*
X148505818Y-74260710D01*
X148340690Y-74227864D01*
X148185143Y-74163435D01*
X148045154Y-74069897D01*
X147926103Y-73950846D01*
X147832565Y-73810857D01*
X147768136Y-73655310D01*
X147735290Y-73490182D01*
X147735290Y-73321818D01*
X147768136Y-73156690D01*
X147832565Y-73001143D01*
X147926103Y-72861154D01*
X148045154Y-72742103D01*
X148185143Y-72648565D01*
X148340690Y-72584136D01*
X148505818Y-72551290D01*
X148674182Y-72551290D01*
X148839310Y-72584136D01*
G37*
G36*
X151379310Y-72584136D02*
G01*
X151534857Y-72648565D01*
X151674846Y-72742103D01*
X151793897Y-72861154D01*
X151887435Y-73001143D01*
X151951864Y-73156690D01*
X151984710Y-73321818D01*
X151984710Y-73490182D01*
X151951864Y-73655310D01*
X151887435Y-73810857D01*
X151793897Y-73950846D01*
X151674846Y-74069897D01*
X151534857Y-74163435D01*
X151379310Y-74227864D01*
X151214182Y-74260710D01*
X151045818Y-74260710D01*
X150880690Y-74227864D01*
X150725143Y-74163435D01*
X150585154Y-74069897D01*
X150466103Y-73950846D01*
X150372565Y-73810857D01*
X150308136Y-73655310D01*
X150275290Y-73490182D01*
X150275290Y-73321818D01*
X150308136Y-73156690D01*
X150372565Y-73001143D01*
X150466103Y-72861154D01*
X150585154Y-72742103D01*
X150725143Y-72648565D01*
X150880690Y-72584136D01*
X151045818Y-72551290D01*
X151214182Y-72551290D01*
X151379310Y-72584136D01*
G37*
G36*
X153919310Y-72584136D02*
G01*
X154074857Y-72648565D01*
X154214846Y-72742103D01*
X154333897Y-72861154D01*
X154427435Y-73001143D01*
X154491864Y-73156690D01*
X154524710Y-73321818D01*
X154524710Y-73490182D01*
X154491864Y-73655310D01*
X154427435Y-73810857D01*
X154333897Y-73950846D01*
X154214846Y-74069897D01*
X154074857Y-74163435D01*
X153919310Y-74227864D01*
X153754182Y-74260710D01*
X153585818Y-74260710D01*
X153420690Y-74227864D01*
X153265143Y-74163435D01*
X153125154Y-74069897D01*
X153006103Y-73950846D01*
X152912565Y-73810857D01*
X152848136Y-73655310D01*
X152815290Y-73490182D01*
X152815290Y-73321818D01*
X152848136Y-73156690D01*
X152912565Y-73001143D01*
X153006103Y-72861154D01*
X153125154Y-72742103D01*
X153265143Y-72648565D01*
X153420690Y-72584136D01*
X153585818Y-72551290D01*
X153754182Y-72551290D01*
X153919310Y-72584136D01*
G37*
G36*
X156459310Y-72584136D02*
G01*
X156614857Y-72648565D01*
X156754846Y-72742103D01*
X156873897Y-72861154D01*
X156967435Y-73001143D01*
X157031864Y-73156690D01*
X157064710Y-73321818D01*
X157064710Y-73490182D01*
X157031864Y-73655310D01*
X156967435Y-73810857D01*
X156873897Y-73950846D01*
X156754846Y-74069897D01*
X156614857Y-74163435D01*
X156459310Y-74227864D01*
X156294182Y-74260710D01*
X156125818Y-74260710D01*
X155960690Y-74227864D01*
X155805143Y-74163435D01*
X155665154Y-74069897D01*
X155546103Y-73950846D01*
X155452565Y-73810857D01*
X155388136Y-73655310D01*
X155355290Y-73490182D01*
X155355290Y-73321818D01*
X155388136Y-73156690D01*
X155452565Y-73001143D01*
X155546103Y-72861154D01*
X155665154Y-72742103D01*
X155805143Y-72648565D01*
X155960690Y-72584136D01*
X156125818Y-72551290D01*
X156294182Y-72551290D01*
X156459310Y-72584136D01*
G37*
G36*
X166619310Y-72584136D02*
G01*
X166774857Y-72648565D01*
X166914846Y-72742103D01*
X167033897Y-72861154D01*
X167127435Y-73001143D01*
X167191864Y-73156690D01*
X167224710Y-73321818D01*
X167224710Y-73490182D01*
X167191864Y-73655310D01*
X167127435Y-73810857D01*
X167033897Y-73950846D01*
X166914846Y-74069897D01*
X166774857Y-74163435D01*
X166619310Y-74227864D01*
X166454182Y-74260710D01*
X166285818Y-74260710D01*
X166120690Y-74227864D01*
X165965143Y-74163435D01*
X165825154Y-74069897D01*
X165706103Y-73950846D01*
X165612565Y-73810857D01*
X165548136Y-73655310D01*
X165515290Y-73490182D01*
X165515290Y-73321818D01*
X165548136Y-73156690D01*
X165612565Y-73001143D01*
X165706103Y-72861154D01*
X165825154Y-72742103D01*
X165965143Y-72648565D01*
X166120690Y-72584136D01*
X166285818Y-72551290D01*
X166454182Y-72551290D01*
X166619310Y-72584136D01*
G37*
G36*
X169159310Y-72584136D02*
G01*
X169314857Y-72648565D01*
X169454846Y-72742103D01*
X169573897Y-72861154D01*
X169667435Y-73001143D01*
X169731864Y-73156690D01*
X169764710Y-73321818D01*
X169764710Y-73490182D01*
X169731864Y-73655310D01*
X169667435Y-73810857D01*
X169573897Y-73950846D01*
X169454846Y-74069897D01*
X169314857Y-74163435D01*
X169159310Y-74227864D01*
X168994182Y-74260710D01*
X168825818Y-74260710D01*
X168660690Y-74227864D01*
X168505143Y-74163435D01*
X168365154Y-74069897D01*
X168246103Y-73950846D01*
X168152565Y-73810857D01*
X168088136Y-73655310D01*
X168055290Y-73490182D01*
X168055290Y-73321818D01*
X168088136Y-73156690D01*
X168152565Y-73001143D01*
X168246103Y-72861154D01*
X168365154Y-72742103D01*
X168505143Y-72648565D01*
X168660690Y-72584136D01*
X168825818Y-72551290D01*
X168994182Y-72551290D01*
X169159310Y-72584136D01*
G37*
G36*
X171699310Y-72584136D02*
G01*
X171854857Y-72648565D01*
X171994846Y-72742103D01*
X172113897Y-72861154D01*
X172207435Y-73001143D01*
X172271864Y-73156690D01*
X172304710Y-73321818D01*
X172304710Y-73490182D01*
X172271864Y-73655310D01*
X172207435Y-73810857D01*
X172113897Y-73950846D01*
X171994846Y-74069897D01*
X171854857Y-74163435D01*
X171699310Y-74227864D01*
X171534182Y-74260710D01*
X171365818Y-74260710D01*
X171200690Y-74227864D01*
X171045143Y-74163435D01*
X170905154Y-74069897D01*
X170786103Y-73950846D01*
X170692565Y-73810857D01*
X170628136Y-73655310D01*
X170595290Y-73490182D01*
X170595290Y-73321818D01*
X170628136Y-73156690D01*
X170692565Y-73001143D01*
X170786103Y-72861154D01*
X170905154Y-72742103D01*
X171045143Y-72648565D01*
X171200690Y-72584136D01*
X171365818Y-72551290D01*
X171534182Y-72551290D01*
X171699310Y-72584136D01*
G37*
G36*
X113279310Y-72584136D02*
G01*
X113434857Y-72648565D01*
X113574846Y-72742103D01*
X113693897Y-72861154D01*
X113787435Y-73001143D01*
X113851864Y-73156690D01*
X113884710Y-73321818D01*
X113884710Y-73490182D01*
X113851864Y-73655310D01*
X113787435Y-73810857D01*
X113693897Y-73950846D01*
X113574846Y-74069897D01*
X113434857Y-74163435D01*
X113279310Y-74227864D01*
X113114182Y-74260710D01*
X112945818Y-74260710D01*
X112780690Y-74227864D01*
X112625143Y-74163435D01*
X112485154Y-74069897D01*
X112366103Y-73950846D01*
X112272565Y-73810857D01*
X112208136Y-73655310D01*
X112175290Y-73490182D01*
X112175290Y-73321818D01*
X112208136Y-73156690D01*
X112272565Y-73001143D01*
X112366103Y-72861154D01*
X112485154Y-72742103D01*
X112625143Y-72648565D01*
X112780690Y-72584136D01*
X112945818Y-72551290D01*
X113114182Y-72551290D01*
X113279310Y-72584136D01*
G37*
G36*
X131059310Y-72584136D02*
G01*
X131214857Y-72648565D01*
X131354846Y-72742103D01*
X131473897Y-72861154D01*
X131567435Y-73001143D01*
X131631864Y-73156690D01*
X131664710Y-73321818D01*
X131664710Y-73490182D01*
X131631864Y-73655310D01*
X131567435Y-73810857D01*
X131473897Y-73950846D01*
X131354846Y-74069897D01*
X131214857Y-74163435D01*
X131059310Y-74227864D01*
X130894182Y-74260710D01*
X130725818Y-74260710D01*
X130560690Y-74227864D01*
X130405143Y-74163435D01*
X130265154Y-74069897D01*
X130146103Y-73950846D01*
X130052565Y-73810857D01*
X129988136Y-73655310D01*
X129955290Y-73490182D01*
X129955290Y-73321818D01*
X129988136Y-73156690D01*
X130052565Y-73001143D01*
X130146103Y-72861154D01*
X130265154Y-72742103D01*
X130405143Y-72648565D01*
X130560690Y-72584136D01*
X130725818Y-72551290D01*
X130894182Y-72551290D01*
X131059310Y-72584136D01*
G37*
G36*
X128519310Y-72584136D02*
G01*
X128674857Y-72648565D01*
X128814846Y-72742103D01*
X128933897Y-72861154D01*
X129027435Y-73001143D01*
X129091864Y-73156690D01*
X129124710Y-73321818D01*
X129124710Y-73490182D01*
X129091864Y-73655310D01*
X129027435Y-73810857D01*
X128933897Y-73950846D01*
X128814846Y-74069897D01*
X128674857Y-74163435D01*
X128519310Y-74227864D01*
X128354182Y-74260710D01*
X128185818Y-74260710D01*
X128020690Y-74227864D01*
X127865143Y-74163435D01*
X127725154Y-74069897D01*
X127606103Y-73950846D01*
X127512565Y-73810857D01*
X127448136Y-73655310D01*
X127415290Y-73490182D01*
X127415290Y-73321818D01*
X127448136Y-73156690D01*
X127512565Y-73001143D01*
X127606103Y-72861154D01*
X127725154Y-72742103D01*
X127865143Y-72648565D01*
X128020690Y-72584136D01*
X128185818Y-72551290D01*
X128354182Y-72551290D01*
X128519310Y-72584136D01*
G37*
G36*
X125979310Y-72584136D02*
G01*
X126134857Y-72648565D01*
X126274846Y-72742103D01*
X126393897Y-72861154D01*
X126487435Y-73001143D01*
X126551864Y-73156690D01*
X126584710Y-73321818D01*
X126584710Y-73490182D01*
X126551864Y-73655310D01*
X126487435Y-73810857D01*
X126393897Y-73950846D01*
X126274846Y-74069897D01*
X126134857Y-74163435D01*
X125979310Y-74227864D01*
X125814182Y-74260710D01*
X125645818Y-74260710D01*
X125480690Y-74227864D01*
X125325143Y-74163435D01*
X125185154Y-74069897D01*
X125066103Y-73950846D01*
X124972565Y-73810857D01*
X124908136Y-73655310D01*
X124875290Y-73490182D01*
X124875290Y-73321818D01*
X124908136Y-73156690D01*
X124972565Y-73001143D01*
X125066103Y-72861154D01*
X125185154Y-72742103D01*
X125325143Y-72648565D01*
X125480690Y-72584136D01*
X125645818Y-72551290D01*
X125814182Y-72551290D01*
X125979310Y-72584136D01*
G37*
G36*
X115819310Y-72584136D02*
G01*
X115974857Y-72648565D01*
X116114846Y-72742103D01*
X116233897Y-72861154D01*
X116327435Y-73001143D01*
X116391864Y-73156690D01*
X116424710Y-73321818D01*
X116424710Y-73490182D01*
X116391864Y-73655310D01*
X116327435Y-73810857D01*
X116233897Y-73950846D01*
X116114846Y-74069897D01*
X115974857Y-74163435D01*
X115819310Y-74227864D01*
X115654182Y-74260710D01*
X115485818Y-74260710D01*
X115320690Y-74227864D01*
X115165143Y-74163435D01*
X115025154Y-74069897D01*
X114906103Y-73950846D01*
X114812565Y-73810857D01*
X114748136Y-73655310D01*
X114715290Y-73490182D01*
X114715290Y-73321818D01*
X114748136Y-73156690D01*
X114812565Y-73001143D01*
X114906103Y-72861154D01*
X115025154Y-72742103D01*
X115165143Y-72648565D01*
X115320690Y-72584136D01*
X115485818Y-72551290D01*
X115654182Y-72551290D01*
X115819310Y-72584136D01*
G37*
G36*
X164079310Y-72584136D02*
G01*
X164234857Y-72648565D01*
X164374846Y-72742103D01*
X164493897Y-72861154D01*
X164587435Y-73001143D01*
X164651864Y-73156690D01*
X164684710Y-73321818D01*
X164684710Y-73490182D01*
X164651864Y-73655310D01*
X164587435Y-73810857D01*
X164493897Y-73950846D01*
X164374846Y-74069897D01*
X164234857Y-74163435D01*
X164079310Y-74227864D01*
X163914182Y-74260710D01*
X163745818Y-74260710D01*
X163580690Y-74227864D01*
X163425143Y-74163435D01*
X163285154Y-74069897D01*
X163166103Y-73950846D01*
X163072565Y-73810857D01*
X163008136Y-73655310D01*
X162975290Y-73490182D01*
X162975290Y-73321818D01*
X163008136Y-73156690D01*
X163072565Y-73001143D01*
X163166103Y-72861154D01*
X163285154Y-72742103D01*
X163425143Y-72648565D01*
X163580690Y-72584136D01*
X163745818Y-72551290D01*
X163914182Y-72551290D01*
X164079310Y-72584136D01*
G37*
G36*
X158999310Y-72584136D02*
G01*
X159154857Y-72648565D01*
X159294846Y-72742103D01*
X159413897Y-72861154D01*
X159507435Y-73001143D01*
X159571864Y-73156690D01*
X159604710Y-73321818D01*
X159604710Y-73490182D01*
X159571864Y-73655310D01*
X159507435Y-73810857D01*
X159413897Y-73950846D01*
X159294846Y-74069897D01*
X159154857Y-74163435D01*
X158999310Y-74227864D01*
X158834182Y-74260710D01*
X158665818Y-74260710D01*
X158500690Y-74227864D01*
X158345143Y-74163435D01*
X158205154Y-74069897D01*
X158086103Y-73950846D01*
X157992565Y-73810857D01*
X157928136Y-73655310D01*
X157895290Y-73490182D01*
X157895290Y-73321818D01*
X157928136Y-73156690D01*
X157992565Y-73001143D01*
X158086103Y-72861154D01*
X158205154Y-72742103D01*
X158345143Y-72648565D01*
X158500690Y-72584136D01*
X158665818Y-72551290D01*
X158834182Y-72551290D01*
X158999310Y-72584136D01*
G37*
G36*
X161539310Y-72584136D02*
G01*
X161694857Y-72648565D01*
X161834846Y-72742103D01*
X161953897Y-72861154D01*
X162047435Y-73001143D01*
X162111864Y-73156690D01*
X162144710Y-73321818D01*
X162144710Y-73490182D01*
X162111864Y-73655310D01*
X162047435Y-73810857D01*
X161953897Y-73950846D01*
X161834846Y-74069897D01*
X161694857Y-74163435D01*
X161539310Y-74227864D01*
X161374182Y-74260710D01*
X161205818Y-74260710D01*
X161040690Y-74227864D01*
X160885143Y-74163435D01*
X160745154Y-74069897D01*
X160626103Y-73950846D01*
X160532565Y-73810857D01*
X160468136Y-73655310D01*
X160435290Y-73490182D01*
X160435290Y-73321818D01*
X160468136Y-73156690D01*
X160532565Y-73001143D01*
X160626103Y-72861154D01*
X160745154Y-72742103D01*
X160885143Y-72648565D01*
X161040690Y-72584136D01*
X161205818Y-72551290D01*
X161374182Y-72551290D01*
X161539310Y-72584136D01*
G37*
G36*
X120899310Y-72584136D02*
G01*
X121054857Y-72648565D01*
X121194846Y-72742103D01*
X121313897Y-72861154D01*
X121407435Y-73001143D01*
X121471864Y-73156690D01*
X121504710Y-73321818D01*
X121504710Y-73490182D01*
X121471864Y-73655310D01*
X121407435Y-73810857D01*
X121313897Y-73950846D01*
X121194846Y-74069897D01*
X121054857Y-74163435D01*
X120899310Y-74227864D01*
X120734182Y-74260710D01*
X120565818Y-74260710D01*
X120400690Y-74227864D01*
X120245143Y-74163435D01*
X120105154Y-74069897D01*
X119986103Y-73950846D01*
X119892565Y-73810857D01*
X119828136Y-73655310D01*
X119795290Y-73490182D01*
X119795290Y-73321818D01*
X119828136Y-73156690D01*
X119892565Y-73001143D01*
X119986103Y-72861154D01*
X120105154Y-72742103D01*
X120245143Y-72648565D01*
X120400690Y-72584136D01*
X120565818Y-72551290D01*
X120734182Y-72551290D01*
X120899310Y-72584136D01*
G37*
G36*
X110739310Y-72584136D02*
G01*
X110894857Y-72648565D01*
X111034846Y-72742103D01*
X111153897Y-72861154D01*
X111247435Y-73001143D01*
X111311864Y-73156690D01*
X111344710Y-73321818D01*
X111344710Y-73490182D01*
X111311864Y-73655310D01*
X111247435Y-73810857D01*
X111153897Y-73950846D01*
X111034846Y-74069897D01*
X110894857Y-74163435D01*
X110739310Y-74227864D01*
X110574182Y-74260710D01*
X110405818Y-74260710D01*
X110240690Y-74227864D01*
X110085143Y-74163435D01*
X109945154Y-74069897D01*
X109826103Y-73950846D01*
X109732565Y-73810857D01*
X109668136Y-73655310D01*
X109635290Y-73490182D01*
X109635290Y-73321818D01*
X109668136Y-73156690D01*
X109732565Y-73001143D01*
X109826103Y-72861154D01*
X109945154Y-72742103D01*
X110085143Y-72648565D01*
X110240690Y-72584136D01*
X110405818Y-72551290D01*
X110574182Y-72551290D01*
X110739310Y-72584136D01*
G37*
G36*
X118359310Y-72584136D02*
G01*
X118514857Y-72648565D01*
X118654846Y-72742103D01*
X118773897Y-72861154D01*
X118867435Y-73001143D01*
X118931864Y-73156690D01*
X118964710Y-73321818D01*
X118964710Y-73490182D01*
X118931864Y-73655310D01*
X118867435Y-73810857D01*
X118773897Y-73950846D01*
X118654846Y-74069897D01*
X118514857Y-74163435D01*
X118359310Y-74227864D01*
X118194182Y-74260710D01*
X118025818Y-74260710D01*
X117860690Y-74227864D01*
X117705143Y-74163435D01*
X117565154Y-74069897D01*
X117446103Y-73950846D01*
X117352565Y-73810857D01*
X117288136Y-73655310D01*
X117255290Y-73490182D01*
X117255290Y-73321818D01*
X117288136Y-73156690D01*
X117352565Y-73001143D01*
X117446103Y-72861154D01*
X117565154Y-72742103D01*
X117705143Y-72648565D01*
X117860690Y-72584136D01*
X118025818Y-72551290D01*
X118194182Y-72551290D01*
X118359310Y-72584136D01*
G37*
G36*
X123439310Y-72584136D02*
G01*
X123594857Y-72648565D01*
X123734846Y-72742103D01*
X123853897Y-72861154D01*
X123947435Y-73001143D01*
X124011864Y-73156690D01*
X124044710Y-73321818D01*
X124044710Y-73490182D01*
X124011864Y-73655310D01*
X123947435Y-73810857D01*
X123853897Y-73950846D01*
X123734846Y-74069897D01*
X123594857Y-74163435D01*
X123439310Y-74227864D01*
X123274182Y-74260710D01*
X123105818Y-74260710D01*
X122940690Y-74227864D01*
X122785143Y-74163435D01*
X122645154Y-74069897D01*
X122526103Y-73950846D01*
X122432565Y-73810857D01*
X122368136Y-73655310D01*
X122335290Y-73490182D01*
X122335290Y-73321818D01*
X122368136Y-73156690D01*
X122432565Y-73001143D01*
X122526103Y-72861154D01*
X122645154Y-72742103D01*
X122785143Y-72648565D01*
X122940690Y-72584136D01*
X123105818Y-72551290D01*
X123274182Y-72551290D01*
X123439310Y-72584136D01*
G37*
G36*
X136139310Y-72584136D02*
G01*
X136294857Y-72648565D01*
X136434846Y-72742103D01*
X136553897Y-72861154D01*
X136647435Y-73001143D01*
X136711864Y-73156690D01*
X136744710Y-73321818D01*
X136744710Y-73490182D01*
X136711864Y-73655310D01*
X136647435Y-73810857D01*
X136553897Y-73950846D01*
X136434846Y-74069897D01*
X136294857Y-74163435D01*
X136139310Y-74227864D01*
X135974182Y-74260710D01*
X135805818Y-74260710D01*
X135640690Y-74227864D01*
X135485143Y-74163435D01*
X135345154Y-74069897D01*
X135226103Y-73950846D01*
X135132565Y-73810857D01*
X135068136Y-73655310D01*
X135035290Y-73490182D01*
X135035290Y-73321818D01*
X135068136Y-73156690D01*
X135132565Y-73001143D01*
X135226103Y-72861154D01*
X135345154Y-72742103D01*
X135485143Y-72648565D01*
X135640690Y-72584136D01*
X135805818Y-72551290D01*
X135974182Y-72551290D01*
X136139310Y-72584136D01*
G37*
G36*
X105906027Y-69230821D02*
G01*
X106215503Y-69359009D01*
X106494026Y-69545113D01*
X106730887Y-69781974D01*
X106916991Y-70060497D01*
X107045179Y-70369973D01*
X107110530Y-70698512D01*
X107110530Y-71033488D01*
X107045179Y-71362027D01*
X106916991Y-71671503D01*
X106730887Y-71950026D01*
X106494026Y-72186887D01*
X106215503Y-72372991D01*
X105906027Y-72501179D01*
X105577488Y-72566530D01*
X105242512Y-72566530D01*
X104913973Y-72501179D01*
X104604497Y-72372991D01*
X104325974Y-72186887D01*
X104089113Y-71950026D01*
X103903009Y-71671503D01*
X103774821Y-71362027D01*
X103709470Y-71033488D01*
X103709470Y-70698512D01*
X103774821Y-70369973D01*
X103903009Y-70060497D01*
X104089113Y-69781974D01*
X104325974Y-69545113D01*
X104604497Y-69359009D01*
X104913973Y-69230821D01*
X105242512Y-69165470D01*
X105577488Y-69165470D01*
X105906027Y-69230821D01*
G37*
G36*
X177026027Y-69230821D02*
G01*
X177335503Y-69359009D01*
X177614026Y-69545113D01*
X177850887Y-69781974D01*
X178036991Y-70060497D01*
X178165179Y-70369973D01*
X178230530Y-70698512D01*
X178230530Y-71033488D01*
X178165179Y-71362027D01*
X178036991Y-71671503D01*
X177850887Y-71950026D01*
X177614026Y-72186887D01*
X177335503Y-72372991D01*
X177026027Y-72501179D01*
X176697488Y-72566530D01*
X176362512Y-72566530D01*
X176033973Y-72501179D01*
X175724497Y-72372991D01*
X175445974Y-72186887D01*
X175209113Y-71950026D01*
X175023009Y-71671503D01*
X174894821Y-71362027D01*
X174829470Y-71033488D01*
X174829470Y-70698512D01*
X174894821Y-70369973D01*
X175023009Y-70060497D01*
X175209113Y-69781974D01*
X175445974Y-69545113D01*
X175724497Y-69359009D01*
X176033973Y-69230821D01*
X176362512Y-69165470D01*
X176697488Y-69165470D01*
X177026027Y-69230821D01*
G37*
G36*
X151379310Y-70044136D02*
G01*
X151534857Y-70108565D01*
X151674846Y-70202103D01*
X151793897Y-70321154D01*
X151887435Y-70461143D01*
X151951864Y-70616690D01*
X151984710Y-70781818D01*
X151984710Y-70950182D01*
X151951864Y-71115310D01*
X151887435Y-71270857D01*
X151793897Y-71410846D01*
X151674846Y-71529897D01*
X151534857Y-71623435D01*
X151379310Y-71687864D01*
X151214182Y-71720710D01*
X151045818Y-71720710D01*
X150880690Y-71687864D01*
X150725143Y-71623435D01*
X150585154Y-71529897D01*
X150466103Y-71410846D01*
X150372565Y-71270857D01*
X150308136Y-71115310D01*
X150275290Y-70950182D01*
X150275290Y-70781818D01*
X150308136Y-70616690D01*
X150372565Y-70461143D01*
X150466103Y-70321154D01*
X150585154Y-70202103D01*
X150725143Y-70108565D01*
X150880690Y-70044136D01*
X151045818Y-70011290D01*
X151214182Y-70011290D01*
X151379310Y-70044136D01*
G37*
G36*
X146299310Y-70044136D02*
G01*
X146454857Y-70108565D01*
X146594846Y-70202103D01*
X146713897Y-70321154D01*
X146807435Y-70461143D01*
X146871864Y-70616690D01*
X146904710Y-70781818D01*
X146904710Y-70950182D01*
X146871864Y-71115310D01*
X146807435Y-71270857D01*
X146713897Y-71410846D01*
X146594846Y-71529897D01*
X146454857Y-71623435D01*
X146299310Y-71687864D01*
X146134182Y-71720710D01*
X145965818Y-71720710D01*
X145800690Y-71687864D01*
X145645143Y-71623435D01*
X145505154Y-71529897D01*
X145386103Y-71410846D01*
X145292565Y-71270857D01*
X145228136Y-71115310D01*
X145195290Y-70950182D01*
X145195290Y-70781818D01*
X145228136Y-70616690D01*
X145292565Y-70461143D01*
X145386103Y-70321154D01*
X145505154Y-70202103D01*
X145645143Y-70108565D01*
X145800690Y-70044136D01*
X145965818Y-70011290D01*
X146134182Y-70011290D01*
X146299310Y-70044136D01*
G37*
G36*
X115819310Y-70044136D02*
G01*
X115974857Y-70108565D01*
X116114846Y-70202103D01*
X116233897Y-70321154D01*
X116327435Y-70461143D01*
X116391864Y-70616690D01*
X116424710Y-70781818D01*
X116424710Y-70950182D01*
X116391864Y-71115310D01*
X116327435Y-71270857D01*
X116233897Y-71410846D01*
X116114846Y-71529897D01*
X115974857Y-71623435D01*
X115819310Y-71687864D01*
X115654182Y-71720710D01*
X115485818Y-71720710D01*
X115320690Y-71687864D01*
X115165143Y-71623435D01*
X115025154Y-71529897D01*
X114906103Y-71410846D01*
X114812565Y-71270857D01*
X114748136Y-71115310D01*
X114715290Y-70950182D01*
X114715290Y-70781818D01*
X114748136Y-70616690D01*
X114812565Y-70461143D01*
X114906103Y-70321154D01*
X115025154Y-70202103D01*
X115165143Y-70108565D01*
X115320690Y-70044136D01*
X115485818Y-70011290D01*
X115654182Y-70011290D01*
X115819310Y-70044136D01*
G37*
G36*
X118359310Y-70044136D02*
G01*
X118514857Y-70108565D01*
X118654846Y-70202103D01*
X118773897Y-70321154D01*
X118867435Y-70461143D01*
X118931864Y-70616690D01*
X118964710Y-70781818D01*
X118964710Y-70950182D01*
X118931864Y-71115310D01*
X118867435Y-71270857D01*
X118773897Y-71410846D01*
X118654846Y-71529897D01*
X118514857Y-71623435D01*
X118359310Y-71687864D01*
X118194182Y-71720710D01*
X118025818Y-71720710D01*
X117860690Y-71687864D01*
X117705143Y-71623435D01*
X117565154Y-71529897D01*
X117446103Y-71410846D01*
X117352565Y-71270857D01*
X117288136Y-71115310D01*
X117255290Y-70950182D01*
X117255290Y-70781818D01*
X117288136Y-70616690D01*
X117352565Y-70461143D01*
X117446103Y-70321154D01*
X117565154Y-70202103D01*
X117705143Y-70108565D01*
X117860690Y-70044136D01*
X118025818Y-70011290D01*
X118194182Y-70011290D01*
X118359310Y-70044136D01*
G37*
G36*
X120899310Y-70044136D02*
G01*
X121054857Y-70108565D01*
X121194846Y-70202103D01*
X121313897Y-70321154D01*
X121407435Y-70461143D01*
X121471864Y-70616690D01*
X121504710Y-70781818D01*
X121504710Y-70950182D01*
X121471864Y-71115310D01*
X121407435Y-71270857D01*
X121313897Y-71410846D01*
X121194846Y-71529897D01*
X121054857Y-71623435D01*
X120899310Y-71687864D01*
X120734182Y-71720710D01*
X120565818Y-71720710D01*
X120400690Y-71687864D01*
X120245143Y-71623435D01*
X120105154Y-71529897D01*
X119986103Y-71410846D01*
X119892565Y-71270857D01*
X119828136Y-71115310D01*
X119795290Y-70950182D01*
X119795290Y-70781818D01*
X119828136Y-70616690D01*
X119892565Y-70461143D01*
X119986103Y-70321154D01*
X120105154Y-70202103D01*
X120245143Y-70108565D01*
X120400690Y-70044136D01*
X120565818Y-70011290D01*
X120734182Y-70011290D01*
X120899310Y-70044136D01*
G37*
G36*
X123439310Y-70044136D02*
G01*
X123594857Y-70108565D01*
X123734846Y-70202103D01*
X123853897Y-70321154D01*
X123947435Y-70461143D01*
X124011864Y-70616690D01*
X124044710Y-70781818D01*
X124044710Y-70950182D01*
X124011864Y-71115310D01*
X123947435Y-71270857D01*
X123853897Y-71410846D01*
X123734846Y-71529897D01*
X123594857Y-71623435D01*
X123439310Y-71687864D01*
X123274182Y-71720710D01*
X123105818Y-71720710D01*
X122940690Y-71687864D01*
X122785143Y-71623435D01*
X122645154Y-71529897D01*
X122526103Y-71410846D01*
X122432565Y-71270857D01*
X122368136Y-71115310D01*
X122335290Y-70950182D01*
X122335290Y-70781818D01*
X122368136Y-70616690D01*
X122432565Y-70461143D01*
X122526103Y-70321154D01*
X122645154Y-70202103D01*
X122785143Y-70108565D01*
X122940690Y-70044136D01*
X123105818Y-70011290D01*
X123274182Y-70011290D01*
X123439310Y-70044136D01*
G37*
G36*
X125979310Y-70044136D02*
G01*
X126134857Y-70108565D01*
X126274846Y-70202103D01*
X126393897Y-70321154D01*
X126487435Y-70461143D01*
X126551864Y-70616690D01*
X126584710Y-70781818D01*
X126584710Y-70950182D01*
X126551864Y-71115310D01*
X126487435Y-71270857D01*
X126393897Y-71410846D01*
X126274846Y-71529897D01*
X126134857Y-71623435D01*
X125979310Y-71687864D01*
X125814182Y-71720710D01*
X125645818Y-71720710D01*
X125480690Y-71687864D01*
X125325143Y-71623435D01*
X125185154Y-71529897D01*
X125066103Y-71410846D01*
X124972565Y-71270857D01*
X124908136Y-71115310D01*
X124875290Y-70950182D01*
X124875290Y-70781818D01*
X124908136Y-70616690D01*
X124972565Y-70461143D01*
X125066103Y-70321154D01*
X125185154Y-70202103D01*
X125325143Y-70108565D01*
X125480690Y-70044136D01*
X125645818Y-70011290D01*
X125814182Y-70011290D01*
X125979310Y-70044136D01*
G37*
G36*
X128519310Y-70044136D02*
G01*
X128674857Y-70108565D01*
X128814846Y-70202103D01*
X128933897Y-70321154D01*
X129027435Y-70461143D01*
X129091864Y-70616690D01*
X129124710Y-70781818D01*
X129124710Y-70950182D01*
X129091864Y-71115310D01*
X129027435Y-71270857D01*
X128933897Y-71410846D01*
X128814846Y-71529897D01*
X128674857Y-71623435D01*
X128519310Y-71687864D01*
X128354182Y-71720710D01*
X128185818Y-71720710D01*
X128020690Y-71687864D01*
X127865143Y-71623435D01*
X127725154Y-71529897D01*
X127606103Y-71410846D01*
X127512565Y-71270857D01*
X127448136Y-71115310D01*
X127415290Y-70950182D01*
X127415290Y-70781818D01*
X127448136Y-70616690D01*
X127512565Y-70461143D01*
X127606103Y-70321154D01*
X127725154Y-70202103D01*
X127865143Y-70108565D01*
X128020690Y-70044136D01*
X128185818Y-70011290D01*
X128354182Y-70011290D01*
X128519310Y-70044136D01*
G37*
G36*
X131059310Y-70044136D02*
G01*
X131214857Y-70108565D01*
X131354846Y-70202103D01*
X131473897Y-70321154D01*
X131567435Y-70461143D01*
X131631864Y-70616690D01*
X131664710Y-70781818D01*
X131664710Y-70950182D01*
X131631864Y-71115310D01*
X131567435Y-71270857D01*
X131473897Y-71410846D01*
X131354846Y-71529897D01*
X131214857Y-71623435D01*
X131059310Y-71687864D01*
X130894182Y-71720710D01*
X130725818Y-71720710D01*
X130560690Y-71687864D01*
X130405143Y-71623435D01*
X130265154Y-71529897D01*
X130146103Y-71410846D01*
X130052565Y-71270857D01*
X129988136Y-71115310D01*
X129955290Y-70950182D01*
X129955290Y-70781818D01*
X129988136Y-70616690D01*
X130052565Y-70461143D01*
X130146103Y-70321154D01*
X130265154Y-70202103D01*
X130405143Y-70108565D01*
X130560690Y-70044136D01*
X130725818Y-70011290D01*
X130894182Y-70011290D01*
X131059310Y-70044136D01*
G37*
G36*
X133599310Y-70044136D02*
G01*
X133754857Y-70108565D01*
X133894846Y-70202103D01*
X134013897Y-70321154D01*
X134107435Y-70461143D01*
X134171864Y-70616690D01*
X134204710Y-70781818D01*
X134204710Y-70950182D01*
X134171864Y-71115310D01*
X134107435Y-71270857D01*
X134013897Y-71410846D01*
X133894846Y-71529897D01*
X133754857Y-71623435D01*
X133599310Y-71687864D01*
X133434182Y-71720710D01*
X133265818Y-71720710D01*
X133100690Y-71687864D01*
X132945143Y-71623435D01*
X132805154Y-71529897D01*
X132686103Y-71410846D01*
X132592565Y-71270857D01*
X132528136Y-71115310D01*
X132495290Y-70950182D01*
X132495290Y-70781818D01*
X132528136Y-70616690D01*
X132592565Y-70461143D01*
X132686103Y-70321154D01*
X132805154Y-70202103D01*
X132945143Y-70108565D01*
X133100690Y-70044136D01*
X133265818Y-70011290D01*
X133434182Y-70011290D01*
X133599310Y-70044136D01*
G37*
G36*
X113279310Y-70044136D02*
G01*
X113434857Y-70108565D01*
X113574846Y-70202103D01*
X113693897Y-70321154D01*
X113787435Y-70461143D01*
X113851864Y-70616690D01*
X113884710Y-70781818D01*
X113884710Y-70950182D01*
X113851864Y-71115310D01*
X113787435Y-71270857D01*
X113693897Y-71410846D01*
X113574846Y-71529897D01*
X113434857Y-71623435D01*
X113279310Y-71687864D01*
X113114182Y-71720710D01*
X112945818Y-71720710D01*
X112780690Y-71687864D01*
X112625143Y-71623435D01*
X112485154Y-71529897D01*
X112366103Y-71410846D01*
X112272565Y-71270857D01*
X112208136Y-71115310D01*
X112175290Y-70950182D01*
X112175290Y-70781818D01*
X112208136Y-70616690D01*
X112272565Y-70461143D01*
X112366103Y-70321154D01*
X112485154Y-70202103D01*
X112625143Y-70108565D01*
X112780690Y-70044136D01*
X112945818Y-70011290D01*
X113114182Y-70011290D01*
X113279310Y-70044136D01*
G37*
G36*
X111344710Y-71720710D02*
G01*
X109635290Y-71720710D01*
X109635290Y-70011290D01*
X111344710Y-70011290D01*
X111344710Y-71720710D01*
G37*
G36*
X136139310Y-70044136D02*
G01*
X136294857Y-70108565D01*
X136434846Y-70202103D01*
X136553897Y-70321154D01*
X136647435Y-70461143D01*
X136711864Y-70616690D01*
X136744710Y-70781818D01*
X136744710Y-70950182D01*
X136711864Y-71115310D01*
X136647435Y-71270857D01*
X136553897Y-71410846D01*
X136434846Y-71529897D01*
X136294857Y-71623435D01*
X136139310Y-71687864D01*
X135974182Y-71720710D01*
X135805818Y-71720710D01*
X135640690Y-71687864D01*
X135485143Y-71623435D01*
X135345154Y-71529897D01*
X135226103Y-71410846D01*
X135132565Y-71270857D01*
X135068136Y-71115310D01*
X135035290Y-70950182D01*
X135035290Y-70781818D01*
X135068136Y-70616690D01*
X135132565Y-70461143D01*
X135226103Y-70321154D01*
X135345154Y-70202103D01*
X135485143Y-70108565D01*
X135640690Y-70044136D01*
X135805818Y-70011290D01*
X135974182Y-70011290D01*
X136139310Y-70044136D01*
G37*
G36*
X153919310Y-70044136D02*
G01*
X154074857Y-70108565D01*
X154214846Y-70202103D01*
X154333897Y-70321154D01*
X154427435Y-70461143D01*
X154491864Y-70616690D01*
X154524710Y-70781818D01*
X154524710Y-70950182D01*
X154491864Y-71115310D01*
X154427435Y-71270857D01*
X154333897Y-71410846D01*
X154214846Y-71529897D01*
X154074857Y-71623435D01*
X153919310Y-71687864D01*
X153754182Y-71720710D01*
X153585818Y-71720710D01*
X153420690Y-71687864D01*
X153265143Y-71623435D01*
X153125154Y-71529897D01*
X153006103Y-71410846D01*
X152912565Y-71270857D01*
X152848136Y-71115310D01*
X152815290Y-70950182D01*
X152815290Y-70781818D01*
X152848136Y-70616690D01*
X152912565Y-70461143D01*
X153006103Y-70321154D01*
X153125154Y-70202103D01*
X153265143Y-70108565D01*
X153420690Y-70044136D01*
X153585818Y-70011290D01*
X153754182Y-70011290D01*
X153919310Y-70044136D01*
G37*
G36*
X156459310Y-70044136D02*
G01*
X156614857Y-70108565D01*
X156754846Y-70202103D01*
X156873897Y-70321154D01*
X156967435Y-70461143D01*
X157031864Y-70616690D01*
X157064710Y-70781818D01*
X157064710Y-70950182D01*
X157031864Y-71115310D01*
X156967435Y-71270857D01*
X156873897Y-71410846D01*
X156754846Y-71529897D01*
X156614857Y-71623435D01*
X156459310Y-71687864D01*
X156294182Y-71720710D01*
X156125818Y-71720710D01*
X155960690Y-71687864D01*
X155805143Y-71623435D01*
X155665154Y-71529897D01*
X155546103Y-71410846D01*
X155452565Y-71270857D01*
X155388136Y-71115310D01*
X155355290Y-70950182D01*
X155355290Y-70781818D01*
X155388136Y-70616690D01*
X155452565Y-70461143D01*
X155546103Y-70321154D01*
X155665154Y-70202103D01*
X155805143Y-70108565D01*
X155960690Y-70044136D01*
X156125818Y-70011290D01*
X156294182Y-70011290D01*
X156459310Y-70044136D01*
G37*
G36*
X158999310Y-70044136D02*
G01*
X159154857Y-70108565D01*
X159294846Y-70202103D01*
X159413897Y-70321154D01*
X159507435Y-70461143D01*
X159571864Y-70616690D01*
X159604710Y-70781818D01*
X159604710Y-70950182D01*
X159571864Y-71115310D01*
X159507435Y-71270857D01*
X159413897Y-71410846D01*
X159294846Y-71529897D01*
X159154857Y-71623435D01*
X158999310Y-71687864D01*
X158834182Y-71720710D01*
X158665818Y-71720710D01*
X158500690Y-71687864D01*
X158345143Y-71623435D01*
X158205154Y-71529897D01*
X158086103Y-71410846D01*
X157992565Y-71270857D01*
X157928136Y-71115310D01*
X157895290Y-70950182D01*
X157895290Y-70781818D01*
X157928136Y-70616690D01*
X157992565Y-70461143D01*
X158086103Y-70321154D01*
X158205154Y-70202103D01*
X158345143Y-70108565D01*
X158500690Y-70044136D01*
X158665818Y-70011290D01*
X158834182Y-70011290D01*
X158999310Y-70044136D01*
G37*
G36*
X161539310Y-70044136D02*
G01*
X161694857Y-70108565D01*
X161834846Y-70202103D01*
X161953897Y-70321154D01*
X162047435Y-70461143D01*
X162111864Y-70616690D01*
X162144710Y-70781818D01*
X162144710Y-70950182D01*
X162111864Y-71115310D01*
X162047435Y-71270857D01*
X161953897Y-71410846D01*
X161834846Y-71529897D01*
X161694857Y-71623435D01*
X161539310Y-71687864D01*
X161374182Y-71720710D01*
X161205818Y-71720710D01*
X161040690Y-71687864D01*
X160885143Y-71623435D01*
X160745154Y-71529897D01*
X160626103Y-71410846D01*
X160532565Y-71270857D01*
X160468136Y-71115310D01*
X160435290Y-70950182D01*
X160435290Y-70781818D01*
X160468136Y-70616690D01*
X160532565Y-70461143D01*
X160626103Y-70321154D01*
X160745154Y-70202103D01*
X160885143Y-70108565D01*
X161040690Y-70044136D01*
X161205818Y-70011290D01*
X161374182Y-70011290D01*
X161539310Y-70044136D01*
G37*
G36*
X164079310Y-70044136D02*
G01*
X164234857Y-70108565D01*
X164374846Y-70202103D01*
X164493897Y-70321154D01*
X164587435Y-70461143D01*
X164651864Y-70616690D01*
X164684710Y-70781818D01*
X164684710Y-70950182D01*
X164651864Y-71115310D01*
X164587435Y-71270857D01*
X164493897Y-71410846D01*
X164374846Y-71529897D01*
X164234857Y-71623435D01*
X164079310Y-71687864D01*
X163914182Y-71720710D01*
X163745818Y-71720710D01*
X163580690Y-71687864D01*
X163425143Y-71623435D01*
X163285154Y-71529897D01*
X163166103Y-71410846D01*
X163072565Y-71270857D01*
X163008136Y-71115310D01*
X162975290Y-70950182D01*
X162975290Y-70781818D01*
X163008136Y-70616690D01*
X163072565Y-70461143D01*
X163166103Y-70321154D01*
X163285154Y-70202103D01*
X163425143Y-70108565D01*
X163580690Y-70044136D01*
X163745818Y-70011290D01*
X163914182Y-70011290D01*
X164079310Y-70044136D01*
G37*
G36*
X166619310Y-70044136D02*
G01*
X166774857Y-70108565D01*
X166914846Y-70202103D01*
X167033897Y-70321154D01*
X167127435Y-70461143D01*
X167191864Y-70616690D01*
X167224710Y-70781818D01*
X167224710Y-70950182D01*
X167191864Y-71115310D01*
X167127435Y-71270857D01*
X167033897Y-71410846D01*
X166914846Y-71529897D01*
X166774857Y-71623435D01*
X166619310Y-71687864D01*
X166454182Y-71720710D01*
X166285818Y-71720710D01*
X166120690Y-71687864D01*
X165965143Y-71623435D01*
X165825154Y-71529897D01*
X165706103Y-71410846D01*
X165612565Y-71270857D01*
X165548136Y-71115310D01*
X165515290Y-70950182D01*
X165515290Y-70781818D01*
X165548136Y-70616690D01*
X165612565Y-70461143D01*
X165706103Y-70321154D01*
X165825154Y-70202103D01*
X165965143Y-70108565D01*
X166120690Y-70044136D01*
X166285818Y-70011290D01*
X166454182Y-70011290D01*
X166619310Y-70044136D01*
G37*
G36*
X169159310Y-70044136D02*
G01*
X169314857Y-70108565D01*
X169454846Y-70202103D01*
X169573897Y-70321154D01*
X169667435Y-70461143D01*
X169731864Y-70616690D01*
X169764710Y-70781818D01*
X169764710Y-70950182D01*
X169731864Y-71115310D01*
X169667435Y-71270857D01*
X169573897Y-71410846D01*
X169454846Y-71529897D01*
X169314857Y-71623435D01*
X169159310Y-71687864D01*
X168994182Y-71720710D01*
X168825818Y-71720710D01*
X168660690Y-71687864D01*
X168505143Y-71623435D01*
X168365154Y-71529897D01*
X168246103Y-71410846D01*
X168152565Y-71270857D01*
X168088136Y-71115310D01*
X168055290Y-70950182D01*
X168055290Y-70781818D01*
X168088136Y-70616690D01*
X168152565Y-70461143D01*
X168246103Y-70321154D01*
X168365154Y-70202103D01*
X168505143Y-70108565D01*
X168660690Y-70044136D01*
X168825818Y-70011290D01*
X168994182Y-70011290D01*
X169159310Y-70044136D01*
G37*
G36*
X171699310Y-70044136D02*
G01*
X171854857Y-70108565D01*
X171994846Y-70202103D01*
X172113897Y-70321154D01*
X172207435Y-70461143D01*
X172271864Y-70616690D01*
X172304710Y-70781818D01*
X172304710Y-70950182D01*
X172271864Y-71115310D01*
X172207435Y-71270857D01*
X172113897Y-71410846D01*
X171994846Y-71529897D01*
X171854857Y-71623435D01*
X171699310Y-71687864D01*
X171534182Y-71720710D01*
X171365818Y-71720710D01*
X171200690Y-71687864D01*
X171045143Y-71623435D01*
X170905154Y-71529897D01*
X170786103Y-71410846D01*
X170692565Y-71270857D01*
X170628136Y-71115310D01*
X170595290Y-70950182D01*
X170595290Y-70781818D01*
X170628136Y-70616690D01*
X170692565Y-70461143D01*
X170786103Y-70321154D01*
X170905154Y-70202103D01*
X171045143Y-70108565D01*
X171200690Y-70044136D01*
X171365818Y-70011290D01*
X171534182Y-70011290D01*
X171699310Y-70044136D01*
G37*
G36*
X138679310Y-70044136D02*
G01*
X138834857Y-70108565D01*
X138974846Y-70202103D01*
X139093897Y-70321154D01*
X139187435Y-70461143D01*
X139251864Y-70616690D01*
X139284710Y-70781818D01*
X139284710Y-70950182D01*
X139251864Y-71115310D01*
X139187435Y-71270857D01*
X139093897Y-71410846D01*
X138974846Y-71529897D01*
X138834857Y-71623435D01*
X138679310Y-71687864D01*
X138514182Y-71720710D01*
X138345818Y-71720710D01*
X138180690Y-71687864D01*
X138025143Y-71623435D01*
X137885154Y-71529897D01*
X137766103Y-71410846D01*
X137672565Y-71270857D01*
X137608136Y-71115310D01*
X137575290Y-70950182D01*
X137575290Y-70781818D01*
X137608136Y-70616690D01*
X137672565Y-70461143D01*
X137766103Y-70321154D01*
X137885154Y-70202103D01*
X138025143Y-70108565D01*
X138180690Y-70044136D01*
X138345818Y-70011290D01*
X138514182Y-70011290D01*
X138679310Y-70044136D01*
G37*
G36*
X141219310Y-70044136D02*
G01*
X141374857Y-70108565D01*
X141514846Y-70202103D01*
X141633897Y-70321154D01*
X141727435Y-70461143D01*
X141791864Y-70616690D01*
X141824710Y-70781818D01*
X141824710Y-70950182D01*
X141791864Y-71115310D01*
X141727435Y-71270857D01*
X141633897Y-71410846D01*
X141514846Y-71529897D01*
X141374857Y-71623435D01*
X141219310Y-71687864D01*
X141054182Y-71720710D01*
X140885818Y-71720710D01*
X140720690Y-71687864D01*
X140565143Y-71623435D01*
X140425154Y-71529897D01*
X140306103Y-71410846D01*
X140212565Y-71270857D01*
X140148136Y-71115310D01*
X140115290Y-70950182D01*
X140115290Y-70781818D01*
X140148136Y-70616690D01*
X140212565Y-70461143D01*
X140306103Y-70321154D01*
X140425154Y-70202103D01*
X140565143Y-70108565D01*
X140720690Y-70044136D01*
X140885818Y-70011290D01*
X141054182Y-70011290D01*
X141219310Y-70044136D01*
G37*
G36*
X148839310Y-70044136D02*
G01*
X148994857Y-70108565D01*
X149134846Y-70202103D01*
X149253897Y-70321154D01*
X149347435Y-70461143D01*
X149411864Y-70616690D01*
X149444710Y-70781818D01*
X149444710Y-70950182D01*
X149411864Y-71115310D01*
X149347435Y-71270857D01*
X149253897Y-71410846D01*
X149134846Y-71529897D01*
X148994857Y-71623435D01*
X148839310Y-71687864D01*
X148674182Y-71720710D01*
X148505818Y-71720710D01*
X148340690Y-71687864D01*
X148185143Y-71623435D01*
X148045154Y-71529897D01*
X147926103Y-71410846D01*
X147832565Y-71270857D01*
X147768136Y-71115310D01*
X147735290Y-70950182D01*
X147735290Y-70781818D01*
X147768136Y-70616690D01*
X147832565Y-70461143D01*
X147926103Y-70321154D01*
X148045154Y-70202103D01*
X148185143Y-70108565D01*
X148340690Y-70044136D01*
X148505818Y-70011290D01*
X148674182Y-70011290D01*
X148839310Y-70044136D01*
G37*
G36*
X143759310Y-70044136D02*
G01*
X143914857Y-70108565D01*
X144054846Y-70202103D01*
X144173897Y-70321154D01*
X144267435Y-70461143D01*
X144331864Y-70616690D01*
X144364710Y-70781818D01*
X144364710Y-70950182D01*
X144331864Y-71115310D01*
X144267435Y-71270857D01*
X144173897Y-71410846D01*
X144054846Y-71529897D01*
X143914857Y-71623435D01*
X143759310Y-71687864D01*
X143594182Y-71720710D01*
X143425818Y-71720710D01*
X143260690Y-71687864D01*
X143105143Y-71623435D01*
X142965154Y-71529897D01*
X142846103Y-71410846D01*
X142752565Y-71270857D01*
X142688136Y-71115310D01*
X142655290Y-70950182D01*
X142655290Y-70781818D01*
X142688136Y-70616690D01*
X142752565Y-70461143D01*
X142846103Y-70321154D01*
X142965154Y-70202103D01*
X143105143Y-70108565D01*
X143260690Y-70044136D01*
X143425818Y-70011290D01*
X143594182Y-70011290D01*
X143759310Y-70044136D01*
G37*
M02*
